<?xml version="1.0" encoding="UTF-8"?>
<!DOCTYPE svg PUBLIC "-//W3C//DTD SVG 1.1//EN" "http://www.w3.org/Graphics/SVG/1.1/DTD/svg11.dtd">
<!-- Creator: CorelDRAW 2020 (64 Bit) -->
<svg xmlns="http://www.w3.org/2000/svg" xml:space="preserve" width="2110px" height="600px" version="1.1" style="shape-rendering:geometricPrecision; text-rendering:geometricPrecision; image-rendering:optimizeQuality; fill-rule:evenodd; clip-rule:evenodd"
viewBox="0 0 1467.46 417.2"
 xmlns:xlink="http://www.w3.org/1999/xlink"
 xmlns:xodm="http://www.corel.com/coreldraw/odm/2003">
 <defs>
  <style type="text/css">
   <![CDATA[
    .fil1 {fill:#94288B}
    .fil3 {fill:#FEE401}
    .fil2 {fill:#FFC40C}
    .fil0 {fill:white}
   ]]>
  </style>
 </defs>
 <g id="Camada_x0020_1">
  <metadata id="CorelCorpID_0Corel-Layer"/>
  <g id="_1787498798208">
   <path class="fil0" d="M421.54 236.7c-3.27,39.81 -21.43,64.39 -41.85,82.9 -20.34,18.44 -54.75,33.28 -93.37,30.9 -67.43,-4.16 -123.54,-60.52 -118.24,-130.33 4.94,-65.07 63.02,-117.13 135,-113.08 37.18,2.1 68.04,20.66 85.03,39 17.89,19.3 36.65,51.26 33.43,90.61zm322.93 -155.47l7.41 -0.15 -0.02 70.28 -7.41 0.04 0.02 -70.17zm207.89 70.36l-7.54 -0.04c0.54,-3.06 22.48,-46.42 25.83,-53.09l6.57 -13.15c0.1,-0.22 1.09,-2.35 1.13,-2.41 1.49,-2.2 -0.31,-0.67 2.06,-1.8 1.37,0.82 1.03,-0.06 2.81,3.9 0.66,1.45 1.33,2.86 2.02,4.29l13.14 26.83c2.76,5.72 16.35,31.73 16.89,35.39l-7.39 0.09 -11.76 -23.16 -32.03 0.02 -11.73 23.13zm-542.92 -29.77c9.92,7.02 19.11,17.31 26.63,26.83 4.42,5.61 7.43,9.82 11.01,16.35 3.39,6.17 5.54,12.82 8.74,18.64 10.12,0.9 123.74,0.15 137.2,0.15l756.54 0c20.64,0 46.83,-2.61 63.81,5.21 21.05,9.7 24.82,23.78 24.82,44.19 0,23.17 -0.02,46.35 0,69.53 0.01,12.22 -1.68,19.31 -7.71,26.9 -19.25,24.21 -51.95,18.75 -84.43,18.75l-688.47 0c-91.84,0 -184.09,0.86 -275.88,-0.02 0.91,-2.42 2.55,-3.23 4.26,-4.92 23.65,-23.38 45.82,-62.07 50.79,-95.94 4.79,-32.69 -0.54,-71.07 -13.77,-100.5 -2.11,-4.69 -4.37,-9.12 -6.56,-13.12 -2.06,-3.78 -4.62,-8.75 -6.98,-12.05zm-313.58 201.92c-5.78,-1.78 -25,-21.04 -30.48,-28.13 -15.62,-20.21 -27.07,-39.39 -28.67,-69.47 -2.1,-39.48 16,-70.63 41.84,-95.55 1.77,-1.7 8.8,-7.94 11.01,-8.93 -19.53,32.98 -30.37,62.06 -28.69,103.83 1.14,28.26 9.08,54.34 21.9,77.94 4.32,7.94 8.74,13.73 13.09,20.31zm435.43 -243.89c22.75,-4.93 42.8,10.71 46.29,28.45 4.67,23.69 -11.18,40.43 -29.87,44.3 -23.69,4.9 -42.85,-10.72 -46.55,-28.38 -4.95,-23.61 11.67,-40.37 30.13,-44.37zm-181.34 276.42c-24.5,17.33 -62.67,30.94 -101.51,30.58 -40.25,-0.36 -75.59,-13.8 -101.49,-31.75 -59.29,-41.1 -87.67,-114.46 -65.32,-186.23 5.45,-17.52 17.87,-41.17 28.68,-53.53 31.53,-36.07 64.84,-57.37 119.53,-64.52 38.39,-5.02 76.6,4.79 108.97,22.44 13.6,7.41 28.59,19.33 37.83,28.81 5.48,5.62 10.38,11.08 15.3,17.7 3.08,4.14 11.07,15.6 12.75,20.5 -10.03,-9.25 -12.51,-13.83 -25.82,-22.86 -83.13,-56.42 -193.89,-15.92 -221.02,70.79 -12.41,39.67 -5.87,83.86 17.85,117.09 10.57,14.8 22.56,26.41 37.25,36.48 33.19,22.76 78.21,30.54 117.9,20.3 5.08,-1.31 15.46,-5.47 19.1,-5.8zm319.4 -268.48c-0.36,9.81 1.26,58.94 -0.53,63.24 -1.83,0.94 -4.22,0.64 -7.1,0.46l-0.04 -63.68 -16.57 -0.29 0.21 -6.57 40.34 0.07 -0.01 6.68 -16.3 0.09zm217.32 51.57c-4.14,4.65 -9.7,9.77 -18.13,12.13 -25.64,7.17 -54.06,-5.34 -54.07,-35.61 -0.02,-38.19 53.13,-48.49 72.22,-21.68l-5.85 3.88c-6.9,-8.44 -20.62,-15.32 -36.7,-10.39 -29.2,8.96 -28.78,48.46 -0.87,57.33 22.78,7.24 35.29,-8.18 38.26,-9.62l5.14 3.96zm-354.06 -64.13c0.82,-2.64 8.7,-13.45 11.28,-14.69l9.42 0.26c-12.66,11.06 -10.18,14.68 -20.7,14.43zm-532.61 140.4c0,15.65 1.4,32 6.23,46.44 1.7,5.11 3.5,11.69 5.69,16.08l3.51 7.72c0.74,1.59 1.31,2.19 2.09,3.53 0.72,1.23 1.15,2.25 1.89,3.73l8.37 13.39c5.37,7.77 16.65,22.13 22.85,27l7.23 6.81c0.23,0.19 0.54,0.44 0.77,0.63 0.16,0.14 0.61,0.51 0.76,0.65 1.14,0.98 1.5,1.44 2.57,2.34l7.8 6.25c4.38,3.88 7.86,8.53 11.81,12.76l34.93 31.07 20.21 12.78c5.41,3.33 17.79,10.39 23.3,10.39l178.96 0c9.23,0 38.6,-19.51 48.72,-27.09l5.1 -4.03c2.48,-1.94 5.05,-1.2 8.64,-1.19 171.7,0.58 343.41,0 515.12,0l456.87 0c23.27,0 30.78,0.12 50.25,-6.59 6.79,-2.34 13.13,-5.65 18.83,-9.96 4.46,-3.38 9.07,-7.16 12.53,-11.34 9.69,-11.7 12.43,-13.1 12.43,-31.1l0 -125.02c0,-3.81 -1.47,-11.48 -3.06,-13.79 -1.31,-1.9 -2.15,-3.19 -3.39,-5.05 -3.4,-5.1 -7.82,-10.08 -12.78,-13.89l-10.22 -7.34c-1.77,-1.05 -3.05,-2.25 -5.22,-3.2 -17.77,-7.73 -28.99,-10.82 -50.25,-10.82l-329.84 0 0 -50.57c0,-15.58 -2.48,-25.15 -11.12,-35.93 -16,-19.98 -39.83,-16.04 -63.27,-16.04 -9.89,0 -103.27,0.89 -110.71,-0.18 -8.6,-1.23 -19.02,-1.48 -27.84,-0.11 -7.93,1.24 -271.18,0.29 -307.8,0.29 -17.71,0 -35.77,-2.25 -49.94,9.02 -0.83,0.66 -1.05,0.95 -1.89,1.62 -1.12,0.87 -0.86,0.44 -2.02,1.49 -3.75,3.37 -6.99,8.38 -9.54,12.92 -6.96,12.39 -4.68,35.61 -4.68,54.32 -4.4,-2.95 -14.49,-16.74 -21.47,-22.07 -5,-3.81 -8.4,-8.18 -12.11,-13.16 -0.97,-1.29 -1.67,-2.39 -2.74,-3.58 -1.34,-1.48 -1.79,-1.75 -2.98,-3.33 -7.9,-10.51 -18.23,-19.53 -27.9,-28.27 -14.85,-13.43 -35.87,-25.29 -54.22,-33.54l-18.14 -7.12c-17.47,-6.32 -44.91,-11.96 -63.26,-11.85 -2,0.01 -4.37,0.12 -6.33,0.02 -3.15,-0.16 -2.68,-0.8 -5.57,-0.71 -2.46,0.08 -2.36,0.64 -5.62,0.72 -17.59,0.44 -32.97,2.1 -50.42,6.43 -6.08,1.51 -12.93,3.54 -19,5.57 -3.29,1.09 -5.56,2.34 -9.12,3.51 -2.98,0.98 -6.05,2.17 -8.98,3.66 -8.44,4.26 -16.97,7.77 -24.92,12.98l-7.78 4.86c-2.43,1.79 -4.74,2.79 -7.25,4.69 -7.12,5.37 -14.5,10.8 -20.8,17.11 -1.56,1.56 -1.86,1.6 -3.46,2.86 -1.31,1.04 -2.01,1.88 -3.22,3.1l-17.88 20.02c-7.06,7.94 -5.65,9.05 -14.69,16.21l-21.35 22.89c-1.21,1.56 -1.71,2.02 -2.82,3.49 -1.06,1.42 -1.58,2.41 -2.52,3.8l-5.07 7.57c-4.91,8.05 -8.55,16.04 -12.81,24.4 -6.61,13 -11.46,36.33 -11.46,51.75z"/>
   <path class="fil1" d="M1047.96 208.78l24.25 0.15 0.11 89.8 39.24 0.12 -0.25 19.8 -63.71 0.07 0.36 -109.94zm114.5 54.82c3.57,-8.85 7.3,-18.56 10.95,-27.6 1.99,-4.93 8.98,-24.25 11.22,-27.22l27.37 0.07c1.99,2.41 9.69,22.7 11.62,27.52l27.9 69.01c1.34,3.36 4.3,9.82 5.06,13.39l-27.7 -0.02 -9.4 -22.79c-3.19,-1.15 -40.14,-0.76 -44.66,-0.31l-8 23.14 -26.07 -0.19 21.71 -55zm-266.67 -54.7c5.01,-0.38 10.75,-0.11 15.85,-0.12 11.27,-0.03 8.35,-6.04 8.35,39.86 0,20.69 -3.58,44.21 14.22,50.44 8.97,3.14 20.17,1.88 26.83,-2.36 13.15,-8.37 9.6,-36.78 9.6,-55.11 0,-8.46 -0.94,-25.21 0.26,-32.69l23.9 -0.13c1.15,7.82 0.67,72.52 -0.78,80.13 -4.44,23.32 -22.1,32.75 -48.7,32.73 -56.16,-0.05 -49.8,-38.28 -49.8,-72.31 0,-10.14 -1.18,-31.63 0.27,-40.44zm-232.14 -2.13c34.5,-3.67 64.59,20.93 67.41,50.97 1.7,18.07 -3.56,32.23 -14.95,44.56 -33.19,35.9 -102.17,18.86 -107.36,-32.18 -3.6,-35.5 23.7,-60.03 54.9,-63.35zm115.78 2.23c9.55,-1.39 36.61,-0.36 45.44,1.42 37.89,7.64 28.55,47.56 16.77,56.67 -10.5,8.11 -20.37,9.94 -37.58,9.65l-0.24 41.91 -24.58 -0.11 0.19 -109.54zm-282.66 0.02c11.95,-0.77 34.88,-0.8 45.91,1.44 33.77,6.87 32.1,43 15.8,57 -11.52,9.89 -20.29,7.89 -36.88,9.47l-0.4 41.73 -24.42 0.06 -0.01 -109.7zm799.19 1.69c0,-2.21 0.9,-1.93 3.09,-1.93 27.78,0 66.42,-4.85 73.09,22.16 2.41,9.77 0.82,18.75 -4.12,25.64 -8.21,11.46 -15.41,10.21 -19.87,12.43l23.53 37.54c1.58,2.49 6.56,9.84 7.22,12.21l-27.91 0.02c-2.13,-3.93 -5.16,-8.49 -7.58,-12.74l-14.8 -25.19c-1.89,-3.15 -4.95,-10.37 -7.94,-12.07l-0.27 49.72 -20.75 0.21c-2.28,-0.03 -3.69,0.41 -3.69,-1.94l0 -106.06zm-859.89 -62.06c-7.52,-9.52 -16.71,-19.81 -26.63,-26.83 2.36,3.3 4.92,8.27 6.98,12.05 2.19,4 4.45,8.43 6.56,13.12 13.23,29.43 18.56,67.81 13.77,100.5 -4.97,33.87 -27.14,72.56 -50.79,95.94 -1.71,1.69 -3.35,2.5 -4.26,4.92 91.79,0.88 184.04,0.02 275.88,0.02l688.47 0c32.48,0 65.18,5.46 84.43,-18.75 6.03,-7.59 7.72,-14.68 7.71,-26.9 -0.02,-23.18 0,-46.36 0,-69.53 0,-20.41 -3.77,-34.49 -24.82,-44.19 -16.98,-7.82 -43.17,-5.21 -63.81,-5.21l-756.54 0c-13.46,0 -127.08,0.75 -137.2,-0.15 -3.2,-5.82 -5.35,-12.47 -8.74,-18.64 -3.58,-6.53 -6.59,-10.74 -11.01,-16.35z"/>
   <path class="fil1" d="M330.2 173.52c31.8,-5.63 56.84,17.55 61.12,42.9 5.33,31.58 -17.77,56.09 -42.9,60.41 -32.51,5.6 -57.62,-17.14 -62.04,-42.97 -4.86,-28.41 13.82,-55.02 43.82,-60.34zm91.34 63.18c3.22,-39.35 -15.54,-71.31 -33.43,-90.61 -16.99,-18.34 -47.85,-36.9 -85.03,-39 -71.98,-4.05 -130.06,48.01 -135,113.08 -5.3,69.81 50.81,126.17 118.24,130.33 38.62,2.38 73.03,-12.46 93.37,-30.9 20.42,-18.51 38.58,-43.09 41.85,-82.9z"/>
   <path class="fil2" d="M349.95 356.27c-3.64,0.33 -14.02,4.49 -19.1,5.8 -39.69,10.24 -84.71,2.46 -117.9,-20.3 -14.69,-10.07 -26.68,-21.68 -37.25,-36.48 -23.72,-33.23 -30.26,-77.42 -17.85,-117.09 27.13,-86.71 137.89,-127.21 221.02,-70.79 13.31,9.03 15.79,13.61 25.82,22.86 -1.68,-4.9 -9.67,-16.36 -12.75,-20.5 -4.92,-6.62 -9.82,-12.08 -15.3,-17.7 -9.24,-9.48 -24.23,-21.4 -37.83,-28.81 -32.37,-17.65 -70.58,-27.46 -108.97,-22.44 -54.69,7.15 -88,28.45 -119.53,64.52 -10.81,12.36 -23.23,36.01 -28.68,53.53 -22.35,71.77 6.03,145.13 65.32,186.23 25.9,17.95 61.24,31.39 101.49,31.75 38.84,0.36 77.01,-13.25 101.51,-30.58z"/>
   <path class="fil0" d="M330.2 173.52c-30,5.32 -48.68,31.93 -43.82,60.34 4.42,25.83 29.53,48.57 62.04,42.97 25.13,-4.32 48.23,-28.83 42.9,-60.41 -4.28,-25.35 -29.32,-48.53 -61.12,-42.9z"/>
   <path class="fil3" d="M705.52 271.11c-8.05,46.6 -80.95,35.43 -71.13,-15.13 3.26,-16.82 20.02,-32.54 42.73,-28.39 17.89,3.27 32.26,21.16 28.4,43.52zm-41.87 -64.34c-31.2,3.32 -58.5,27.85 -54.9,63.35 5.19,51.04 74.17,68.08 107.36,32.18 11.39,-12.33 16.65,-26.49 14.95,-44.56 -2.82,-30.04 -32.91,-54.64 -67.41,-50.97z"/>
   <path class="fil3" d="M1320.67 226.82c14.28,-0.92 28.12,0.39 28.25,14.8 0.12,14.49 -14.48,14.72 -28.25,13.95l0 -28.75zm-24.71 -16.11l0 106.06c0,2.35 1.41,1.91 3.69,1.94l20.75 -0.21 0.27 -49.72c2.99,1.7 6.05,8.92 7.94,12.07l14.8 25.19c2.42,4.25 5.45,8.81 7.58,12.74l27.91 -0.02c-0.66,-2.37 -5.64,-9.72 -7.22,-12.21l-23.53 -37.54c4.46,-2.22 11.66,-0.97 19.87,-12.43 4.94,-6.89 6.53,-15.87 4.12,-25.64 -6.67,-27.01 -45.31,-22.16 -73.09,-22.16 -2.19,0 -3.09,-0.28 -3.09,1.93z"/>
   <path class="fil3" d="M895.79 208.9c-1.45,8.81 -0.27,30.3 -0.27,40.44 0,34.03 -6.36,72.26 49.8,72.31 26.6,0.02 44.26,-9.41 48.7,-32.73 1.45,-7.61 1.93,-72.31 0.78,-80.13l-23.9 0.13c-1.2,7.48 -0.26,24.23 -0.26,32.69 0,18.33 3.55,46.74 -9.6,55.11 -6.66,4.24 -17.86,5.5 -26.83,2.36 -17.8,-6.23 -14.22,-29.75 -14.22,-50.44 0,-45.9 2.92,-39.89 -8.35,-39.86 -5.1,0.01 -10.84,-0.26 -15.85,0.12z"/>
   <path class="fil3" d="M1182.27 276.93c0.86,-6.59 9.63,-26.98 12.4,-36.55 1.01,-3.49 1.69,-10 3.04,-12.49 1.26,2.95 1.71,8.98 3.08,13.12 1.42,4.27 2.79,7.85 4.21,11.77 2.08,5.76 7.6,18.69 8.4,24.06l-31.13 0.09zm-41.52 41.67l26.07 0.19 8 -23.14c4.52,-0.45 41.47,-0.84 44.66,0.31l9.4 22.79 27.7 0.02c-0.76,-3.57 -3.72,-10.03 -5.06,-13.39l-27.9 -69.01c-1.93,-4.82 -9.63,-25.11 -11.62,-27.52l-27.37 -0.07c-2.24,2.97 -9.23,22.29 -11.22,27.22 -3.65,9.04 -7.38,18.75 -10.95,27.6l-21.71 55z"/>
   <path class="fil3" d="M521.67 226.29c13.36,-1.6 22.7,2.62 22.56,16.03 -0.13,13.11 -9.39,17.28 -22.62,15.91l0.06 -31.94zm-24.89 92.43l24.42 -0.06 0.4 -41.73c16.59,-1.58 25.36,0.42 36.88,-9.47 16.3,-14 17.97,-50.13 -15.8,-57 -11.03,-2.24 -33.96,-2.21 -45.91,-1.44l0.01 109.7z"/>
   <path class="fil3" d="M804.17 226.05c13.6,0.25 22.67,1.85 22.56,16.29 -0.12,14.37 -9.07,15.86 -22.67,16.09l0.11 -32.38zm-24.93 92.49l24.58 0.11 0.24 -41.91c17.21,0.29 27.08,-1.54 37.58,-9.65 11.78,-9.11 21.12,-49.03 -16.77,-56.67 -8.83,-1.78 -35.89,-2.81 -45.44,-1.42l-0.19 109.54z"/>
   <path class="fil1" d="M705.52 271.11c3.86,-22.36 -10.51,-40.25 -28.4,-43.52 -22.71,-4.15 -39.47,11.57 -42.73,28.39 -9.82,50.56 63.08,61.73 71.13,15.13z"/>
   <path class="fil1" d="M95.86 323.74c-4.35,-6.58 -8.77,-12.37 -13.09,-20.31 -12.82,-23.6 -20.76,-49.68 -21.9,-77.94 -1.68,-41.77 9.16,-70.85 28.69,-103.83 -2.21,0.99 -9.24,7.23 -11.01,8.93 -25.84,24.92 -43.94,56.07 -41.84,95.55 1.6,30.08 13.05,49.26 28.67,69.47 5.48,7.09 24.7,26.35 30.48,28.13z"/>
   <polygon class="fil3" points="1047.6,318.72 1111.31,318.65 1111.56,298.85 1072.32,298.73 1072.21,208.93 1047.96,208.78 "/>
   <path class="fil0" d="M570.15 122.21c3.96,-18.57 -9.87,-32.67 -24.39,-35.43 -19.07,-3.63 -33.91,9.06 -37.02,23.44 -8.41,38.82 52.94,51.59 61.41,11.99z"/>
   <path class="fil1" d="M570.15 122.21c-8.47,39.6 -69.82,26.83 -61.41,-11.99 3.11,-14.38 17.95,-27.07 37.02,-23.44 14.52,2.76 28.35,16.86 24.39,35.43zm-38.86 -42.36c-18.46,4 -35.08,20.76 -30.13,44.37 3.7,17.66 22.86,33.28 46.55,28.38 18.69,-3.87 34.54,-20.61 29.87,-44.3 -3.49,-17.74 -23.54,-33.38 -46.29,-28.45z"/>
   <path class="fil1" d="M886.67 139.36l-5.14 -3.96c-2.97,1.44 -15.48,16.86 -38.26,9.62 -27.91,-8.87 -28.33,-48.37 0.87,-57.33 16.08,-4.93 29.8,1.95 36.7,10.39l5.85 -3.88c-19.09,-26.81 -72.24,-16.51 -72.22,21.68 0.01,30.27 28.43,42.78 54.07,35.61 8.43,-2.36 13.99,-7.48 18.13,-12.13z"/>
   <path class="fil1" d="M967.87 121.43c0.85,-2.69 11.08,-23.39 12.66,-24.9l11.97 25 -2.97 0.05 -18.95 0.03 -2.71 -0.18zm-3.78 7.03l32.03 -0.02 11.76 23.16 7.39 -0.09c-0.54,-3.66 -14.13,-29.67 -16.89,-35.39l-13.14 -26.83c-0.69,-1.43 -1.36,-2.84 -2.02,-4.29 -1.78,-3.96 -1.44,-3.08 -2.81,-3.9 -2.37,1.13 -0.57,-0.4 -2.06,1.8 -0.04,0.06 -1.03,2.19 -1.13,2.41l-6.57 13.15c-3.35,6.67 -25.29,50.03 -25.83,53.09l7.54 0.04 11.73 -23.13z"/>
   <path class="fil1" d="M645.11 87.52l16.57 0.29 0.04 63.68c2.88,0.18 5.27,0.48 7.1,-0.46 1.79,-4.3 0.17,-53.43 0.53,-63.24l16.3 -0.09 0.01 -6.68 -40.34 -0.07 -0.21 6.57z"/>
   <path class="fil1" d="M1182.27 276.93l31.13 -0.09c-0.8,-5.37 -6.32,-18.3 -8.4,-24.06 -1.42,-3.92 -2.79,-7.5 -4.21,-11.77 -1.37,-4.14 -1.82,-10.17 -3.08,-13.12 -1.35,2.49 -2.03,9 -3.04,12.49 -2.77,9.57 -11.54,29.96 -12.4,36.55z"/>
   <path class="fil1" d="M1320.67 255.57c13.77,0.77 28.37,0.54 28.25,-13.95 -0.13,-14.41 -13.97,-15.72 -28.25,-14.8l0 28.75z"/>
   <path class="fil1" d="M521.61 258.23c13.23,1.37 22.49,-2.8 22.62,-15.91 0.14,-13.41 -9.2,-17.63 -22.56,-16.03l-0.06 31.94z"/>
   <path class="fil1" d="M804.06 258.43c13.6,-0.23 22.55,-1.72 22.67,-16.09 0.11,-14.44 -8.96,-16.04 -22.56,-16.29l-0.11 32.38z"/>
   <polygon class="fil1" points="744.45,151.4 751.86,151.36 751.88,81.08 744.47,81.23 "/>
   <path class="fil0" d="M967.87 121.43l2.71 0.18 18.95 -0.03 2.97 -0.05 -11.97 -25c-1.58,1.51 -11.81,22.21 -12.66,24.9z"/>
   <path class="fil1" d="M532.61 75.23c10.52,0.25 8.04,-3.37 20.7,-14.43l-9.42 -0.26c-2.58,1.24 -10.46,12.05 -11.28,14.69z"/>
  </g>
 </g>
</svg>
