<?xml version="1.0" encoding="UTF-8"?>
<!DOCTYPE svg PUBLIC "-//W3C//DTD SVG 1.1//EN" "http://www.w3.org/Graphics/SVG/1.1/DTD/svg11.dtd">
<!-- Creator: CorelDRAW 2020 (64 Bit) -->
<svg xmlns="http://www.w3.org/2000/svg" xml:space="preserve" width="1339px" height="600px" version="1.1" style="shape-rendering:geometricPrecision; text-rendering:geometricPrecision; image-rendering:optimizeQuality; fill-rule:evenodd; clip-rule:evenodd"
viewBox="0 0 549.84 246.4"
 xmlns:xlink="http://www.w3.org/1999/xlink"
 xmlns:xodm="http://www.corel.com/coreldraw/odm/2003">
 <defs>
  <style type="text/css">
   <![CDATA[
    .fil1 {fill:#441443}
    .fil0 {fill:#92288A}
   ]]>
  </style>
 </defs>
 <g id="Camada_x0020_1">
  <metadata id="CorelCorpID_0Corel-Layer"/>
  <g id="_1787859697056">
   <path class="fil0" d="M466.18 131.12c-1.3,0.3 -4.44,-0.73 -6,-1.2l-3.89 -1.12c-1.42,-0.45 -2.89,-0.76 -4.07,-1.39 0,-0.26 -0.03,-0.59 0.03,-0.84 0.01,-0.06 0.03,-0.12 0.04,-0.18l5.19 -6.17c1.42,-1.05 2.14,-0.41 3.26,1.5 0.3,0.51 0.54,0.81 0.9,1.29 0.42,0.56 0.39,0.59 0.7,1.26 0.24,0.5 1.67,2.25 2.46,3.87 1.03,2.08 1.35,1.52 1.38,2.98zm-113.69 -4.58c-2.22,0 -2.86,-3.03 -3.33,-5.4l-0.66 -3.71c-0.43,-3.53 -0.73,-12.74 -0.09,-15.93 0.11,-0.56 0.21,-1.75 0.31,-2.31l1.17 -6.24c0.93,-3.89 3.11,-9.16 5.23,-12.66l1.91 -3.11c0.4,-0.62 0.68,-0.92 1.09,-1.53 1.19,-1.74 4.32,-5.37 5.95,-6.93l2.44 -2.35c1.44,-1.43 5.54,-4.63 7.3,-5.59 1.87,-1.02 6.99,-4.07 8.8,-4.07 0.16,0.69 -0.13,2.83 -0.28,3.65l-0.76 4.04c-0.49,1.97 -0.13,1.75 -0.41,2.86 -0.61,2.46 -1,5.2 -1.83,7.56l-1.86 7.52c-0.26,0.9 -0.53,1.63 -0.7,2.36l-1.52 4.81c-1.42,3.85 -2.66,7.67 -4.33,11.37 -0.39,0.86 -0.72,1.2 -1.03,2.03 -1.41,3.77 -3.44,7.16 -5.28,10.65 -1.49,2.82 -3.87,6.27 -6.02,8.6l-2.02 2.13c-1.23,1.04 -2.48,2.25 -4.08,2.25zm129.15 -35.35c0.96,-1.22 2.5,-3.6 4,-3.52 0.7,1.46 0.41,4.16 0.41,6.14 -0.02,1.39 0.05,1.87 0.22,3.04l0.99 7.52c0.14,0.68 0.2,0.75 0.33,1.41 0.2,0.98 0.35,1.84 0.59,2.69l1.42 4.48c0.96,2.51 2.16,5.28 3.67,7.45l6.59 6.94c6.04,3.58 13.12,2.36 19.16,-0.12 5.2,-2.13 10.38,-5.47 13.85,-9.94l4.76 -6.37c0.93,-1.14 1.44,-2.37 2.22,-3.67l5.71 -11.31 3.68 -9.85c0.11,-0.56 0.06,-0.85 0.12,-1.41 0.25,-2.26 1.02,-3.07 -0.15,-5.37 -1.1,-2.15 -5.4,-2.74 -6.95,-0.63 -0.61,0.84 -1.66,3.38 -2.23,4.53l-8.2 13.84c-1.38,2.03 -4.28,5.06 -4.9,6.01 -0.69,1.03 -1.65,1.86 -2.58,2.66l-1.25 1.15c-0.35,0.32 -0.52,0.5 -0.93,0.82 -1.28,1.01 -2.56,2.24 -4.05,2.93 -6.43,2.98 -6.58,-4.11 -7.01,-8.48 -0.1,-0.96 -0.36,-1.97 -0.41,-3.09 -0.08,-1.88 -0.26,-4.52 -0.42,-6.35l-0.45 -13.07c0,-4.81 -0.44,-8.66 -0.44,-13.31 0,-2.39 -0.14,-4.14 -0.21,-6.55 -0.03,-1.15 -0.21,-1.66 -0.22,-3.06 -0.01,-2.31 -0.49,-4.84 -1.5,-7.01 -1.37,-2.93 -3.55,-4.9 -7.03,-4.78 -1.21,0.04 -1.67,0.39 -2.68,0.81 -0.44,0.18 -0.71,0.23 -1.12,0.41 -2.13,0.92 -3.89,3.25 -5.28,4.97l-3.69 8.31 -0.94 5.84c-1.48,8.6 0.52,5.12 -6.38,10.63l-3.46 2.87c-0.04,0.03 -0.09,0.07 -0.12,0.1l-3.61 2.93c-0.05,0.05 -0.19,0.16 -0.24,0.2 -0.74,0.61 -1.05,0.85 -1.76,1.52l-3.81 3.17c-0.77,0.62 -1.16,0.95 -1.87,1.62 -1.09,1.05 -2.63,2.91 -4.08,1.36 -2.18,-2.35 -3.85,-5.32 -5.45,-8.07l-1.86 -3.38c-0.26,-0.51 -0.36,-0.73 -0.58,-1.17 -1.74,-3.4 -3.03,-6.58 -3.03,-10.5 0,-0.89 -0.09,-2.45 0.03,-3.25 0.21,-1.46 0.93,-3.9 2.06,-4.92 2.24,-2.01 2.91,-0.52 1.99,1.77 -0.86,2.16 -0.31,4.95 0.56,7 0.33,0.78 0.3,0.57 0.62,1.13 0.8,1.39 1.65,2.76 3.07,3.69 0.75,0.48 1.39,0.69 2.17,1.1 2.87,1.51 6.42,0.3 9.11,-1.1l1.67 -0.95c3.36,-2.78 5.13,-6.7 5.13,-11.02 0,-2.6 -0.47,-4.67 -1.49,-6.59 -1.93,-3.64 -3.82,-4.44 -6.64,-6.89 -0.95,-0.82 -2.2,-1.31 -3.36,-1.87 -5.23,-2.52 -11.16,-3.23 -16.88,-2.76 -3.57,0.3 -7.23,1.41 -10.45,2.86 -0.37,0.16 -0.62,0.25 -1.05,0.48 -0.56,0.31 -0.56,0.39 -1.1,0.65 -0.58,0.27 -0.65,0.17 -1.19,0.56 -2.96,2.12 -5.67,4.46 -7.82,7.45 -1.16,1.63 -2.13,3.32 -2.84,5.23 -0.02,0.05 -0.04,0.11 -0.06,0.16 -0.47,1.26 -0.85,2.42 -1.06,3.96 -0.26,1.93 -0.7,3.72 -0.63,6.15 0.07,1.98 0.49,4.07 0.68,6.09 0.21,2.34 1.85,5.81 1.88,7.91 0.03,1.74 -6.87,9.06 -8.13,10.31l-0.44 0.43c-0.34,0.38 -0.12,0.15 -0.39,0.48l-1.42 1.21c-0.88,0.64 -2.03,0.77 -2.81,-0.08 -0.16,-0.17 -0.59,-0.83 -0.72,-1.03 -1.25,-2.01 -2.3,-6.34 -3.1,-8.68 -0.29,-0.88 -0.62,-1.86 -0.8,-2.69l-3.53 -14.8c-0.52,-2.79 -1.39,-5.27 -2.09,-7.95 -0.18,-0.64 -0.14,-0.82 -0.34,-1.4 -1.75,-5.01 -1.07,-4.53 -2.07,-7.97 -0.56,-1.9 -1.46,-3.1 -2.77,-4.22 -0.05,-0.04 -0.19,-0.15 -0.24,-0.19 -0.21,-0.18 -0.3,-0.26 -0.48,-0.4 -1.62,-1.3 -3.77,-2.21 -5.83,-2.68l-1.89 -0.51c-5.4,-1.52 -14.42,-1.44 -19.27,-0.33 -5.09,1.17 -9.77,3.13 -14.09,5.98l-8.9 7.69 -6.8 8.47c-0.31,0.46 -0.35,0.58 -0.7,1.05 -1.43,1.92 -2.49,4.13 -3.6,6.22l-3.95 8.71c-1.34,3.51 -2.52,7.13 -3.39,10.8 -0.19,0.84 -0.27,1.96 -0.5,2.98 -0.71,3.03 -0.8,5.98 -0.97,9.07 -0.06,1.12 -0.33,1.84 -0.21,3.26 0.27,3.1 0.45,6.09 1.1,8.95 0.12,0.53 0.29,0.96 0.36,1.38 0.1,0.6 0.06,0.96 0.18,1.57l1.13 3.89c0.14,0.43 0.36,0.74 0.57,1.17 0.43,0.87 2.08,4.38 1.89,4.88 -0.52,1.34 -3.92,1.54 -5.25,1.54 -1.39,-0.01 -2.7,-0.78 -3.78,-1.46 -1.7,-1.07 -3.08,-2.88 -4.33,-4.4 -3.76,-4.57 -5.41,-9.78 -7.16,-15.31 -0.22,-0.69 -0.12,-0.65 -0.27,-1.48l-1.5 -5.48c-0.22,-0.8 -0.37,-2.1 -0.58,-2.91 -0.24,-0.93 -0.36,-1.74 -0.6,-2.68l-0.7 -2.79c-0.72,-4.5 -1.95,-9.48 -3.73,-13.72 -0.36,-0.86 -0.62,-1.59 -1,-2.5 -0.69,-1.67 -1.51,-3.06 -2.27,-4.5 -0.76,-1.46 -1.9,-2.8 -2.87,-4.11l-1.7 -1.79c-0.63,-0.62 -1.11,-1.11 -1.74,-1.75 -2.65,-2.68 -6.11,-4.48 -9.54,-5.95l-1.26 -0.49c-0.54,-0.2 -0.81,-0.33 -1.32,-0.43 -2.39,-0.48 -4.77,-1.16 -7.57,-1.15 -3.51,0.02 -6.02,0.44 -8.98,1.28 -0.93,0.26 -1.7,0.6 -2.57,0.93 -0.83,0.3 -1.62,0.7 -2.43,1.05l-4.5 2.48c-1.47,0.87 -2.72,1.88 -3.94,3.04 -3.23,3.08 -5.29,5.13 -7.77,8.61l-1.8 2.56c-0.58,0.83 -0.9,1.22 -1.41,2.08 -0.46,0.77 -0.93,1.25 -1.43,2.07l-3.29 5.21c-2.58,3.95 -4.75,8.02 -7.18,12.02l-8.59 15.64c-0.86,1.48 -1.61,3.01 -2.44,4.54l-3.54 6.72c-0.46,0.86 -0.84,1.34 -1.26,2.23 -0.32,0.7 -0.15,0.48 -0.67,1.07l-0.84 0.91c-1.31,1.32 -3.36,1.79 -4.75,0.4 -0.83,-0.82 -0.83,-1.04 -0.94,-2.55 -0.84,-11.36 -0.41,-29.07 -0.41,-41.05l-0.21 -20.52c-0.01,-2.11 -0.46,-4.33 -0.45,-6.53 0.01,-1.17 0,-2.34 0.01,-3.5l-0.63 -9.85c-0.11,-0.95 -0.03,-2.26 -0.03,-3.25 0.01,-1.28 -0.14,-1.99 -0.32,-3.17 -0.59,-3.97 -0.89,-8.2 -1.82,-12.14 -1.96,-8.37 -5.45,-16.97 -12.73,-21.97 -0.75,-0.51 -1.18,-0.97 -2.05,-1.44 -2.74,-1.51 -5.52,-2.95 -8.7,-3.52 -0.61,-0.11 -0.94,-0.09 -1.52,-0.23 -5.05,-1.27 -11.85,-0.65 -16.94,0.58 -0.51,0.13 -0.87,0.14 -1.46,0.28 -0.51,0.12 -0.64,0.23 -1.33,0.42 -0.43,0.11 -0.92,0.22 -1.36,0.39 -0.83,0.31 -1.6,0.6 -2.53,0.96 -3.32,1.32 -8.32,3.89 -11.18,6.06 -1.67,1.25 -3.44,2.35 -5.01,3.72 -0.42,0.38 -0.55,0.4 -0.97,0.78 -0.67,0.59 -1.22,1.02 -1.86,1.63 -2.35,2.24 -4.96,4.18 -7,6.74 -0.55,0.69 -1.12,1.11 -1.73,1.77l-9.56 11.17c-1.54,1.98 -3.26,3.69 -4.77,5.7l-6.08 7.89c-3.45,4.59 -7.13,9.1 -10.37,13.85 -0.53,0.78 -0.9,1.27 -1.51,1.98l-0.98 1.42c-0.18,0.27 -0.17,0.28 -0.35,0.52l-5.18 7.05c-0.14,0.19 -0.05,0.05 -0.19,0.24 -0.03,0.03 -0.07,0.08 -0.1,0.12l-6.26 8.58c-1.93,2.54 -3.58,5.45 -5.54,7.98 -0.03,0.04 -0.07,0.09 -0.1,0.13 -0.03,0.03 -0.06,0.08 -0.09,0.12l-0.93 1.26c-0.02,0.03 -0.07,0.08 -0.1,0.12l-6.13 8.92c-1.25,2.11 -2.89,4.15 -4.26,6.21 -0.5,0.75 -0.87,1.34 -1.4,2.1l-3.48 5.02c-0.29,0.44 -0.37,0.64 -0.66,1.09l-4.2 6.28c-0.53,0.83 -0.8,1.32 -1.38,2.11 -1.46,1.94 -4.57,7.16 -6.01,9.48l-7.4 11.81c-0.36,0.52 -0.44,0.56 -0.71,1.03l-10.38 17.34c-0.32,0.49 -0.35,0.56 -0.64,1.1l-13.08 24.89c-0.39,0.89 -0.72,1.46 -1.14,2.36l-7.9 19.8c-0.31,0.86 -0.67,1.87 -0.87,2.63l-1.52 5.46c-0.58,1.96 -0.74,3.67 -0.98,5.79 -0.34,3 -1.27,5.12 -0.16,9.39l0.74 2.75c0.99,2.7 1.99,4.53 4.46,6.01 3.44,2.07 7.11,2.95 11.35,2.6 0.68,-0.06 2.55,-0.24 3.1,-0.39 1.05,-0.29 1.59,-0.5 2.77,-0.72 1.71,-0.31 3.63,-1.09 5.25,-1.74 1.48,-0.6 3.19,-1.3 4.51,-2.25 1.8,-1.28 4.27,-3.12 5.55,-4.92 0.48,-0.67 0.85,-1.41 1.35,-2.15 0.57,-0.83 0.78,-1.43 1.25,-2.24 0.25,-0.42 0.46,-0.74 0.61,-1.13l4.42 -11.07c1.25,-3.77 3.42,-8.46 4.89,-12.36 0.23,-0.62 0.36,-0.82 0.51,-1.23l2.41 -6.32c0.86,-2.56 3.09,-7.5 4.14,-9.83l2.58 -5.93c0.24,-0.47 0.36,-0.77 0.53,-1.21 0.95,-2.44 2.18,-4.77 3.41,-7.07 0.38,-0.72 0.17,-0.61 0.43,-1.32 0.11,-0.3 0.39,-0.78 0.57,-1.17 1.44,-3.03 2.79,-6.31 4.42,-9.32 1.08,-1.99 1.76,-4.04 2.81,-5.93 0.3,-0.55 0.44,-0.6 0.68,-1.07l11.39 -23.3c0.19,-0.4 0.3,-0.7 0.48,-1.05l2.42 -4.56c0.24,-0.4 0.45,-0.74 0.63,-1.12 0.9,-1.85 2.39,-5.32 3.62,-6.85 0.56,-0.71 0.67,-1.49 1.15,-2.34l11.27 -20.15c0.81,-1.59 1.74,-2.79 2.53,-4.24l11.9 -19.31c0.51,-0.76 0.97,-1.32 1.42,-2.07 1.27,-2.13 7.04,-10.47 8.58,-12.15 1.17,-1.29 3.55,-4.79 5.64,-7.02l4.48 -5.33c2.05,-2.9 7.58,-8.59 10.48,-10.47 0.05,-0.04 0.21,-0.14 0.26,-0.18l1.82 -1.23c0.36,-0.2 0.76,-0.42 1.13,-0.61 2.47,-1.29 5.51,-2.01 8.18,-0.72 0.28,0.14 0.18,0.05 0.55,0.32l1.35 1.27c2.52,2.95 2.27,7.79 2.27,11.69 0,9.24 0.22,18.09 0.22,27.5 0,9.47 0.45,17.83 0.44,27.28l0.21 10.26c-0.01,2.24 0.45,4.35 0.45,6.53 0.01,3.45 -0.2,6.74 0.27,10.2 0.26,1.94 0.18,4.21 0.41,6.36 0.09,0.84 0.31,2.23 0.39,3.11 0.47,5.68 1.73,11.42 4.12,16.6l1.67 3.57c1.04,1.96 2.51,3.77 3.92,5.46 3.93,4.69 10.55,6.9 16.71,6.87 2.3,-0.02 4.6,-0.06 6.53,-0.46 0.95,-0.2 1.94,-0.25 2.97,-0.52 2.75,-0.7 5.14,-1.68 7.74,-2.52 5.83,-1.88 12.37,-6.91 16.95,-10.76 1.87,-1.56 3.75,-3.28 5.33,-5.15l0.8 -0.94c3.17,-3.46 3.63,-4.45 5.86,-7.01l0.4 -0.48c0.31,-0.41 0.39,-0.62 0.68,-1.06l2.89 -4.1c1.85,-2.72 3.53,-5.82 5.47,-8.5l4.95 -8.79c0.51,-0.85 0.8,-1.4 1.21,-2.29l12.35 -22.56c1.04,-1.79 3.98,-9 6.38,-4.73 0.67,1.18 0.98,2.53 1.43,3.82 0.19,0.55 0.29,0.66 0.45,1.29 1.17,4.55 4.18,11.97 6.24,16.24 0.2,0.42 0.41,0.79 0.61,1.13 1.91,3.29 3.36,6.78 5.65,9.84 0.37,0.49 0.38,0.37 0.76,0.99 1.1,1.78 2.41,3.35 3.84,4.89l0.42 0.46c0.17,0.19 0.23,0.26 0.41,0.45l3.23 2.88c0.25,0.21 0.25,0.21 0.47,0.41 3.86,3.36 8.8,5.61 13.62,7.11 1.76,0.54 3.74,1.26 5.65,1.33 3.75,0.14 5.41,0.82 9.59,0.21 1.96,-0.29 4.13,-0.34 6.02,-0.97l5.58 -1.4c1.69,-0.42 3.9,-1.42 5.65,-1.35 1.1,0.05 2,0.49 2.9,0.62 2.14,0.3 3.81,0.49 5.99,0.21 1.99,-0.26 3.86,-0.75 5.51,-1.47 1.92,-0.85 3.84,-1.86 5.52,-3.21 2.65,-2.11 3.04,-2.81 5.13,-5.13 0.33,-0.37 0.54,-0.48 0.83,-0.91l2.05 -3.19c0.8,-1.12 3.38,-5.08 4,-6.48 1.04,-2.37 2.52,-4.62 3.4,-7.07 0.17,-0.48 0.24,-0.87 0.43,-1.32 0.68,-1.63 1.37,-3.42 1.96,-5.02l3.45 -9.2c0.2,-0.47 0,-0.43 0.51,-0.8 1.11,0.29 1.38,2.59 1.86,3.6l2.82 5.25c0.41,0.67 0.63,1.13 1.09,1.75 0.47,0.64 0.73,1 1.17,1.67 0.54,0.82 0.67,0.85 1.3,1.53 3.34,3.57 5.12,4.91 10.18,6.4 3.94,1.16 8.06,-0.08 11.63,-1.72 0.9,-0.42 0.97,-0.59 1.72,-1.11l3.17 -2.29c0.98,-0.7 1.78,-1.74 2.72,-2.52 0.05,-0.04 0.19,-0.16 0.23,-0.2 0.54,-0.46 0.86,-0.79 1.34,-1.28l7.6 -9.21c0.45,-0.67 0.92,-1.8 1.88,-1.26 1.61,0.9 3.85,3.55 5.27,4.76l3.9 3.96c0.27,0.27 0.39,0.39 0.65,0.66 0.65,0.7 0.12,0.44 0.83,0.7 0,1.1 -0.12,1.32 -0.62,2l-2.26 2.98c-0.44,0.66 -0.77,0.97 -1.24,1.6l-3.8 5.58c-1.62,2.65 -2.98,6.24 -2.69,9.36 0.15,1.54 0.25,3.43 0.86,4.6 0.32,0.62 0.52,1.17 0.84,1.77 0.36,0.66 0.67,1.14 1.11,1.73 2.23,2.95 4.14,4.92 8.93,7.22l7.7 2.99c4.24,1.34 10.12,2.33 14.44,1.33 3.32,-0.77 6.36,-2.19 8.52,-4.78 2.23,-2.66 3.63,-6.01 4.02,-9.52 0.16,-1.45 0.32,-3.47 0.18,-5.24 -0.24,-3.16 -1.17,-5.96 -2.04,-8.87l-3.73 -9.58c-1.17,-2.65 -3.33,-4.73 -1.65,-7.55 0.15,-0.24 0.36,-0.58 0.48,-0.82 0.21,-0.4 0.25,-0.6 0.5,-1.04 2.19,-3.87 6.66,-7.91 7.29,-9.03z"/>
   <path class="fil0" d="M310.81 196.37c-0.97,-0.65 -1.07,-1.74 -1.49,-3.96l-3.75 -13.5c-0.99,-3.08 0.1,-4.36 -4.14,-4.36 -2.75,0 -1.55,2.69 -1.25,3.65 2.27,7.18 4.29,14.92 6.59,22.21l1.22 2.98c0.15,0.18 -0.03,0.05 0.33,0.32 0.88,0.66 2.41,0.51 3.58,0.51 2.35,0 2.29,-3.71 3.38,-7.09l2.14 -8.56c0.11,-0.46 0.26,-0.82 0.41,-1.33 0.28,-0.97 0.03,-2.33 1.27,-4.18 1.23,0.82 0.88,2.6 1.81,5.61l3.18 11.88c0.67,1.62 0.33,1.91 1.06,2.65 1.09,1.11 3.19,1.38 4.74,0.46 0.81,-0.48 0.94,-1.73 1.54,-3.48 0.93,-2.72 1.09,-2.69 1.67,-5.31l0.25 -0.63c0.02,-0.04 0.06,-0.09 0.08,-0.13l4.74 -14.9c0.39,-1.23 1.01,-2.83 1.01,-4.23 -1.47,-0.39 0.66,-0.43 -2.84,-0.43 -1.07,0 -1.87,0.71 -2.19,1.51l-3.03 9.85c-0.14,0.61 -0.19,0.97 -0.37,1.59 -0.31,1.05 -0.55,1.81 -0.86,2.85 -0.32,1.11 -0.51,1.7 -0.84,2.87 -0.31,1.12 -0.46,2.15 -1.22,2.71 -0.37,-0.7 -0.76,-1.78 -0.99,-2.71 -0.57,-2.29 -2.06,-8.83 -2.66,-10.44 -0.31,-0.83 -0.2,-0.62 -0.34,-1.62l-1.66 -5.77c-0.59,-0.86 -5.08,-2.65 -6.02,1.45l-1.92 7.43c-0.01,0.06 -0.02,0.12 -0.04,0.18 -0.19,0.65 -0.37,0.71 -0.49,1.29l-2.9 10.63z"/>
   <path class="fil0" d="M508.95 22.88c0,-4.4 -0.3,-5.24 -2.46,-8.88 -1.39,-2.35 -4.67,-3.34 -7.35,-3.34 -1.49,0 -2.46,0.37 -3.7,0.67 -1.3,0.32 -3.44,1.89 -4.1,2.67 -0.28,0.32 -0.23,0.32 -0.47,0.62 -0.89,1.12 -1.62,2.42 -1.98,3.91 -0.58,2.39 -0.86,5.38 -0.28,7.89 0.66,2.85 -0.02,0.73 1.08,3.51 1.16,2.92 3.77,5.55 6.67,6.86 1.16,0.53 2.76,0.38 3.87,0.3 2.19,-0.17 4.27,-2.08 5.49,-3.7l1.64 -2.94c1.1,-2.35 1.59,-4.21 1.59,-7.57z"/>
   <path class="fil0" d="M384.79 200.95c-1.17,0 -3.13,-0.8 -3.97,-1.27 -1.42,-0.8 -1.71,-1.4 -1.71,-3.53 0,-0.86 0.07,-1.89 0.53,-2.53l0.54 -0.55c1.22,-1.11 2.17,-1.32 4.13,-1.54 0.58,-0.07 1.5,-0.23 2.03,-0.38 0.83,-0.22 1.31,-0.19 2.26,-0.36 0.8,-0.14 1.19,-0.27 1.96,-0.44 3.47,-0.77 3.39,-1.55 3.39,2.53l-0.49 2.56c-0.96,2.55 -2.5,3.72 -5.03,4.79l-3.64 0.72zm-10.26 -18.55c0,0.89 1.93,0.96 2.69,1.05 1.6,0.17 2.12,-0.63 3.09,-2.26 0.46,-0.79 0.46,-0.98 1.24,-1.59 2.9,-2.21 8.67,-1.9 11.08,0.2 1.61,1.4 1.32,3.14 1.32,5 0,0.14 0.24,0.47 -0.82,0.93l-8.21 1.38c-2.93,0.4 -5.56,0.56 -8.33,2.8 -1.25,1.02 -2.13,2.2 -2.66,3.67 -0.53,1.46 -0.6,5.36 0.95,7.24 0.03,0.04 0.07,0.08 0.1,0.12l0.2 0.23c3.08,3.62 7.96,4 12.45,3.06l2.29 -0.77c1.39,-0.41 3.25,-2.29 4.03,-2.29 1.76,0 -0.52,3.05 4.37,3.05 2.97,0 1.06,-3.06 1.09,-5.67 0.02,-1.79 -0.22,-3.04 -0.22,-5.02 0,-2.84 0.29,-7.84 -0.06,-10.41 -0.27,-1.98 0.08,-2.69 -0.9,-4.34 -0.98,-1.64 -1.06,-1.61 -2.47,-2.76l-3.6 -1.64c-4.1,-0.72 -7.05,-0.74 -10.8,0.67 -3.52,1.32 -1.18,0.32 -3.08,1.71 -1.82,1.33 -3.75,3.69 -3.75,5.64z"/>
   <path class="fil0" d="M362.53 186.55l-13.97 0c-2.14,0 -0.33,-6.21 4.03,-7.76 2.79,-0.98 5.45,-1.09 7.9,0.71 1.05,0.77 1.93,1.92 2.4,3.2 0.39,1.04 0.73,1.85 0.73,3.19 -0.45,0.3 -0.57,0.66 -1.09,0.66zm-20.51 0.43c0,4.79 -0.34,5.48 1.25,9.67 0.3,0.78 0.65,1.55 1.13,2.13 0.27,0.33 0.09,0.06 0.32,0.34l0.71 1.04c0.34,0.44 0.06,0.1 0.41,0.46 1,1.01 0.83,0.55 1.61,1.22 0.57,0.49 1.06,1.24 2.14,1.58 0.6,0.19 0.77,0.07 1.3,0.22 1.06,0.32 -0.47,0.11 2.47,0.81 1.4,0.32 4.14,0.37 5.49,0.02l3.46 -1.12 3.56 -2.56c1.58,-1.52 5.25,-6.17 -0.5,-6.17 -0.75,0 -1.09,0.1 -1.63,0.56 -0.48,0.42 -0.47,0.6 -0.82,1.14 -0.43,0.69 -1.05,1.85 -1.54,2.39 -1.45,1.61 -4.05,1.87 -6.27,1.82l-2.63 -0.6c-0.05,-0.02 -0.11,-0.04 -0.15,-0.06 -0.05,-0.02 -0.11,-0.04 -0.16,-0.06 -1.45,-0.67 -3.35,-2.66 -3.94,-4.41 -1.41,-4.14 -0.91,-2.61 -0.76,-4.49 0.99,-0.02 0.87,-0.22 1.97,-0.22 3.29,0 14.58,-0.17 17.09,0.17 1.2,0.16 1.19,-0.09 2.11,-0.17 0.59,-2.52 0.43,-0.58 0.27,-3.08l-0.01 -1.32c-0.11,-2.19 -0.62,-3.49 -1.56,-5.42 -0.94,-1.91 -1.22,-1.99 -2.51,-3.17 -0.03,-0.03 -0.08,-0.07 -0.11,-0.1l-0.65 -0.67c-0.86,-0.74 -2.47,-1.44 -3.41,-2.04 -0.56,-0.35 -0.6,-0.38 -1.24,-0.51 -3.92,-0.8 -2.9,-0.49 -6.12,-0.11 -1.6,0.18 -0.85,-0.18 -2.11,0.5 -0.04,0.03 -0.09,0.06 -0.14,0.08 -2.15,1.08 -1.39,-0.2 -4.72,2.7 -0.75,0.65 -1.15,1.38 -1.9,2.25 -0.01,0.01 -0.39,0.47 -0.39,0.48 -0.32,0.51 -0.29,0.68 -0.51,1.23 -0.48,1.23 -1.51,3.87 -1.51,5.47z"/>
   <path class="fil0" d="M290.95 186.33c-2.17,0.51 -12.09,0.22 -15.05,0.22 -1.98,0 -0.48,-5.35 3.15,-7.32 2.25,-1.22 2.37,-0.98 4.92,-0.98 1.49,0 2.45,0.45 3.54,1.05l1.69 1.37c1.28,1.46 2.02,3.62 1.75,5.66zm-8.94 18.33c3.49,0 3.19,0.22 6.71,-0.93 1.54,-0.5 1.39,-0.29 3.02,-1.56 1.12,-0.88 4.23,-4.56 4.23,-5.15 0,-1.54 0.24,-2.4 -3.49,-2.4 -1.11,0 -1.43,0.64 -1.87,1.4 -0.46,0.77 -0.83,1.47 -1.34,2.16 -0.93,1.29 -3.03,2.33 -4.64,2.33 -3.17,0 -5.12,-0.03 -7.59,-2.88 -1.45,-1.66 -2.55,-4.42 -2.02,-6.72 2.21,-0.51 13.27,-0.22 16.37,-0.22 1.38,0 5.24,0.89 5.24,-1.09 0,-2.09 -0.52,-6.29 -1.4,-7.98 -0.09,-0.18 -0.35,-0.66 -0.46,-0.85 -0.22,-0.36 -0.33,-0.47 -0.54,-0.77 -1.59,-2.25 -2.86,-3.98 -5.68,-5.01 -2.14,-0.79 -4.26,-1.23 -6.55,-0.89 -0.82,0.12 -1.47,0.14 -2.34,0.28 -0.99,0.17 -2.72,1.1 -3.63,1.64 -0.49,0.28 -0.35,0.2 -0.75,0.52 -0.02,0.01 -0.29,0.24 -0.36,0.3 -0.03,0.03 -0.08,0.07 -0.12,0.1 -0.03,0.03 -0.08,0.07 -0.11,0.1l-0.67 0.65c-0.03,0.03 -0.08,0.07 -0.11,0.1 -0.29,0.28 -0.49,0.43 -0.8,0.73 -0.49,0.48 -0.77,0.92 -1.17,1.46 -1.03,1.4 -1.46,3.4 -1.85,4.69 -0.65,2.15 -1.06,7 -0.24,9.24 0.98,2.72 0.24,1.57 1.97,4.79 0.93,1.73 2.2,2.48 3.52,3.47 1.65,1.23 4.6,2.49 6.67,2.49z"/>
   <path class="fil0" d="M215.01 185.68c0,-2.99 3.42,-7.64 7.42,-7.64 2.63,0 4.64,0.57 6.14,1.94 0.03,0.03 0.07,0.07 0.11,0.11 0.73,0.73 1.37,1.46 1.78,2.36 0.51,1.13 1.05,4.1 -0.17,4.1l-14.18 0c-0.46,0 -1.1,-0.64 -1.1,-0.87zm-5.45 3.27c0,3.72 0.83,8.44 3.43,11.19l3.61 2.93 2.31 0.96c2.75,0.87 4.2,0.63 7.02,0.63 0.48,0 0.29,-0.16 1.67,-0.5 0.81,-0.2 2.68,-0.81 3.4,-1.41 3.42,-2.87 1.61,-0.61 4.5,-4.88 2.49,-3.65 -3.61,-3.57 -4.28,-2.75 -0.57,0.69 0.09,0.26 -0.83,1.57l-1.43 1.84c-2.26,2.16 -3.16,1.98 -6.31,1.98 -1.01,0 -2.38,-0.38 -3.31,-0.83 -2.44,-1.19 -4.54,-5.21 -4.54,-8.11 0,-1.35 3.22,-0.88 4.58,-0.88l16.58 0c0.76,-1.13 0.93,-0.84 0.73,-2.45 -0.49,-3.87 -0.2,-5.18 -2.63,-8.74 -0.28,-0.41 -0.1,-0.16 -0.37,-0.5 -0.34,-0.41 -0.47,-0.55 -0.83,-0.92 -1.59,-1.59 -4.67,-3.75 -6.93,-3.75 -3.35,0 -4.3,-0.31 -7.04,0.6 -2.37,0.78 -5.49,2.65 -6.69,4.88 -0.21,0.4 -0.38,0.68 -0.61,1.13 -1.17,2.34 -2.03,5.28 -2.03,8.01z"/>
   <path class="fil0" d="M242.51 212.08c0,3.41 0.15,3.71 4.36,3.71 1.14,0 3.22,-1.17 4.17,-2.16 0.03,-0.04 0.07,-0.09 0.1,-0.12 0.03,-0.03 0.07,-0.08 0.1,-0.12 2.08,-2.39 1.24,-1.44 2.38,-3.73 1.49,-2.98 3.48,-8.56 4.74,-12.07l0.89 -2.81c0.17,-0.48 0.36,-0.71 0.58,-1.17l3.65 -9.44c0.16,-0.45 0.17,-0.87 0.36,-1.39 1.75,-5.03 4.4,-8.23 0.06,-8.23 -1.61,0 -2.08,0.41 -2.47,1.68l-3.33 9.1c-0.33,0.64 -0.35,0.7 -0.55,1.42 -0.21,0.74 -0.35,0.94 -0.61,1.57l-2.21 6.08c-0.45,1.59 -0.39,2.53 -1.53,2.62l-3.56 -10.4c-0.11,-0.49 -0.35,-1.08 -0.6,-1.58l-3.16 -8.84c-0.86,-2.4 -6.51,-2.64 -4.8,1.3l1.01 2.7c0.2,0.44 0.09,0.05 0.29,0.58l5.24 13.75c0.64,1.55 0.45,1.58 1.45,3.79 0.33,0.73 0.24,0.56 0.49,1.48 0.8,2.99 2.42,3.45 -0.12,8.96 -0.3,0.65 -0.6,0.87 -1.3,1.53 -2.42,2.26 -5.63,0.16 -5.63,1.79z"/>
   <path class="fil0" d="M411.63 177.82c-1.06,-2 0.6,-3.27 -3.06,-3.27 -0.55,0 -1.56,0.87 -1.69,1.35 -0.14,0.52 -0.03,2.36 -0.04,3.02 -0.02,1.24 -0.24,1.51 -0.24,2.82 0,3.66 -0.22,20.32 0.22,21.4 0.36,0.89 1.33,1.08 2.41,1.08 1.18,0 1.64,-0.47 2.4,-0.87 0,-2.43 0.22,-4.36 0.22,-6.98 0,-4.7 -0.42,-9.65 0.89,-13.51 1.8,-5.3 6.76,-3.08 7.62,-3.08 1.79,0 1.74,-2.94 1.74,-3.92 0,-0.55 -0.18,-0.49 -0.51,-0.78l-0.24 -0.18c-1.3,-0.98 -2.91,-1.01 -4.48,-1.01 -0.94,0 0.09,-0.01 -0.78,0.31 -1.83,0.68 -2.05,0.94 -3.21,2.47 -0.54,0.72 -0.54,0.67 -1.25,1.15z"/>
   <path class="fil1" d="M481.64 91.19c1.67,-0.59 1.05,-1.97 3.75,-1.97 0,0.89 0.23,3.93 0.66,4.59 0,-1.98 0.29,-4.68 -0.41,-6.14 -1.5,-0.08 -3.04,2.3 -4,3.52z"/>
  </g>
 </g>
</svg>
