<?xml version="1.0" encoding="UTF-8"?>
<!DOCTYPE svg PUBLIC "-//W3C//DTD SVG 1.1//EN" "http://www.w3.org/Graphics/SVG/1.1/DTD/svg11.dtd">
<!-- Creator: CorelDRAW 2020 (64 Bit) -->
<svg xmlns="http://www.w3.org/2000/svg" xml:space="preserve" width="2176px" height="600px" version="1.1" style="shape-rendering:geometricPrecision; text-rendering:geometricPrecision; image-rendering:optimizeQuality; fill-rule:evenodd; clip-rule:evenodd"
viewBox="0 0 7751.64 2135.82"
 xmlns:xlink="http://www.w3.org/1999/xlink"
 xmlns:xodm="http://www.corel.com/coreldraw/odm/2003">
 <defs>
  <style type="text/css">
   <![CDATA[
    .fil3 {fill:#732B6B}
    .fil0 {fill:#93298A}
    .fil4 {fill:#A17C16}
    .fil2 {fill:#D9B428}
    .fil1 {fill:#FCC302}
   ]]>
  </style>
 </defs>
 <g id="Camada_x0020_1">
  <metadata id="CorelCorpID_0Corel-Layer"/>
  <g id="_1787852865856">
   <path class="fil0" d="M4051.48 1145.58c-10.59,5.62 -6.45,3.4 -17.35,0.3l-79.87 -25.05c-45.2,-8.93 -56.7,-10.89 -17.71,-51.34 16.83,-17.47 13.92,-25.03 39.89,-40.01l17.92 8.77c1.11,21 4.56,16.81 14.32,29 14.59,18.23 -0.26,9.75 27.96,37.26 12.35,12.03 23.98,26.05 14.84,41.07zm-766.1 -459.87c-3.18,20.03 -10.1,34.46 -13.3,50.83 -3.14,16.04 -2.87,12.26 -7.27,23.47 -5.49,13.98 1.02,10.77 -9.32,19.26 -0.79,14.38 0.94,11.56 -6.37,19.25l-5.55 16.69c-4.84,20.95 -12.29,33.04 -17.84,52.35l-49.43 105.68c-5.42,16.9 -74.72,109.99 -100.86,123.22 -38.18,25.48 -47.64,-20.31 -53.66,-51.26 -4.05,-20.82 -7.29,-26.77 -7.43,-52.11 -0.31,-55.74 -3.41,-116.81 10,-166.82 6.63,-24.73 16.21,-75.49 30.33,-87.47 2.63,-26.8 -0.53,-16.05 11.89,-31.69 6.39,-8.03 9.15,-14.85 13.55,-25.77 7.36,-18.25 21.52,-30.41 34.63,-43.93 0,-6.37 -1.77,-5.07 4.05,-5.07l1.61 -2.09 8.77 -9.18 2.62 -3.41 14.12 -15.49 6.42 -5.92 0.85 -10.8c29.27,-12.19 22.8,-24.9 54.1,-40.88 5.57,-2.84 0.71,0.17 6.82,-3.39 0.66,-0.38 1.45,-0.9 2.09,-1.31l50.24 -30.13c12.52,-7.45 23.7,-16.4 43.74,-20.11 5.2,5.12 2.68,3.4 9.7,5.26l-34.5 190.82zm-73.19 417.23c4.16,-12.67 14.01,-23.27 20.61,-36.02 19.85,-38.35 57.01,-101.52 67.5,-139.81 2.29,-8.37 0.82,-12.66 4.52,-21.18 4.59,-10.6 5.34,-4.94 9.69,-16.39 5.42,-14.27 12.04,-69.63 31.25,-64.75 12.51,8.6 15.41,30.28 23.11,44.9 6.83,12.96 17.3,31.74 24,43.86 24.44,44.24 61.3,68.92 63.49,72.96 47.14,28.26 91.77,31.46 143.88,5.44l41.65 -29.5c0.49,-0.45 1.21,-1.08 1.71,-1.53l10.25 -9.15c34.37,-33.16 44.19,-43.15 74.57,-80.68 6.12,-7.57 23.06,-32.29 31.33,-33.36 12.37,-1.6 67.27,57.89 83.42,71.83 2.38,2.05 1.34,1.51 5.38,4.31 4.91,3.42 1.7,2.36 8.22,4.72l0 22.63c-9.29,3.37 -4.19,0.83 -12.35,10.29 -117.37,136.12 -110.85,248.45 80.68,312.75 60.26,20.23 136.58,32.11 190.05,-9.68 6.75,-5.27 5.76,-4.6 12.1,-10.53 23.68,-22.13 32.15,-51.55 40.51,-82.39 14.45,-53.22 -14.05,-123.33 -26.76,-161.82 -28.64,-86.74 -79.58,-82.46 17.37,-187.18 4.55,-4.92 6.29,-6.27 10.95,-11.69l11.82 -14.06c8.1,-9.11 13.44,-19.11 28.17,-20.34 0,26.9 5.83,55.25 6.4,84.17l13.82 79.97c12.98,55.55 22.67,73.43 47.55,114.18 3.61,5.91 4.98,10.76 9.29,16.58l24.62 23.89c73.48,61.95 162.37,44.92 237.28,-5.71 29.85,-20.17 27.69,-15.84 56.07,-44.19 3.02,-3.02 3.35,-2.98 6.43,-6.51l32.45 -38.71c32.73,-41.95 32.32,-49.86 53.85,-85.22 20.24,-33.24 28.57,-61.73 44.28,-94.8 11.61,-24.47 32.15,-84.95 26.41,-110.44 -2.84,-12.6 -13.6,-22.23 -23.14,-25.46 -31.11,-10.56 -56.24,17.57 -50.52,37.27l-44.82 84.19c-9.46,9.82 -8.76,10.69 -16.24,22.82 -24.17,39.22 -9.02,15.13 -34.09,46.67 -13.76,17.3 -21.45,28.89 -38.16,42.12 -13.1,10.38 -58.85,68.86 -95.27,64.93 -38.37,-4.15 -37.11,-62.1 -38.57,-82.94 -1.39,-19.87 -4.99,-11.99 -6.1,-32.07 -1.59,-28.95 -6.78,-51.82 -6.42,-77.75 0.37,-26.16 1.33,-55.16 0.42,-81.04l-6.81 -155.11c0.33,-46.25 4.63,-69.76 -12.99,-111.04l-17.31 -22.18c-18.22,-15.21 -35.74,-20.19 -62.88,-6.5 -45.86,23.14 -22.07,24.98 -47.33,35.93 -21.1,8.22 -39.04,78.65 -43.91,101.91 -6.88,32.8 -0.98,71.4 -23.93,89.28 -8.32,6.48 -12.12,11.25 -20.81,17.99 -3.9,3.04 -5.26,3.71 -9.28,6.9l-54.1 42.93c-24.82,19.34 -76.27,71.46 -99.72,81.41 -2.29,0.97 -0.81,1.05 -6.99,2.7 -38.73,-25.93 -86.48,-140.76 -93.8,-150.32 -16.61,-19.36 -15.27,-69 -11.4,-89.93 12.23,-66.21 50.02,-54.08 52.19,-43.03 3.46,17.68 1.13,-16.54 0.69,4.87 -0.2,9.59 -7.26,14.92 -10.13,21.93 -8.77,21.46 6.5,78.19 33.61,91.96 16.92,8.59 50.55,20.9 72.58,11.76 57.57,-23.88 46.8,-28.51 68.91,-64.67 14.44,-23.61 10.68,-80.71 -8.23,-106.92 -57.03,-79.12 -155.33,-102.35 -251.1,-85.2 -10.99,1.96 -10.47,0.44 -19.2,4.48 -11.02,5.11 3.66,2.11 -15.02,6.44 -5.83,1.35 -12.48,2.17 -19.8,4 -18.21,4.57 -52.17,30.24 -64.96,41.67l-40.99 46.41c-7.86,15.93 -21.72,41.05 -26.15,60.79 -14.74,65.67 -3.78,99.02 5.71,155.21l-2.81 1.37c33.74,27.17 -17.16,70.79 -23.9,79.43 -3.54,4.55 -3.73,5.76 -7.57,10.46 -7.09,8.68 -14.21,15.19 -21.58,23.84 -11,12.92 -28.28,44.6 -52.9,33.3 -15.55,-7.13 -28.72,-48.41 -32.81,-64.31 5.11,-14.61 -3.57,-32.41 -7.91,-47.39l-61.52 -239.28c-10.6,-32.68 -12.54,-67.8 -37.51,-85.39 -11.8,-8.31 -21.39,-15.69 -38.2,-20.02 -16.11,-4.15 -29.47,-9.82 -47.81,-13.64 -11.53,-2.39 -15.56,-1.04 -27.16,-1.94 -35.29,-2.76 1.8,-10.48 -84.33,-3.2 -54.45,4.61 -110.74,25.44 -155.82,54.42 -7.64,4.91 -12.35,6.89 -20.13,12.21l-39.05 32.1c-6.05,6.1 -2.68,3.11 -7.51,8.67 -6.49,7.49 -10.94,9.55 -16.88,15.45 -9.66,9.58 -18.36,22.46 -28.14,33.32 -8.93,9.9 -18.22,23.91 -25.69,35.76l-27.64 43.52c-1.88,3.21 -4.54,7.14 -6.17,10 -69.25,121.78 -107.11,279.67 -73.32,417.08 8.04,32.72 11.25,39.17 23.53,67.03 5.48,12.45 4.97,10.95 4.97,27.37 -16.68,4.45 -28.29,18.27 -63.74,2.29 -36.73,-16.55 -58.32,-52.31 -75.38,-86.34l-34.66 -88.24c-3.66,-13.79 -4.85,-19.79 -8.77,-33.28 -6.15,-21.13 -10.24,-45.56 -14.44,-66.41l-38.15 -146.22c-10.72,-40.37 -37.63,-83.18 -66.12,-115 -0.53,-0.6 -3.77,-4.12 -4.67,-5.02 -35.76,-35.55 -70.5,-59.71 -120.56,-76.74 -43,-14.62 -97.36,-10.5 -141.91,1.28 -10.73,2.84 -49.54,18.45 -56.78,25.03 -4.82,10.98 0.96,3.34 -8.43,10.51 -12.58,9.61 -41.62,24.16 -62.22,47.11 -10.86,12.1 -21.23,17.82 -31.71,32.83l-52.59 73.78c-12.69,14.03 -13.31,24.29 -22.89,38.76 -4.08,6.16 -9.69,10.65 -14.32,17.93 -5.11,8.03 -5.8,10.71 -10.96,18.02 -7.92,11.23 -15.48,26.34 -23.41,38.27 -7.9,11.9 -4.34,9.6 -9.62,22.6 -4.25,10.5 -13.62,14.68 -25.55,39.43l-12.55 26.49c-0.3,0.79 -0.51,1.71 -0.79,2.51 -6.82,18.78 -6.2,10.28 -14.5,24.14l-71.45 128.41c-9.44,18.93 -31.73,65.92 -45.02,78.15 -10.14,9.32 -32.78,19.19 -46.97,6.84 -22.71,-19.76 -14.64,-141.8 -14.43,-172.38 1.62,-230.06 1.96,-494.6 -29.31,-721.25 4.31,-12.69 -0.75,-19.51 -3.92,-32.05 -7,-27.66 -18.56,-60.87 -33.97,-85.72l-32.9 -44.71c-19.97,-21.64 -41.2,-39.58 -68.04,-51.64 -78.93,-35.47 -149.36,-40.86 -235.9,-17.89 -34.91,9.26 -80.81,30.47 -110.24,48.24 -17.05,10.3 -33.76,20.63 -49.12,31.73 -7.03,5.07 -13.91,10.99 -21.6,17.22 -8.63,6.97 -15.12,11.5 -22.88,19.16 -4.18,4.14 -5.64,5.67 -9.95,9.47l-70.05 69.02c-3.8,3.86 -5.94,5.8 -9.75,9.66l-42.46 48.1c-0.44,0.5 -1.06,1.23 -1.49,1.73l-7.29 8.88c-2.14,2.73 -2.06,2.79 -4.2,5.51l-62.28 76.79c-42.2,48.95 -162.15,209.81 -189.19,250.68l-100.82 138.52c-36.81,50.47 -98.99,148.99 -131.55,188.65l-188.21 290.47c-5.56,9.23 -8.7,16.06 -14.09,24.72 -20.39,32.74 -42.53,63.49 -61.04,97.45l-73.38 127.14c-10.01,18.46 -18.32,35.03 -28.13,52.73l-55.27 106.44c-3.79,8.39 -6.72,17.86 -11.37,27.44 -5.31,10.94 -7.42,14.46 -12.2,26.62 -25.94,65.84 -53.32,121.39 -71.37,190.61 -14.75,56.59 -30.69,133.58 -7.76,188.84 7.77,18.73 18.36,34.52 35.84,45.02 33.78,20.31 83.52,26.43 134.88,16.42 32.51,-6.34 58.29,-16.2 89.27,-30.4 30.3,-13.89 53.77,-40.48 70.3,-68.78 48.65,-83.33 72.41,-181.14 112.06,-269.58 5.06,-11.29 6.79,-13.84 11.31,-27.5l23.24 -57.62c4.85,-11.49 8.17,-16.86 13.01,-29.04l48.82 -109.66c25.64,-53.54 48.33,-107.78 75.93,-160.18 4.73,-8.98 8.46,-17.92 12.36,-26.44l40.58 -82.33c5.04,-10.02 7.29,-16.59 12.27,-26.54 5.85,-11.66 9.1,-15.27 14.25,-27.8 12.73,-30.98 30.34,-60.73 45.68,-90.17 3.25,-6.25 4.24,-8.88 7.5,-15.13l142.27 -258.78c2.36,-4.14 4.29,-8.29 6.7,-12.71 2.61,-4.76 3.94,-7.23 6.85,-12.56l45.18 -74.48c13.05,-23.41 36.56,-64.29 53.21,-85.87 4,-5.19 3.95,-4.2 8.6,-10.81 12.1,-17.24 20.3,-32 31.56,-49.3 6.52,-10.04 9.96,-11.82 16.94,-21.87l156.77 -199 52.37 -51.14c78.66,-65.69 152.41,-57.26 151.84,64.38l3.27 475.41c0.16,108.23 1.32,235.34 16.57,342.44 1.56,10.99 4.47,21.13 5.71,33.1 7.25,69.99 49.03,169.32 112.12,208.08 8.63,5.31 15.95,8.72 25.8,13.01 72.48,31.57 169.59,13.78 237.92,-13.94 13.99,-5.67 39,-19.79 52.76,-28.1 64.81,-39.15 121.79,-89.41 169.26,-147.71l32.76 -41.62c20.99,-27.05 42.66,-57.4 58.07,-87.47 1.79,-3.5 5.05,-8.93 7.1,-12.31 40.67,-66.97 77.7,-136.41 114.64,-205.55l28.02 -52.84c8.6,-16.64 19.66,-33.43 29.6,-51.27 6.95,-12.47 21.25,-44.55 34.58,-46.28 22.48,-2.91 38.5,73.54 45.3,90.54 4.43,11.09 6.66,21.6 11.46,33.83 24.18,61.65 56.35,123.34 93.93,177.75 12.37,17.92 25.92,34.75 40.94,49.62l48.57 41.99c19.11,13.85 38.24,21.63 60.12,30.44 20.82,8.38 44.13,16.86 68.65,21.91 28.3,5.83 54.08,7.21 83.96,6.86l152.64 -28.49c31.69,-5.4 54.13,8.19 81.47,4.07 60.14,-9.04 110.83,-31.91 147.44,-79.18 6.96,-8.98 16.89,-16.55 18.42,-29.14z"/>
   <path class="fil1" d="M6054.23 1146.86l97.36 0.14c0.78,-54.21 -4.72,-356.74 5.28,-379.82 15.38,0.99 4.78,-2.34 10.38,4.41 14.08,9.37 28.39,35.54 38,49.94 12.14,18.17 25.13,33.86 31.96,55.03 12.42,7.39 19.57,21.81 27.54,34.34 7.03,11.04 17.66,26.35 20.98,36.82 7.71,5.53 19.57,25.23 22.64,35.57 7.72,5.46 10.04,7.2 12.94,19.4 7.95,6.59 4.04,-1.35 6.46,12.92 -1.58,7.16 -7.48,4.03 3.26,9.73 10.4,2.69 5.4,-3.48 9.68,6.47 11.46,7.67 7.29,5.06 13.61,16.41 4.66,8.38 5.9,5.64 9.03,19.16 6.48,3.8 4.67,1.91 8.74,8.05 4.5,6.78 1.21,-3.36 4.2,11.36 5.45,4.52 4.04,0.39 6.47,9.7 18.45,12.64 21.4,44.16 43.71,49.18 7.92,1.78 66.44,3.24 77.04,-0.06 5.15,-1.6 3.07,-1.2 5.87,-3.49 9,-18.85 2.81,-458.95 3.2,-527.57 0.16,-28.81 5.04,-42.78 -26.05,-42.84 -84.08,-0.19 -66.55,-22.36 -66.55,136.64l-1.86 197.38c0.07,24 6.94,28.97 -9.47,47.09 -8.99,-4.92 -6.01,-2.27 -13.83,-10.46l-84.5 -126.24c-5.97,-9.13 -12.69,-17.44 -18.15,-27.1l-35.52 -58.04c-7.11,-6.21 -4.82,1.34 -6.47,-12.94 -8.79,-5.88 -11.01,-5.78 -12.93,-19.4 -5.46,-4.51 -4.05,-0.4 -6.47,-9.7 -14.18,-10.54 -10.46,-12.03 -19.99,-26.02 -7.6,-11.15 -14.75,-10.91 -15.59,-28.97 -21.58,-14.45 -27.28,-45.53 -51.77,-62.95 -22,-0.17 -73.07,-6.82 -85.91,6.41 -10.85,13.13 3.3,541.48 -3.29,569.45z"/>
   <path class="fil1" d="M7009.08 573.47c-1.98,43.47 -6.77,549.42 1.4,571.48 22.16,6.63 181.63,2.45 219.68,2.42 39.66,-0.02 51.2,2.83 86.84,-4.84 0.74,-19.62 1.79,-74.65 -2.84,-87.83 -69.91,-11.1 -187.76,3.41 -201.3,-6.23 -9.5,-6.76 -5.56,-110.98 -5.99,-133.21 -0.95,-48.58 7.21,-35.96 142.7,-36.05 77.62,-0.05 66.42,7.43 67.12,-60.92 0.4,-39.97 11.82,-35.85 -60.65,-35.85 -178.36,-0.02 -149.06,18.96 -149.01,-80.55 0,-8.11 -0.8,-16.91 1.17,-24.66 4.96,-19.48 22.52,-12.45 70.22,-12.42 22.62,0.01 129.43,2.7 134.85,-2.63 5.05,-10.82 6.38,-74.87 0.36,-85.55 -5.92,-7.04 -19.41,-4.25 -34.95,-4.25l-269.6 1.09z"/>
   <path class="fil1" d="M5887.92 663.97c53.26,0 49.07,5.6 48.73,-23.28 -0.67,-57.01 9.24,-67.3 -19.39,-68.53l-191.06 0.19c-94.41,0.01 -99.82,-10.15 -99.39,32.38l0.02 504.71c0.5,15.51 -0.39,30.87 9.98,34.58 14.75,5.28 -11.45,-2.58 4.84,1.6l26.34 1.89c26.71,0.05 259.11,2.77 264.94,-3.08 6.61,-11.14 6.34,-79.23 0.71,-90.34 -6.08,-6.26 -158.53,-3.53 -175.18,-2.84 -41.09,1.69 -36.92,-2.92 -36.97,-58.27 -0.03,-29.11 -6.47,-108.18 10.87,-114.74 3.31,-1.26 190.76,7.44 200.4,-2.3 7.87,-12.03 5.55,-74.12 2.5,-93.12l-176.71 -0.38c-18.07,0 -31.12,4.04 -35.59,-13.2l-1.09 -44.71c-0.02,-17.48 -0.71,-35.15 0.43,-52.54 14.64,-9.41 13.79,-8.02 36.25,-8.01l129.37 -0.01z"/>
   <path class="fil1" d="M7471.4 994.06c-21.73,2.05 -22.58,10.97 -35.91,19.51 -9.44,6.05 -27.67,10.85 -34.05,18.42 -4.89,5.8 -3.67,-0.53 -4.37,9.55 -1.2,17.31 -3.13,-1.23 12.81,26.71l49.46 54.94c6.41,3.91 11.78,5.22 18.01,8.14 58.58,27.55 7.48,8.35 58.94,19.7 15.12,3.33 11.08,9.88 39.83,7.38 71.4,-6.19 124.1,-34.37 147.06,-87.1l3.8 -9.7c0.14,-0.39 2.98,-8.85 3.17,-9.44 24.37,-73.94 1.28,-90.99 -3.26,-108.48 -4.25,-16.35 1.94,-4.62 -6,-17.46l-32.63 -45.19c-7.28,-7.93 -4.84,-1.47 -20.48,-18.37l-34.44 -30.05c-6.88,-6.05 -8.14,-5.07 -15.45,-11.02 -5.55,-4.54 -7.27,-7.82 -12.68,-12.78 -11.57,-10.61 -4.58,-3.55 -16.79,-10.31l-65.71 -62.8c-19.91,-16.24 -28.43,-54.9 12.47,-77.76 23.95,-13.38 57.94,-8.39 76.57,5.54 40.97,30.61 35.05,51.51 58.39,32.43l41.34 -36.62c19.78,-22.1 2.06,-30.07 -43.23,-65.77 -18.63,-14.68 -41.33,-21.9 -69.49,-28.88 -28.89,-7.16 -59.86,-2.41 -85.76,5.28 -12.87,3.81 -24.61,9.91 -34.61,14.62 -21.21,10.01 -54.21,57.94 -59.76,89.95 -2,11.52 -2.04,32.31 0.39,44.92 3.42,17.78 7.7,20.7 14.1,33.92l8.98 17.35c3.37,5.98 5.35,10.1 8.1,14.73 6.49,10.94 13.3,19.32 21.84,27.15 6.35,5.83 7.2,5.08 14.21,11.8 27.61,26.43 18.12,26.08 41.84,29.1 4.39,15.77 22.45,29.98 34.61,40.14l41.96 32.62c22.23,13.42 9.63,10 26.78,27.75 18.27,18.91 22.58,54.1 18.64,65.41l-15.2 22.6c-21.53,24.7 -53.08,25.14 -87.74,20.79 -27.23,-3.42 -44.59,-31.1 -62.29,-46.5 -7.89,-6.88 -3.65,-2.77 -8.68,-13.3l-4.77 -8.92z"/>
   <path class="fil1" d="M6717.83 1143.72c11.42,4.25 31.79,2.41 46.59,2.49 7.37,0.04 15.63,0.42 22.83,0.28 4.28,-0.1 8.16,-0.25 12.35,-1.11 6.08,-1.24 4.66,-1.03 7.79,-2.92 7.15,-7.78 2.74,-381.38 2.65,-444.04 -0.03,-28.8 -2.04,-34.71 31.83,-34.4 13.25,0.12 67.32,5.58 70.47,-5.27l2.5 -40.95c0.08,-6.55 1,-16.95 0.65,-22.79l-5.52 -18.15c-15.53,-7.57 -163.02,-2.95 -194.06,-2.9 -60.03,0.09 -105.67,-11.13 -110.24,14.73l-0.31 72.18c22.54,0.68 42.64,1.61 65.39,0.83 25.96,-0.89 29.91,2.67 46.27,11.08 -7.89,27.58 -3.4,290.33 -3.3,355.77l1.57 109.55c0.22,0.81 1.02,3.28 1.21,2.83 0.17,-0.45 0.77,1.93 1.33,2.79z"/>
   <path class="fil1" d="M5266.71 1144.99c14.94,6.79 245.94,3.5 252.92,-3.01 10.44,-9.69 6.02,-41.88 5.98,-58.59 -0.08,-32.15 -1.07,-33.42 -32.17,-32.69 -26.35,0.62 -110.5,5.37 -126.21,-2.77 -14.03,-12.52 9.78,-467.2 -8.6,-473.14l-20.37 -2.58c-12.92,0 -65.88,-2.2 -71.43,3.79 -5.08,8.65 -8.24,546.12 -0.12,568.99z"/>
   <path class="fil1" d="M4915.97 595.16c0.32,228.16 -3.41,475.9 1.31,702.25 12.2,8.27 25.11,10.59 45.65,6.08 4.15,-93.48 1.89,-207.53 1.9,-304.05l-0.03 -404.28c0.02,-30.29 6.99,-37.69 -24.51,-36.84 -25.1,0.67 -24.35,13.24 -24.32,36.84z"/>
   <path class="fil0" d="M4274 115.74l-1.39 0.74c0,6.28 1.75,5.02 -3.94,5.02l-2.5 2.67c0,5.15 1.41,4.08 -3.35,4.08l-3.17 2.82 -3.43 3.3c-2.54,12.83 0.28,6.26 -5.79,13.46 -1.61,16.48 -6.38,23.36 -9.82,35.34 -3.87,13.46 -1.44,30.8 -0.75,45.4 7.33,14.01 10.37,31.43 19.69,44.74 5.89,8.43 9.9,9.94 16.6,15.69 3.44,2.95 26.98,36.85 62.62,27.74 71.51,-18.29 80.16,-138.53 55.83,-182.04 -10.26,-18.34 -19.94,-20.48 -33.87,-32.02 -15.07,-3 -32.77,-4.51 -48.06,-2.61 -19.6,2.45 -23.53,10.74 -38.67,15.67z"/>
   <path class="fil2" d="M7471.4 994.06l4.77 8.92c5.03,10.53 0.79,6.42 8.68,13.3 17.7,15.4 35.06,43.08 62.29,46.5 34.66,4.35 66.21,3.91 87.74,-20.79l15.2 -22.6c3.94,-11.31 -0.37,-46.5 -18.64,-65.41 -17.15,-17.75 -4.55,-14.33 -26.78,-27.75l-41.96 -32.62c-12.16,-10.16 -30.22,-24.37 -34.61,-40.14 -23.72,-3.02 -14.23,-2.67 -41.84,-29.1 -7.01,-6.72 -7.86,-5.97 -14.21,-11.8 -8.54,-7.83 -15.35,-16.21 -21.84,-27.15 -2.75,-4.63 -4.73,-8.75 -8.1,-14.73l-8.98 -17.35c-6.4,-13.22 -10.68,-16.14 -14.1,-33.92 -2.43,-12.61 -2.39,-33.4 -0.39,-44.92 5.55,-32.01 38.55,-79.94 59.76,-89.95 10,-4.71 21.74,-10.81 34.61,-14.62 25.9,-7.69 56.87,-12.44 85.76,-5.28 28.16,6.98 50.86,14.2 69.49,28.88 45.29,35.7 63.01,43.67 43.23,65.77l-41.34 36.62c-23.34,19.08 -17.42,-1.82 -58.39,-32.43 -18.63,-13.93 -52.62,-18.92 -76.57,-5.54 -40.9,22.86 -32.38,61.52 -12.47,77.76l65.71 62.8c12.21,6.76 5.22,-0.3 16.79,10.31 5.41,4.96 7.13,8.24 12.68,12.78 7.31,5.95 8.57,4.97 15.45,11.02l34.44 30.05c15.64,16.9 13.2,10.44 20.48,18.37l32.63 45.19c7.94,12.84 1.75,1.11 6,17.46 4.54,17.49 27.63,34.54 3.26,108.48 -0.19,0.59 -3.03,9.05 -3.17,9.44l-3.8 9.7c-22.96,52.73 -75.66,80.91 -147.06,87.1 -28.75,2.5 -24.71,-4.05 -39.83,-7.38 -51.46,-11.35 -0.36,7.85 -58.94,-19.7 -6.23,-2.92 -11.6,-4.23 -18.01,-8.14l-49.46 -54.94c-15.94,-27.94 -14.01,-9.4 -12.81,-26.71 0.7,-10.08 -0.52,-3.75 4.37,-9.55 6.38,-7.57 24.61,-12.37 34.05,-18.42 13.33,-8.54 14.18,-17.46 35.91,-19.51zm169.53 5.38l-11.09 27.74c-26.07,37.95 -81.74,36.59 -119.19,-0.95 -49.12,-49.25 -6.23,-75.23 -131.71,8.79 50.61,105.48 144.17,160.5 264.91,119.37l54.57 -32.76c64.84,-60.28 70.35,-153.46 16.94,-222.5 -33.58,-43.41 -59.48,-59.49 -99.59,-94.46l-48.84 -41.72c-0.49,-0.46 -1.18,-1.12 -1.67,-1.57 -0.49,-0.45 -1.17,-1.13 -1.66,-1.57l-24.77 -23.76c-18.37,-20.35 -17.58,-15.76 -17.58,-47.1 0,-9.33 21.26,-25.87 29.11,-25.87 80.53,0 57.26,21.85 106.73,54.98 9.85,-2.63 2.68,0.4 10.97,-5.2l30.29 -27.93c45.4,-40.07 49.01,-33.45 9.69,-72.79 -21.66,-21.67 -40.18,-37.24 -70.27,-49.41 -0.95,-0.38 -3.67,-1.47 -4.63,-1.84 -38.17,-14.98 -100,-17.65 -137.37,2.31l-23.73 15.09c-20.85,13.82 -36.52,31.78 -49.77,53.72 -28.54,47.21 -15.91,117.53 15.83,156.26l174.56 161.82c11.22,11.85 28.27,31.66 28.27,49.35z"/>
   <path class="fil2" d="M6051.18 565.84c-4.02,40.07 -1.13,429.25 -1.22,511.23 -0.02,14.62 -2.79,61.89 4.27,69.79 1.42,4.56 -2.25,3.88 21.02,3.89 8.69,0.01 17.43,-0.02 26.14,-0.02l44.34 -1.18c7.62,-1.82 3.63,-0.64 5.86,-2.55 1.89,-0.56 4.7,7.21 5.15,-17.84l-0.88 -71.5c-0.35,-78.36 4.09,-217.5 -0.56,-281.38 6.49,-6.59 -6.67,-3.8 11.95,-4.69l1.22 4.71c6.37,0 4.06,-1.26 4.06,6.44 -0.79,12.82 39.59,69.41 50.78,85.08 10.39,14.57 0.27,9.61 13.9,8.74 -6.7,19.05 -2.2,2.23 0.83,12.11 0.13,0.42 6.06,9.97 6.12,10.05l23.87 34.35c11.8,18.12 7.22,15.32 17.7,14.65 -3.7,10.53 -5.72,2.62 6.31,22.78 0.91,1.52 3.53,6.35 5.09,7.85 7.61,7.3 -0.64,5.7 11.24,4.94 -1.91,11.36 -7.04,2.03 1.54,14.62 9.44,13.86 -1.74,4.29 11.4,4.78 -2.34,13.95 -5.72,7.85 6.46,12.92 -2.42,-14.27 1.49,-6.33 -6.46,-12.92 -2.9,-12.2 -5.22,-13.94 -12.94,-19.4 -3.07,-10.34 -14.93,-30.04 -22.64,-35.57 -3.32,-10.47 -13.95,-25.78 -20.98,-36.82 -7.97,-12.53 -15.12,-26.95 -27.54,-34.34 -6.83,-21.17 -19.82,-36.86 -31.96,-55.03 -9.61,-14.4 -23.92,-40.57 -38,-49.94 -5.6,-6.75 5,-3.42 -10.38,-4.41 -10,23.08 -4.5,325.61 -5.28,379.82l-97.36 -0.14c6.59,-27.97 -7.56,-556.32 3.29,-569.45 12.84,-13.23 63.91,-6.58 85.91,-6.41 24.49,17.42 30.19,48.5 51.77,62.95 0.84,18.06 7.99,17.82 15.59,28.97 9.53,13.99 5.81,15.48 19.99,26.02 2.42,9.3 1.01,5.19 6.47,9.7 1.92,13.62 4.14,13.52 12.93,19.4 1.65,14.28 -0.64,6.73 6.47,12.94l35.52 58.04c5.46,9.66 12.18,17.97 18.15,27.1l84.5 126.24c7.82,8.19 4.84,5.54 13.83,10.46 16.41,-18.12 9.54,-23.09 9.47,-47.09l1.86 -197.38c0,-159 -17.53,-136.83 66.55,-136.64 31.09,0.06 26.21,14.03 26.05,42.84 -0.39,68.62 5.8,508.72 -3.2,527.57 -2.8,2.29 -0.72,1.89 -5.87,3.49 -10.6,3.3 -69.12,1.84 -77.04,0.06 -22.31,-5.02 -25.26,-36.54 -43.71,-49.18 -2.43,-9.31 -1.02,-5.18 -6.47,-9.7 -2.99,-14.72 0.3,-4.58 -4.2,-11.36 -4.07,-6.14 -2.26,-4.25 -8.74,-8.05 -3.13,-13.52 -4.37,-10.78 -9.03,-19.16 -6.32,-11.35 -2.15,-8.74 -13.61,-16.41 -4.28,-9.95 0.72,-3.78 -9.68,-6.47 4.54,13.97 -3.63,7.84 9.68,6.47 -4.28,12.18 0.24,14.12 6.13,22.97 0.65,0.98 4.45,6.82 5.32,7.63 9.86,9.26 -2.14,5.83 11.19,4.97 -1.9,11.36 -7.04,2.03 1.55,14.63 9.44,13.86 -1.74,4.28 11.39,4.78 -3.07,18.27 -6.85,9.5 6.47,9.7 -5.12,14.56 0.18,9.46 14.79,33.72 6.78,11.27 10.49,21.84 24.25,24.27 13.25,2.32 92.09,2.42 97.17,-2.66 6.2,-6.21 2.88,-553.87 2.88,-589.01l-90.85 -0.28c-35.47,-0.39 -22.35,6.33 -22.35,132.89 0,81.93 0,163.87 0,245.8 -19.83,-13.27 -114.16,-171.34 -137.19,-202.4 -11.86,-15.98 1.35,-10.74 -14.81,-7.84 5.06,-14.41 3.63,-6.64 -0.01,-9.69 0,-13.14 1.23,-1.98 -6.46,-3.25 0,0 10.06,-15.38 -12.93,-19.4 3.06,-18.28 6.85,-9.5 -6.47,-9.7 4.94,-14.06 0.65,-8.94 -13.59,-31.7 -3.27,-5.24 -4.81,-9.64 -8.09,-14.55 -10.03,-14.96 -1.02,-9.57 -13.9,-8.74 3.74,-10.63 -1.82,-15.94 -17.55,-37.43 -6.28,-8.58 -18.89,-24.78 -21.28,-33.71l-103.95 0 -1.24 3.03z"/>
   <path class="fil2" d="M5887.92 663.97l-129.37 0.01c-22.46,-0.01 -21.61,-1.4 -36.25,8.01 -1.14,17.39 -0.45,35.06 -0.43,52.54l1.09 44.71c4.47,17.24 17.52,13.2 35.59,13.2l176.71 0.38c3.05,19 5.37,81.09 -2.5,93.12 -9.64,9.74 -197.09,1.04 -200.4,2.3 -17.34,6.56 -10.9,85.63 -10.87,114.74 0.05,55.35 -4.12,59.96 36.97,58.27 16.65,-0.69 169.1,-3.42 175.18,2.84 5.63,11.11 5.9,79.2 -0.71,90.34 -5.83,5.85 -238.23,3.13 -264.94,3.08l-26.34 -1.89c-16.29,-4.18 9.91,3.68 -4.84,-1.6 -10.37,-3.71 -9.48,-19.07 -9.98,-34.58l-0.02 -504.71c-0.43,-42.53 4.98,-32.37 99.39,-32.38l191.06 -0.19c28.63,1.23 18.72,11.52 19.39,68.53 0.34,28.88 4.53,23.28 -48.73,23.28zm-271.68 -81.75l0 559.54c0,19.6 41.67,12.94 74.39,12.94l177.89 0c88.98,-0.02 74.39,29.01 74.39,-109.97l-200.53 0c-7.57,0 -12.94,-5.37 -12.94,-12.94 0,-167.78 -12.98,-142.36 48.52,-142.31l116.43 0c60.07,0.04 48.52,21.17 48.52,-113.2l-210.23 0c-5.64,-24.21 -5.64,-76.06 0,-100.27l164.96 0.02c56.02,0.24 45.27,10.89 45.27,-103.52 0,-7.45 -2.25,-9.7 -9.71,-9.7l-304.02 0c-9.94,0 -12.94,9.48 -12.94,19.41z"/>
   <path class="fil2" d="M7278.68 572.38c15.54,0 29.03,-2.79 34.95,4.25 6.02,10.68 4.69,74.73 -0.36,85.55 -5.42,5.33 -112.23,2.64 -134.85,2.63 -47.7,-0.03 -65.26,-7.06 -70.22,12.42 -1.97,7.75 -1.17,16.55 -1.17,24.66 -0.05,99.51 -29.35,80.53 149.01,80.55 72.47,0 61.05,-4.12 60.65,35.85 -0.7,68.35 10.5,60.87 -67.12,60.92 -135.49,0.09 -143.65,-12.53 -142.7,36.05 0.43,22.23 -3.51,126.45 5.99,133.21 13.54,9.64 131.39,-4.87 201.3,6.23 4.63,13.18 3.58,68.21 2.84,87.83 -35.64,7.67 -47.18,4.82 -86.84,4.84 -38.05,0.03 -197.52,4.21 -219.68,-2.42 -8.17,-22.06 -3.38,-528.01 -1.4,-571.48l269.6 -1.09zm-278.15 579.08c33.53,7.81 255.17,3.24 307.26,3.24 29.05,0 19.4,-24.62 19.4,-100.27 0,-15.79 -33.4,-9.72 -48.51,-9.7l-116.44 0c-62.08,0.04 -48.51,27.25 -48.51,-155.25l187.59 0c11.15,0 12.52,-2.4 22.64,-3.23 6.76,-29.05 3.23,-69.38 3.23,-100.27 0,-15.98 -39.46,-9.7 -71.15,-9.7l-119.95 0.28c-31.64,0.35 -22.36,-0.75 -22.36,-100.55l184.36 0c39.66,0 29.1,-18.06 29.1,-103.5 0,-7.45 -2.25,-9.7 -9.7,-9.7l-316.96 0 0 588.65z"/>
   <path class="fil2" d="M6909.97 576.86l5.52 18.15c0.35,5.84 -0.57,16.24 -0.65,22.79l-2.5 40.95c-3.15,10.85 -57.22,5.39 -70.47,5.27 -33.87,-0.31 -31.86,5.6 -31.83,34.4 0.09,62.66 4.5,436.26 -2.65,444.04 -3.13,1.89 -1.71,1.68 -7.79,2.92 -4.19,0.86 -8.07,1.01 -12.35,1.11 -7.2,0.14 -15.46,-0.24 -22.83,-0.28 -14.8,-0.08 -35.17,1.76 -46.59,-2.49 -0.56,-0.86 -1.16,-3.24 -1.33,-2.79 -0.19,0.45 -0.99,-2.02 -1.21,-2.83l-1.57 -109.55c-0.1,-65.44 -4.59,-328.19 3.3,-355.77 -16.36,-8.41 -20.31,-11.97 -46.27,-11.08 -22.75,0.78 -42.85,-0.15 -65.39,-0.83l0.31 -72.18c4.57,-25.86 50.21,-14.64 110.24,-14.73 31.04,-0.05 178.53,-4.67 194.06,2.9zm-313.73 8.59c0,31.11 -4.02,68.71 6.47,90.56l97.03 0c5.41,23.26 3.01,30.3 0.46,52.23 -2.64,22.72 2.85,36.51 2.88,57.63 0.07,53.52 -4.88,357.58 3.12,365.59 11.7,5.61 43.69,3.91 55.87,5.58 22.78,3.14 42.59,1.49 57.34,-5.58l0 -475.45c24.8,-5.78 106.73,11.63 106.73,-12.93 0,-121.65 18.78,-100.27 -74.39,-100.27l-252.28 0c-0.84,10.12 -3.23,11.49 -3.23,22.64z"/>
   <path class="fil2" d="M4915.97 595.16c-0.03,-23.6 -0.78,-36.17 24.32,-36.84 31.5,-0.85 24.53,6.55 24.51,36.84l0.03 404.28c-0.01,96.52 2.25,210.57 -1.9,304.05 -20.54,4.51 -33.45,2.19 -45.65,-6.08 -4.72,-226.35 -0.99,-474.09 -1.31,-702.25zm-8.05 -29.11l0 724.49c0,11.14 2.4,12.51 3.24,22.64l58.22 0c3.75,-7.83 6.47,-14.15 6.47,-25.88l0 -718.02c0,-26.7 -21.96,-19.41 -64.69,-19.41 -1.69,7.26 -3.24,7.44 -3.24,16.18z"/>
   <path class="fil2" d="M5266.71 1144.99c-8.12,-22.87 -4.96,-560.34 0.12,-568.99 5.55,-5.99 58.51,-3.79 71.43,-3.79l20.37 2.58c18.38,5.94 -5.43,460.62 8.6,473.14 15.71,8.14 99.86,3.39 126.21,2.77 31.1,-0.73 32.09,0.54 32.17,32.69 0.04,16.71 4.46,48.9 -5.98,58.59 -6.98,6.51 -237.98,9.8 -252.92,3.01zm-12.71 -511.02l1.37 140.94c2.78,18.39 2.78,36.1 0,54.48l1.86 221.8c0,18.33 0.01,36.66 0,54.99 -0.01,15.11 -6.08,48.52 9.71,48.52l255.51 0c7.57,0 12.94,-5.37 12.94,-12.94 0,-117.71 18.04,-97.03 -71.16,-97.03 -15.59,0 -73.35,2.28 -84.13,0.04 -16.27,-3.37 -9.67,-37.5 -9.67,-74.43l0.06 -375.24c0.55,-40.88 14.51,-32.29 -103.55,-32.29 -14.58,0 -8.8,15.93 -10.65,31.4 -1.44,12.01 -2.29,22.85 -2.29,39.76z"/>
   <path class="fil3" d="M2238.66 533.7l-17.64 10.84c-0.61,0.35 -1.41,0.83 -2,1.18l-10 6.1c-0.61,0.36 -1.41,0.86 -2.01,1.23l-9.97 6.08c-28.04,18.76 -61.72,55.78 -81.87,82.82l-201.4 332.44c-0.35,0.62 -0.85,1.41 -1.21,2.03 -2.65,4.67 -3.61,7.11 -6.59,12.81 -14.61,27.97 -67.69,133.91 -83.91,142.49 -10.68,5.64 -16.93,3.57 -32.01,3.57 -13,-19.41 -8.73,-20.77 -12.07,-46.16 -6.21,-47.34 4.6,-360.15 -2.24,-405.28l-5.09 -169.55c0.07,-33.1 -9.17,-195.26 -14.98,-217.89 -3.54,-13.77 -3.46,-7.39 -4.45,-24.62 -0.76,-13.27 0.63,-17.61 -9.28,-25.94 31.27,226.65 30.93,491.19 29.31,721.25 -0.21,30.58 -8.28,152.62 14.43,172.38 14.19,12.35 36.83,2.48 46.97,-6.84 13.29,-12.23 35.58,-59.22 45.02,-78.15l71.45 -128.41c8.3,-13.86 7.68,-5.36 14.5,-24.14 0.28,-0.8 0.49,-1.72 0.79,-2.51l12.55 -26.49c11.93,-24.75 21.3,-28.93 25.55,-39.43 5.28,-13 1.72,-10.7 9.62,-22.6 7.93,-11.93 15.49,-27.04 23.41,-38.27 5.16,-7.31 5.85,-9.99 10.96,-18.02 4.63,-7.28 10.24,-11.77 14.32,-17.93 9.58,-14.47 10.2,-24.73 22.89,-38.76l52.59 -73.78c10.48,-15.01 20.85,-20.73 31.71,-32.83 20.6,-22.95 49.64,-37.5 62.22,-47.11 9.39,-7.17 3.61,0.47 8.43,-10.51z"/>
   <path class="fil3" d="M3681.7 692.19c-9.49,-56.19 -20.45,-89.54 -5.71,-155.21 4.43,-19.74 18.29,-44.86 26.15,-60.79l40.99 -46.41c12.79,-11.43 46.75,-37.1 64.96,-41.67 7.32,-1.83 13.97,-2.65 19.8,-4 18.68,-4.33 4,-1.33 15.02,-6.44 8.73,-4.04 8.21,-2.52 19.2,-4.48 95.77,-17.15 194.07,6.08 251.1,85.2 18.91,26.21 22.67,83.31 8.23,106.92 -22.11,36.16 -11.34,40.79 -68.91,64.67 -22.03,9.14 -55.66,-3.17 -72.58,-11.76 -27.11,-13.77 -42.38,-70.5 -33.61,-91.96 2.87,-7.01 9.93,-12.34 10.13,-21.93 0.44,-21.41 2.77,12.81 -0.69,-4.87 -2.17,-11.05 -39.96,-23.18 -52.19,43.03 -3.87,20.93 -5.21,70.57 11.4,89.93 -0.22,-11.9 -13.1,-56.54 -5.21,-94.22 8.68,-41.36 44.1,-53.64 33.82,-21.74 -4.28,13.28 -7.45,25.11 -5.26,42.26 2.71,21.15 2.83,22.07 14.08,37.81 22.1,30.92 30.03,35.25 61.93,41.66 51.76,10.4 96.89,-31.93 115.44,-83.74 14.98,-41.85 -0.7,-82.39 -25.92,-115.96 -20.67,-27.5 -50.7,-44.4 -82.22,-56.61 -27.35,-10.6 -57.83,-19.83 -93.65,-19.67 -15.49,0.07 -32.5,-1.46 -47.33,1.33 -26.05,4.89 -57,12.4 -80.54,22.99 -12.65,5.71 -22.01,11.63 -33.33,18.4 -34.41,20.57 -33.54,26.3 -53.16,47.09 -6.01,6.37 -7.82,6.59 -11.95,13.93 -2.36,4.2 -2.16,5.16 -4.06,8.87 -9.49,18.6 -11.65,13.06 -21.61,43.08 -14.4,43.43 -17.85,82.96 -8.78,134.18 1.35,7.62 3.23,14.31 4.63,21.08 2.9,13.97 1.51,12.46 9.83,19.03z"/>
   <path class="fil4" d="M6168.47 776.3c-3.12,8.4 -4.76,6.44 4.06,6.44 0,-7.7 2.31,-6.44 -4.06,-6.44l-1.22 -4.71c-18.62,0.89 -5.46,-1.9 -11.95,4.69 4.65,63.88 0.21,203.02 0.56,281.38l0.88 71.5c-0.45,25.05 -3.26,17.28 -5.15,17.84 -2.23,1.91 1.76,0.73 -5.86,2.55l-44.34 1.18c-8.71,0 -17.45,0.03 -26.14,0.02 -23.27,-0.01 -19.6,0.67 -21.02,-3.89 -7.06,-7.9 -4.29,-55.17 -4.27,-69.79 0.09,-81.98 -2.8,-471.16 1.22,-511.23l1.24 -3.03 -1.24 3.03c-4.2,3.95 -3.63,-2.57 -7.38,10.6 -1,3.49 -0.84,14.41 -0.79,18.58l0.16 414.13c0,41.54 -7.5,116.42 6.47,145.55 25.92,0 92.9,4.95 109.97,-3.24 11.79,-11.79 -2.33,-343.09 4.35,-365.48l4.51 -9.68z"/>
   <path class="fil3" d="M3152.34 596.25l-6.42 5.92 -14.12 15.49 -2.62 3.41 -8.77 9.18 -1.61 2.09c-5.82,0 -4.05,-1.3 -4.05,5.07 -13.11,13.52 -27.27,25.68 -34.63,43.93 -4.4,10.92 -7.16,17.74 -13.55,25.77 -12.42,15.64 -9.26,4.89 -11.89,31.69 -14.12,11.98 -23.7,62.74 -30.33,87.47 -13.41,50.01 -10.31,111.08 -10,166.82 0.14,25.34 3.38,31.29 7.43,52.11 6.02,30.95 15.48,76.74 53.66,51.26 26.14,-13.23 95.44,-106.32 100.86,-123.22l49.43 -105.68c5.55,-19.31 13,-31.4 17.84,-52.35l5.55 -16.69c7.31,-7.69 5.58,-4.87 6.37,-19.25 10.34,-8.49 3.83,-5.28 9.32,-19.26 4.4,-11.21 4.13,-7.43 7.27,-23.47 3.2,-16.37 10.12,-30.8 13.3,-50.83 -9.42,8.49 -9.33,25.03 -15.62,46.92 -4.97,17.35 -10.81,28.98 -14.27,46.64 -2.8,3.9 -1.79,-0.24 -4.66,8.75 -2.71,8.48 -1.36,0.12 -1.71,10.5 -2.6,3.62 -1.81,0.84 -3.77,6.55 -2.86,8.31 -1.37,-0.68 -1.78,10.14 -5.53,5.61 -0.75,-1.45 -5.64,8.44l-77.16 159c-3.29,6.82 -6.26,10.62 -10.93,18.17 -18.65,30.17 -33.59,54.65 -60.44,78.57 -15.9,14.15 -11.16,6.64 -13.96,17.07 -20.37,-6.5 -26.7,7.15 -37.18,-15.91 -32.47,-71.4 -20.06,-224.4 2.28,-298.99l14.14 -42.76 14.2 -25.94c6.53,-9.99 9.33,-17 15.5,-26.53 10.3,-15.91 29.87,-40.68 30.37,-48.92 6.25,-0.29 4.77,1.3 4.05,-5.07l1.61 -2.09c9.71,-3.98 5.84,2.09 8.77,-9.18l2.62 -3.41c8.16,-4.77 10.01,-5.38 14.12,-15.49 6.32,-2.03 4.14,0.23 6.42,-5.92 11.26,-5.41 33.08,-30.97 52.95,-44.53 7.83,-5.35 12.53,-7.26 20.17,-12.17 7.24,-4.65 12.07,-8.61 19.55,-12.8l20.6 -11.73c6.8,-4.05 14.2,-7.6 21.55,-10.77 11.34,-4.89 15.85,-5.14 23.02,-14.62 -20.04,3.71 -31.22,12.66 -43.74,20.11l-50.24 30.13c-0.64,0.41 -1.43,0.93 -2.09,1.31 -6.11,3.56 -1.25,0.55 -6.82,3.39 -31.3,15.98 -24.83,28.69 -54.1,40.88l-0.85 10.8z"/>
   <path class="fil3" d="M4267.53 439.62c25.26,-10.95 1.47,-12.79 47.33,-35.93 27.14,-13.69 44.66,-8.71 62.88,6.5l17.31 22.18c17.62,41.28 13.32,64.79 12.99,111.04l6.81 155.11c0.91,25.88 -0.05,54.88 -0.42,81.04 -0.36,25.93 4.83,48.8 6.42,77.75 1.11,20.08 4.71,12.2 6.1,32.07 1.46,20.84 0.2,78.79 38.57,82.94 36.42,3.93 82.17,-54.55 95.27,-64.93 16.71,-13.23 24.4,-24.82 38.16,-42.12 25.07,-31.54 9.92,-7.45 34.09,-46.67 7.48,-12.13 6.78,-13 16.24,-22.82l44.82 -84.19 -8.73 6.65c-0.52,0.55 -1.13,1.28 -1.61,1.87l-22.75 42.14c-5.28,10.11 -7.87,15.16 -13.46,25.33 -15.11,27.5 -17.22,26.44 -32.02,48.85 -20.79,31.51 -107.64,141.36 -155.9,126.33 -18.26,-5.68 -21.52,-34.44 -25.39,-55.63 -5.49,-30.13 -7.22,-81.28 -8.12,-111.55 -0.87,-29.53 -6.58,-75.78 -6.58,-116.33 0.01,-26.89 0.46,-54.15 0.13,-80.99 -0.21,-17.44 -2.98,-19.05 -3.46,-35.34 -1.11,-37.49 1.42,-108.98 -20.62,-141.11 -18.41,-26.85 -46.78,-40.55 -77.95,-25.35 -0.66,0.32 -1.46,0.79 -2.11,1.11 -22.2,10.97 -23.17,7.98 -33.83,23.85l-7.09 9.45c-0.54,0.66 -1.16,1.35 -1.69,2.01l-3.56 4.42c-0.47,0.57 -1.24,1.53 -1.83,2.32z"/>
   <path class="fil3" d="M4274 115.74c15.14,-4.93 19.07,-13.22 38.67,-15.67 15.29,-1.9 32.99,-0.39 48.06,2.61 13.93,11.54 23.61,13.68 33.87,32.02 24.33,43.51 15.68,163.75 -55.83,182.04 -35.64,9.11 -59.18,-24.79 -62.62,-27.74 -6.7,-5.75 -10.71,-7.26 -16.6,-15.69 -9.32,-13.31 -12.36,-30.73 -19.69,-44.74 -0.69,-14.6 -3.12,-31.94 0.75,-45.4 3.44,-11.98 8.21,-18.86 9.82,-35.34 6.07,-7.2 3.25,-0.63 5.79,-13.46l3.43 -3.3 3.17 -2.82c4.76,0 3.35,1.07 3.35,-4.08l2.5 -2.67c5.69,0 3.94,1.26 3.94,-5.02 -6.8,0 -5.45,-1.65 -3.94,5.02 -5.91,-2.42 -4.96,-3.19 -2.5,2.67 -7.01,-1.68 -5.63,-2.81 -3.35,4.08 -6.53,-2.71 -5.65,-3.84 -3.17,2.82 -6.68,-2.19 -5.61,-3.37 -3.43,3.3 -6,1.21 -4.86,-7.13 -4.86,4.75 -5.39,4.5 -1.8,-1.07 -0.93,8.71 -13.59,4.87 1.83,-4.39 -6.03,3.71 -6.87,7.08 -8.87,19.38 -9.31,29.52 -0.36,8.01 -0.16,18.04 -0.17,26.23 -0.03,20.37 0.47,18.25 4.94,21.28 -2.6,19.17 8.78,37.6 16.22,51.38 15.9,29.47 54.4,51.21 88.84,40.09 22.82,-7.37 29.66,-11.26 41.49,-26.47 7.81,-10.04 6.74,-5.46 11.85,-20.5 3.43,-10.12 6,-17.36 8.8,-26.77 5.65,-19.01 6.81,-35.79 6.15,-62.03 -0.82,-32.1 -21.96,-88.12 -52.48,-81.59 -8.16,-12.44 -25.3,-10.84 -47.9,-8.83 -24.02,2.14 -32.87,13.37 -38.83,21.89z"/>
   <path class="fil3" d="M3212.19 1102.94c23.66,-13.29 84.3,-149.44 96.07,-179.8l6.67 -19.2c2.87,-6.5 4.29,-9.41 6.65,-15.99l6.9 -18.98c4.99,-16.15 5.36,-26.5 17.28,-34.47l37.94 75.42c16.08,32.06 42.14,58.8 72.66,76.59 -2.19,-4.04 -39.05,-28.72 -63.49,-72.96 -6.7,-12.12 -17.17,-30.9 -24,-43.86 -7.7,-14.62 -10.6,-36.3 -23.11,-44.9 -19.21,-4.88 -25.83,50.48 -31.25,64.75 -4.35,11.45 -5.1,5.79 -9.69,16.39 -3.7,8.52 -2.23,12.81 -4.52,21.18 -10.49,38.29 -47.65,101.46 -67.5,139.81 -6.6,12.75 -16.45,23.35 -20.61,36.02z"/>
   <path class="fil3" d="M3976.44 1038.25c14.84,9.94 42.4,55.79 53.72,72.44 6.95,10.24 13.02,16.81 14.21,31.07l-122.91 -35.58c0.46,-20.47 17.83,-31.05 36.71,-53.86 6.75,-8.16 7.96,-11.31 18.27,-14.07zm75.04 107.33c9.14,-15.02 -2.49,-29.04 -14.84,-41.07 -28.22,-27.51 -13.37,-19.03 -27.96,-37.26 -9.76,-12.19 -13.21,-8 -14.32,-29l-17.92 -8.77c-25.97,14.98 -23.06,22.54 -39.89,40.01 -38.99,40.45 -27.49,42.41 17.71,51.34l79.87 25.05c10.9,3.1 6.76,5.32 17.35,-0.3z"/>
   <path class="fil3" d="M3540.13 776.28c4.09,15.9 17.26,57.18 32.81,64.31 24.62,11.3 41.9,-20.38 52.9,-33.3 7.37,-8.65 14.49,-15.16 21.58,-23.84 3.84,-4.7 4.03,-5.91 7.57,-10.46 6.74,-8.64 57.64,-52.26 23.9,-79.43 0.41,22.75 16.54,27.21 -13.76,59.25l-60.96 68.42c-19.17,23.63 -38.76,15.48 -46.98,-13.87 -9.64,-34.4 -5.16,-25.65 -17.06,-31.08z"/>
  </g>
 </g>
</svg>
