<?xml version="1.0" encoding="UTF-8"?>
<!DOCTYPE svg PUBLIC "-//W3C//DTD SVG 1.1//EN" "http://www.w3.org/Graphics/SVG/1.1/DTD/svg11.dtd">
<!-- Creator: CorelDRAW 2020 (64 Bit) -->
<svg xmlns="http://www.w3.org/2000/svg" xml:space="preserve" width="769px" height="600px" version="1.1" style="shape-rendering:geometricPrecision; text-rendering:geometricPrecision; image-rendering:optimizeQuality; fill-rule:evenodd; clip-rule:evenodd"
viewBox="0 0 1602.37 1249.2"
 xmlns:xlink="http://www.w3.org/1999/xlink"
 xmlns:xodm="http://www.corel.com/coreldraw/odm/2003">
 <defs>
  <style type="text/css">
   <![CDATA[
    .fil0 {fill:#101010}
    .fil1 {fill:#FDFDFD}
   ]]>
  </style>
 </defs>
 <g id="Camada_x0020_1">
  <metadata id="CorelCorpID_0Corel-Layer"/>
  <g id="_1787498838768">
   <path class="fil0" d="M349.82 991.65l23.63 -12.24c23.58,39.96 29.82,38.32 30.35,85.42 21.62,-23.25 14.44,-72.75 38.1,-94.6 4.58,6.93 3.37,1.52 5.37,12.28 5.7,30.72 -25.71,99.85 -26.11,105.78 -0.82,12.59 15.65,34.56 22.2,46.48l18.85 39.64c0.29,14.93 1.85,6.33 -5.82,15.69 -19.41,-11.83 -35.36,-62.4 -40.35,-86.11 -5.78,5.88 -4.43,3.5 -7.91,10.44 -2.41,4.79 -3.6,9.97 -4.98,15.13 -6.6,24.54 -14.14,75.18 -29.92,70.14 -12.24,-9.96 -9.73,-7.47 -2.82,-26.01 7.63,-20.46 28.28,-62.7 31.51,-84.06 4.48,-29.69 -14.98,-26.97 -27.86,-43.58 -8.36,-10.79 -16.63,-39.2 -24.24,-54.4zm958.98 -171.5l-22.29 64.02c4.67,-9.12 24.25,-51.8 32.11,-58.83 -0.83,18.29 -21.2,73.91 -29.04,93.33 -12.36,30.61 -54.4,29.56 -45.07,75.53 8.38,41.31 81.34,147.22 67.06,176.33 -32.26,29.45 -58.53,-106.15 -78.88,-149.68 -27.05,24.14 -34.26,158.93 -76.11,143.22 -14.89,-36.65 69.83,-139.41 58.37,-173.14 -7.97,-23.46 -76.63,-143.27 -50.93,-182.75 20.63,-0.62 32.04,51.6 38.74,70.07l22.9 63.34c7.67,19.5 7.63,14.87 12.4,17.93 12.19,-37.26 -23.55,-22.55 35.28,-133.68l8.3 -14.34c4.94,9.03 -10.31,45.11 -14.57,60.44l17.79 -39.32c12.47,-22.23 -7.06,9.31 3.92,-6.7 4.4,-6.4 2.41,-4.18 8.52,-10.11l-12.6 41.04c6.83,-10.88 14.18,-31 24.1,-36.7zm-30.99 54.36l8.1 -17.27 -8.1 17.27zm-14.66 -1.32c-3.21,3.59 4.37,13.4 1.4,3.7 -0.02,-0.07 5.82,-11.79 -1.4,-3.7zm-143.67 -265.41l21.64 16.74c65.78,-53.42 78.26,-10.3 111.11,-40.34 64.64,-59.12 80.03,35.61 80.04,35.63 17.58,4.28 28.7,-5.91 44.37,12.9 22.12,41.88 -42.8,133.64 -102.9,126.06 -39.4,-4.98 -14.13,3.38 -45.56,6.86l-57.29 7.5c-11.71,-0.36 -18.69,-4.61 -25.2,-4.88 -23.31,-0.94 -23.12,27.62 -70.54,4.67 -12.47,11.9 -14.13,15.81 -33.73,16.69 -24.94,1.11 -19.37,0.02 -45.28,4.54 15.45,81.53 -31.32,79.5 -8.09,102.28 7.38,-0.23 67.78,-37.89 78.58,33.34 72.39,9.99 41.41,58.82 1.63,117.29 -23.97,35.23 -45.48,48.84 -89.38,30.27 20.16,22.97 44.9,31.25 53.67,68.08 10.15,42.63 -10.07,68.68 -53.01,65.4 -28.36,-12.95 15.31,-37.53 -97.54,-83.79 -36.05,-14.78 -29.07,-9.69 -60.1,8.91 -21.89,13.12 -46.71,21.07 -72.63,19.31 -53.25,-3.61 -94.78,-48.47 -74.08,-103.69 7.78,-20.74 26.64,-36.99 47.76,-43.14 42.71,-12.45 43.9,8.63 73.38,16.64l10.22 -32.91c-13.43,-9.42 -35.98,-16.49 -51.29,-27.45 -26.17,48.42 -54.76,36.99 -101.69,37.13 -20.63,0.06 -50.15,5.73 -68.49,-3.76 -20.29,-10.5 -18.67,-28.81 -27.91,-42.47 -30.45,4.43 -65.7,-7.64 -93.96,-17.95 -64.95,-23.71 -40.23,-4.25 -97,1.5 -78.07,7.91 -127.78,-44.24 -129.61,-119.79 -1.47,-60.72 29.03,-138.14 79.33,-170.05 21.43,-13.59 32.75,-8.88 55.15,-7.69 15.29,0.8 106.89,-27.72 131.94,44.77 27.27,-7 42.22,-1.54 58.92,-6.88 39.59,-12.64 27.1,-3.58 58.1,4.65 47.78,-36.32 49.59,-13.03 81.76,-22.52 21.45,-6.33 14.45,-6.63 39.05,-4.4 7.04,-66.15 50.42,-41.89 73.04,-60.51 13.31,-10.95 3.92,-26.01 37.26,-29.76 21.81,-2.44 29.89,9.01 45.96,19.5 0.12,0.02 82.49,-34.36 64.05,45.77 30.05,-9.05 28.49,-15.95 61.45,-1.08 13.28,-33.72 7.3,-81.59 39.3,-88.48 51.22,-11.04 63.31,21.57 57.57,65.11zm-140.87 466.89c-3.78,-3.56 3.68,3.48 0,0zm-789.72 -547.71c-4.77,19.81 -4.79,20.86 -4.79,43.12 -24.8,-2.21 -59.51,-14.35 -85.12,-20.27 -18.52,-4.29 -26.99,-1.8 -44.42,-8.38 -49.87,-18.81 -43.08,-0.96 -42.94,47.8 0.11,40.64 -5.24,53.75 15.67,65.8 19.17,11.06 120.01,26.39 147.66,39.17 11,5.09 4.14,1.76 9.15,5.22 0,49.32 4.81,89.95 4.79,138.93 -0.02,49.5 0,99 0,148.51 0,84.68 -12.27,176.97 67.87,229.15 85.76,55.82 253.19,24.25 334.46,24.67l512.67 -4.71c77.58,0 207.36,13.74 266.47,-30.55 82,-61.43 64.08,-133.78 64.08,-232.94 0,-99.41 -4.79,-192.49 -4.79,-292.22 27.75,-0.02 78.93,-18.82 108.14,-25.99 53.23,-13.08 65.39,-14.37 64.54,-74.75 -1.03,-73.04 -10.12,-67.44 -61.98,-52.04 -22.85,6.79 -90.62,27.8 -110.7,28.23 0,-38.97 2.39,-17.58 -14.37,-43.12 -102.2,0 -204.4,0 -306.6,0l-459.9 4.79c-52.81,-0.03 -98.55,4.79 -153.29,4.79 -71.15,0 -250.07,-8.69 -306.6,4.79z"/>
   <path class="fil1" d="M978.61 1074.67c3.68,3.48 -3.78,-3.56 0,0zm15.6 -21.22l-6.52 -36.83c-22.33,25.27 -20.06,45.44 -63.29,39.42 -9.89,-50.6 16.36,-91.57 19.49,-142.94 65.14,-10.7 -11.9,101.21 9.43,127.1 66.11,-65.67 48.67,-100.84 64.59,-124.4 46.27,-0.38 -0.38,75.26 -0.64,104.91 -0.08,9.08 -1.33,10.61 6.08,21.03 23.24,-14.87 34.46,-54.13 55.22,-81.45 -0.29,7.69 -30.87,105.5 -84.36,93.16zm-289.27 -137.68c-0.53,0.32 -1.63,-0.18 -1.8,0.48 -0.18,0.7 -1.65,0.4 -1.91,0.47 -21.8,5.91 -27.31,27.67 -27.04,53.69 26.8,-8.24 15.64,-8.49 32.85,-44.64 10.11,-21.24 -2.53,-9.01 15.98,-16.2 6.37,28.12 -9.19,25.96 -12.04,53.37 24.21,-5.61 10.47,-14.44 25.66,-26.24l-27.4 37.87c-24.74,-1.78 11.27,-13.45 -36.22,0.24l-18.84 -17.14 -16.75 17.14c-6.14,-2.74 -1.62,-0.78 -6.78,-4.04 -0.45,-0.29 -1.75,-1.24 -2.24,-1.55 -0.53,-0.34 -1.92,-1.3 -2.43,-1.64 -0.54,-0.35 -2.14,-1.36 -2.59,-1.66 -0.47,-0.31 -1.74,-1.22 -2.65,-1.75 -11.31,12.56 -12.13,12.53 -27.56,6.31 -8.96,-26.46 10.1,-74.59 40.87,-55.74 -0.51,0.43 -1.58,0.2 -1.75,0.95 -0.4,1.7 -28.16,3.9 -27.66,53.94 37.97,-9.84 35.9,-91.58 61.08,-99.69 18.67,19.62 -20.45,54.8 -27.8,98.98 27.88,-18.4 35.38,-76.3 67.02,-53.15zm0.97 44c-0.8,1.01 2.06,1.96 2.07,3.26l-2.07 -3.26zm117.05 -37.62c-20.8,-18.43 -9.99,-39.38 -2.62,-61.03 18.33,11.17 20.27,10.5 15.61,33.92 -2.03,10.17 -6.11,19.69 -12.99,27.11zm22.39 26.17c15.89,-20.29 24.75,-88.18 46.03,-121.15 36.67,-56.82 110.02,-40.58 66.99,38 -30.33,55.37 -50.46,60.98 -66.59,77.28 -10.86,10.99 -29.71,95.23 -39.48,119.25 35.48,13.08 68.05,14.81 101.6,36.81 25.21,16.53 71.74,48.76 44.17,84.48 -17.42,-17.04 0.09,-28.44 -65.22,-63.39 -124.32,-66.53 -81.96,-16.29 -152.7,3.43 -22.66,6.32 -57.49,3.06 -72.76,-17.56 -38.82,-52.44 65.01,-117.25 68.4,-30.27 32.34,-10.64 35.66,-6.05 46.77,-38.99 8.73,-25.9 16.41,-48.42 21.02,-75.72 -32.65,1.57 -54.96,-0.36 -74.35,-27.03 -61.79,-84.95 81.36,-185.28 91.24,-78.51l-4.72 -7.21c-11.76,-17.92 -19.45,-25.17 -40.76,-16.02 -42.32,18.17 -53.26,131.24 30.36,116.6zm75 -39.44c15.94,-20.3 55.35,-80.2 34.9,-99.11 -30.06,-27.79 -60.69,102.83 -62.41,119.22 13.79,-4.79 18.55,-8.69 27.51,-20.11zm-517.77 -87.07c-81.74,42.82 -88.26,-173.21 30.43,-156.49 91,12.81 61.41,169.56 7.79,209.82 37.89,20.81 84.02,19.83 124.74,17.15 8.6,64.05 -64.77,26.64 -118.83,8.98 -46.14,-15.08 -22.69,-4.28 -64.47,5.75 -25.93,6.23 -52.92,4.57 -76.63,-8.05 -83.2,-44.27 -31.64,-231.58 58.56,-229.84 -7.68,28.59 -43.93,48.73 -56.51,100.19 -9.44,38.62 -6.04,90.23 25.84,115.75 16.18,-3.11 20.75,-10.68 42.48,-12.55 18.38,-1.58 34.28,1.31 52.44,1.18 26.43,-20.57 43.22,-49.59 51.33,-84.44 7.34,-31.55 7.3,-71.35 -14.62,-97.75 -31.57,-38.03 -67.35,-5.02 -81.04,30.48 -22.47,58.22 17.32,70.6 18.49,99.82zm89.61 32.09c7.54,-6.93 -6.63,-5.13 18.87,-3.17 43.14,3.34 15.43,-5.44 61.73,-4.46 23.86,0.51 21.86,-9.35 38.45,-12.49 11.61,-2.21 30.54,3.63 44.09,4.45 -25.27,20.25 -17.57,5.58 -28.45,40.3l-30.79 9.32c-18.01,-26.53 -11.92,-29.59 -49.72,-22.71 -19.65,3.57 -48.49,6.23 -54.18,-11.24zm176.08 -20.15c20.99,-13.98 21.44,-4.06 38.09,-3.26 24.16,1.17 22.19,-10.66 43.37,-17.66 -4.6,13.77 -10.65,20.25 -15.74,33.9 -4.83,12.99 -4.53,22.53 -9.06,33.77l-18.75 1.15 -7.99 -16.79c-7.22,-19.69 -6.97,-17.24 -35.32,-26.81l5.4 -4.3zm183.33 -237.05c13.84,-1.01 9.12,-5.71 17.23,6.38l9.4 22.65c29.43,-11.37 1.81,-6.04 29.59,-8.17 25.13,-1.92 6.91,-3.16 28.34,-9.9 -7.41,21.24 -5.3,7.3 -18.65,20.59 -9.8,9.77 -4.68,10.65 -14.82,22.4 -26.6,-5.74 -8.42,-13.38 -31.78,-10.67 -9.6,15.61 -16.81,47.91 -23.16,66.61 -9.51,27.95 -22.84,53.7 -11.49,69.73 36.24,-39.26 30.08,-74 47.53,-110.48 46.45,2.39 2.94,69.05 -1.67,103.03 41.34,-14.58 39.14,-87.96 56.17,-109.72 19.74,-1.04 14.85,5.21 26.5,20.6 4.67,-18.49 18.77,-32.78 38.89,-23.81 21.83,36.96 -11.83,64.81 -7.42,98.09 13.26,-0.62 8.05,-3.74 22.75,-15.19 -7.97,19.48 -10.74,27.2 -34.38,26.49 -27.26,-43.62 17.06,-79.46 3.5,-101.73 -33.21,11.35 -41.24,73.95 -56.7,102.02 -28.36,4.98 -8.12,9.16 -25.2,-11.38 -8.34,20.81 -12.09,26.46 -37.15,25.58l-8.68 -25.84 -18.14 27.63c-35.58,-1.27 -22.8,-5.55 -39.81,-16.03 -10.16,14.65 -18.87,32.86 -37.89,24.57 -24.27,-31.95 19.32,-74.06 3.31,-99.32 -14.66,7.36 -29.35,31.6 -36.18,48.29 -16.58,40.55 -10.97,55.5 -25.42,63.54 -0.05,-0.04 -18.35,-1.73 -10.96,-27 -32.09,17.13 -42.69,67.36 -83.5,6.23 -11.47,15.72 -20.08,31.36 -39.68,36.31 -8.08,-6.88 -4.67,-4.11 -10.48,-12.16l-7.79 -11.21c-11.73,18.1 -18.36,32.25 -41.23,26.75 -12.98,-22.61 -7.51,-34.69 -0.75,-58.05 4.03,-13.93 8.2,-43.64 17.03,-54.89 44.4,8.5 -2.23,70.35 -2.65,103.62 18.62,-4.82 26.44,-27.48 34.44,-47.54l14.9 -51.09c5.84,-12.22 -1.99,-5.13 10.92,-11.32 42.69,-2.34 -15.3,82.06 -3.59,104.12 33.23,-17.14 42.74,-136.87 99.06,-111.54 18.87,34.51 -23.09,54.79 -41.81,71.83l6.61 30.77c25.32,1.15 38.9,-23.92 48.49,-41.99 21.04,-39.64 12.65,-54.48 25.36,-70.23 14.62,2.72 16.96,10.12 22.62,17.86 15.68,-17.84 15.81,-27.83 42.75,-21.82 16.35,38.07 -6.56,62.18 -10.64,100.76 21.18,-5.21 15.56,-3.36 25.86,-26.02 16.84,-37.07 29.13,-70.2 36.16,-112.22 -65.88,7.82 -48.05,12.56 -64.09,25.96 -18.34,-43.17 42.83,-38.3 69.37,-44.45l8.93 -28.64zm-207.45 155.98c26.45,-9.14 34.65,-26 34.63,-53.88 -21.81,8.34 -28.94,31.45 -34.63,53.88zm-207.14 66.18c-0.57,-0.94 -1.15,-2.37 -1.42,-2.97l-2.78 -6.15c-4.9,-10.85 -60.88,-83 6.62,-105.39 24.32,32.11 19.37,82.03 -2.42,114.51zm757.33 -182.26c-10.41,15.02 -19.92,34.68 -23.46,53.75 -8.42,45.34 13.79,38.25 16.92,49.3 -24.51,8.87 -30.97,5.69 -42.65,-14.36l-4.54 -7.63c-0.18,-1.19 -0.98,-1.53 -1.63,-2.14 -14.28,18.95 -18.64,43.24 -45.4,32.47 -10.77,-19.56 -7.51,-34.29 -1.22,-55.63 3.86,-13.09 9.38,-19.57 9.41,-31.84 0.02,-8.99 -0.5,-5.37 -2.77,-10.2 -39.56,18.94 -54.42,111.11 -55.52,107.91 -0.23,-0.69 -1.18,2.19 -1.96,3.17 -18.36,-6.14 -9.27,-1.6 -16.32,-17.23 -0.85,-1.91 -2.4,-6.16 -2.77,-6.82l-3.81 -3.74c14.33,-28.9 21.1,-52.62 29.78,-84.18 22.46,-81.77 11.82,-79.27 37.81,-80.17 14.44,25.58 -5.79,60.17 -10.4,87.83 15.92,-11.27 16.31,-19.23 35.64,-17.59 31.3,32.95 -15.83,73.51 -2.39,101.74 23.43,-10.82 33.31,-51.51 42.71,-75.33 11.26,-28.51 54.7,-64.49 64.32,-23.51 -0.87,0.37 -2.33,0.45 -2.82,0.42l-15.46 -4.35c-0.55,-1.53 -2.21,-1.5 -3.47,-1.87zm71.46 58.06c0.73,1.03 1.27,2.63 1.59,3.43 9.19,22.77 -0.12,11.02 9.42,23.99 43.05,-0.02 23.48,-56.17 9.46,-78.82 -12.22,12.17 -9.75,15.52 -17.02,34.82 -21.44,56.93 -36.12,74.62 -64.53,41.25l-14.68 13.83c10.47,-29.2 22.67,-48.73 30.62,-84.25 3.48,-15.54 0.94,-20.29 10.22,-25.14 41.25,-21.52 -3.26,87.27 -1.61,102.63 21.84,-7.79 32.2,-43.09 40,-63.27 17.34,-44.84 -12.74,-69.45 23.48,-65.77 14.22,19.22 -8.49,11.43 14.97,41.91 17.37,22.57 12.75,25.72 21.33,44.54 15.18,-16.79 8.75,-22.9 24.75,-33.76 -9.95,37.71 -40.25,84.12 -83.11,78.48 -7.7,-16.22 -10.26,-16.32 -4.89,-33.87zm6.76 1.32c-8.26,-14.55 3.19,-2.33 5.55,-3.39 21.81,-9.84 0.95,14.83 -5.55,3.39zm-153.08 -88.2c5.74,-43.54 -6.35,-76.15 -57.57,-65.11 -32,6.89 -26.02,54.76 -39.3,88.48 -32.96,-14.87 -31.4,-7.97 -61.45,1.08 18.44,-80.13 -63.93,-45.75 -64.05,-45.77 -16.07,-10.49 -24.15,-21.94 -45.96,-19.5 -33.34,3.75 -23.95,18.81 -37.26,29.76 -22.62,18.62 -66,-5.64 -73.04,60.51 -24.6,-2.23 -17.6,-1.93 -39.05,4.4 -32.17,9.49 -33.98,-13.8 -81.76,22.52 -31,-8.23 -18.51,-17.29 -58.1,-4.65 -16.7,5.34 -31.65,-0.12 -58.92,6.88 -25.05,-72.49 -116.65,-43.97 -131.94,-44.77 -22.4,-1.19 -33.72,-5.9 -55.15,7.69 -50.3,31.91 -80.8,109.33 -79.33,170.05 1.83,75.55 51.54,127.7 129.61,119.79 56.77,-5.75 32.05,-25.21 97,-1.5 28.26,10.31 63.51,22.38 93.96,17.95 9.24,13.66 7.62,31.97 27.91,42.47 18.34,9.49 47.86,3.82 68.49,3.76 46.93,-0.14 75.52,11.29 101.69,-37.13 15.31,10.96 37.86,18.03 51.29,27.45l-10.22 32.91c-29.48,-8.01 -30.67,-29.09 -73.38,-16.64 -21.12,6.15 -39.98,22.4 -47.76,43.14 -20.7,55.22 20.83,100.08 74.08,103.69 25.92,1.76 50.74,-6.19 72.63,-19.31 31.03,-18.6 24.05,-23.69 60.1,-8.91 112.85,46.26 69.18,70.84 97.54,83.79 42.94,3.28 63.16,-22.77 53.01,-65.4 -8.77,-36.83 -33.51,-45.11 -53.67,-68.08 43.9,18.57 65.41,4.96 89.38,-30.27 39.78,-58.47 70.76,-107.3 -1.63,-117.29 -10.8,-71.23 -71.2,-33.57 -78.58,-33.34 -23.23,-22.78 23.54,-20.75 8.09,-102.28 25.91,-4.52 20.34,-3.43 45.28,-4.54 19.6,-0.88 21.26,-4.79 33.73,-16.69 47.42,22.95 47.23,-5.61 70.54,-4.67 6.51,0.27 13.49,4.52 25.2,4.88l57.29 -7.5c31.43,-3.48 6.16,-11.84 45.56,-6.86 60.1,7.58 125.02,-84.18 102.9,-126.06 -15.67,-18.81 -26.79,-8.62 -44.37,-12.9 -0.01,-0.02 -15.4,-94.75 -80.04,-35.63 -32.85,30.04 -45.33,-13.08 -111.11,40.34l-21.64 -16.74z"/>
   <path class="fil0" d="M295.92 391.99c14.99,-37.55 82.15,-50.02 119.42,-60.11l139.02 -23.98c22.11,0.54 7.51,0.47 12.98,3.59 -67.04,30.58 -67.16,18.79 -115.18,76.42 -22.53,27.05 -40.22,19.8 -75.55,17.01 -21.79,-1.72 -66.32,0.34 -80.69,-12.93zm304.75 -118.41l-78.52 6.98c-56.29,8.44 -169.91,30.5 -215.13,53.15 -71.08,35.62 -149.97,103.36 -17.6,102.3 33.27,-0.27 56.03,4.9 86.17,4.85l169.79 7.47c26.84,4.33 56.33,0.51 84.34,1.89 37.55,1.85 22.3,5.16 86.21,4.81l593.95 28.82c13.76,-0.01 29.74,-0.77 43.21,-0.1 18.98,0.95 24.15,5.83 43.38,5.6 67.4,-0.78 -0.98,-103.01 -158.42,-149.24 -95.88,-28.16 -234.84,-57.89 -335.35,-62.27l-81.55 -4.68c-21.45,0.14 -26.9,-2.39 -43.6,-4.3l-133.6 -0.65c-6.2,-0.06 -18.7,-0.7 -24.17,-0.23 -19.47,1.66 -18.83,5.54 -19.11,5.6z"/>
   <path class="fil0" d="M1009.72 127.7c-37.05,-13.77 -238.31,-17.52 -279.49,-17.52 -18.33,28.25 -28.97,97.75 -8.08,113.47 12.41,9.33 267.99,19.65 269.84,19.11 32.45,-9.61 27.08,-89.92 17.73,-115.06z"/>
   <path class="fil0" d="M644.15 752.68c5.69,-22.43 12.82,-45.54 34.63,-53.88 0.02,27.88 -8.18,44.74 -34.63,53.88zm198.52 -127.34c-26.54,6.15 -87.71,1.28 -69.37,44.45 16.04,-13.4 -1.79,-18.14 64.09,-25.96 -7.03,42.02 -19.32,75.15 -36.16,112.22 -10.3,22.66 -4.68,20.81 -25.86,26.02 4.08,-38.58 26.99,-62.69 10.64,-100.76 -26.94,-6.01 -27.07,3.98 -42.75,21.82 -5.66,-7.74 -8,-15.14 -22.62,-17.86 -12.71,15.75 -4.32,30.59 -25.36,70.23 -9.59,18.07 -23.17,43.14 -48.49,41.99l-6.61 -30.77c18.72,-17.04 60.68,-37.32 41.81,-71.83 -56.32,-25.33 -65.83,94.4 -99.06,111.54 -11.71,-22.06 46.28,-106.46 3.59,-104.12 -12.91,6.19 -5.08,-0.9 -10.92,11.32l-14.9 51.09c-8,20.06 -15.82,42.72 -34.44,47.54 0.42,-33.27 47.05,-95.12 2.65,-103.62 -8.83,11.25 -13,40.96 -17.03,54.89 -6.76,23.36 -12.23,35.44 0.75,58.05 22.87,5.5 29.5,-8.65 41.23,-26.75l7.79 11.21c5.81,8.05 2.4,5.28 10.48,12.16 19.6,-4.95 28.21,-20.59 39.68,-36.31 40.81,61.13 51.41,10.9 83.5,-6.23 -7.39,25.27 10.91,26.96 10.96,27 14.45,-8.04 8.84,-22.99 25.42,-63.54 6.83,-16.69 21.52,-40.93 36.18,-48.29 16.01,25.26 -27.58,67.37 -3.31,99.32 19.02,8.29 27.73,-9.92 37.89,-24.57 17.01,10.48 4.23,14.76 39.81,16.03l18.14 -27.63 8.68 25.84c25.06,0.88 28.81,-4.77 37.15,-25.58 17.08,20.54 -3.16,16.36 25.2,11.38 15.46,-28.07 23.49,-90.67 56.7,-102.02 13.56,22.27 -30.76,58.11 -3.5,101.73 23.64,0.71 26.41,-7.01 34.38,-26.49 -14.7,11.45 -9.49,14.57 -22.75,15.19 -4.41,-33.28 29.25,-61.13 7.42,-98.09 -20.12,-8.97 -34.22,5.32 -38.89,23.81 -11.65,-15.39 -6.76,-21.64 -26.5,-20.6 -17.03,21.76 -14.83,95.14 -56.17,109.72 4.61,-33.98 48.12,-100.64 1.67,-103.03 -17.45,36.48 -11.29,71.22 -47.53,110.48 -11.35,-16.03 1.98,-41.78 11.49,-69.73 6.35,-18.7 13.56,-51 23.16,-66.61 23.36,-2.71 5.18,4.93 31.78,10.67 10.14,-11.75 5.02,-12.63 14.82,-22.4 13.35,-13.29 11.24,0.65 18.65,-20.59 -21.43,6.74 -3.21,7.98 -28.34,9.9 -27.78,2.13 -0.16,-3.2 -29.59,8.17l-9.4 -22.65c-8.11,-12.09 -3.39,-7.39 -17.23,-6.38l-8.93 28.64z"/>
   <path class="fil0" d="M755.47 1100.89c21.35,-3.96 5.95,-10.86 38.98,-16.23 -11.17,27.37 -33.71,35.84 -62.95,24.89 -19.29,-27.33 -12.45,-71.35 30.57,-58.87 14.09,25.41 0.2,29.14 -6.6,50.21zm137.37 -171.9c1.72,-16.39 32.35,-147.01 62.41,-119.22 20.45,18.91 -18.96,78.81 -34.9,99.11 -8.96,11.42 -13.72,15.32 -27.51,20.11zm-47.49 19.33c-83.62,14.64 -72.68,-98.43 -30.36,-116.6 21.31,-9.15 29,-1.9 40.76,16.02l4.72 7.21c-9.88,-106.77 -153.03,-6.44 -91.24,78.51 19.39,26.67 41.7,28.6 74.35,27.03 -4.61,27.3 -12.29,49.82 -21.02,75.72 -11.11,32.94 -14.43,28.35 -46.77,38.99 -3.39,-86.98 -107.22,-22.17 -68.4,30.27 15.27,20.62 50.1,23.88 72.76,17.56 70.74,-19.72 28.38,-69.96 152.7,-3.43 65.31,34.95 47.8,46.35 65.22,63.39 27.57,-35.72 -18.96,-67.95 -44.17,-84.48 -33.55,-22 -66.12,-23.73 -101.6,-36.81 9.77,-24.02 28.62,-108.26 39.48,-119.25 16.13,-16.3 36.26,-21.91 66.59,-77.28 43.03,-78.58 -30.32,-94.82 -66.99,-38 -21.28,32.97 -30.14,100.86 -46.03,121.15z"/>
   <path class="fil0" d="M402.58 821.81c-1.17,-29.22 -40.96,-41.6 -18.49,-99.82 13.69,-35.5 49.47,-68.51 81.04,-30.48 21.92,26.4 21.96,66.2 14.62,97.75 -8.11,34.85 -24.9,63.87 -51.33,84.44 -18.16,0.13 -34.06,-2.76 -52.44,-1.18 -21.73,1.87 -26.3,9.44 -42.48,12.55 -31.88,-25.52 -35.28,-77.13 -25.84,-115.75 12.58,-51.46 48.83,-71.6 56.51,-100.19 -90.2,-1.74 -141.76,185.57 -58.56,229.84 23.71,12.62 50.7,14.28 76.63,8.05 41.78,-10.03 18.33,-20.83 64.47,-5.75 54.06,17.66 127.43,55.07 118.83,-8.98 -40.72,2.68 -86.85,3.66 -124.74,-17.15 53.62,-40.26 83.21,-197.01 -7.79,-209.82 -118.69,-16.72 -112.17,199.31 -30.43,156.49z"/>
   <path class="fil1" d="M1264.55 876.89c2.97,9.7 -4.61,-0.11 -1.4,-3.7 7.22,-8.09 1.38,3.63 1.4,3.7zm21.36 -19.65l-8.1 17.27 8.1 -17.27zm22.89 -37.09c-9.92,5.7 -17.27,25.82 -24.1,36.7l12.6 -41.04c-6.11,5.93 -4.12,3.71 -8.52,10.11 -10.98,16.01 8.55,-15.53 -3.92,6.7l-17.79 39.32c4.26,-15.33 19.51,-51.41 14.57,-60.44l-8.3 14.34c-58.83,111.13 -23.09,96.42 -35.28,133.68 -4.77,-3.06 -4.73,1.57 -12.4,-17.93l-22.9 -63.34c-6.7,-18.47 -18.11,-70.69 -38.74,-70.07 -25.7,39.48 42.96,159.29 50.93,182.75 11.46,33.73 -73.26,136.49 -58.37,173.14 41.85,15.71 49.06,-119.08 76.11,-143.22 20.35,43.53 46.62,179.13 78.88,149.68 14.28,-29.11 -58.68,-135.02 -67.06,-176.33 -9.33,-45.97 32.71,-44.92 45.07,-75.53 7.84,-19.42 28.21,-75.04 29.04,-93.33 -7.86,7.03 -27.44,49.71 -32.11,58.83l22.29 -64.02z"/>
   <path class="fil0" d="M1272.56 695.98c6.5,11.44 27.36,-13.23 5.55,-3.39 -2.36,1.06 -13.81,-11.16 -5.55,3.39zm-6.76 -1.32c-5.37,17.55 -2.81,17.65 4.89,33.87 42.86,5.64 73.16,-40.77 83.11,-78.48 -16,10.86 -9.57,16.97 -24.75,33.76 -8.58,-18.82 -3.96,-21.97 -21.33,-44.54 -23.46,-30.48 -0.75,-22.69 -14.97,-41.91 -36.22,-3.68 -6.14,20.93 -23.48,65.77 -7.8,20.18 -18.16,55.48 -40,63.27 -1.65,-15.36 42.86,-124.15 1.61,-102.63 -9.28,4.85 -6.74,9.6 -10.22,25.14 -7.95,35.52 -20.15,55.05 -30.62,84.25l14.68 -13.83c28.41,33.37 43.09,15.68 64.53,-41.25 7.27,-19.3 4.8,-22.65 17.02,-34.82 14.02,22.65 33.59,78.8 -9.46,78.82 -9.54,-12.97 -0.23,-1.22 -9.42,-23.99 -0.32,-0.8 -0.86,-2.4 -1.59,-3.43zm-71.46 -58.06c1.26,0.37 2.92,0.34 3.47,1.87l15.46 4.35c0.49,0.03 1.95,-0.05 2.82,-0.42 -9.62,-40.98 -53.06,-5 -64.32,23.51 -9.4,23.82 -19.28,64.51 -42.71,75.33 -13.44,-28.23 33.69,-68.79 2.39,-101.74 -19.33,-1.64 -19.72,6.32 -35.64,17.59 4.61,-27.66 24.84,-62.25 10.4,-87.83 -25.99,0.9 -15.35,-1.6 -37.81,80.17 -8.68,31.56 -15.45,55.28 -29.78,84.18l3.81 3.74c0.37,0.66 1.92,4.91 2.77,6.82 7.05,15.63 -2.04,11.09 16.32,17.23 0.78,-0.98 1.73,-3.86 1.96,-3.17 1.1,3.2 15.96,-88.97 55.52,-107.91 2.27,4.83 2.79,1.21 2.77,10.2 -0.03,12.27 -5.55,18.75 -9.41,31.84 -6.29,21.34 -9.55,36.07 1.22,55.63 26.76,10.77 31.12,-13.52 45.4,-32.47 0.65,0.61 1.45,0.95 1.63,2.14l4.54 7.63c11.68,20.05 18.14,23.23 42.65,14.36 -3.13,-11.05 -25.34,-3.96 -16.92,-49.3 3.54,-19.07 13.05,-38.73 23.46,-53.75z"/>
   <path class="fil0" d="M188.89 431.15c-56.81,-1.2 -104.25,-34.79 -105.74,-95.9 -1.53,-62.41 50.59,-84.55 77,-124.47 -12.29,0.36 -18.23,1.6 -28.11,5.57 -23.68,9.52 -50.74,28.27 -68.92,45.91 -28.71,27.87 -58.18,44.22 -62.86,89.83 -3.74,36.43 33.69,62.6 68.17,74.97 20.03,7.19 107.95,35.23 120.46,4.09z"/>
   <path class="fil1" d="M295.92 391.99c14.37,13.27 58.9,11.21 80.69,12.93 35.33,2.79 53.02,10.04 75.55,-17.01 48.02,-57.63 48.14,-45.84 115.18,-76.42 -5.47,-3.12 9.13,-3.05 -12.98,-3.59l-139.02 23.98c-37.27,10.09 -104.43,22.56 -119.42,60.11z"/>
   <path class="fil0" d="M185.33 58.72l5.06 2.98c32.05,13.12 129.83,-2.98 68.86,99.68 -20.19,33.98 -93.78,106.39 -99.1,126.05 58.29,-38.56 105.89,-79.26 147.26,-135.37 27.98,-37.94 53.49,-126.67 -64.83,-107.73 -9.01,1.45 -50.07,9.17 -57.25,14.39z"/>
   <path class="fil0" d="M994.21 1053.45c53.49,12.34 84.07,-85.47 84.36,-93.16 -20.76,27.32 -31.98,66.58 -55.22,81.45 -7.41,-10.42 -6.16,-11.95 -6.08,-21.03 0.26,-29.65 46.91,-105.29 0.64,-104.91 -15.92,23.56 1.52,58.73 -64.59,124.4 -21.33,-25.89 55.71,-137.8 -9.43,-127.1 -3.13,51.37 -29.38,92.34 -19.49,142.94 43.23,6.02 40.96,-14.15 63.29,-39.42l6.52 36.83z"/>
   <path class="fil1" d="M349.82 991.65c7.61,15.2 15.88,43.61 24.24,54.4 12.88,16.61 32.34,13.89 27.86,43.58 -3.23,21.36 -23.88,63.6 -31.51,84.06 -6.91,18.54 -9.42,16.05 2.82,26.01 15.78,5.04 23.32,-45.6 29.92,-70.14 1.38,-5.16 2.57,-10.34 4.98,-15.13 3.48,-6.94 2.13,-4.56 7.91,-10.44 4.99,23.71 20.94,74.28 40.35,86.11 7.67,-9.36 6.11,-0.76 5.82,-15.69l-18.85 -39.64c-6.55,-11.92 -23.02,-33.89 -22.2,-46.48 0.4,-5.93 31.81,-75.06 26.11,-105.78 -2,-10.76 -0.79,-5.35 -5.37,-12.28 -23.66,21.85 -16.48,71.35 -38.1,94.6 -0.53,-47.1 -6.77,-45.46 -30.35,-85.42l-23.63 12.24z"/>
   <path class="fil0" d="M193.68 138.93c-4.55,-6.39 -48.45,-29.18 -62.28,-38.33 0,-25.95 -3.55,-33.58 11.49,-55.58 11.07,-16.18 25.04,-25.02 26.84,-45.02 -29.59,3.2 -79.76,49.72 -81.82,81.59 -4.24,65.65 58.9,57.34 105.77,57.34z"/>
   <path class="fil0" d="M705.91 959.77l2.07 3.26c-0.01,-1.3 -2.87,-2.25 -2.07,-3.26zm-0.97 -44c-31.64,-23.15 -39.14,34.75 -67.02,53.15 7.35,-44.18 46.47,-79.36 27.8,-98.98 -25.18,8.11 -23.11,89.85 -61.08,99.69 -0.5,-50.04 27.26,-52.24 27.66,-53.94 0.17,-0.75 1.24,-0.52 1.75,-0.95 -30.77,-18.85 -49.83,29.28 -40.87,55.74 15.43,6.22 16.25,6.25 27.56,-6.31 0.91,0.53 2.18,1.44 2.65,1.75 0.45,0.3 2.05,1.31 2.59,1.66 0.51,0.34 1.9,1.3 2.43,1.64 0.49,0.31 1.79,1.26 2.24,1.55 5.16,3.26 0.64,1.3 6.78,4.04l16.75 -17.14 18.84 17.14c47.49,-13.69 11.48,-2.02 36.22,-0.24l27.4 -37.87c-15.19,11.8 -1.45,20.63 -25.66,26.24 2.85,-27.41 18.41,-25.25 12.04,-53.37 -18.51,7.19 -5.87,-5.04 -15.98,16.2 -17.21,36.15 -6.05,36.4 -32.85,44.64 -0.27,-26.02 5.24,-47.78 27.04,-53.69 0.26,-0.07 1.73,0.23 1.91,-0.47 0.17,-0.66 1.27,-0.16 1.8,-0.48z"/>
   <path class="fil0" d="M492.19 853.9c5.69,17.47 34.53,14.81 54.18,11.24 37.8,-6.88 31.71,-3.82 49.72,22.71l30.79 -9.32c10.88,-34.72 3.18,-20.05 28.45,-40.3 -13.55,-0.82 -32.48,-6.66 -44.09,-4.45 -16.59,3.14 -14.59,13 -38.45,12.49 -46.3,-0.98 -18.59,7.8 -61.73,4.46 -25.5,-1.96 -11.33,-3.76 -18.87,3.17z"/>
   <path class="fil0" d="M437.01 818.86c21.79,-32.48 26.74,-82.4 2.42,-114.51 -67.5,22.39 -11.52,94.54 -6.62,105.39l2.78 6.15c0.27,0.6 0.85,2.03 1.42,2.97z"/>
   <path class="fil1" d="M755.47 1100.89c6.8,-21.07 20.69,-24.8 6.6,-50.21 -43.02,-12.48 -49.86,31.54 -30.57,58.87 29.24,10.95 51.78,2.48 62.95,-24.89 -33.03,5.37 -17.63,12.27 -38.98,16.23z"/>
   <path class="fil0" d="M662.87 838.05c28.35,9.57 28.1,7.12 35.32,26.81l7.99 16.79 18.75 -1.15c4.53,-11.24 4.23,-20.78 9.06,-33.77 5.09,-13.65 11.14,-20.13 15.74,-33.9 -21.18,7 -19.21,18.83 -43.37,17.66 -16.65,-0.8 -17.1,-10.72 -38.09,3.26l-5.4 4.3z"/>
   <path class="fil0" d="M822.96 922.15c6.88,-7.42 10.96,-16.94 12.99,-27.11 4.66,-23.42 2.72,-22.75 -15.61,-33.92 -7.37,21.65 -18.18,42.6 2.62,61.03z"/>
  </g>
 </g>
</svg>
