<?xml version="1.0" encoding="UTF-8"?>
<!DOCTYPE svg PUBLIC "-//W3C//DTD SVG 1.1//EN" "http://www.w3.org/Graphics/SVG/1.1/DTD/svg11.dtd">
<!-- Creator: CorelDRAW 2020 (64 Bit) -->
<svg xmlns="http://www.w3.org/2000/svg" xml:space="preserve" width="3005px" height="600px" version="1.1" style="shape-rendering:geometricPrecision; text-rendering:geometricPrecision; image-rendering:optimizeQuality; fill-rule:evenodd; clip-rule:evenodd"
viewBox="0 0 1100.41 220.04"
 xmlns:xlink="http://www.w3.org/1999/xlink"
 xmlns:xodm="http://www.corel.com/coreldraw/odm/2003">
 <defs>
  <style type="text/css">
   <![CDATA[
    .fil0 {fill:#050505}
   ]]>
  </style>
 </defs>
 <g id="Camada_x0020_1">
  <metadata id="CorelCorpID_0Corel-Layer"/>
  <g id="_1787585633968">
   <path class="fil0" d="M221.7 151.41c-42.18,0 -48.66,-34.61 -48.66,-64.89 0,-47.11 58.63,-68.38 87.02,-30.24 25.62,34.43 8.78,95.13 -38.36,95.13zm-81.11 -56.78c0,31.54 23.99,72.66 48.67,78.41 -6.26,5.44 -16.22,8.11 -16.22,18.92 0,25.58 30.65,5.03 50.61,14.25 28.02,12.94 16.31,12.79 52.13,12.79 40.38,0 53.78,-40.55 27.04,-40.55 -3.35,0 -40.08,30.17 -62.19,0 46.46,-3.87 87.01,-82.47 42.21,-142.25 -29.98,-39.99 -94.57,-34.45 -119.58,-2.72 -13.38,16.99 -22.67,37.73 -22.67,61.15z"/>
   <path class="fil0" d="M392.04 86.52l-40.56 0 0 -48.67c40.73,0 64.89,-7.48 64.89,24.34 0,13.36 -10.97,24.33 -24.33,24.33zm-70.3 -64.89l0 143.3c0,17.69 29.74,17.69 29.74,0l0 -51.37c49.46,0 60.69,-5.63 62.26,29.67 0.81,18.36 15.35,53.31 40.48,24.4 -2.96,-12.71 -4.65,-8.59 -8.39,-15.94 -8.57,-16.85 3.87,-20.74 -18.64,-54.36 31.95,-21.39 26.56,-83.18 -30.07,-88.9 -23.41,-2.36 -75.38,-6.09 -75.38,13.2z"/>
   <path class="fil0" d="M851.67 24.33l0 129.78c0,32.71 19.77,23.33 27.04,21.63 2.78,-11.96 2.3,-12.36 2.55,-27.19 0.3,-18.45 0.68,-10.14 8.26,-21.48 10.89,7.3 14.9,16.51 25,26.38 6.15,6.01 7.91,7.95 12.76,14.28 16.75,21.85 31.93,6.06 31.14,-5.04 -0.82,-11.56 -36.56,-42.59 -44.56,-54.54 11.73,-16.02 32.25,-22.46 43.26,-43.26 -6.71,-12.68 -3.54,-9.51 -16.23,-16.22 -24.47,12.94 -36.67,33.39 -59.48,48.66l0 -89.22c-3.01,-2.02 -9.09,-8.11 -10.81,-8.11 -15.17,0 -18.93,9.35 -18.93,24.33z"/>
   <path class="fil0" d="M778.67 151.41c-11.32,0 -20.12,1.71 -30.28,-10.28 -14.37,-16.94 -10.84,-65.43 24.87,-65.43 45.3,0 42.42,75.71 5.41,75.71zm-67.59 -45.96l0 16.22c0,62.49 93.55,85.33 120.66,20.62 11.37,-27.13 5.63,-52.05 -10.82,-73.69 -32.47,-42.75 -109.84,-15.66 -109.84,36.85z"/>
   <path class="fil0" d="M643.48 151.41c-35.53,0 -37.85,-15.56 -37.85,-45.96 0,-15.64 16.57,-29.75 32.45,-29.75 44.97,0 42.52,75.71 5.4,75.71zm-67.59 -45.96c0,24.91 -1.47,39.1 19.5,58.9 57.01,53.86 142.66,-27.2 91.09,-93.79 -35.16,-45.42 -110.59,-18.85 -110.59,34.89z"/>
   <path class="fil0" d="M1024.71 18.93c0,7.3 1.29,7.45 2.7,13.51 19.19,4.47 20.3,2.71 43.26,2.71l0 156.81c-23.9,0 -45.96,-4.96 -45.96,16.23 0,16.81 31.44,10.81 64.89,10.81 8.31,0 10.81,-7.92 10.81,-16.22l0 -181.15c0,-18.9 -40.39,-13.52 -62.18,-13.52 -5.61,0 -13.52,7.91 -13.52,10.82z"/>
   <path class="fil0" d="M0 18.93l0 189.26c0,16.81 31.45,10.81 64.89,10.81 15.56,0 13.28,-27.04 -2.7,-27.04l-32.45 0 0 -159.52c46.7,0 48.96,2.84 43.26,-21.63 -11.04,-2.57 -73,-10.31 -73,8.12z"/>
   <path class="fil0" d="M459.63 113.56c0,87.91 107.79,75.89 110.22,42.87 0.64,-8.66 -6.5,-15.9 -15.12,-15.13 -15.19,1.34 -1.07,10.11 -35.62,10.11 -36.69,0 -44.89,-75.71 8.12,-75.71 24.27,0 8.25,15.01 37.85,8.12 1.89,-7.93 8.21,-18.83 -7.01,-28.14 -32.34,-19.78 -98.44,-4.87 -98.44,57.88z"/>
  </g>
 </g>
</svg>
