<?xml version="1.0" encoding="UTF-8"?>
<!DOCTYPE svg PUBLIC "-//W3C//DTD SVG 1.1//EN" "http://www.w3.org/Graphics/SVG/1.1/DTD/svg11.dtd">
<!-- Creator: CorelDRAW 2020 (64 Bit) -->
<svg xmlns="http://www.w3.org/2000/svg" xml:space="preserve" width="1000px" height="564px" version="1.1" style="shape-rendering:geometricPrecision; text-rendering:geometricPrecision; image-rendering:optimizeQuality; fill-rule:evenodd; clip-rule:evenodd"
viewBox="0 0 336.15 189.62"
 xmlns:xlink="http://www.w3.org/1999/xlink"
 xmlns:xodm="http://www.corel.com/coreldraw/odm/2003">
 <defs>
  <style type="text/css">
   <![CDATA[
    .str0 {stroke:#212121;stroke-width:0.46;stroke-miterlimit:22.9256}
    .fil2 {fill:#117F45}
    .fil0 {fill:#212121}
    .fil3 {fill:#5EAC54}
    .fil1 {fill:#EDA50B}
   ]]>
  </style>
   <clipPath id="id0">
    <path d="M10.25 149.48l264.03 -1.55 -1.54 41.69 -265.58 -1.54 3.09 -38.6z"/>
   </clipPath>
 </defs>
 <g id="Camada_x0020_1">
  <metadata id="CorelCorpID_0Corel-Layer"/>
  <g style="clip-path:url(#id0)">
   <image id="_6.png" x="-66.96" y="-146.98" width="478.66" height="478.66" xlink:href="6_Images\6_ImgID1.png"/>
  </g>
  <path class="fil0 str0" d="M282.12 135.64l2.92 -2.51c14.76,-14.22 26.69,-53.3 -0.64,-59.86 -12.08,-2.89 -24.04,9.67 -28.7,16.33 -10.61,15.18 -6.5,26.98 -9.98,34.24 -15.79,8.36 -5.24,-13.77 -3.09,-20.78 3.06,-9.92 6.68,-20.42 8.99,-30.33l-4.92 -1.74 -0.98 0c-11.38,-0.99 -18.19,1.87 -25.16,6.07 -7.55,4.55 -5.24,6.86 -13.82,7.94 -9.73,1.23 -2.24,-1.35 -7.76,-0.14l-3.28 -14.88 -13.14 8.25 1.47 -6.42 -16.94 -0.06c-2.43,10.43 -15.67,61.66 -25.55,57.01 -7.23,-5.29 10.58,-52.9 10.81,-62.91l102.22 -1.96 0.58 -0.99c0.66,-3.35 1.47,-3.48 2.15,-6.88l0.22 -0.53 -6.83 -0.45 -5.04 0 -9.76 0.88 -80.59 1.07 6.46 -29.34 -16.29 -0.13 -6.99 27.49c-13.6,0.03 -51.06,-6.84 -37.24,13.79l33.42 0.23c-0.67,7.78 -5.68,24.21 -7.85,32.22 -1.81,6.69 -3.27,28.16 -16.85,24.24l15.22 -52.65c-26.36,-6.17 -42.81,9.93 -51.49,27.39 -11.87,23.91 -14.38,53.3 19.68,30.49 1.41,16.94 24.92,5.81 27.52,-3.93l1.97 0c0,21.53 15.15,21.94 24.57,7.87l-0.14 5.88 15.87 0.01 16.71 -50.12c4.59,19.7 24.16,-1.87 28.5,-1.98 -5.6,2.97 -14.71,24.07 -15.68,34.51 -2.81,30.38 21.07,10.46 27.48,8.75 1.27,15.27 24.21,4.76 26.53,-3.94 2.1,1.54 11.52,23.57 35.42,7.87zm-28.54 -21.63c0,-27.45 32.44,-42.45 32.44,-20.64 0,28.35 -32.44,48.77 -32.44,20.64zm-169.05 7.87c0,-16.97 10.4,-40.43 20.64,-41.28l-10.96 39.18c-1.7,3.71 -9.68,8.59 -9.68,2.1zm126.79 2.95c-3.7,-15.46 10.59,-43.4 20.64,-44.23 -0.38,4.62 -5.49,19.72 -7.25,25.18 -2.98,9.27 -2.53,19.05 -13.39,19.05zm-107.1 -59.7l-0.03 -5.17c3.63,-0.77 8.38,-1.64 8.84,3.93l-8.81 1.24zm124.79 -4.19c0.71,-0.71 5.58,0.93 1.67,0.5l-0.5 -0.13c-0.11,-0.04 -2.88,1.34 -1.17,-0.37z"/>
  <path class="fil0" d="M41.28 34.4l1.15 0.82c0.21,0.29 -20.94,72.09 -26.22,81.26 -2.43,4.2 -5.95,6.27 -2.68,11.39 1.86,2.93 7.47,6.79 12.03,6.79 3.03,0 9.51,-6.8 12.72,-8.91 4.85,-3.18 13.81,-3.56 13.81,-8.79 0,-7.53 -5.58,-13.76 -13.76,-13.76l19.66 -76.66c20.3,-4.73 44.9,-16.73 26.33,18.46 -4.26,8.07 -8.27,14.75 -14.26,21.13 -9.49,10.11 -20.58,3.87 -22.88,12.5 1.51,5.65 13.35,8.85 20.64,8.85 16.03,0 49.15,-53.05 37.12,-68.56 -4.85,-6.27 -15.48,-16.95 -24.34,-16.95 -8.36,0 -10.36,2.2 -16.45,3.38 -7.41,1.44 -4.86,-4.59 -14.02,-5.35l-3.93 12.78c-11.37,2.65 -46.2,24.12 -46.2,36.36 0,13.01 20.64,34.32 20.64,18.68 0,-4.3 -2.95,-5.91 -2.95,-10.81 0,-10.53 17.66,-17.46 23.59,-22.61z"/>
  <path class="fil1" d="M235.89 55.92l9.76 -0.88c1.01,-3.77 3.57,-7.62 6.95,-8.84 0,5.52 -0.13,5.25 -1.91,8.84l6.83 0.45 -0.22 0.53c-0.68,3.4 -1.49,3.53 -2.15,6.88l-0.58 0.99c-2.05,2.79 -1.16,1.48 -4.61,3.24 -3.83,1.93 -3.19,0.62 -4.24,3.86l0.98 0c7.52,-0.65 11.04,0.56 15.49,-3.41 4.07,-3.62 4.25,-8.41 7.12,-12.54 0.24,-2.85 1.27,-5.86 2.35,-8.47 1.01,-2.45 4.17,-6.04 3.72,-7.09 -0.79,-1.86 -10.37,-3.39 -12.95,7.7 -6.41,-0.54 -8.88,-8.63 1.88,-9.91 5.43,-0.65 13,-4.31 10.9,-8.77 -1.88,-0.88 -5.38,1.31 -11.2,0.46 -25.04,-3.64 -13.42,14.48 -24.19,19.2 -6.34,4.02 -15.21,-6.6 -15.72,-12.78 -5.67,4.16 0.25,16.09 1.96,19.66 6.45,-0.14 2.38,-1.96 10.81,-1.96l-0.98 2.84z"/>
  <path class="fil0" d="M294.86 67.82l4.92 0 0 0.98 -4.92 0 0 -0.98zm-4.91 -0.98c1.04,-1.05 3.73,1.56 1.09,0.51 -0.02,-0.01 -2.74,1.13 -1.09,-0.51zm-6.9 -1.93l0.84 -1.19 4.27 2.79 -5.11 -1.6zm-3.91 -3.97c0.1,-0.1 4.28,-0.28 1.98,1.32 -1.14,0.8 -2.57,-0.73 -1.98,-1.32zm-5.9 -0.98l4.92 0 0 0.98 -4.92 0 0 -0.98zm-3.93 -4.92c-0.14,6.38 -0.75,4.3 -1.97,8.85 13.74,0 8.06,-0.62 16.66,3.98 12.94,6.91 27,0.09 43.55,-1.84 5.29,-0.62 5.76,0.48 6.63,-2.14 -6.09,-1.42 -13.16,-1.02 -20.65,-0.98 -7.57,0.05 -15.15,0.97 -15.72,-5.9 7.02,-1.64 7.71,-3.05 17.68,-2.97 9.68,0.08 11.21,-0.2 18.69,-1.95 -2.26,-1.57 -28.85,-4.94 -33.41,-4.94 -24.8,0.02 -12.82,7.89 -31.46,7.89z"/>
  <path class="fil2" d="M292.9 139.55l4.96 4.93c14.6,10.1 34.69,0.97 38.29,-3.93 -2.04,-2.77 -14,-13.44 -17.56,-14.88 -9.85,-3.99 -17.62,-3.22 -26.67,1.12 1.4,6.05 11.34,11.3 16.44,13.05 3.96,1.35 4.82,0.38 8.13,2.68 -4.8,-0.4 -10.69,-1.54 -14.64,-3.06 -4.66,-1.8 -8.7,-5.92 -11.9,-6.77l2.95 6.86z"/>
  <path class="fil3" d="M285.04 133.13l-2.92 2.51c-1.19,4.81 -7.3,13.04 2.18,26.29 4.88,6.83 11.97,11.05 19.41,14.99 1.67,-3.48 4.62,-21.37 1.97,-25.56 -1.19,-3.27 -0.56,-1.7 -4.44,-3.42 -9.82,-4.37 -7.66,-7.94 -12.27,-11.32 -1.66,7.13 -0.97,17.12 2.95,21.62l-0.82 1.15c-0.51,0.18 -4.55,-9.77 -4.93,-11.13 -1.44,-5.18 -1.13,-8.79 -1.13,-15.13zm12.82 11.35l-4.96 -4.93 4.96 4.93z"/>
  <path class="fil1" d="M238.84 42.26c1.16,-2.41 2.2,-9.57 2.95,-12.77 -3.24,-1.72 -3.93,-2.17 -7.88,-1.09 -13.79,3.73 -4.15,18.22 4.93,13.86z"/>
  <path class="fil1" d="M260.46 24.57c6.29,1.47 8.63,2.03 14.36,-2.35 1.73,-1.31 5.32,-4.2 6.28,-5.51l-10.81 -0.98c-4.76,7.11 -7.01,4.99 -9.83,8.84z"/>
 </g>
</svg>
