<?xml version="1.0" encoding="UTF-8"?>
<!DOCTYPE svg PUBLIC "-//W3C//DTD SVG 1.1//EN" "http://www.w3.org/Graphics/SVG/1.1/DTD/svg11.dtd">
<!-- Creator: CorelDRAW 2020 (64 Bit) -->
<svg xmlns="http://www.w3.org/2000/svg" xml:space="preserve" width="400px" height="632px" version="1.1" style="shape-rendering:geometricPrecision; text-rendering:geometricPrecision; image-rendering:optimizeQuality; fill-rule:evenodd; clip-rule:evenodd"
viewBox="0 0 100.15 158.09"
 xmlns:xlink="http://www.w3.org/1999/xlink"
 xmlns:xodm="http://www.corel.com/coreldraw/odm/2003">
 <defs>
  <style type="text/css">
   <![CDATA[
    .fil1 {fill:#05318A}
    .fil3 {fill:#175838}
    .fil2 {fill:#EB6B13}
    .fil0 {fill:#F4F4EC}
   ]]>
  </style>
 </defs>
 <g id="Camada_x0020_1">
  <metadata id="CorelCorpID_0Corel-Layer"/>
  <g id="_1787869892848">
   <path class="fil0" d="M81.71 155.51c-0.32,-0.61 -0.42,-0.27 -0.24,-1.3l1.72 -3.26c0.38,-0.77 0.71,-1.57 1.05,-2.23 0.76,-1.53 0.5,-1.33 2.56,-1.35l1.6 5.69c0.4,1.54 0.34,1.62 -0.13,2.44 -1.71,-0.6 -0.66,0.32 -1.64,-1.71l-2.87 -0.06c-1.39,1.61 0.06,1.23 -2.05,1.78zm-35.8 -0.12c0.58,-1.36 1.33,-2.75 2.11,-4.32 1.9,-3.79 1.3,-3.67 3.36,-3.67 1.06,1.17 2.34,6.01 2.38,8.16 -2.87,0.02 -0.89,-0.26 -2.38,-1.82l-2.92 -0.02c-0.7,1.18 -0.79,2 -2.55,1.67zm27.38 -1.95c-1.56,3.45 -9.88,3.52 -7.23,-3.58 1.79,-4.82 10.21,-2.99 7.23,3.58zm3.32 0.78c1.67,0.05 2.82,-0.25 3.84,0.59 -0.72,1.35 -2,0.8 -5.67,0.77l0.53 -6.6c0.52,-2.6 -0.27,-1.08 1.07,-1.59 0.63,0.66 0.49,0.06 0.64,1.27 0.02,0.16 -0.15,1.8 -0.19,2.05 -0.18,1.26 -0.36,2.08 -0.22,3.51zm18.73 -2.25c0.64,0.83 1.54,2.19 1.78,3.54 -3.96,0.28 -1.18,-2.87 -4.75,-3.25 -0.72,1.28 -0.16,0.53 -0.5,1.61 -0.71,2.3 0.46,0.86 -1.14,1.61 -1.15,-1.65 0.26,-8.28 0.57,-7.8l1.06 -0.33c5.93,-0.86 6.68,2.91 2.98,4.62zm-64.03 -0.04c0.61,1.03 1.47,2.13 1.84,3.55 -3.53,0.38 -1.58,-2.51 -4.72,-3.39 -1.34,1.77 0.2,2.66 -1.64,3.5 -0.88,-0.42 -0.73,0.62 -0.72,-1.34l0.88 -6.69c1.91,-0.44 4.5,-0.29 6.1,0.18 0.76,2.46 0.25,3.29 -1.74,4.19zm13.61 3.65l-1.5 -0.1c-0.01,-1.59 0.33,-3.4 0.51,-4.84 0.27,-2.25 -0.39,-3.42 1.82,-3.28l-0.83 8.22zm-2.77 -4.3c0.14,3.04 -0.28,4.17 -3.51,4.4 -2.6,0.18 -4.15,-1.12 -4.12,-3.73 0.07,-5.46 7.95,-6.42 7.66,-2.23 -2.39,0.04 -0.61,-0.09 -2.17,-0.78 -2.37,-1.04 -4.27,0.63 -3.51,4.8 1.57,0.65 2.2,0.62 3.87,-0.09 -0.36,-1.1 -0.38,-0.45 -1.08,-1.2 -0.48,-0.53 -0.4,0.25 -0.52,-0.92 1.07,-0.61 2.01,-0.38 3.38,-0.25zm-21.44 -2.21l-0.1 1.23 3.9 0.29c-0.35,1.97 0.6,1 -1.36,1.35 -0.28,0.05 -2.21,0 -2.87,0.07l-0.04 2.25c0.7,0 1.53,-0.07 2.06,-0.05 0.47,0.02 0.73,0.01 1.18,0.13 0.92,0.24 0.47,0.08 1.02,0.47 -1.33,1.18 -3.49,0.64 -6.18,0.72l0.9 -8.22c3.75,0.07 4.8,-0.3 6.04,0.53 -1.12,2.19 -2.27,0.05 -4.55,1.23zm39.42 0c0.53,2.04 1.43,0.73 3.95,2.41 0.92,5.77 -6.44,5.37 -6.33,1.5 3.33,-0.47 0.27,2.79 4.86,0.83 -0.37,-2.54 -0.15,-1.06 -2.78,-2.14 -1.17,-0.47 -1.94,-1.5 -1.14,-3.06 0.47,-0.91 1.76,-1.51 3.27,-1.44 1.96,0.1 2.28,0.65 2.57,2.4 -3.05,0.25 -0.64,-0.02 -2.48,-0.87 -0.62,-0.28 -1.37,-0.26 -1.92,0.37zm-43.99 6.42c-1.93,0.05 -2.42,-1.21 -3.59,-4.51 -1.89,2.18 0.2,3.89 -2.15,4.58 -0.77,-1.12 0.11,-7.05 0.82,-8.17 1.87,0.13 2.18,1 3.69,5.02 0.87,-1.65 0.44,-3.58 1.23,-5.02 1.37,0.16 1.43,-1.1 0.82,3.74 -0.19,1.49 -0.18,3.17 -0.82,4.36zm-11.62 -5.03c0.8,0.09 1.67,-0.02 2.23,0.05 2.69,0.32 1.15,-0.41 1.63,1.02 -0.51,0.29 -0.05,0.17 -0.92,0.31l-3.38 0.34 -0.09 2.03c1.72,0.08 3.29,-0.26 4.44,0.6 -0.82,1.39 -2.01,0.77 -6.17,0.79l0.83 -8.2c6.9,-0.47 5.69,-0.18 6.05,1.08 -2.52,0.94 -4.79,-1.11 -4.62,1.98zm84.18 -23.14l3.84 0 4.63 17.53 -3.51 -0.03 -1.29 -3.93 -6.91 0.08c-1.66,3.55 -0.76,4.05 -5.51,3.72l8.75 -17.37zm-84.73 17.46c-0.3,-2.3 0.97,-9.12 1.28,-11.83 0.82,-7.14 -0.02,-5.83 8.04,-5.65 4.67,0.11 7.06,3.08 4.76,7.69 -1.71,3.41 -5.16,3.08 -9.82,3.33 -1.2,4.79 1.1,6.82 -4.26,6.46zm18.29 -17.48l3.49 0.09 -2.18 17.35 -3.51 -0.04 2.2 -17.4zm41.03 0.04l5.25 0.03 1.95 11.16 4.32 -11.2 5.28 0.06c0.06,2.42 -0.6,6.28 -0.95,8.78 -0.22,1.6 -0.42,2.81 -0.58,4.32 -0.09,0.78 -0.14,1.68 -0.24,2.2 -0.32,1.81 0.22,0.77 -0.71,2.07l-2.72 -0.06 1.08 -11.25c-1.67,1.79 -3.48,8.63 -4.68,11.33l-3.39 -0.07 -1.75 -11.23c-0.93,1.56 -0.96,4.75 -1.27,6.93 -0.55,3.92 0.66,4.67 -3.8,4.35l2.21 -17.42zm-21.42 12.03c0.13,7.33 -16.55,9.21 -14.43,-3.63 1.91,-11.52 15.52,-10.74 15.61,-3.55l-3.14 0.5c-1.39,-1.62 -2.49,-4.02 -6.05,-2 -1.68,0.96 -2.6,3.18 -2.81,5.7 -0.59,7.45 5.99,7.14 7.84,2.14l2.98 0.84zm3.13 5.39c-0.39,-2.44 1.18,-11.14 1.54,-14.4 0.45,-4.16 0.73,-3.08 5.25,-3.07 2.64,0.01 5.27,-0.03 7.97,0.05l-0.17 2.71c-9.64,0.32 -10.27,-0.78 -9.68,4.07 1.52,0.15 2.82,0.1 4.34,0.07l3.91 0.54c0,3 -0.64,2.41 -3.9,2.33 -5.08,-0.11 -5.38,-0.73 -5.4,4.72 1.71,0.08 8.25,-0.36 9.1,0.41 0.75,0.69 0.75,2.46 -1.22,2.71l-11.74 -0.14zm7.74 -61.34c0.23,-1.43 5.76,-15.58 6.36,-15.99 1.2,-0.82 19.01,-0.58 21.69,-0.22l-6.42 16.29 -21.63 -0.08zm-17.79 -16.37l21.93 0.02 -6.42 16.36 -21.91 0.03 6.4 -16.41zm-24.07 0.03l21.93 0.16 -6.41 16.27 -21.86 -0.13 6.34 -16.3zm30.8 -18.4l21.87 0.02 -6.36 16.47 -21.97 0.02 6.46 -16.51zm-23.92 0.03l21.45 -0.05c-0.03,2.47 -2.35,6.97 -3.34,9.47 -3.23,8.2 -1.7,7.05 -5.8,7.05l-18.86 -0.06 6.55 -16.41zm47.97 -0.01l21.65 0.01c-0.29,2.08 -5.67,15.8 -6.9,16.47l-21.27 -0.05 6.52 -16.43zm9.6 37.43c1.76,-2.66 15.31,-40.19 18.72,-49.29 0.77,-2.03 1.17,-5.99 4.01,-5.68l-22.11 58.01 -30.4 0.07 -0.02 31.65 7.34 0.15 -0.01 2.92c-2.71,0.41 -14.31,-0.14 -18.74,-0.13 -2.64,0.01 -3.08,0.39 -2.93,-2.46l7.13 -0.14 -0.08 -32.12 -34.95 -0.12c-0.13,-3.77 2.94,-2.79 6.29,-2.78 20.84,0.05 45.75,0.38 65.75,-0.08zm-32.82 -39.27c-0.09,-1.13 5.25,-15.37 6.09,-16.06 1.34,-1.08 18.37,-0.4 21.85,-0.32l-6.5 16.38 -21.44 0zm-24.11 -0.06c0.03,-0.6 5.68,-15.52 6.13,-15.95 1.32,-1.25 18.71,-0.66 21.9,-0.33l-6.52 16.34 -21.51 -0.06zm47.99 -0.04c0.07,-1.4 3.7,-9.95 4.56,-12.16 1.26,-3.2 0.72,-4.27 4.16,-4.28l19.13 0.09c-0.02,1.32 -2.58,7.28 -3.29,9.02 -0.99,2.43 -1.62,7.43 -4.73,7.43l-19.83 -0.1zm-5.57 -44.1l1.14 12.39 8.82 3.79 9.62 -10.46 -9.01 11.23 3.45 5.74 14.03 -2.5c-0.54,1.53 -9.96,2.89 -12.27,3.53 -3.87,1.07 -27.67,1.19 -30.5,0.43 -1.83,-0.49 -11.68,-2.38 -12.14,-3.88l12.69 2.62 3.97 -6.1 -8.37 -10.23 9.06 9.06 9.52 -2.86 -0.01 -12.76zm-2.06 10.76l-7.03 2.29c-1.05,-1.5 -3.39,-3.81 -4.81,-5.61 -1.79,-2.27 -2.87,-4.42 -6.19,-2.83 -2.67,2.67 3.91,7.74 6.96,12.3l-2.46 3.69c-1.02,-0.5 -9.79,-2.46 -11.47,-2.46 -2.37,0 -3.16,3.63 -0.83,4.92 0.87,0.48 5.86,1.64 7.39,1.64l-16.81 0.82c-2.83,4.23 -23.23,59.17 -22.54,61.06 0.45,1.68 1.58,2.05 3.69,2.05l31.15 0 0.44 23.78c0.04,3.02 0.7,4 -2.03,4.14 -2.53,0.12 -6.63,-1.98 -4.56,6.91 -1.88,0 -8.56,-3.54 -9.83,1.23 -4.6,-3.07 -5.47,-2.46 -12.3,-2.46 -4.26,0 -3.82,2.14 -4.29,5.96 -0.4,3.22 -0.66,6.59 -0.87,8.7 -0.32,3.1 -3.68,15.94 -1.81,17.31 1.46,1.99 10.64,0.82 12.71,0.82l47.13 0.41c1.58,-0.01 3.42,-0.86 4.1,-0.82 7.79,0.56 8.72,0.64 16.39,0.41 3.31,0 18.85,1.59 18.85,-1.64 0,-1.46 -0.82,-2.29 -0.82,-3.28 0,-1.17 0.85,-1.57 0.75,-3.61 -0.28,-5.41 -0.22,-6.12 -1.87,-11.65 -0.85,-2.84 -1.47,-4.18 -2.11,-7.32 -1.01,-4.88 -1.14,-5.29 -6.19,-5.29 -3.98,0 -4.6,6.77 -6.56,8.2 -1.22,-2.64 0.97,-8.2 -3.28,-8.2 -6.32,0 -5.8,-0.48 -7.79,3.28 -2.4,-1.76 0.37,-3.28 -6.14,-3.28 -3.33,0 -5.44,0.5 -9.05,0.03 -3.59,-0.46 0.27,-6.17 -3.66,-6.17l-5.33 0 0 -27.05c1.69,-0.14 0.93,-0.42 2.46,-0.41l19.26 0.22c8.51,-0.19 7.93,2.23 12.05,-10.31 2.98,-9.1 18.69,-46.67 18.69,-50.57 0,-3.95 -14.68,-1.41 -17.62,-3.27 4.42,-1.03 8.61,-1.46 8.61,-4.92 0,-4.38 -11.25,0.41 -14.35,0.41 -1.16,0 -2.21,-2.34 -2.46,-3.28 1.55,-2.31 8.61,-7.94 8.61,-10.66 0,-5.51 -5.09,-1.52 -6.61,0.36 -0.97,1.2 -5.13,5.97 -6.09,6.61l-6.13 -2.51c-0.02,-4.26 1.37,-13.46 -2.85,-13.37 -4.32,0.09 -2.5,8.82 -2.5,13.42z"/>
   <path class="fil1" d="M75.33 86.13c-20,0.46 -44.91,0.13 -65.75,0.08 -3.35,-0.01 -6.42,-0.99 -6.29,2.78l34.95 0.12 0.08 32.12 -7.13 0.14c-0.15,2.85 0.29,2.47 2.93,2.46 4.43,-0.01 16.03,0.54 18.74,0.13l0.01 -2.92 -7.34 -0.15 0.02 -31.65 30.4 -0.07 22.11 -58.01c-2.84,-0.31 -3.24,3.65 -4.01,5.68 -3.41,9.1 -16.96,46.63 -18.72,49.29z"/>
   <path class="fil1" d="M42.51 46.86l21.44 0 6.5 -16.38c-3.48,-0.08 -20.51,-0.76 -21.85,0.32 -0.84,0.69 -6.18,14.93 -6.09,16.06z"/>
   <path class="fil1" d="M18.4 46.8l21.51 0.06 6.52 -16.34c-3.19,-0.33 -20.58,-0.92 -21.9,0.33 -0.45,0.43 -6.1,15.35 -6.13,15.95z"/>
   <polygon class="fil1" points="35.22,65.19 57.19,65.17 63.55,48.7 41.68,48.68 "/>
   <path class="fil1" d="M11.21 65.12l18.86 0.06c4.1,0 2.57,1.15 5.8,-7.05 0.99,-2.5 3.31,-7 3.34,-9.47l-21.45 0.05 -6.55 16.41z"/>
   <path class="fil1" d="M66.39 46.76l19.83 0.1c3.11,0 3.74,-5 4.73,-7.43 0.71,-1.74 3.27,-7.7 3.29,-9.02l-19.13 -0.09c-3.44,0.01 -2.9,1.08 -4.16,4.28 -0.86,2.21 -4.49,10.76 -4.56,12.16z"/>
   <path class="fil1" d="M59.21 65.13l21.27 0.05c1.23,-0.67 6.61,-14.39 6.9,-16.47l-21.65 -0.01 -6.52 16.43z"/>
   <path class="fil1" d="M52.74 83.42l21.63 0.08 6.42 -16.29c-2.68,-0.36 -20.49,-0.6 -21.69,0.22 -0.6,0.41 -6.13,14.56 -6.36,15.99z"/>
   <polygon class="fil1" points="28.55,83.46 50.46,83.43 56.88,67.07 34.95,67.05 "/>
   <polygon class="fil1" points="4.54,83.38 26.4,83.51 32.81,67.24 10.88,67.08 "/>
   <path class="fil2" d="M60.83 15.42l-9.52 2.86 -9.06 -9.06 8.37 10.23 -3.97 6.1 -12.69 -2.62c0.46,1.5 10.31,3.39 12.14,3.88 2.83,0.76 26.63,0.64 30.5,-0.43 2.31,-0.64 11.73,-2 12.27,-3.53l-14.03 2.5 -3.45 -5.74 9.01 -11.23 -9.62 10.46 -8.82 -3.79 -1.14 -12.39 0.01 12.76z"/>
   <path class="fil2" d="M61.08 144.76c4.46,0.32 3.25,-0.43 3.8,-4.35 0.31,-2.18 0.34,-5.37 1.27,-6.93l1.75 11.23 3.39 0.07c1.2,-2.7 3.01,-9.54 4.68,-11.33l-1.08 11.25 2.72 0.06c0.93,-1.3 0.39,-0.26 0.71,-2.07 0.1,-0.52 0.15,-1.42 0.24,-2.2 0.16,-1.51 0.36,-2.72 0.58,-4.32 0.35,-2.5 1.01,-6.36 0.95,-8.78l-5.28 -0.06 -4.32 11.2 -1.95 -11.16 -5.25 -0.03 -2.21 17.42z"/>
   <path class="fil2" d="M45 144.76l11.74 0.14c1.97,-0.25 1.97,-2.02 1.22,-2.71 -0.85,-0.77 -7.39,-0.33 -9.1,-0.41 0.02,-5.45 0.32,-4.83 5.4,-4.72 3.26,0.08 3.9,0.67 3.9,-2.33l-3.91 -0.54c-1.52,0.03 -2.82,0.08 -4.34,-0.07 -0.59,-4.85 0.04,-3.75 9.68,-4.07l0.17 -2.71c-2.7,-0.08 -5.33,-0.04 -7.97,-0.05 -4.52,-0.01 -4.8,-1.09 -5.25,3.07 -0.36,3.26 -1.93,11.96 -1.54,14.4z"/>
   <path class="fil2" d="M87.3 137.76c0.18,-1.38 2.18,-5.12 2.92,-5.84 0.46,1.47 1.36,4.27 1.22,5.97l-4.14 -0.13zm-7.35 6.93c4.75,0.33 3.85,-0.17 5.51,-3.72l6.91 -0.08 1.29 3.93 3.51 0.03 -4.63 -17.53 -3.84 0 -8.75 17.37z"/>
   <path class="fil2" d="M9.28 130.31c2.72,-0.15 6.19,-0.51 5.64,2.71 -0.41,2.39 -3.41,2.36 -6.35,2.19l0.71 -4.9zm-5.31 14.47c5.36,0.36 3.06,-1.67 4.26,-6.46 4.66,-0.25 8.11,0.08 9.82,-3.33 2.3,-4.61 -0.09,-7.58 -4.76,-7.69 -8.06,-0.18 -7.22,-1.49 -8.04,5.65 -0.31,2.71 -1.58,9.53 -1.28,11.83z"/>
   <path class="fil2" d="M41.87 139.37l-2.98 -0.84c-1.85,5 -8.43,5.31 -7.84,-2.14 0.21,-2.52 1.13,-4.74 2.81,-5.7 3.56,-2.02 4.66,0.38 6.05,2l3.14 -0.5c-0.09,-7.19 -13.7,-7.97 -15.61,3.55 -2.12,12.84 14.56,10.96 14.43,3.63z"/>
   <polygon class="fil2" points="20.06,144.7 23.57,144.74 25.75,127.39 22.26,127.3 "/>
   <path class="fil3" d="M70.78 154.01c-2.71,0.45 -4.11,-0.08 -3.31,-3.14 0.55,-2.13 2.18,-2.52 4.07,-1.88 0.79,2.3 0.53,3.46 -0.76,5.02zm2.51 -0.57c2.98,-6.57 -5.44,-8.4 -7.23,-3.58 -2.65,7.1 5.67,7.03 7.23,3.58z"/>
   <path class="fil3" d="M28.57 148.67l3.09 0.4c-0.23,2.21 -0.94,1.8 -3.39,1.76l0.3 -2.16zm2.74 3.26c1.99,-0.9 2.5,-1.73 1.74,-4.19 -1.6,-0.47 -4.19,-0.62 -6.1,-0.18l-0.88 6.69c-0.01,1.96 -0.16,0.92 0.72,1.34 1.84,-0.84 0.3,-1.73 1.64,-3.5 3.14,0.88 1.19,3.77 4.72,3.39 -0.37,-1.42 -1.23,-2.52 -1.84,-3.55z"/>
   <path class="fil3" d="M16.14 155.49c0.64,-1.19 0.63,-2.87 0.82,-4.36 0.61,-4.84 0.55,-3.58 -0.82,-3.74 -0.79,1.44 -0.36,3.37 -1.23,5.02 -1.51,-4.02 -1.82,-4.89 -3.69,-5.02 -0.71,1.12 -1.59,7.05 -0.82,8.17 2.35,-0.69 0.26,-2.4 2.15,-4.58 1.17,3.3 1.66,4.56 3.59,4.51z"/>
   <path class="fil3" d="M92.55 148.75l3.11 0.22 -0.02 1.56 -3.39 0.26 0.3 -2.04zm2.79 3.22c3.7,-1.71 2.95,-5.48 -2.98,-4.62l-1.06 0.33c-0.31,-0.48 -1.72,6.15 -0.57,7.8 1.6,-0.75 0.43,0.69 1.14,-1.61 0.34,-1.08 -0.22,-0.33 0.5,-1.61 3.57,0.38 0.79,3.53 4.75,3.25 -0.24,-1.35 -1.14,-2.71 -1.78,-3.54z"/>
   <path class="fil3" d="M42.15 151.28c-1.37,-0.13 -2.31,-0.36 -3.38,0.25 0.12,1.17 0.04,0.39 0.52,0.92 0.7,0.75 0.72,0.1 1.08,1.2 -1.67,0.71 -2.3,0.74 -3.87,0.09 -0.76,-4.17 1.14,-5.84 3.51,-4.8 1.56,0.69 -0.22,0.82 2.17,0.78 0.29,-4.19 -7.59,-3.23 -7.66,2.23 -0.03,2.61 1.52,3.91 4.12,3.73 3.23,-0.23 3.65,-1.36 3.51,-4.4z"/>
   <path class="fil3" d="M45.91 155.39c1.76,0.33 1.85,-0.49 2.55,-1.67l2.92 0.02c1.49,1.56 -0.49,1.84 2.38,1.82 -0.04,-2.15 -1.32,-6.99 -2.38,-8.16 -2.06,0 -1.46,-0.12 -3.36,3.67 -0.78,1.57 -1.53,2.96 -2.11,4.32z"/>
   <path class="fil3" d="M81.71 155.51c2.11,-0.55 0.66,-0.17 2.05,-1.78l2.87 0.06c0.98,2.03 -0.07,1.11 1.64,1.71 0.47,-0.82 0.53,-0.9 0.13,-2.44l-1.6 -5.69c-2.06,0.02 -1.8,-0.18 -2.56,1.35 -0.34,0.66 -0.67,1.46 -1.05,2.23l-1.72 3.26c-0.18,1.03 -0.08,0.69 0.24,1.3z"/>
   <path class="fil3" d="M4.52 150.46c-0.17,-3.09 2.1,-1.04 4.62,-1.98 -0.36,-1.26 0.85,-1.55 -6.05,-1.08l-0.83 8.2c4.16,-0.02 5.35,0.6 6.17,-0.79 -1.15,-0.86 -2.72,-0.52 -4.44,-0.6l0.09 -2.03 3.38 -0.34c0.87,-0.14 0.41,-0.02 0.92,-0.31 -0.48,-1.43 1.06,-0.7 -1.63,-1.02 -0.56,-0.07 -1.43,0.04 -2.23,-0.05z"/>
   <path class="fil3" d="M20.71 149.07c2.28,-1.18 3.43,0.96 4.55,-1.23 -1.24,-0.83 -2.29,-0.46 -6.04,-0.53l-0.9 8.22c2.69,-0.08 4.85,0.46 6.18,-0.72 -0.55,-0.39 -0.1,-0.23 -1.02,-0.47 -0.45,-0.12 -0.71,-0.11 -1.18,-0.13 -0.53,-0.02 -1.36,0.05 -2.06,0.05l0.04 -2.25c0.66,-0.07 2.59,-0.02 2.87,-0.07 1.96,-0.35 1.01,0.62 1.36,-1.35l-3.9 -0.29 0.1 -1.23z"/>
   <path class="fil3" d="M60.13 149.07c0.55,-0.63 1.3,-0.65 1.92,-0.37 1.84,0.85 -0.57,1.12 2.48,0.87 -0.29,-1.75 -0.61,-2.3 -2.57,-2.4 -1.51,-0.07 -2.8,0.53 -3.27,1.44 -0.8,1.56 -0.03,2.59 1.14,3.06 2.63,1.08 2.41,-0.4 2.78,2.14 -4.59,1.96 -1.53,-1.3 -4.86,-0.83 -0.11,3.87 7.25,4.27 6.33,-1.5 -2.52,-1.68 -3.42,-0.37 -3.95,-2.41z"/>
   <path class="fil0" d="M8.57 135.21c2.94,0.17 5.94,0.2 6.35,-2.19 0.55,-3.22 -2.92,-2.86 -5.64,-2.71l-0.71 4.9z"/>
   <path class="fil0" d="M70.78 154.01c1.29,-1.56 1.55,-2.72 0.76,-5.02 -1.89,-0.64 -3.52,-0.25 -4.07,1.88 -0.8,3.06 0.6,3.59 3.31,3.14z"/>
   <path class="fil3" d="M76.61 154.22c-0.14,-1.43 0.04,-2.25 0.22,-3.51 0.04,-0.25 0.21,-1.89 0.19,-2.05 -0.15,-1.21 -0.01,-0.61 -0.64,-1.27 -1.34,0.51 -0.55,-1.01 -1.07,1.59l-0.53 6.6c3.67,0.03 4.95,0.58 5.67,-0.77 -1.02,-0.84 -2.17,-0.54 -3.84,-0.59z"/>
   <path class="fil0" d="M87.3 137.76l4.14 0.13c0.14,-1.7 -0.76,-4.5 -1.22,-5.97 -0.74,0.72 -2.74,4.46 -2.92,5.84z"/>
   <path class="fil3" d="M45.75 147.36c-2.21,-0.14 -1.55,1.03 -1.82,3.28 -0.18,1.44 -0.52,3.25 -0.51,4.84l1.5 0.1 0.83 -8.22z"/>
   <path class="fil0" d="M28.27 150.83c2.45,0.04 3.16,0.45 3.39,-1.76l-3.09 -0.4 -0.3 2.16z"/>
   <polygon class="fil0" points="92.25,150.79 95.64,150.53 95.66,148.97 92.55,148.75 "/>
  </g>
 </g>
</svg>
