<?xml version="1.0" encoding="UTF-8"?>
<!DOCTYPE svg PUBLIC "-//W3C//DTD SVG 1.1//EN" "http://www.w3.org/Graphics/SVG/1.1/DTD/svg11.dtd">
<!-- Creator: CorelDRAW 2020 (64 Bit) -->
<svg xmlns="http://www.w3.org/2000/svg" xml:space="preserve" width="561px" height="557px" version="1.1" style="shape-rendering:geometricPrecision; text-rendering:geometricPrecision; image-rendering:optimizeQuality; fill-rule:evenodd; clip-rule:evenodd"
viewBox="0 0 824.28 818.81"
 xmlns:xlink="http://www.w3.org/1999/xlink"
 xmlns:xodm="http://www.corel.com/coreldraw/odm/2003">
 <defs>
  <style type="text/css">
   <![CDATA[
    .fil0 {fill:black}
   ]]>
  </style>
 </defs>
 <g id="Camada_x0020_1">
  <metadata id="CorelCorpID_0Corel-Layer"/>
  <path class="fil0" d="M80.55 610.72c91.84,21.34 89.13,40.55 228.58,40.82 126.18,0.25 136.12,-14.89 231.74,-42.1 3.95,81.7 0.21,88.4 -69.21,110.67 -90.34,28.96 -229.94,29.17 -320.25,0.31 -72.69,-23.23 -73.62,-25.24 -70.86,-109.7zm102.28 -136.89c38.3,6.98 81.88,12.01 121.18,12.01 127.95,0 136.35,-14.51 237.52,-42.69 0,24.28 3.32,56.47 -4.56,75.52 -23.88,42.61 -169.63,56.27 -238.09,56.27 -50.06,0 -111,-8.36 -153.58,-22.65 -67.81,-22.77 -65.15,-29.89 -65.15,-106.74 24.89,3 67.81,21.93 102.68,28.28zm-101 -126.31c24.21,-85.91 428.5,-89.58 457.96,0 -60.75,81.53 -409.74,80.33 -457.96,0zm-76.67 343.22c24.24,141.72 409.33,170.83 570.82,62.13 37.5,-25.25 42.32,-52.97 42.09,-113.35 -0.29,-77.19 9.2,-240.08 -1.56,-306.93 -22.22,-137.96 -404.47,-175.1 -573.81,-61.83 -35.71,23.89 -39.28,56.72 -39.1,112.59 0.25,74.26 -9.2,244.55 1.56,307.39z"/>
  <path class="fil0" d="M584.68 197.67c-1.27,1.13 -4.26,4.49 -4.97,5.31 -0.62,0.72 -2.26,4.48 -2.73,3.56 -0.52,-1.02 -1.87,2.68 -2.84,3.99 28.61,7.94 57.62,33.49 66.63,57.37 44.21,-2.59 69.26,-19.51 105.67,-29.66 0,118.04 2.82,65.63 -76.85,115.24l0.07 74.07c28.29,-1.3 51.75,-16.09 76.83,-23.01l-1.91 76.19c-19.9,11.99 -44.93,26.56 -74.92,37.9l-0.06 74.44c41.8,0.77 114.64,-41.52 130.98,-61.55 31.9,-39.11 22.36,-110.04 22.36,-168.63 0,-63.18 -0.18,-126.38 0.07,-189.55 0.3,-77.22 -16.92,-94.72 -66.68,-124.47 -78.25,-46.79 -221.63,-55.79 -324.18,-44.44 -96.41,10.67 -222.83,36.14 -223.47,153.8l79.96 -6.2c6.26,-19.85 -13.52,-18.83 27.24,-38.55 127.19,-61.55 401.8,-43.05 429.63,29.13 -24.23,29.88 -105.16,59.46 -160.83,55.06z"/>
 </g>
</svg>
