<?xml version="1.0" encoding="UTF-8"?>
<!DOCTYPE svg PUBLIC "-//W3C//DTD SVG 1.1//EN" "http://www.w3.org/Graphics/SVG/1.1/DTD/svg11.dtd">
<!-- Creator: CorelDRAW 2020 (64 Bit) -->
<svg xmlns="http://www.w3.org/2000/svg" xml:space="preserve" width="469px" height="375px" version="1.1" style="shape-rendering:geometricPrecision; text-rendering:geometricPrecision; image-rendering:optimizeQuality; fill-rule:evenodd; clip-rule:evenodd"
viewBox="0 0 1052.68 842.28"
 xmlns:xlink="http://www.w3.org/1999/xlink"
 xmlns:xodm="http://www.corel.com/coreldraw/odm/2003">
 <defs>
  <style type="text/css">
   <![CDATA[
    .fil0 {fill:black}
   ]]>
  </style>
 </defs>
 <g id="Camada_x0020_1">
  <metadata id="CorelCorpID_0Corel-Layer"/>
  <g id="_2234410247232">
   <path class="fil0" d="M552.85 314.09c0,-29.46 3.62,-59.83 -18,-71.84 -24.43,-13.58 -49.86,0.45 -57.44,20.45 -12.28,32.41 6.17,135.51 -8.24,165.85 -9.1,19.15 -40.48,26.18 -60.47,8.58 -24.75,-21.78 -21.32,-200.75 0.49,-226.52 33.04,-39.04 89.71,-26.77 152.63,-26.77 186.58,0 146.49,18.22 256.8,-91.17 75.38,-74.76 11.38,-93.05 -3.41,-92.66 -27.62,0.73 -80.97,63.15 -98.04,80.86 -24,24.91 -18.64,24.58 -65.58,24.07 -63.67,-0.7 -199.75,-7.09 -247.17,11.34 -35.9,13.96 -70.27,51.92 -82.1,91.85 -11.24,37.9 -6.28,121.41 -6.41,165.55 -0.47,163.79 122.27,170.32 177.44,137.09 36.11,-21.75 58.95,-56.57 59.5,-114.46 41.89,-5.09 112.6,-2.48 156.93,-1.83 73.67,1.08 67.19,62.77 25.12,78.37 -75.88,28.14 -0.26,65.5 -32.25,104.73 -11.8,14.46 -39.17,11.67 -55.52,23.76 -24.58,18.18 0.87,31.42 -29.43,51.39 -29.62,20.95 -185.11,-7.49 -234.15,11.78 -27.32,10.74 -118.25,97.67 -128.45,119.89 -16.94,36.91 17.19,71.11 52.74,52.77 60.62,-31.28 59.07,-100.81 143.09,-99.94 76.69,0.78 179.7,11.98 222.76,-25.04 44.18,-37.99 -6.42,-19.04 61.23,-59.94 22.51,-13.6 42.3,-35.03 50.91,-70.22 5.6,-22.89 -0.24,-38.69 9.84,-53.85 4.63,-6.98 18.97,-16.14 28.26,-29.6 44.73,-64.8 5.41,-142.6 -43.96,-169.08 -51.72,-27.75 -161.48,-7.44 -227.12,-15.41z"/>
   <path class="fil0" d="M262.8 220.44c-94.61,31.04 -58.93,164.7 -120.34,224.23 -30.6,29.65 -56.88,56.69 -87.09,86.89 -16.43,16.42 -78.09,61.57 -46.49,99.33 36.82,44 90.51,-30.02 105.8,-45.31 29.41,-29.41 54.91,-54.96 84.38,-84.33 70.89,-70.63 64.01,-180.6 63.74,-280.81z"/>
   <path class="fil0" d="M894.57 409.38c22.98,-15.28 64.78,-62.05 87.49,-84.76 16.75,-16.74 77.17,-62.91 70.03,-97.37 -5.06,-24.39 -31.66,-36.79 -58.78,-23.6l-127.99 127.83c11.59,31.21 20.25,37.55 29.25,77.9z"/>
  </g>
 </g>
</svg>
