<svg xmlns="http://www.w3.org/2000/svg" xmlns:xlink="http://www.w3.org/1999/xlink" width="100" zoomAndPan="magnify" viewBox="0 0 75 74.999997" height="100" preserveAspectRatio="xMidYMid meet" version="1.0"><defs><clipPath id="82fe38d8f3"><path d="M 0 1.296875 L 75 1.296875 L 75 74 L 0 74 Z M 0 1.296875 " clip-rule="nonzero"/></clipPath><clipPath id="2a9d74d18c"><path d="M 9.714844 9.714844 L 65.964844 9.714844 L 65.964844 65.964844 L 9.714844 65.964844 Z M 9.714844 9.714844 " clip-rule="nonzero"/></clipPath><clipPath id="1e153bc400"><path d="M 18.519531 20.109375 L 56.019531 20.109375 L 56.019531 55 L 18.519531 55 Z M 18.519531 20.109375 " clip-rule="nonzero"/></clipPath><clipPath id="c10f28803f"><path d="M 18.519531 26 L 56.019531 26 L 56.019531 29 L 18.519531 29 Z M 18.519531 26 " clip-rule="nonzero"/></clipPath></defs><g clip-path="url(#82fe38d8f3)"><path fill="#ffcc00" d="M 74.984375 37.492188 C 74.984375 57.480469 58.203125 73.6875 37.5 73.6875 C 16.796875 73.6875 0.0117188 57.480469 0.0117188 37.492188 C 0.0117188 17.503906 16.796875 1.296875 37.5 1.296875 C 58.203125 1.296875 74.984375 17.5 74.984375 37.492188 Z M 74.984375 37.492188 " fill-opacity="1" fill-rule="nonzero"/></g><path fill="#ffffff" d="M 68.074219 37.492188 C 68.074219 38.492188 68.023438 39.492188 67.925781 40.488281 C 67.828125 41.484375 67.679688 42.472656 67.484375 43.457031 C 67.289062 44.4375 67.046875 45.410156 66.757812 46.367188 C 66.464844 47.324219 66.128906 48.265625 65.746094 49.191406 C 65.363281 50.117188 64.933594 51.019531 64.460938 51.90625 C 63.992188 52.789062 63.476562 53.644531 62.921875 54.476562 C 62.363281 55.3125 61.769531 56.113281 61.132812 56.886719 C 60.496094 57.664062 59.824219 58.402344 59.117188 59.113281 C 58.410156 59.820312 57.667969 60.492188 56.894531 61.125 C 56.121094 61.761719 55.316406 62.359375 54.484375 62.914062 C 53.652344 63.46875 52.792969 63.984375 51.910156 64.457031 C 51.027344 64.929688 50.125 65.355469 49.199219 65.738281 C 48.273438 66.121094 47.332031 66.460938 46.375 66.75 C 45.414062 67.039062 44.445312 67.285156 43.464844 67.480469 C 42.480469 67.675781 41.492188 67.820312 40.496094 67.917969 C 39.5 68.015625 38.5 68.066406 37.5 68.066406 C 36.496094 68.066406 35.496094 68.015625 34.5 67.917969 C 33.503906 67.820312 32.515625 67.675781 31.535156 67.480469 C 30.550781 67.285156 29.582031 67.039062 28.621094 66.75 C 27.664062 66.460938 26.722656 66.121094 25.796875 65.738281 C 24.871094 65.355469 23.96875 64.929688 23.085938 64.457031 C 22.203125 63.984375 21.34375 63.46875 20.511719 62.914062 C 19.679688 62.359375 18.875 61.761719 18.101562 61.125 C 17.328125 60.492188 16.585938 59.820312 15.878906 59.113281 C 15.171875 58.402344 14.5 57.664062 13.863281 56.886719 C 13.226562 56.113281 12.632812 55.3125 12.078125 54.476562 C 11.519531 53.644531 11.003906 52.789062 10.535156 51.90625 C 10.0625 51.019531 9.632812 50.117188 9.25 49.191406 C 8.867188 48.265625 8.53125 47.324219 8.238281 46.367188 C 7.949219 45.410156 7.707031 44.4375 7.511719 43.457031 C 7.316406 42.472656 7.167969 41.484375 7.070312 40.488281 C 6.972656 39.492188 6.921875 38.492188 6.921875 37.492188 C 6.921875 36.492188 6.972656 35.492188 7.070312 34.496094 C 7.167969 33.5 7.316406 32.507812 7.511719 31.527344 C 7.707031 30.542969 7.949219 29.574219 8.238281 28.617188 C 8.53125 27.65625 8.867188 26.714844 9.25 25.792969 C 9.632812 24.867188 10.0625 23.960938 10.535156 23.078125 C 11.003906 22.195312 11.519531 21.335938 12.078125 20.503906 C 12.632812 19.671875 13.226562 18.871094 13.863281 18.09375 C 14.5 17.320312 15.171875 16.582031 15.878906 15.871094 C 16.585938 15.164062 17.328125 14.492188 18.101562 13.855469 C 18.875 13.222656 19.679688 12.625 20.511719 12.070312 C 21.34375 11.511719 22.203125 11 23.085938 10.527344 C 23.96875 10.054688 24.871094 9.628906 25.796875 9.246094 C 26.722656 8.859375 27.664062 8.523438 28.621094 8.234375 C 29.582031 7.941406 30.550781 7.699219 31.535156 7.503906 C 32.515625 7.308594 33.503906 7.164062 34.5 7.0625 C 35.496094 6.964844 36.496094 6.917969 37.5 6.917969 C 38.5 6.917969 39.5 6.964844 40.496094 7.0625 C 41.492188 7.164062 42.480469 7.308594 43.464844 7.503906 C 44.445312 7.699219 45.414062 7.941406 46.375 8.234375 C 47.332031 8.523438 48.273438 8.859375 49.199219 9.246094 C 50.125 9.628906 51.027344 10.054688 51.910156 10.527344 C 52.792969 11 53.652344 11.511719 54.484375 12.070312 C 55.316406 12.625 56.121094 13.222656 56.894531 13.855469 C 57.667969 14.492188 58.410156 15.164062 59.117188 15.871094 C 59.824219 16.582031 60.496094 17.320312 61.132812 18.09375 C 61.769531 18.871094 62.363281 19.671875 62.921875 20.503906 C 63.476562 21.335938 63.992188 22.195312 64.460938 23.078125 C 64.933594 23.960938 65.363281 24.867188 65.746094 25.792969 C 66.128906 26.714844 66.464844 27.65625 66.757812 28.617188 C 67.046875 29.574219 67.289062 30.542969 67.484375 31.527344 C 67.679688 32.507812 67.828125 33.5 67.925781 34.496094 C 68.023438 35.492188 68.074219 36.492188 68.074219 37.492188 Z M 68.074219 37.492188 " fill-opacity="1" fill-rule="nonzero"/><path fill="#f8c40f" d="M 63.738281 37.492188 C 63.738281 38.351562 63.695312 39.207031 63.613281 40.0625 C 63.527344 40.917969 63.402344 41.765625 63.234375 42.609375 C 63.066406 43.453125 62.859375 44.285156 62.609375 45.105469 C 62.359375 45.929688 62.070312 46.738281 61.742188 47.53125 C 61.410156 48.324219 61.042969 49.101562 60.640625 49.859375 C 60.234375 50.617188 59.792969 51.351562 59.316406 52.066406 C 58.839844 52.78125 58.328125 53.46875 57.78125 54.132812 C 57.238281 54.796875 56.660156 55.433594 56.054688 56.042969 C 55.445312 56.648438 54.808594 57.226562 54.144531 57.769531 C 53.480469 58.316406 52.792969 58.828125 52.078125 59.304688 C 51.363281 59.78125 50.628906 60.222656 49.871094 60.628906 C 49.113281 61.03125 48.335938 61.398438 47.542969 61.726562 C 46.75 62.054688 45.941406 62.34375 45.117188 62.59375 C 44.296875 62.84375 43.464844 63.054688 42.621094 63.21875 C 41.777344 63.386719 40.929688 63.515625 40.074219 63.597656 C 39.21875 63.683594 38.363281 63.726562 37.503906 63.726562 C 36.644531 63.726562 35.789062 63.683594 34.933594 63.597656 C 34.078125 63.515625 33.230469 63.386719 32.386719 63.222656 C 31.542969 63.054688 30.710938 62.84375 29.890625 62.59375 C 29.066406 62.347656 28.257812 62.058594 27.464844 61.726562 C 26.671875 61.398438 25.894531 61.03125 25.136719 60.628906 C 24.378906 60.222656 23.644531 59.78125 22.929688 59.304688 C 22.214844 58.828125 21.527344 58.316406 20.863281 57.769531 C 20.199219 57.226562 19.5625 56.648438 18.953125 56.042969 C 18.347656 55.433594 17.769531 54.796875 17.226562 54.132812 C 16.679688 53.46875 16.167969 52.78125 15.691406 52.066406 C 15.214844 51.351562 14.773438 50.617188 14.367188 49.859375 C 13.960938 49.101562 13.59375 48.324219 13.265625 47.53125 C 12.9375 46.738281 12.648438 45.929688 12.398438 45.109375 C 12.148438 44.285156 11.941406 43.453125 11.773438 42.609375 C 11.605469 41.769531 11.480469 40.917969 11.394531 40.0625 C 11.3125 39.210938 11.269531 38.351562 11.269531 37.492188 C 11.269531 36.632812 11.3125 35.777344 11.394531 34.921875 C 11.480469 34.066406 11.605469 33.21875 11.773438 32.375 C 11.941406 31.53125 12.148438 30.699219 12.398438 29.878906 C 12.648438 29.054688 12.9375 28.246094 13.265625 27.453125 C 13.59375 26.660156 13.960938 25.882812 14.363281 25.125 C 14.769531 24.367188 15.210938 23.632812 15.6875 22.917969 C 16.164062 22.203125 16.675781 21.515625 17.222656 20.851562 C 17.765625 20.1875 18.34375 19.550781 18.949219 18.941406 C 19.558594 18.335938 20.191406 17.757812 20.855469 17.214844 C 21.519531 16.667969 22.210938 16.15625 22.925781 15.679688 C 23.640625 15.203125 24.375 14.761719 25.132812 14.355469 C 25.890625 13.949219 26.664062 13.582031 27.460938 13.253906 C 28.253906 12.925781 29.0625 12.636719 29.882812 12.386719 C 30.707031 12.136719 31.539062 11.929688 32.378906 11.761719 C 33.222656 11.59375 34.070312 11.464844 34.925781 11.382812 C 35.78125 11.296875 36.640625 11.253906 37.5 11.253906 C 38.359375 11.253906 39.214844 11.296875 40.070312 11.382812 C 40.925781 11.464844 41.773438 11.589844 42.617188 11.757812 C 43.460938 11.925781 44.292969 12.132812 45.117188 12.382812 C 45.9375 12.632812 46.746094 12.921875 47.539062 13.25 C 48.332031 13.578125 49.109375 13.945312 49.867188 14.351562 C 50.625 14.757812 51.363281 15.199219 52.078125 15.675781 C 52.792969 16.152344 53.480469 16.664062 54.144531 17.210938 C 54.808594 17.753906 55.445312 18.332031 56.054688 18.9375 C 56.660156 19.546875 57.238281 20.183594 57.78125 20.847656 C 58.328125 21.511719 58.839844 22.199219 59.316406 22.914062 C 59.792969 23.628906 60.234375 24.363281 60.640625 25.121094 C 61.046875 25.878906 61.414062 26.65625 61.742188 27.449219 C 62.070312 28.246094 62.359375 29.050781 62.609375 29.875 C 62.859375 30.699219 63.066406 31.53125 63.234375 32.371094 C 63.402344 33.214844 63.527344 34.066406 63.613281 34.917969 C 63.695312 35.773438 63.738281 36.632812 63.738281 37.492188 Z M 63.738281 37.492188 " fill-opacity="1" fill-rule="nonzero"/><path fill="#ffffff" d="M 35.890625 20.445312 L 39.121094 20.445312 L 39.121094 23.425781 C 42.730469 23.851562 45.066406 25.894531 46.132812 29.550781 L 41.683594 31.375 C 40.816406 28.871094 39.472656 27.621094 37.65625 27.617188 C 36.75 27.617188 36.019531 27.898438 35.460938 28.457031 C 34.894531 29.019531 34.617188 29.699219 34.636719 30.496094 C 34.636719 31.308594 34.902344 31.933594 35.433594 32.367188 C 35.964844 32.800781 37.101562 33.339844 38.851562 33.980469 C 40.769531 34.679688 42.269531 35.34375 43.359375 35.964844 C 44.464844 36.589844 45.335938 37.449219 45.972656 38.546875 C 46.625 39.644531 46.949219 40.925781 46.949219 42.394531 C 46.949219 44.648438 46.277344 46.523438 44.933594 48.027344 C 43.59375 49.53125 41.65625 50.414062 39.121094 50.679688 L 39.121094 54.535156 L 35.894531 54.535156 L 35.894531 50.699219 C 31.671875 50.265625 29.054688 47.808594 28.046875 43.332031 L 33.039062 42.03125 C 33.503906 44.84375 35.03125 46.25 37.628906 46.25 C 38.847656 46.25 39.742188 45.949219 40.3125 45.347656 C 40.90625 44.738281 41.191406 44.011719 41.175781 43.164062 C 41.175781 42.285156 40.886719 41.617188 40.3125 41.164062 C 39.742188 40.707031 38.46875 40.132812 36.496094 39.433594 C 34.71875 38.820312 33.332031 38.210938 32.335938 37.605469 C 31.304688 36.976562 30.492188 36.136719 29.902344 35.078125 C 29.25 33.898438 28.941406 32.636719 28.96875 31.289062 C 28.953125 29.402344 29.507812 27.703125 30.636719 26.191406 C 31.75 24.683594 33.5 23.761719 35.890625 23.425781 Z M 35.890625 20.445312 " fill-opacity="1" fill-rule="nonzero"/><g clip-path="url(#2a9d74d18c)"><path fill="#f8c40f" d="M 37.488281 9.714844 C 52.824219 9.714844 65.261719 22.148438 65.261719 37.488281 C 65.261719 52.824219 52.824219 65.261719 37.488281 65.261719 C 22.148438 65.261719 9.714844 52.824219 9.714844 37.488281 C 9.714844 22.148438 22.148438 9.714844 37.488281 9.714844 Z M 37.488281 9.714844 " fill-opacity="1" fill-rule="evenodd"/></g><g clip-path="url(#1e153bc400)"><path fill="#ffffff" d="M 52.503906 54.882812 L 22.472656 54.882812 C 20.292969 54.882812 18.519531 53.109375 18.519531 50.933594 L 18.519531 24.058594 C 18.519531 21.882812 20.292969 20.109375 22.472656 20.109375 L 52.503906 20.109375 C 54.683594 20.109375 56.457031 21.882812 56.457031 24.058594 L 56.457031 50.933594 C 56.457031 53.109375 54.683594 54.882812 52.503906 54.882812 Z M 22.472656 21.6875 C 21.164062 21.6875 20.101562 22.753906 20.101562 24.058594 L 20.101562 50.933594 C 20.101562 52.238281 21.164062 53.304688 22.472656 53.304688 L 52.503906 53.304688 C 53.8125 53.304688 54.875 52.238281 54.875 50.933594 L 54.875 24.058594 C 54.875 22.753906 53.8125 21.6875 52.503906 21.6875 Z M 22.472656 21.6875 " fill-opacity="1" fill-rule="nonzero"/></g><g clip-path="url(#c10f28803f)"><path fill="#ffffff" d="M 55.667969 28.011719 L 19.3125 28.011719 C 18.875 28.011719 18.519531 27.65625 18.519531 27.222656 C 18.519531 26.785156 18.875 26.429688 19.3125 26.429688 L 55.667969 26.429688 C 56.101562 26.429688 56.457031 26.785156 56.457031 27.222656 C 56.457031 27.65625 56.101562 28.011719 55.667969 28.011719 Z M 55.667969 28.011719 " fill-opacity="1" fill-rule="nonzero"/></g><path fill="#ffffff" d="M 43.8125 39.078125 C 42.066406 39.078125 40.648438 37.660156 40.648438 35.914062 C 40.648438 34.171875 42.066406 32.753906 43.8125 32.753906 C 45.554688 32.753906 46.972656 34.171875 46.972656 35.914062 C 46.972656 37.660156 45.554688 39.078125 43.8125 39.078125 Z M 43.8125 34.335938 C 42.941406 34.335938 42.230469 35.042969 42.230469 35.914062 C 42.230469 36.785156 42.941406 37.496094 43.8125 37.496094 C 44.683594 37.496094 45.390625 36.785156 45.390625 35.914062 C 45.390625 35.042969 44.683594 34.335938 43.8125 34.335938 Z M 43.8125 34.335938 " fill-opacity="1" fill-rule="nonzero"/><path fill="#ffffff" d="M 49.34375 46.980469 C 48.90625 46.980469 48.554688 46.625 48.554688 46.191406 L 48.554688 44.609375 C 48.554688 43.300781 47.488281 42.238281 46.183594 42.238281 L 41.441406 42.238281 C 40.132812 42.238281 39.070312 43.300781 39.070312 44.609375 L 39.070312 46.191406 C 39.070312 46.625 38.714844 46.980469 38.277344 46.980469 C 37.84375 46.980469 37.488281 46.625 37.488281 46.191406 L 37.488281 44.609375 C 37.488281 42.429688 39.261719 40.65625 41.441406 40.65625 L 46.183594 40.65625 C 48.359375 40.65625 50.132812 42.429688 50.132812 44.609375 L 50.132812 46.191406 C 50.132812 46.625 49.78125 46.980469 49.34375 46.980469 Z M 49.34375 46.980469 " fill-opacity="1" fill-rule="nonzero"/><path fill="#ffffff" d="M 30.375 43.820312 C 30.171875 43.820312 29.972656 43.742188 29.816406 43.589844 C 29.507812 43.28125 29.507812 42.777344 29.816406 42.472656 L 32.417969 39.867188 L 29.816406 37.265625 C 29.507812 36.957031 29.507812 36.457031 29.816406 36.148438 C 30.125 35.839844 30.625 35.839844 30.933594 36.148438 L 34.097656 39.308594 C 34.40625 39.617188 34.40625 40.117188 34.097656 40.425781 L 30.933594 43.589844 C 30.78125 43.742188 30.578125 43.820312 30.375 43.820312 Z M 30.375 43.820312 " fill-opacity="1" fill-rule="nonzero"/><path fill="#ffffff" d="M 33.140625 40.65625 L 24.050781 40.65625 C 23.617188 40.65625 23.261719 40.304688 23.261719 39.867188 C 23.261719 39.429688 23.617188 39.078125 24.050781 39.078125 L 33.140625 39.078125 C 33.578125 39.078125 33.933594 39.429688 33.933594 39.867188 C 33.933594 40.304688 33.578125 40.65625 33.140625 40.65625 Z M 33.140625 40.65625 " fill-opacity="1" fill-rule="nonzero"/></svg>