<svg xmlns="http://www.w3.org/2000/svg" xmlns:xlink="http://www.w3.org/1999/xlink" width="100" zoomAndPan="magnify" viewBox="0 0 75 74.999997" height="100" preserveAspectRatio="xMidYMid meet" version="1.0"><defs><clipPath id="b13b165641"><path d="M 0 1.296875 L 75 1.296875 L 75 74 L 0 74 Z M 0 1.296875 " clip-rule="nonzero"/></clipPath><clipPath id="de25ff7b74"><path d="M 9.714844 9.714844 L 65.964844 9.714844 L 65.964844 65.964844 L 9.714844 65.964844 Z M 9.714844 9.714844 " clip-rule="nonzero"/></clipPath><clipPath id="183552b268"><path d="M 20.882812 35 L 43 35 L 43 56.25 L 20.882812 56.25 Z M 20.882812 35 " clip-rule="nonzero"/></clipPath><clipPath id="da553ec5b2"><path d="M 29 22.5 L 45 22.5 L 45 38 L 29 38 Z M 29 22.5 " clip-rule="nonzero"/></clipPath><clipPath id="b272c95ec5"><path d="M 44.742188 18.433594 L 48.492188 18.433594 L 48.492188 25.933594 L 44.742188 25.933594 Z M 44.742188 18.433594 " clip-rule="nonzero"/></clipPath><clipPath id="968b6a3474"><path d="M 54 21 L 59 21 L 59 30 L 54 30 Z M 54 21 " clip-rule="nonzero"/></clipPath><clipPath id="4ef0e07f44"><path d="M 53.433594 21.828125 L 57.066406 20.902344 L 58.917969 28.171875 L 55.285156 29.097656 Z M 53.433594 21.828125 " clip-rule="nonzero"/></clipPath><clipPath id="ba0db2bd15"><path d="M 53.433594 21.828125 L 57.066406 20.902344 L 58.917969 28.171875 L 55.285156 29.097656 Z M 53.433594 21.828125 " clip-rule="nonzero"/></clipPath><clipPath id="e53f984003"><path d="M 49 25 L 55 25 L 55 34 L 49 34 Z M 49 25 " clip-rule="nonzero"/></clipPath><clipPath id="931068af81"><path d="M 48.648438 26.410156 L 52.265625 25.425781 L 54.238281 32.660156 L 50.621094 33.648438 Z M 48.648438 26.410156 " clip-rule="nonzero"/></clipPath><clipPath id="256b16ac14"><path d="M 48.648438 26.410156 L 52.265625 25.425781 L 54.238281 32.660156 L 50.621094 33.648438 Z M 48.648438 26.410156 " clip-rule="nonzero"/></clipPath></defs><g clip-path="url(#b13b165641)"><path fill="#ffcc00" d="M 74.984375 37.492188 C 74.984375 57.480469 58.203125 73.6875 37.5 73.6875 C 16.796875 73.6875 0.0117188 57.480469 0.0117188 37.492188 C 0.0117188 17.503906 16.796875 1.296875 37.5 1.296875 C 58.203125 1.296875 74.984375 17.5 74.984375 37.492188 Z M 74.984375 37.492188 " fill-opacity="1" fill-rule="nonzero"/></g><path fill="#ffffff" d="M 68.074219 37.492188 C 68.074219 38.492188 68.023438 39.492188 67.925781 40.488281 C 67.828125 41.484375 67.679688 42.472656 67.484375 43.457031 C 67.289062 44.4375 67.046875 45.410156 66.757812 46.367188 C 66.464844 47.324219 66.128906 48.265625 65.746094 49.191406 C 65.363281 50.117188 64.933594 51.019531 64.460938 51.90625 C 63.992188 52.789062 63.476562 53.644531 62.921875 54.476562 C 62.363281 55.3125 61.769531 56.113281 61.132812 56.886719 C 60.496094 57.664062 59.824219 58.402344 59.117188 59.113281 C 58.410156 59.820312 57.667969 60.492188 56.894531 61.125 C 56.121094 61.761719 55.316406 62.359375 54.484375 62.914062 C 53.652344 63.46875 52.792969 63.984375 51.910156 64.457031 C 51.027344 64.929688 50.125 65.355469 49.199219 65.738281 C 48.273438 66.121094 47.332031 66.460938 46.375 66.75 C 45.414062 67.039062 44.445312 67.285156 43.464844 67.480469 C 42.480469 67.675781 41.492188 67.820312 40.496094 67.917969 C 39.5 68.015625 38.5 68.066406 37.5 68.066406 C 36.496094 68.066406 35.496094 68.015625 34.5 67.917969 C 33.503906 67.820312 32.515625 67.675781 31.535156 67.480469 C 30.550781 67.285156 29.582031 67.039062 28.621094 66.75 C 27.664062 66.460938 26.722656 66.121094 25.796875 65.738281 C 24.871094 65.355469 23.96875 64.929688 23.085938 64.457031 C 22.203125 63.984375 21.34375 63.46875 20.511719 62.914062 C 19.679688 62.359375 18.875 61.761719 18.101562 61.125 C 17.328125 60.492188 16.585938 59.820312 15.878906 59.113281 C 15.171875 58.402344 14.5 57.664062 13.863281 56.886719 C 13.226562 56.113281 12.632812 55.3125 12.078125 54.476562 C 11.519531 53.644531 11.003906 52.789062 10.535156 51.90625 C 10.0625 51.019531 9.632812 50.117188 9.25 49.191406 C 8.867188 48.265625 8.53125 47.324219 8.238281 46.367188 C 7.949219 45.410156 7.707031 44.4375 7.511719 43.457031 C 7.316406 42.472656 7.167969 41.484375 7.070312 40.488281 C 6.972656 39.492188 6.921875 38.492188 6.921875 37.492188 C 6.921875 36.492188 6.972656 35.492188 7.070312 34.496094 C 7.167969 33.5 7.316406 32.507812 7.511719 31.527344 C 7.707031 30.542969 7.949219 29.574219 8.238281 28.617188 C 8.53125 27.65625 8.867188 26.714844 9.25 25.792969 C 9.632812 24.867188 10.0625 23.960938 10.535156 23.078125 C 11.003906 22.195312 11.519531 21.335938 12.078125 20.503906 C 12.632812 19.671875 13.226562 18.871094 13.863281 18.09375 C 14.5 17.320312 15.171875 16.582031 15.878906 15.871094 C 16.585938 15.164062 17.328125 14.492188 18.101562 13.855469 C 18.875 13.222656 19.679688 12.625 20.511719 12.070312 C 21.34375 11.511719 22.203125 11 23.085938 10.527344 C 23.96875 10.054688 24.871094 9.628906 25.796875 9.246094 C 26.722656 8.859375 27.664062 8.523438 28.621094 8.234375 C 29.582031 7.941406 30.550781 7.699219 31.535156 7.503906 C 32.515625 7.308594 33.503906 7.164062 34.5 7.0625 C 35.496094 6.964844 36.496094 6.917969 37.5 6.917969 C 38.5 6.917969 39.5 6.964844 40.496094 7.0625 C 41.492188 7.164062 42.480469 7.308594 43.464844 7.503906 C 44.445312 7.699219 45.414062 7.941406 46.375 8.234375 C 47.332031 8.523438 48.273438 8.859375 49.199219 9.246094 C 50.125 9.628906 51.027344 10.054688 51.910156 10.527344 C 52.792969 11 53.652344 11.511719 54.484375 12.070312 C 55.316406 12.625 56.121094 13.222656 56.894531 13.855469 C 57.667969 14.492188 58.410156 15.164062 59.117188 15.871094 C 59.824219 16.582031 60.496094 17.320312 61.132812 18.09375 C 61.769531 18.871094 62.363281 19.671875 62.921875 20.503906 C 63.476562 21.335938 63.992188 22.195312 64.460938 23.078125 C 64.933594 23.960938 65.363281 24.867188 65.746094 25.792969 C 66.128906 26.714844 66.464844 27.65625 66.757812 28.617188 C 67.046875 29.574219 67.289062 30.542969 67.484375 31.527344 C 67.679688 32.507812 67.828125 33.5 67.925781 34.496094 C 68.023438 35.492188 68.074219 36.492188 68.074219 37.492188 Z M 68.074219 37.492188 " fill-opacity="1" fill-rule="nonzero"/><path fill="#f8c40f" d="M 63.738281 37.492188 C 63.738281 38.351562 63.695312 39.207031 63.613281 40.0625 C 63.527344 40.917969 63.402344 41.765625 63.234375 42.609375 C 63.066406 43.453125 62.859375 44.285156 62.609375 45.105469 C 62.359375 45.929688 62.070312 46.738281 61.742188 47.53125 C 61.410156 48.324219 61.042969 49.101562 60.640625 49.859375 C 60.234375 50.617188 59.792969 51.351562 59.316406 52.066406 C 58.839844 52.78125 58.328125 53.46875 57.78125 54.132812 C 57.238281 54.796875 56.660156 55.433594 56.054688 56.042969 C 55.445312 56.648438 54.808594 57.226562 54.144531 57.769531 C 53.480469 58.316406 52.792969 58.828125 52.078125 59.304688 C 51.363281 59.78125 50.628906 60.222656 49.871094 60.628906 C 49.113281 61.03125 48.335938 61.398438 47.542969 61.726562 C 46.75 62.054688 45.941406 62.34375 45.117188 62.59375 C 44.296875 62.84375 43.464844 63.054688 42.621094 63.21875 C 41.777344 63.386719 40.929688 63.515625 40.074219 63.597656 C 39.21875 63.683594 38.363281 63.726562 37.503906 63.726562 C 36.644531 63.726562 35.789062 63.683594 34.933594 63.597656 C 34.078125 63.515625 33.230469 63.386719 32.386719 63.222656 C 31.542969 63.054688 30.710938 62.84375 29.890625 62.59375 C 29.066406 62.347656 28.257812 62.058594 27.464844 61.726562 C 26.671875 61.398438 25.894531 61.03125 25.136719 60.628906 C 24.378906 60.222656 23.644531 59.78125 22.929688 59.304688 C 22.214844 58.828125 21.527344 58.316406 20.863281 57.769531 C 20.199219 57.226562 19.5625 56.648438 18.953125 56.042969 C 18.347656 55.433594 17.769531 54.796875 17.226562 54.132812 C 16.679688 53.46875 16.167969 52.78125 15.691406 52.066406 C 15.214844 51.351562 14.773438 50.617188 14.367188 49.859375 C 13.960938 49.101562 13.59375 48.324219 13.265625 47.53125 C 12.9375 46.738281 12.648438 45.929688 12.398438 45.109375 C 12.148438 44.285156 11.941406 43.453125 11.773438 42.609375 C 11.605469 41.769531 11.480469 40.917969 11.394531 40.0625 C 11.3125 39.210938 11.269531 38.351562 11.269531 37.492188 C 11.269531 36.632812 11.3125 35.777344 11.394531 34.921875 C 11.480469 34.066406 11.605469 33.21875 11.773438 32.375 C 11.941406 31.53125 12.148438 30.699219 12.398438 29.878906 C 12.648438 29.054688 12.9375 28.246094 13.265625 27.453125 C 13.59375 26.660156 13.960938 25.882812 14.363281 25.125 C 14.769531 24.367188 15.210938 23.632812 15.6875 22.917969 C 16.164062 22.203125 16.675781 21.515625 17.222656 20.851562 C 17.765625 20.1875 18.34375 19.550781 18.949219 18.941406 C 19.558594 18.335938 20.191406 17.757812 20.855469 17.214844 C 21.519531 16.667969 22.210938 16.15625 22.925781 15.679688 C 23.640625 15.203125 24.375 14.761719 25.132812 14.355469 C 25.890625 13.949219 26.664062 13.582031 27.460938 13.253906 C 28.253906 12.925781 29.0625 12.636719 29.882812 12.386719 C 30.707031 12.136719 31.539062 11.929688 32.378906 11.761719 C 33.222656 11.59375 34.070312 11.464844 34.925781 11.382812 C 35.78125 11.296875 36.640625 11.253906 37.5 11.253906 C 38.359375 11.253906 39.214844 11.296875 40.070312 11.382812 C 40.925781 11.464844 41.773438 11.589844 42.617188 11.757812 C 43.460938 11.925781 44.292969 12.132812 45.117188 12.382812 C 45.9375 12.632812 46.746094 12.921875 47.539062 13.25 C 48.332031 13.578125 49.109375 13.945312 49.867188 14.351562 C 50.625 14.757812 51.363281 15.199219 52.078125 15.675781 C 52.792969 16.152344 53.480469 16.664062 54.144531 17.210938 C 54.808594 17.753906 55.445312 18.332031 56.054688 18.9375 C 56.660156 19.546875 57.238281 20.183594 57.78125 20.847656 C 58.328125 21.511719 58.839844 22.199219 59.316406 22.914062 C 59.792969 23.628906 60.234375 24.363281 60.640625 25.121094 C 61.046875 25.878906 61.414062 26.65625 61.742188 27.449219 C 62.070312 28.246094 62.359375 29.050781 62.609375 29.875 C 62.859375 30.699219 63.066406 31.53125 63.234375 32.371094 C 63.402344 33.214844 63.527344 34.066406 63.613281 34.917969 C 63.695312 35.773438 63.738281 36.632812 63.738281 37.492188 Z M 63.738281 37.492188 " fill-opacity="1" fill-rule="nonzero"/><path fill="#ffffff" d="M 35.890625 20.445312 L 39.121094 20.445312 L 39.121094 23.425781 C 42.730469 23.851562 45.066406 25.894531 46.132812 29.550781 L 41.683594 31.375 C 40.816406 28.871094 39.472656 27.621094 37.65625 27.617188 C 36.75 27.617188 36.019531 27.898438 35.460938 28.457031 C 34.894531 29.019531 34.617188 29.699219 34.636719 30.496094 C 34.636719 31.308594 34.902344 31.933594 35.433594 32.367188 C 35.964844 32.800781 37.101562 33.339844 38.851562 33.980469 C 40.769531 34.679688 42.269531 35.34375 43.359375 35.964844 C 44.464844 36.589844 45.335938 37.449219 45.972656 38.546875 C 46.625 39.644531 46.949219 40.925781 46.949219 42.394531 C 46.949219 44.648438 46.277344 46.523438 44.933594 48.027344 C 43.59375 49.53125 41.65625 50.414062 39.121094 50.679688 L 39.121094 54.535156 L 35.894531 54.535156 L 35.894531 50.699219 C 31.671875 50.265625 29.054688 47.808594 28.046875 43.332031 L 33.039062 42.03125 C 33.503906 44.84375 35.03125 46.25 37.628906 46.25 C 38.847656 46.25 39.742188 45.949219 40.3125 45.347656 C 40.90625 44.738281 41.191406 44.011719 41.175781 43.164062 C 41.175781 42.285156 40.886719 41.617188 40.3125 41.164062 C 39.742188 40.707031 38.46875 40.132812 36.496094 39.433594 C 34.71875 38.820312 33.332031 38.210938 32.335938 37.605469 C 31.304688 36.976562 30.492188 36.136719 29.902344 35.078125 C 29.25 33.898438 28.941406 32.636719 28.96875 31.289062 C 28.953125 29.402344 29.507812 27.703125 30.636719 26.191406 C 31.75 24.683594 33.5 23.761719 35.890625 23.425781 Z M 35.890625 20.445312 " fill-opacity="1" fill-rule="nonzero"/><g clip-path="url(#de25ff7b74)"><path fill="#f8c40f" d="M 37.488281 9.714844 C 52.824219 9.714844 65.261719 22.148438 65.261719 37.488281 C 65.261719 52.824219 52.824219 65.261719 37.488281 65.261719 C 22.148438 65.261719 9.714844 52.824219 9.714844 37.488281 C 9.714844 22.148438 22.148438 9.714844 37.488281 9.714844 Z M 37.488281 9.714844 " fill-opacity="1" fill-rule="evenodd"/></g><g clip-path="url(#183552b268)"><path fill="#ffffff" d="M 42.160156 44.355469 L 40.035156 43.667969 C 39.863281 42.980469 39.578125 42.351562 39.234375 41.71875 L 40.265625 39.710938 C 40.378906 39.539062 40.324219 39.367188 40.207031 39.195312 L 38.429688 37.476562 C 38.316406 37.359375 38.085938 37.304688 37.914062 37.417969 L 35.90625 38.449219 C 35.277344 38.105469 34.644531 37.820312 34.015625 37.648438 L 33.328125 35.46875 C 33.269531 35.296875 33.097656 35.179688 32.925781 35.179688 L 30.402344 35.179688 C 30.230469 35.179688 30.058594 35.296875 30 35.46875 L 29.3125 37.648438 C 28.625 37.820312 27.992188 38.105469 27.417969 38.449219 L 25.414062 37.417969 C 25.242188 37.304688 25.070312 37.359375 24.898438 37.476562 L 23.117188 39.253906 C 23.003906 39.367188 22.945312 39.597656 23.0625 39.769531 L 24.09375 41.777344 C 23.75 42.40625 23.460938 43.039062 23.289062 43.726562 L 21.167969 44.355469 C 20.996094 44.414062 20.882812 44.585938 20.882812 44.757812 L 20.882812 47.28125 C 20.882812 47.453125 20.996094 47.625 21.167969 47.683594 L 23.289062 48.371094 C 23.460938 49.058594 23.75 49.691406 24.09375 50.320312 L 23.0625 52.269531 C 22.945312 52.441406 23.003906 52.617188 23.117188 52.789062 L 24.898438 54.566406 C 25.011719 54.679688 25.242188 54.738281 25.414062 54.621094 L 27.363281 53.589844 C 27.992188 53.933594 28.625 54.222656 29.3125 54.394531 L 30 56.515625 C 30.058594 56.6875 30.230469 56.800781 30.402344 56.800781 L 32.925781 56.800781 C 33.097656 56.800781 33.269531 56.6875 33.328125 56.515625 L 34.015625 54.394531 C 34.703125 54.222656 35.332031 53.933594 35.964844 53.589844 L 37.914062 54.621094 C 38.085938 54.738281 38.257812 54.679688 38.429688 54.566406 L 40.207031 52.789062 C 40.324219 52.671875 40.378906 52.441406 40.265625 52.269531 L 39.234375 50.320312 C 39.578125 49.691406 39.863281 49.058594 40.035156 48.371094 L 42.160156 47.683594 C 42.332031 47.625 42.445312 47.453125 42.445312 47.28125 L 42.445312 44.757812 C 42.445312 44.585938 42.332031 44.414062 42.160156 44.355469 Z M 41.585938 46.9375 L 39.519531 47.570312 C 39.40625 47.625 39.289062 47.742188 39.234375 47.855469 C 39.0625 48.601562 38.71875 49.347656 38.375 50.035156 C 38.316406 50.148438 38.316406 50.320312 38.375 50.4375 L 39.347656 52.328125 L 38.027344 53.648438 L 36.136719 52.671875 C 36.023438 52.617188 35.851562 52.617188 35.734375 52.671875 C 35.046875 53.074219 34.359375 53.359375 33.554688 53.589844 C 33.382812 53.648438 33.269531 53.761719 33.269531 53.875 L 32.636719 55.941406 L 30.746094 55.941406 L 30.058594 53.933594 C 30 53.820312 29.886719 53.703125 29.769531 53.648438 C 29.027344 53.476562 28.28125 53.132812 27.59375 52.730469 C 27.476562 52.671875 27.304688 52.671875 27.191406 52.730469 L 25.296875 53.703125 L 23.980469 52.386719 L 24.953125 50.492188 C 25.011719 50.378906 25.011719 50.207031 24.953125 50.09375 C 24.550781 49.402344 24.265625 48.714844 24.09375 47.914062 C 24.035156 47.742188 23.921875 47.625 23.808594 47.625 L 21.742188 46.996094 L 21.742188 45.101562 L 23.808594 44.472656 C 23.921875 44.414062 24.035156 44.300781 24.09375 44.183594 C 24.265625 43.441406 24.609375 42.695312 24.953125 42.0625 C 25.011719 41.949219 25.011719 41.777344 24.953125 41.660156 L 23.921875 39.710938 L 25.242188 38.394531 L 27.191406 39.425781 C 27.304688 39.484375 27.476562 39.484375 27.59375 39.425781 C 28.222656 39.023438 28.96875 38.738281 29.714844 38.566406 C 29.886719 38.507812 30 38.394531 30 38.277344 L 30.632812 36.214844 L 32.523438 36.214844 L 33.15625 38.277344 C 33.210938 38.394531 33.328125 38.507812 33.441406 38.566406 C 34.1875 38.738281 34.933594 39.023438 35.5625 39.425781 C 35.679688 39.484375 35.851562 39.484375 35.964844 39.425781 L 37.914062 38.394531 L 39.234375 39.710938 L 38.203125 41.660156 C 38.144531 41.777344 38.144531 41.949219 38.203125 42.0625 C 38.601562 42.75 38.890625 43.441406 39.0625 44.183594 C 39.117188 44.355469 39.234375 44.472656 39.347656 44.472656 L 41.414062 45.101562 L 41.414062 46.9375 Z M 41.585938 46.9375 " fill-opacity="1" fill-rule="nonzero"/></g><path fill="#ffffff" d="M 31.664062 40.113281 C 28.394531 40.113281 25.757812 42.75 25.757812 46.019531 C 25.757812 49.289062 28.394531 51.925781 31.664062 51.925781 C 34.933594 51.925781 37.570312 49.289062 37.570312 46.019531 C 37.570312 42.808594 34.933594 40.113281 31.664062 40.113281 Z M 31.664062 51.066406 C 28.855469 51.066406 26.617188 48.832031 26.617188 46.019531 C 26.617188 43.210938 28.855469 40.972656 31.664062 40.972656 C 34.472656 40.972656 36.710938 43.210938 36.710938 46.019531 C 36.710938 48.832031 34.417969 51.066406 31.664062 51.066406 Z M 31.664062 51.066406 " fill-opacity="1" fill-rule="nonzero"/><g clip-path="url(#da553ec5b2)"><path fill="#ffffff" d="M 29.769531 29.503906 L 30.976562 30.191406 C 30.976562 30.59375 31.03125 31.050781 31.148438 31.453125 L 30.230469 32.484375 C 30.113281 32.601562 30.113281 32.832031 30.171875 33.003906 L 31.03125 34.378906 C 31.148438 34.550781 31.320312 34.609375 31.492188 34.550781 L 32.808594 34.207031 C 33.097656 34.492188 33.441406 34.722656 33.84375 34.953125 L 33.957031 36.328125 C 33.957031 36.5 34.128906 36.671875 34.300781 36.730469 L 35.90625 37.132812 L 36.023438 37.132812 C 36.195312 37.132812 36.308594 37.074219 36.367188 36.902344 L 37.054688 35.699219 C 37.457031 35.699219 37.914062 35.640625 38.316406 35.527344 L 39.347656 36.441406 C 39.464844 36.558594 39.691406 36.558594 39.863281 36.5 L 41.242188 35.640625 C 41.414062 35.527344 41.46875 35.351562 41.414062 35.179688 L 41.070312 33.863281 C 41.355469 33.574219 41.585938 33.230469 41.8125 32.832031 L 43.191406 32.714844 C 43.363281 32.714844 43.535156 32.542969 43.59375 32.371094 L 43.992188 30.765625 C 44.050781 30.59375 43.9375 30.363281 43.820312 30.308594 L 42.617188 29.5625 C 42.617188 29.160156 42.558594 28.757812 42.445312 28.355469 L 43.363281 27.324219 C 43.476562 27.210938 43.476562 26.980469 43.421875 26.808594 L 42.558594 25.433594 C 42.445312 25.261719 42.273438 25.203125 42.101562 25.261719 L 40.722656 25.605469 C 40.4375 25.316406 40.09375 25.089844 39.75 24.859375 L 39.636719 23.480469 C 39.636719 23.308594 39.464844 23.136719 39.289062 23.082031 L 37.683594 22.679688 C 37.511719 22.621094 37.285156 22.738281 37.226562 22.851562 L 36.480469 24.054688 C 36.078125 24.054688 35.679688 24.113281 35.277344 24.226562 L 34.246094 23.308594 C 34.128906 23.195312 33.898438 23.195312 33.726562 23.253906 L 32.351562 24.171875 C 32.179688 24.285156 32.121094 24.457031 32.179688 24.628906 L 32.464844 26.003906 C 32.179688 26.292969 31.949219 26.636719 31.722656 26.980469 L 30.34375 27.09375 C 30.171875 27.09375 30 27.265625 29.941406 27.4375 L 29.542969 29.046875 C 29.542969 29.21875 29.597656 29.390625 29.769531 29.503906 Z M 30.746094 27.957031 L 32.066406 27.898438 C 32.238281 27.898438 32.351562 27.785156 32.410156 27.667969 C 32.636719 27.210938 32.925781 26.808594 33.269531 26.464844 C 33.382812 26.351562 33.441406 26.175781 33.382812 26.0625 L 33.097656 24.800781 L 33.957031 24.285156 L 34.933594 25.144531 C 35.046875 25.261719 35.21875 25.261719 35.332031 25.261719 C 35.792969 25.089844 36.308594 25.03125 36.765625 25.03125 C 36.941406 25.03125 37.054688 24.972656 37.113281 24.800781 L 37.800781 23.65625 L 38.773438 23.882812 L 38.890625 25.203125 C 38.890625 25.375 39.003906 25.488281 39.117188 25.546875 C 39.578125 25.777344 39.921875 26.0625 40.324219 26.40625 C 40.378906 26.523438 40.550781 26.578125 40.722656 26.523438 L 41.984375 26.175781 L 42.503906 27.039062 L 41.640625 28.011719 C 41.527344 28.183594 41.527344 28.300781 41.527344 28.472656 C 41.699219 28.929688 41.757812 29.445312 41.757812 29.90625 C 41.757812 30.078125 41.8125 30.191406 41.984375 30.25 L 43.132812 30.9375 L 42.902344 31.914062 L 41.585938 31.96875 C 41.414062 31.96875 41.296875 32.085938 41.242188 32.199219 C 41.011719 32.65625 40.722656 33.058594 40.378906 33.402344 C 40.265625 33.519531 40.207031 33.691406 40.265625 33.804688 L 40.550781 35.066406 L 39.691406 35.582031 L 38.71875 34.722656 C 38.601562 34.609375 38.429688 34.609375 38.316406 34.609375 C 37.855469 34.78125 37.339844 34.835938 36.824219 34.835938 C 36.652344 34.835938 36.539062 34.894531 36.480469 35.066406 L 35.792969 36.269531 L 34.816406 36.042969 L 34.761719 34.722656 C 34.761719 34.550781 34.644531 34.4375 34.53125 34.378906 C 34.070312 34.148438 33.671875 33.863281 33.328125 33.519531 C 33.210938 33.402344 33.039062 33.347656 32.925781 33.402344 L 31.664062 33.691406 L 31.148438 32.832031 L 32.007812 31.855469 C 32.121094 31.742188 32.121094 31.570312 32.121094 31.453125 C 31.949219 30.996094 31.894531 30.480469 31.894531 29.960938 C 31.894531 29.789062 31.835938 29.675781 31.664062 29.617188 L 30.574219 28.929688 Z M 30.746094 27.957031 " fill-opacity="1" fill-rule="nonzero"/></g><path fill="#ffffff" d="M 35.851562 33.863281 C 36.136719 33.917969 36.480469 33.976562 36.824219 33.976562 C 38.660156 33.976562 40.265625 32.714844 40.722656 30.9375 C 40.953125 29.90625 40.839844 28.816406 40.265625 27.898438 C 39.691406 26.980469 38.832031 26.351562 37.800781 26.0625 C 37.511719 26.003906 37.167969 25.949219 36.824219 25.949219 C 34.988281 25.949219 33.382812 27.210938 32.925781 28.988281 C 32.695312 30.019531 32.808594 31.109375 33.382812 32.027344 C 33.957031 32.945312 34.816406 33.574219 35.851562 33.863281 Z M 33.726562 29.21875 C 34.070312 27.785156 35.332031 26.808594 36.765625 26.808594 C 36.996094 26.808594 37.285156 26.867188 37.511719 26.921875 C 38.316406 27.09375 39.003906 27.613281 39.464844 28.355469 C 39.921875 29.101562 40.035156 29.90625 39.808594 30.765625 C 39.464844 32.199219 38.203125 33.175781 36.765625 33.175781 C 36.539062 33.175781 36.25 33.117188 36.023438 33.058594 C 35.21875 32.832031 34.53125 32.3125 34.070312 31.570312 C 33.671875 30.878906 33.5 30.019531 33.726562 29.21875 Z M 33.726562 29.21875 " fill-opacity="1" fill-rule="nonzero"/><path fill="#ffffff" d="M 51.621094 38.164062 L 50.644531 37.703125 C 50.589844 37.417969 50.53125 37.132812 50.417969 36.84375 L 51.046875 35.984375 C 51.160156 35.8125 51.160156 35.640625 51.046875 35.46875 L 50.246094 34.4375 C 50.128906 34.265625 49.957031 34.207031 49.726562 34.265625 L 48.753906 34.609375 C 48.523438 34.4375 48.238281 34.265625 47.949219 34.148438 L 47.835938 33.058594 C 47.777344 32.886719 47.664062 32.714844 47.492188 32.714844 L 46.171875 32.542969 C 46 32.542969 45.828125 32.601562 45.714844 32.773438 L 45.253906 33.746094 C 44.96875 33.804688 44.679688 33.863281 44.394531 33.976562 L 43.535156 33.347656 C 43.363281 33.230469 43.191406 33.230469 43.019531 33.347656 L 41.984375 34.148438 C 41.8125 34.265625 41.757812 34.4375 41.8125 34.664062 L 42.160156 35.640625 C 41.984375 35.871094 41.8125 36.15625 41.699219 36.441406 L 40.667969 36.613281 C 40.496094 36.671875 40.324219 36.789062 40.324219 36.960938 L 40.152344 38.277344 C 40.152344 38.449219 40.207031 38.621094 40.378906 38.738281 L 41.355469 39.195312 C 41.414062 39.484375 41.46875 39.828125 41.585938 40.113281 L 40.953125 40.917969 C 40.839844 41.089844 40.839844 41.261719 40.953125 41.433594 L 41.757812 42.464844 C 41.871094 42.636719 42.042969 42.695312 42.214844 42.636719 L 43.191406 42.292969 C 43.421875 42.464844 43.707031 42.636719 43.992188 42.75 L 44.164062 43.785156 C 44.222656 43.957031 44.335938 44.128906 44.507812 44.128906 L 45.828125 44.300781 L 45.886719 44.300781 C 46.058594 44.300781 46.230469 44.183594 46.289062 44.070312 L 46.746094 43.09375 C 47.03125 43.039062 47.378906 42.980469 47.664062 42.867188 L 48.523438 43.496094 C 48.695312 43.613281 48.867188 43.613281 49.039062 43.496094 L 50.074219 42.695312 C 50.246094 42.578125 50.300781 42.40625 50.246094 42.179688 L 49.898438 41.203125 C 50.074219 40.972656 50.246094 40.6875 50.359375 40.398438 L 51.390625 40.226562 C 51.5625 40.171875 51.734375 40.054688 51.734375 39.882812 L 51.90625 38.566406 C 51.90625 38.394531 51.792969 38.222656 51.621094 38.164062 Z M 50.875 39.425781 L 49.898438 39.597656 C 49.726562 39.597656 49.613281 39.710938 49.554688 39.882812 C 49.441406 40.226562 49.210938 40.570312 48.984375 40.859375 C 48.867188 40.972656 48.867188 41.144531 48.925781 41.261719 L 49.269531 42.179688 L 48.753906 42.578125 L 47.949219 42.003906 C 47.835938 41.890625 47.664062 41.890625 47.550781 41.949219 C 47.203125 42.121094 46.804688 42.179688 46.402344 42.234375 C 46.230469 42.234375 46.117188 42.351562 46.058594 42.464844 L 45.65625 43.324219 L 44.96875 43.324219 L 44.796875 42.351562 C 44.796875 42.179688 44.679688 42.0625 44.507812 42.003906 C 44.164062 41.832031 43.820312 41.660156 43.535156 41.433594 C 43.421875 41.316406 43.246094 41.316406 43.132812 41.375 L 42.214844 41.71875 L 41.8125 41.203125 L 42.386719 40.398438 C 42.503906 40.285156 42.503906 40.113281 42.445312 40 C 42.273438 39.65625 42.214844 39.253906 42.160156 38.851562 C 42.160156 38.679688 42.042969 38.566406 41.929688 38.507812 L 41.011719 38.046875 L 41.125 37.359375 L 42.101562 37.1875 C 42.273438 37.1875 42.386719 37.074219 42.445312 36.902344 C 42.617188 36.558594 42.789062 36.214844 43.019531 35.925781 C 43.132812 35.8125 43.132812 35.640625 43.074219 35.527344 L 42.730469 34.609375 L 43.246094 34.207031 L 44.050781 34.78125 C 44.164062 34.894531 44.335938 34.894531 44.453125 34.835938 C 44.796875 34.664062 45.199219 34.609375 45.542969 34.550781 C 45.714844 34.550781 45.828125 34.4375 45.886719 34.320312 L 46.289062 33.460938 L 46.976562 33.574219 L 47.148438 34.550781 C 47.148438 34.722656 47.261719 34.835938 47.433594 34.894531 C 47.777344 35.007812 48.121094 35.238281 48.410156 35.46875 C 48.523438 35.582031 48.695312 35.582031 48.8125 35.527344 L 49.726562 35.179688 L 50.128906 35.699219 L 49.554688 36.5 C 49.441406 36.613281 49.441406 36.789062 49.5 36.902344 C 49.671875 37.246094 49.726562 37.648438 49.785156 37.992188 C 49.785156 38.164062 49.898438 38.277344 50.015625 38.335938 L 50.933594 38.738281 Z M 50.875 39.425781 " fill-opacity="1" fill-rule="nonzero"/><path fill="#ffffff" d="M 46 35.125 C 45.253906 35.125 44.625 35.351562 44.050781 35.8125 C 43.363281 36.328125 42.902344 37.132812 42.789062 37.992188 C 42.675781 38.851562 42.902344 39.710938 43.421875 40.398438 C 44.050781 41.261719 45.027344 41.71875 46.058594 41.71875 C 46.804688 41.71875 47.433594 41.488281 48.007812 41.03125 C 49.441406 39.941406 49.726562 37.875 48.636719 36.441406 C 48.007812 35.640625 47.03125 35.125 46 35.125 Z M 47.433594 40.34375 C 47.03125 40.6875 46.515625 40.859375 46 40.859375 C 45.253906 40.859375 44.507812 40.515625 44.050781 39.882812 C 43.648438 39.367188 43.476562 38.738281 43.59375 38.105469 C 43.707031 37.476562 43.992188 36.902344 44.507812 36.5 C 44.910156 36.15625 45.425781 35.984375 45.941406 35.984375 C 46.6875 35.984375 47.433594 36.328125 47.894531 36.960938 C 48.753906 38.046875 48.523438 39.539062 47.433594 40.34375 Z M 47.433594 40.34375 " fill-opacity="1" fill-rule="nonzero"/><g clip-path="url(#b272c95ec5)"><path fill="#ffffff" d="M 48.140625 22.332031 L 47.375 22.085938 L 47.375 20.332031 L 47.492188 20.332031 C 47.953125 20.332031 48.324219 20.707031 48.324219 21.164062 C 48.324219 21.4375 48.546875 21.65625 48.820312 21.65625 C 49.089844 21.65625 49.3125 21.4375 49.3125 21.164062 C 49.3125 20.160156 48.496094 19.34375 47.492188 19.34375 L 47.375 19.34375 L 47.375 18.800781 C 47.375 18.609375 47.21875 18.453125 47.027344 18.453125 C 46.835938 18.453125 46.679688 18.609375 46.679688 18.800781 L 46.679688 19.34375 L 46.433594 19.34375 C 45.5 19.34375 44.742188 20.105469 44.742188 21.039062 C 44.742188 21.773438 45.214844 22.421875 45.914062 22.648438 L 46.679688 22.894531 L 46.679688 24.652344 L 46.5625 24.652344 C 46.101562 24.652344 45.726562 24.277344 45.726562 23.816406 C 45.726562 23.542969 45.507812 23.324219 45.234375 23.324219 C 44.960938 23.324219 44.742188 23.542969 44.742188 23.816406 C 44.742188 24.820312 45.558594 25.636719 46.5625 25.636719 L 46.679688 25.636719 L 46.679688 26.183594 C 46.679688 26.375 46.835938 26.53125 47.027344 26.53125 C 47.21875 26.53125 47.375 26.375 47.375 26.183594 L 47.375 25.636719 L 47.617188 25.636719 C 48.550781 25.636719 49.3125 24.875 49.3125 23.945312 C 49.3125 23.207031 48.839844 22.558594 48.140625 22.332031 Z M 46.214844 21.710938 C 45.925781 21.617188 45.726562 21.347656 45.726562 21.039062 C 45.726562 20.648438 46.046875 20.332031 46.433594 20.332031 L 46.679688 20.332031 L 46.679688 21.859375 Z M 47.617188 24.652344 L 47.375 24.652344 L 47.375 23.121094 L 47.835938 23.269531 C 48.128906 23.367188 48.324219 23.636719 48.324219 23.945312 C 48.324219 24.332031 48.007812 24.652344 47.617188 24.652344 Z M 47.617188 24.652344 " fill-opacity="1" fill-rule="nonzero"/></g><g clip-path="url(#968b6a3474)"><g clip-path="url(#4ef0e07f44)"><g clip-path="url(#ba0db2bd15)"><path fill="#ffffff" d="M 57.6875 24.769531 L 56.886719 24.71875 L 56.453125 23.019531 L 56.566406 22.988281 C 57.011719 22.875 57.46875 23.148438 57.582031 23.589844 C 57.648438 23.855469 57.917969 24.015625 58.179688 23.949219 C 58.445312 23.878906 58.601562 23.613281 58.535156 23.347656 C 58.289062 22.375 57.296875 21.785156 56.324219 22.035156 L 56.210938 22.0625 L 56.074219 21.535156 C 56.027344 21.347656 55.839844 21.234375 55.652344 21.28125 C 55.464844 21.332031 55.355469 21.519531 55.402344 21.707031 L 55.535156 22.234375 L 55.300781 22.296875 C 54.394531 22.523438 53.847656 23.449219 54.074219 24.351562 C 54.257812 25.066406 54.875 25.578125 55.609375 25.625 L 56.410156 25.675781 L 56.84375 27.375 L 56.730469 27.40625 C 56.285156 27.519531 55.828125 27.246094 55.714844 26.804688 C 55.648438 26.539062 55.382812 26.378906 55.117188 26.445312 C 54.855469 26.515625 54.695312 26.78125 54.761719 27.046875 C 55.007812 28.019531 56 28.609375 56.972656 28.359375 L 57.085938 28.332031 L 57.222656 28.859375 C 57.269531 29.046875 57.457031 29.160156 57.644531 29.113281 C 57.832031 29.0625 57.945312 28.875 57.894531 28.6875 L 57.761719 28.160156 L 57.996094 28.097656 C 58.902344 27.871094 59.453125 26.945312 59.222656 26.042969 C 59.039062 25.328125 58.425781 24.816406 57.6875 24.769531 Z M 55.671875 24.640625 C 55.363281 24.621094 55.105469 24.40625 55.03125 24.109375 C 54.933594 23.730469 55.164062 23.347656 55.542969 23.25 L 55.777344 23.191406 L 56.15625 24.671875 Z M 57.753906 27.144531 L 57.519531 27.203125 L 57.140625 25.722656 L 57.625 25.753906 C 57.933594 25.773438 58.191406 25.988281 58.265625 26.285156 C 58.363281 26.664062 58.132812 27.046875 57.753906 27.144531 Z M 57.753906 27.144531 " fill-opacity="1" fill-rule="nonzero"/></g></g></g><g clip-path="url(#e53f984003)"><g clip-path="url(#931068af81)"><g clip-path="url(#256b16ac14)"><path fill="#ffffff" d="M 52.953125 29.28125 L 52.148438 29.242188 L 51.6875 27.550781 L 51.800781 27.519531 C 52.246094 27.398438 52.703125 27.660156 52.824219 28.105469 C 52.894531 28.367188 53.167969 28.519531 53.429688 28.449219 C 53.691406 28.378906 53.847656 28.109375 53.777344 27.84375 C 53.511719 26.878906 52.511719 26.304688 51.542969 26.566406 L 51.429688 26.597656 L 51.285156 26.070312 C 51.234375 25.886719 51.042969 25.777344 50.859375 25.828125 C 50.671875 25.878906 50.5625 26.070312 50.613281 26.253906 L 50.757812 26.78125 L 50.519531 26.847656 C 49.621094 27.089844 49.085938 28.023438 49.332031 28.921875 C 49.527344 29.632812 50.152344 30.136719 50.886719 30.167969 L 51.691406 30.207031 L 52.152344 31.898438 L 52.039062 31.929688 C 51.59375 32.050781 51.136719 31.789062 51.015625 31.347656 C 50.941406 31.082031 50.671875 30.929688 50.410156 31 C 50.148438 31.070312 49.992188 31.34375 50.0625 31.605469 C 50.328125 32.574219 51.328125 33.144531 52.296875 32.882812 L 52.410156 32.851562 L 52.554688 33.378906 C 52.605469 33.5625 52.796875 33.671875 52.980469 33.621094 C 53.167969 33.570312 53.273438 33.378906 53.226562 33.195312 L 53.082031 32.667969 L 53.316406 32.605469 C 54.21875 32.359375 54.75 31.425781 54.503906 30.527344 C 54.3125 29.816406 53.6875 29.316406 52.953125 29.28125 Z M 50.933594 29.183594 C 50.625 29.171875 50.363281 28.960938 50.285156 28.664062 C 50.179688 28.289062 50.402344 27.898438 50.78125 27.796875 L 51.015625 27.730469 L 51.417969 29.207031 Z M 53.058594 31.652344 L 52.824219 31.71875 L 52.421875 30.242188 L 52.90625 30.265625 C 53.210938 30.277344 53.472656 30.488281 53.554688 30.785156 C 53.65625 31.160156 53.433594 31.550781 53.058594 31.652344 Z M 53.058594 31.652344 " fill-opacity="1" fill-rule="nonzero"/></g></g></g></svg>