<svg xmlns="http://www.w3.org/2000/svg" xmlns:xlink="http://www.w3.org/1999/xlink" width="100" zoomAndPan="magnify" viewBox="0 0 75 74.999997" height="100" preserveAspectRatio="xMidYMid meet" version="1.0"><defs><clipPath id="2dd6ff72b7"><path d="M 0 0 L 75 0 L 75 72.75 L 0 72.75 Z M 0 0 " clip-rule="nonzero"/></clipPath><clipPath id="621102cdd4"><path d="M 9.714844 8.417969 L 65.214844 8.417969 L 65.214844 63.917969 L 9.714844 63.917969 Z M 9.714844 8.417969 " clip-rule="nonzero"/></clipPath><clipPath id="06b7148168"><path d="M 19 45 L 29 45 L 29 56.710938 L 19 56.710938 Z M 19 45 " clip-rule="nonzero"/></clipPath><clipPath id="1ffe0a7814"><path d="M 46 14.710938 L 55.699219 14.710938 L 55.699219 26 L 46 26 Z M 46 14.710938 " clip-rule="nonzero"/></clipPath></defs><g clip-path="url(#2dd6ff72b7)"><path fill="#ffcc00" d="M 74.988281 36.199219 C 74.988281 56.191406 58.203125 72.398438 37.5 72.398438 C 16.792969 72.398438 0.0078125 56.191406 0.0078125 36.199219 C 0.0078125 16.207031 16.792969 0 37.5 0 C 58.203125 0 74.988281 16.207031 74.988281 36.199219 Z M 74.988281 36.199219 " fill-opacity="1" fill-rule="nonzero"/></g><path fill="#ffffff" d="M 68.074219 36.199219 C 68.074219 37.199219 68.027344 38.199219 67.929688 39.195312 C 67.832031 40.191406 67.683594 41.183594 67.488281 42.164062 C 67.292969 43.148438 67.050781 44.117188 66.757812 45.074219 C 66.46875 46.035156 66.132812 46.976562 65.746094 47.902344 C 65.363281 48.824219 64.9375 49.730469 64.464844 50.613281 C 63.992188 51.496094 63.480469 52.355469 62.921875 53.1875 C 62.367188 54.019531 61.769531 54.824219 61.136719 55.597656 C 60.5 56.371094 59.828125 57.113281 59.121094 57.820312 C 58.410156 58.527344 57.671875 59.199219 56.894531 59.835938 C 56.121094 60.472656 55.320312 61.066406 54.484375 61.625 C 53.652344 62.179688 52.796875 62.695312 51.914062 63.164062 C 51.027344 63.636719 50.125 64.066406 49.199219 64.449219 C 48.273438 64.832031 47.332031 65.167969 46.375 65.460938 C 45.417969 65.75 44.445312 65.992188 43.464844 66.1875 C 42.480469 66.382812 41.492188 66.53125 40.496094 66.628906 C 39.5 66.726562 38.5 66.777344 37.5 66.777344 C 36.496094 66.777344 35.496094 66.726562 34.5 66.628906 C 33.503906 66.53125 32.515625 66.382812 31.53125 66.1875 C 30.550781 65.992188 29.582031 65.75 28.621094 65.460938 C 27.664062 65.167969 26.722656 64.832031 25.796875 64.449219 C 24.871094 64.066406 23.96875 63.636719 23.085938 63.164062 C 22.199219 62.695312 21.34375 62.179688 20.511719 61.625 C 19.679688 61.066406 18.875 60.472656 18.101562 59.835938 C 17.324219 59.199219 16.585938 58.527344 15.875 57.820312 C 15.167969 57.113281 14.496094 56.371094 13.863281 55.597656 C 13.226562 54.824219 12.628906 54.019531 12.074219 53.1875 C 11.519531 52.355469 11.003906 51.496094 10.53125 50.613281 C 10.058594 49.730469 9.632812 48.824219 9.25 47.902344 C 8.867188 46.976562 8.527344 46.035156 8.238281 45.074219 C 7.945312 44.117188 7.703125 43.148438 7.507812 42.164062 C 7.3125 41.183594 7.167969 40.191406 7.066406 39.195312 C 6.96875 38.199219 6.921875 37.199219 6.921875 36.199219 C 6.921875 35.199219 6.96875 34.199219 7.066406 33.203125 C 7.167969 32.207031 7.3125 31.214844 7.507812 30.234375 C 7.703125 29.25 7.945312 28.28125 8.238281 27.324219 C 8.527344 26.363281 8.867188 25.421875 9.25 24.496094 C 9.632812 23.574219 10.058594 22.667969 10.53125 21.785156 C 11.003906 20.902344 11.519531 20.042969 12.074219 19.210938 C 12.628906 18.378906 13.226562 17.574219 13.863281 16.800781 C 14.496094 16.027344 15.167969 15.285156 15.875 14.578125 C 16.585938 13.871094 17.324219 13.199219 18.101562 12.5625 C 18.875 11.925781 19.679688 11.332031 20.511719 10.773438 C 21.34375 10.21875 22.199219 9.703125 23.085938 9.234375 C 23.96875 8.761719 24.871094 8.332031 25.796875 7.949219 C 26.722656 7.566406 27.664062 7.230469 28.621094 6.9375 C 29.582031 6.648438 30.550781 6.40625 31.53125 6.210938 C 32.515625 6.015625 33.503906 5.867188 34.5 5.769531 C 35.496094 5.671875 36.496094 5.621094 37.5 5.621094 C 38.5 5.621094 39.5 5.671875 40.496094 5.769531 C 41.492188 5.867188 42.480469 6.015625 43.464844 6.210938 C 44.445312 6.40625 45.417969 6.648438 46.375 6.9375 C 47.332031 7.230469 48.273438 7.566406 49.199219 7.949219 C 50.125 8.332031 51.027344 8.761719 51.914062 9.234375 C 52.796875 9.703125 53.652344 10.21875 54.484375 10.773438 C 55.320312 11.332031 56.121094 11.925781 56.894531 12.5625 C 57.671875 13.199219 58.410156 13.871094 59.121094 14.578125 C 59.828125 15.285156 60.5 16.027344 61.136719 16.800781 C 61.769531 17.574219 62.367188 18.378906 62.921875 19.210938 C 63.480469 20.042969 63.992188 20.902344 64.464844 21.785156 C 64.9375 22.667969 65.363281 23.574219 65.746094 24.496094 C 66.132812 25.421875 66.46875 26.363281 66.757812 27.324219 C 67.050781 28.28125 67.292969 29.25 67.488281 30.234375 C 67.683594 31.214844 67.832031 32.207031 67.929688 33.203125 C 68.027344 34.199219 68.074219 35.199219 68.074219 36.199219 Z M 68.074219 36.199219 " fill-opacity="1" fill-rule="nonzero"/><path fill="#f8c40f" d="M 63.738281 36.199219 C 63.738281 37.058594 63.699219 37.914062 63.613281 38.769531 C 63.53125 39.625 63.402344 40.476562 63.234375 41.316406 C 63.066406 42.160156 62.859375 42.992188 62.609375 43.816406 C 62.359375 44.636719 62.070312 45.445312 61.742188 46.238281 C 61.414062 47.03125 61.046875 47.808594 60.640625 48.566406 C 60.238281 49.324219 59.796875 50.058594 59.316406 50.773438 C 58.839844 51.488281 58.328125 52.179688 57.785156 52.84375 C 57.238281 53.507812 56.664062 54.140625 56.054688 54.75 C 55.449219 55.359375 54.8125 55.933594 54.148438 56.480469 C 53.484375 57.023438 52.792969 57.535156 52.078125 58.011719 C 51.363281 58.488281 50.628906 58.929688 49.871094 59.335938 C 49.113281 59.742188 48.335938 60.109375 47.542969 60.4375 C 46.75 60.765625 45.941406 61.054688 45.121094 61.304688 C 44.296875 61.554688 43.464844 61.761719 42.621094 61.929688 C 41.78125 62.097656 40.929688 62.222656 40.074219 62.308594 C 39.21875 62.390625 38.363281 62.433594 37.503906 62.433594 C 36.644531 62.433594 35.789062 62.390625 34.933594 62.308594 C 34.078125 62.222656 33.226562 62.097656 32.386719 61.929688 C 31.542969 61.761719 30.710938 61.554688 29.886719 61.304688 C 29.066406 61.054688 28.257812 60.765625 27.464844 60.4375 C 26.671875 60.109375 25.894531 59.742188 25.136719 59.335938 C 24.378906 58.933594 23.644531 58.492188 22.929688 58.011719 C 22.214844 57.535156 21.523438 57.023438 20.859375 56.480469 C 20.195312 55.933594 19.558594 55.359375 18.953125 54.75 C 18.34375 54.144531 17.769531 53.507812 17.222656 52.84375 C 16.679688 52.179688 16.167969 51.488281 15.6875 50.777344 C 15.210938 50.0625 14.769531 49.324219 14.367188 48.566406 C 13.960938 47.808594 13.59375 47.035156 13.265625 46.238281 C 12.9375 45.445312 12.648438 44.636719 12.398438 43.816406 C 12.148438 42.992188 11.9375 42.160156 11.769531 41.320312 C 11.605469 40.476562 11.476562 39.625 11.394531 38.773438 C 11.308594 37.917969 11.265625 37.058594 11.265625 36.199219 C 11.265625 35.339844 11.308594 34.484375 11.394531 33.628906 C 11.476562 32.773438 11.601562 31.925781 11.769531 31.082031 C 11.9375 30.238281 12.144531 29.40625 12.394531 28.585938 C 12.644531 27.761719 12.933594 26.953125 13.261719 26.160156 C 13.589844 25.367188 13.957031 24.589844 14.363281 23.832031 C 14.769531 23.074219 15.210938 22.339844 15.6875 21.625 C 16.164062 20.910156 16.675781 20.21875 17.21875 19.554688 C 17.765625 18.890625 18.339844 18.253906 18.949219 17.648438 C 19.554688 17.039062 20.191406 16.464844 20.855469 15.917969 C 21.519531 15.375 22.210938 14.863281 22.921875 14.386719 C 23.636719 13.90625 24.375 13.464844 25.132812 13.0625 C 25.890625 12.65625 26.664062 12.289062 27.457031 11.960938 C 28.253906 11.628906 29.0625 11.339844 29.882812 11.09375 C 30.703125 10.84375 31.539062 10.632812 32.378906 10.464844 C 33.222656 10.296875 34.070312 10.171875 34.925781 10.085938 C 35.78125 10.003906 36.640625 9.960938 37.5 9.960938 C 38.359375 9.960938 39.214844 10.003906 40.070312 10.085938 C 40.925781 10.171875 41.773438 10.296875 42.617188 10.464844 C 43.460938 10.632812 44.292969 10.839844 45.117188 11.089844 C 45.9375 11.339844 46.746094 11.628906 47.539062 11.957031 C 48.335938 12.285156 49.109375 12.652344 49.867188 13.058594 C 50.625 13.460938 51.363281 13.902344 52.078125 14.382812 C 52.792969 14.859375 53.480469 15.371094 54.144531 15.914062 C 54.8125 16.460938 55.445312 17.035156 56.054688 17.644531 C 56.664062 18.25 57.238281 18.886719 57.785156 19.550781 C 58.328125 20.214844 58.839844 20.90625 59.316406 21.621094 C 59.796875 22.335938 60.238281 23.070312 60.640625 23.828125 C 61.046875 24.585938 61.414062 25.363281 61.742188 26.15625 C 62.070312 26.949219 62.359375 27.757812 62.609375 28.582031 C 62.859375 29.402344 63.070312 30.238281 63.234375 31.078125 C 63.402344 31.921875 63.53125 32.773438 63.613281 33.628906 C 63.699219 34.484375 63.742188 35.339844 63.738281 36.199219 Z M 63.738281 36.199219 " fill-opacity="1" fill-rule="nonzero"/><path fill="#ffffff" d="M 35.890625 19.152344 L 39.121094 19.152344 L 39.121094 22.128906 C 42.730469 22.558594 45.066406 24.601562 46.132812 28.257812 L 41.683594 30.082031 C 40.816406 27.578125 39.472656 26.328125 37.65625 26.324219 C 36.75 26.324219 36.019531 26.605469 35.460938 27.164062 C 34.894531 27.726562 34.617188 28.40625 34.632812 29.203125 C 34.632812 30.015625 34.898438 30.640625 35.433594 31.074219 C 35.964844 31.507812 37.101562 32.046875 38.851562 32.6875 C 40.769531 33.386719 42.273438 34.050781 43.363281 34.671875 C 44.464844 35.296875 45.335938 36.15625 45.972656 37.253906 C 46.625 38.351562 46.949219 39.632812 46.949219 41.101562 C 46.949219 43.355469 46.277344 45.234375 44.933594 46.734375 C 43.59375 48.238281 41.65625 49.125 39.121094 49.390625 L 39.121094 53.246094 L 35.894531 53.246094 L 35.894531 49.40625 C 31.671875 48.972656 29.054688 46.519531 28.046875 42.039062 L 33.039062 40.742188 C 33.503906 43.550781 35.03125 44.957031 37.628906 44.957031 C 38.847656 44.957031 39.742188 44.65625 40.3125 44.054688 C 40.90625 43.449219 41.191406 42.722656 41.175781 41.875 C 41.175781 40.992188 40.886719 40.324219 40.3125 39.871094 C 39.742188 39.414062 38.46875 38.839844 36.496094 38.140625 C 34.71875 37.527344 33.332031 36.917969 32.335938 36.3125 C 31.304688 35.683594 30.492188 34.84375 29.902344 33.785156 C 29.25 32.605469 28.9375 31.34375 28.96875 29.996094 C 28.953125 28.109375 29.507812 26.410156 30.636719 24.898438 C 31.75 23.390625 33.5 22.464844 35.890625 22.128906 Z M 35.890625 19.152344 " fill-opacity="1" fill-rule="nonzero"/><g clip-path="url(#621102cdd4)"><path fill="#f8c40f" d="M 37.5 8.417969 C 52.84375 8.417969 65.285156 20.859375 65.285156 36.203125 C 65.285156 51.546875 52.84375 63.988281 37.5 63.988281 C 22.152344 63.988281 9.714844 51.546875 9.714844 36.203125 C 9.714844 20.859375 22.152344 8.417969 37.5 8.417969 Z M 37.5 8.417969 " fill-opacity="1" fill-rule="evenodd"/></g><path fill="#ffffff" d="M 27.910156 53.414062 C 27.417969 53.414062 27.238281 52.761719 27.664062 52.511719 L 27.722656 52.476562 C 30.066406 51.09375 31.488281 50.253906 33.929688 51.375 C 37.761719 52.609375 40.4375 50.796875 43.53125 48.699219 L 43.589844 48.65625 C 47.785156 45.820312 48.660156 43.648438 48.847656 42.851562 C 49.09375 41.773438 47.804688 40.25 46.53125 41.882812 C 45.296875 43.464844 43.15625 45.113281 41.824219 46.070312 C 41.996094 46.980469 41.28125 48.132812 39.347656 48.546875 C 35.5625 49.351562 32.789062 48.214844 32.671875 48.167969 C 32.425781 48.0625 32.308594 47.777344 32.414062 47.527344 C 32.519531 47.28125 32.800781 47.164062 33.050781 47.269531 C 33.074219 47.28125 35.671875 48.335938 39.140625 47.597656 C 41.113281 47.171875 41.460938 45.847656 39.859375 45.601562 C 38.785156 45.433594 37.515625 45.097656 36.167969 44.734375 C 33.007812 43.890625 29.085938 42.835938 28.054688 44.460938 C 27.261719 45.707031 26.238281 46.335938 24.640625 47.230469 C 24.40625 47.359375 24.109375 47.277344 23.980469 47.042969 C 23.847656 46.808594 23.933594 46.511719 24.167969 46.378906 C 25.765625 45.492188 26.585938 44.960938 27.234375 43.941406 C 27.886719 42.910156 29.167969 42.496094 31.148438 42.671875 C 32.765625 42.8125 34.625 43.3125 36.417969 43.796875 C 37.738281 44.152344 38.984375 44.484375 40.011719 44.640625 C 40.558594 44.730469 41.011719 44.933594 41.332031 45.222656 C 42.628906 44.292969 44.625 42.742188 45.761719 41.289062 C 47.679688 38.828125 50.269531 40.988281 49.792969 43.066406 C 49.527344 44.203125 48.449219 46.535156 44.132812 49.460938 L 44.074219 49.503906 C 40.894531 51.652344 37.894531 53.6875 33.605469 52.289062 C 33.585938 52.28125 33.570312 52.277344 33.550781 52.265625 C 31.546875 51.34375 30.503906 51.960938 28.210938 53.316406 C 28.109375 53.371094 28.042969 53.414062 27.910156 53.414062 Z M 27.910156 53.414062 " fill-opacity="1" fill-rule="evenodd"/><g clip-path="url(#06b7148168)"><path fill="#ffffff" d="M 24.007812 56.378906 C 23.484375 56.378906 22.996094 56.101562 22.726562 55.640625 L 19.359375 49.804688 C 18.949219 49.09375 19.195312 48.191406 19.898438 47.78125 L 22.84375 46.082031 C 23.550781 45.671875 24.457031 45.917969 24.867188 46.621094 L 28.234375 52.457031 C 28.644531 53.167969 28.398438 54.074219 27.695312 54.480469 L 24.75 56.183594 C 24.523438 56.3125 24.273438 56.378906 24.007812 56.378906 Z M 23.578125 46.855469 C 23.492188 46.855469 23.402344 46.878906 23.328125 46.921875 L 20.382812 48.621094 C 20.144531 48.761719 20.058594 49.078125 20.199219 49.316406 L 23.566406 55.152344 C 23.707031 55.394531 24.019531 55.476562 24.261719 55.335938 L 27.203125 53.640625 C 27.449219 53.5 27.53125 53.1875 27.390625 52.941406 L 24.019531 47.105469 C 23.933594 46.949219 23.765625 46.855469 23.578125 46.855469 Z M 23.082031 46.5 Z M 23.082031 46.5 " fill-opacity="1" fill-rule="evenodd"/></g><path fill="#ffffff" d="M 25.203125 55.84375 C 25.035156 55.84375 24.871094 55.757812 24.785156 55.601562 L 23.199219 52.855469 C 23.066406 52.625 23.148438 52.328125 23.378906 52.191406 C 23.613281 52.0625 23.910156 52.136719 24.042969 52.371094 L 25.625 55.117188 C 25.8125 55.4375 25.578125 55.84375 25.203125 55.84375 Z M 25.203125 55.84375 " fill-opacity="1" fill-rule="evenodd"/><path fill="#ffffff" d="M 26.671875 54.992188 C 26.503906 54.992188 26.339844 54.90625 26.246094 54.753906 L 24.667969 52.007812 C 24.535156 51.777344 24.617188 51.480469 24.84375 51.34375 C 25.078125 51.210938 25.375 51.292969 25.507812 51.523438 L 27.09375 54.265625 C 27.28125 54.589844 27.039062 54.992188 26.671875 54.992188 Z M 26.671875 54.992188 " fill-opacity="1" fill-rule="evenodd"/><path fill="#ffffff" d="M 27.304688 31.117188 C 25.925781 31.117188 24.882812 29.609375 25.199219 28.238281 C 25.46875 27.0625 26.574219 24.742188 30.917969 21.804688 C 34.09375 19.65625 37.097656 17.625 41.386719 19.023438 C 41.402344 19.027344 41.421875 19.035156 41.4375 19.046875 C 43.472656 19.972656 44.503906 19.335938 46.835938 17.960938 C 47.070312 17.828125 47.367188 17.902344 47.5 18.136719 C 47.632812 18.363281 47.558594 18.667969 47.324219 18.800781 L 47.273438 18.835938 C 44.925781 20.21875 43.5 21.058594 41.058594 19.9375 C 37.230469 18.703125 34.558594 20.515625 31.464844 22.609375 C 27.246094 25.457031 26.339844 27.609375 26.144531 28.460938 C 25.898438 29.539062 27.1875 31.054688 28.457031 29.425781 C 29.691406 27.847656 31.832031 26.199219 33.167969 25.242188 C 32.992188 24.328125 33.703125 23.179688 35.644531 22.765625 C 39.425781 21.960938 42.195312 23.097656 42.3125 23.144531 C 42.5625 23.25 42.679688 23.535156 42.574219 23.777344 C 42.46875 24.03125 42.183594 24.144531 41.941406 24.042969 C 41.917969 24.03125 39.316406 22.976562 35.847656 23.714844 C 33.871094 24.136719 33.527344 25.464844 35.125 25.707031 C 36.203125 25.871094 37.476562 26.214844 38.820312 26.578125 C 41.972656 27.421875 45.902344 28.476562 46.933594 26.84375 C 47.726562 25.597656 48.753906 24.96875 50.351562 24.082031 C 50.585938 23.949219 50.882812 24.035156 51.007812 24.269531 C 51.136719 24.503906 51.054688 24.800781 50.824219 24.925781 C 49.226562 25.820312 48.398438 26.351562 47.757812 27.371094 C 47.105469 28.394531 45.820312 28.816406 43.839844 28.640625 C 42.226562 28.496094 40.367188 28 38.570312 27.515625 C 37.246094 27.160156 36.003906 26.828125 34.980469 26.671875 C 34.433594 26.582031 33.976562 26.378906 33.65625 26.085938 C 32.363281 27.015625 30.363281 28.566406 29.226562 30.023438 C 28.660156 30.738281 27.984375 31.117188 27.304688 31.117188 Z M 27.304688 31.117188 " fill-opacity="1" fill-rule="evenodd"/><g clip-path="url(#1ffe0a7814)"><path fill="#ffffff" d="M 51.410156 25.429688 C 50.882812 25.429688 50.390625 25.148438 50.125 24.6875 L 46.753906 18.855469 C 46.347656 18.148438 46.589844 17.238281 47.296875 16.832031 L 50.238281 15.128906 C 50.953125 14.722656 51.855469 14.964844 52.261719 15.671875 L 55.632812 21.507812 C 56.039062 22.21875 55.800781 23.121094 55.089844 23.527344 L 52.144531 25.230469 C 51.917969 25.363281 51.667969 25.429688 51.410156 25.429688 Z M 50.980469 15.902344 C 50.894531 15.902344 50.804688 15.925781 50.722656 15.972656 L 47.785156 17.671875 C 47.542969 17.808594 47.453125 18.125 47.597656 18.363281 L 50.96875 24.203125 C 51.101562 24.445312 51.417969 24.53125 51.664062 24.390625 L 54.605469 22.6875 C 54.84375 22.550781 54.933594 22.234375 54.792969 21.996094 L 51.421875 16.160156 C 51.332031 15.996094 51.15625 15.902344 50.980469 15.902344 Z M 50.980469 15.902344 " fill-opacity="1" fill-rule="evenodd"/></g><path fill="#ffffff" d="M 51.371094 19.1875 C 51.203125 19.1875 51.039062 19.097656 50.953125 18.941406 L 49.367188 16.195312 C 49.230469 15.96875 49.308594 15.671875 49.539062 15.535156 C 49.773438 15.398438 50.070312 15.480469 50.207031 15.710938 L 51.789062 18.457031 C 51.976562 18.785156 51.738281 19.1875 51.371094 19.1875 Z M 51.371094 19.1875 " fill-opacity="1" fill-rule="evenodd"/><path fill="#ffffff" d="M 49.902344 20.03125 C 49.734375 20.03125 49.570312 19.945312 49.480469 19.785156 L 47.898438 17.046875 C 47.761719 16.8125 47.84375 16.515625 48.078125 16.382812 C 48.3125 16.25 48.609375 16.324219 48.742188 16.558594 L 50.320312 19.300781 C 50.515625 19.628906 50.273438 20.03125 49.902344 20.03125 Z M 49.902344 20.03125 " fill-opacity="1" fill-rule="evenodd"/><path fill="#ffffff" d="M 37.496094 43.039062 C 37.363281 43.039062 37.234375 42.984375 37.148438 42.890625 C 35.882812 41.585938 34.601562 40.621094 33.476562 39.757812 C 31.179688 38.011719 29.367188 36.632812 29.367188 33.789062 C 29.367188 31.355469 31.296875 29.375 33.675781 29.375 C 35.574219 29.375 36.640625 30.300781 37.496094 31.769531 C 38.347656 30.300781 39.414062 29.375 41.316406 29.375 C 43.695312 29.375 45.625 31.355469 45.625 33.789062 C 45.625 36.632812 43.8125 38.011719 41.519531 39.757812 C 40.390625 40.621094 39.113281 41.585938 37.84375 42.890625 C 37.753906 42.984375 37.625 43.039062 37.496094 43.039062 Z M 33.675781 30.347656 C 31.832031 30.347656 30.335938 31.894531 30.335938 33.789062 C 30.335938 36.152344 31.820312 37.277344 34.066406 38.988281 C 35.113281 39.785156 36.296875 40.683594 37.496094 41.859375 C 38.691406 40.683594 39.875 39.785156 40.925781 38.988281 C 43.167969 37.277344 44.65625 36.152344 44.65625 33.789062 C 44.65625 31.894531 43.15625 30.347656 41.316406 30.347656 C 39.757812 30.347656 38.902344 31.019531 37.929688 33.019531 C 37.753906 33.386719 37.234375 33.386719 37.0625 33.019531 C 36.085938 31.019531 35.230469 30.347656 33.675781 30.347656 Z M 33.675781 30.347656 " fill-opacity="1" fill-rule="evenodd"/><path fill="#ffffff" d="M 31.664062 34.324219 C 31.394531 34.324219 31.179688 34.101562 31.179688 33.835938 C 31.179688 32.367188 32.460938 31.175781 34.035156 31.175781 C 34.304688 31.175781 34.519531 31.390625 34.519531 31.660156 C 34.519531 31.929688 34.304688 32.144531 34.035156 32.144531 C 32.996094 32.144531 32.152344 32.902344 32.152344 33.835938 C 32.152344 34.101562 31.929688 34.324219 31.664062 34.324219 Z M 31.664062 34.324219 " fill-opacity="1" fill-rule="evenodd"/></svg>