<svg xmlns="http://www.w3.org/2000/svg" xmlns:xlink="http://www.w3.org/1999/xlink" width="100" zoomAndPan="magnify" viewBox="0 0 75 74.999997" height="100" preserveAspectRatio="xMidYMid meet" version="1.0"><defs><clipPath id="5e98454d5f"><path d="M 0 1.296875 L 75 1.296875 L 75 74 L 0 74 Z M 0 1.296875 " clip-rule="nonzero"/></clipPath><clipPath id="6d79317d69"><path d="M 9.714844 9.714844 L 65.214844 9.714844 L 65.214844 65.214844 L 9.714844 65.214844 Z M 9.714844 9.714844 " clip-rule="nonzero"/></clipPath><clipPath id="da2baf3205"><path d="M 19.433594 18.132812 L 54 18.132812 L 54 58.632812 L 19.433594 58.632812 Z M 19.433594 18.132812 " clip-rule="nonzero"/></clipPath><clipPath id="be7107cd23"><path d="M 44 18.132812 L 55.433594 18.132812 L 55.433594 26 L 44 26 Z M 44 18.132812 " clip-rule="nonzero"/></clipPath></defs><g clip-path="url(#5e98454d5f)"><path fill="#008000" d="M 74.988281 37.496094 C 74.988281 57.484375 58.203125 73.695312 37.5 73.695312 C 16.792969 73.695312 0.0078125 57.484375 0.0078125 37.496094 C 0.0078125 17.503906 16.792969 1.296875 37.5 1.296875 C 58.203125 1.296875 74.988281 17.5 74.988281 37.496094 Z M 74.988281 37.496094 " fill-opacity="1" fill-rule="nonzero"/></g><path fill="#ffffff" d="M 68.074219 37.496094 C 68.074219 38.496094 68.027344 39.496094 67.929688 40.492188 C 67.832031 41.488281 67.683594 42.476562 67.488281 43.460938 C 67.292969 44.441406 67.050781 45.414062 66.757812 46.371094 C 66.46875 47.328125 66.132812 48.269531 65.746094 49.195312 C 65.363281 50.121094 64.9375 51.027344 64.464844 51.910156 C 63.992188 52.792969 63.480469 53.648438 62.921875 54.484375 C 62.367188 55.316406 61.769531 56.117188 61.136719 56.894531 C 60.5 57.667969 59.828125 58.40625 59.121094 59.117188 C 58.410156 59.824219 57.671875 60.496094 56.894531 61.132812 C 56.121094 61.765625 55.320312 62.363281 54.484375 62.917969 C 53.652344 63.476562 52.796875 63.988281 51.914062 64.460938 C 51.027344 64.933594 50.125 65.359375 49.199219 65.746094 C 48.273438 66.128906 47.332031 66.464844 46.375 66.753906 C 45.417969 67.046875 44.445312 67.289062 43.464844 67.484375 C 42.480469 67.679688 41.492188 67.828125 40.496094 67.925781 C 39.5 68.023438 38.5 68.070312 37.5 68.070312 C 36.496094 68.070312 35.496094 68.023438 34.5 67.925781 C 33.503906 67.828125 32.515625 67.679688 31.53125 67.484375 C 30.550781 67.289062 29.582031 67.046875 28.621094 66.753906 C 27.664062 66.464844 26.722656 66.128906 25.796875 65.746094 C 24.871094 65.359375 23.96875 64.933594 23.085938 64.460938 C 22.199219 63.988281 21.34375 63.476562 20.511719 62.917969 C 19.679688 62.363281 18.875 61.765625 18.101562 61.132812 C 17.324219 60.496094 16.585938 59.824219 15.875 59.117188 C 15.167969 58.40625 14.496094 57.667969 13.863281 56.894531 C 13.226562 56.117188 12.628906 55.316406 12.074219 54.484375 C 11.519531 53.648438 11.003906 52.792969 10.53125 51.910156 C 10.058594 51.027344 9.632812 50.121094 9.25 49.195312 C 8.867188 48.269531 8.527344 47.328125 8.238281 46.371094 C 7.945312 45.414062 7.703125 44.441406 7.507812 43.460938 C 7.3125 42.476562 7.167969 41.488281 7.066406 40.492188 C 6.96875 39.496094 6.921875 38.496094 6.921875 37.496094 C 6.921875 36.492188 6.96875 35.496094 7.066406 34.496094 C 7.167969 33.5 7.3125 32.511719 7.507812 31.53125 C 7.703125 30.546875 7.945312 29.578125 8.238281 28.617188 C 8.527344 27.660156 8.867188 26.71875 9.25 25.792969 C 9.632812 24.867188 10.058594 23.964844 10.53125 23.082031 C 11.003906 22.199219 11.519531 21.339844 12.074219 20.507812 C 12.628906 19.675781 13.226562 18.871094 13.863281 18.097656 C 14.496094 17.324219 15.167969 16.582031 15.875 15.875 C 16.585938 15.164062 17.324219 14.492188 18.101562 13.859375 C 18.875 13.222656 19.679688 12.628906 20.511719 12.070312 C 21.34375 11.515625 22.199219 11 23.085938 10.527344 C 23.96875 10.054688 24.871094 9.628906 25.796875 9.246094 C 26.722656 8.863281 27.664062 8.523438 28.621094 8.234375 C 29.582031 7.941406 30.550781 7.699219 31.53125 7.503906 C 32.515625 7.308594 33.503906 7.164062 34.5 7.066406 C 35.496094 6.964844 36.496094 6.917969 37.5 6.917969 C 38.5 6.917969 39.5 6.964844 40.496094 7.066406 C 41.492188 7.164062 42.480469 7.308594 43.464844 7.503906 C 44.445312 7.699219 45.417969 7.941406 46.375 8.234375 C 47.332031 8.523438 48.273438 8.863281 49.199219 9.246094 C 50.125 9.628906 51.027344 10.054688 51.914062 10.527344 C 52.796875 11 53.652344 11.515625 54.484375 12.070312 C 55.320312 12.628906 56.121094 13.222656 56.894531 13.859375 C 57.671875 14.492188 58.410156 15.164062 59.121094 15.875 C 59.828125 16.582031 60.5 17.324219 61.136719 18.097656 C 61.769531 18.871094 62.367188 19.675781 62.921875 20.507812 C 63.480469 21.339844 63.992188 22.199219 64.464844 23.082031 C 64.9375 23.964844 65.363281 24.867188 65.746094 25.792969 C 66.132812 26.71875 66.46875 27.660156 66.757812 28.617188 C 67.050781 29.578125 67.292969 30.546875 67.488281 31.53125 C 67.683594 32.511719 67.832031 33.5 67.929688 34.496094 C 68.027344 35.496094 68.074219 36.492188 68.074219 37.496094 Z M 68.074219 37.496094 " fill-opacity="1" fill-rule="nonzero"/><path fill="#f8c40f" d="M 63.738281 37.496094 C 63.738281 38.355469 63.699219 39.210938 63.613281 40.066406 C 63.53125 40.921875 63.402344 41.769531 63.234375 42.613281 C 63.066406 43.457031 62.859375 44.289062 62.609375 45.109375 C 62.359375 45.933594 62.070312 46.742188 61.742188 47.535156 C 61.414062 48.328125 61.046875 49.105469 60.640625 49.863281 C 60.238281 50.621094 59.796875 51.355469 59.316406 52.070312 C 58.839844 52.785156 58.328125 53.472656 57.785156 54.136719 C 57.238281 54.800781 56.664062 55.4375 56.054688 56.046875 C 55.449219 56.652344 54.8125 57.230469 54.148438 57.773438 C 53.484375 58.320312 52.792969 58.832031 52.078125 59.308594 C 51.363281 59.785156 50.628906 60.226562 49.871094 60.632812 C 49.113281 61.035156 48.335938 61.402344 47.542969 61.734375 C 46.75 62.0625 45.941406 62.351562 45.121094 62.601562 C 44.296875 62.847656 43.464844 63.058594 42.621094 63.226562 C 41.78125 63.394531 40.929688 63.519531 40.074219 63.601562 C 39.21875 63.6875 38.363281 63.730469 37.503906 63.730469 C 36.644531 63.730469 35.789062 63.6875 34.933594 63.601562 C 34.078125 63.519531 33.226562 63.394531 32.386719 63.226562 C 31.542969 63.058594 30.710938 62.851562 29.886719 62.601562 C 29.066406 62.351562 28.257812 62.0625 27.464844 61.734375 C 26.671875 61.402344 25.894531 61.039062 25.136719 60.632812 C 24.378906 60.226562 23.644531 59.785156 22.929688 59.308594 C 22.214844 58.832031 21.523438 58.320312 20.859375 57.773438 C 20.195312 57.230469 19.558594 56.652344 18.953125 56.046875 C 18.34375 55.4375 17.769531 54.804688 17.222656 54.140625 C 16.679688 53.476562 16.167969 52.785156 15.6875 52.070312 C 15.210938 51.355469 14.769531 50.621094 14.367188 49.863281 C 13.960938 49.105469 13.59375 48.328125 13.265625 47.535156 C 12.9375 46.742188 12.648438 45.933594 12.398438 45.113281 C 12.148438 44.289062 11.9375 43.457031 11.769531 42.613281 C 11.605469 41.769531 11.476562 40.921875 11.394531 40.066406 C 11.308594 39.210938 11.265625 38.355469 11.265625 37.496094 C 11.265625 36.636719 11.308594 35.78125 11.394531 34.925781 C 11.476562 34.070312 11.601562 33.21875 11.769531 32.378906 C 11.9375 31.535156 12.144531 30.703125 12.394531 29.878906 C 12.644531 29.058594 12.933594 28.25 13.261719 27.457031 C 13.589844 26.660156 13.957031 25.886719 14.363281 25.128906 C 14.769531 24.371094 15.210938 23.632812 15.6875 22.917969 C 16.164062 22.207031 16.675781 21.515625 17.21875 20.851562 C 17.765625 20.1875 18.339844 19.550781 18.949219 18.945312 C 19.554688 18.335938 20.191406 17.757812 20.855469 17.214844 C 21.519531 16.667969 22.210938 16.15625 22.921875 15.679688 C 23.636719 15.203125 24.375 14.761719 25.132812 14.355469 C 25.890625 13.949219 26.664062 13.585938 27.457031 13.253906 C 28.253906 12.925781 29.0625 12.636719 29.882812 12.386719 C 30.703125 12.136719 31.539062 11.929688 32.378906 11.761719 C 33.222656 11.59375 34.070312 11.46875 34.925781 11.382812 C 35.78125 11.296875 36.640625 11.257812 37.5 11.257812 C 38.359375 11.257812 39.214844 11.296875 40.070312 11.382812 C 40.925781 11.464844 41.773438 11.59375 42.617188 11.757812 C 43.460938 11.925781 44.292969 12.136719 45.117188 12.386719 C 45.9375 12.632812 46.746094 12.921875 47.539062 13.253906 C 48.335938 13.582031 49.109375 13.949219 49.867188 14.351562 C 50.625 14.757812 51.363281 15.199219 52.078125 15.675781 C 52.792969 16.152344 53.480469 16.664062 54.144531 17.210938 C 54.8125 17.753906 55.445312 18.332031 56.054688 18.941406 C 56.664062 19.546875 57.238281 20.183594 57.785156 20.847656 C 58.328125 21.511719 58.839844 22.203125 59.316406 22.914062 C 59.796875 23.628906 60.238281 24.367188 60.640625 25.125 C 61.046875 25.882812 61.414062 26.660156 61.742188 27.453125 C 62.070312 28.246094 62.359375 29.054688 62.609375 29.878906 C 62.859375 30.699219 63.070312 31.53125 63.234375 32.375 C 63.402344 33.21875 63.53125 34.066406 63.613281 34.921875 C 63.699219 35.777344 63.742188 36.636719 63.738281 37.496094 Z M 63.738281 37.496094 " fill-opacity="1" fill-rule="nonzero"/><path fill="#ffffff" d="M 35.890625 20.445312 L 39.121094 20.445312 L 39.121094 23.425781 C 42.730469 23.855469 45.066406 25.898438 46.132812 29.554688 L 41.683594 31.375 C 40.816406 28.875 39.472656 27.621094 37.65625 27.621094 C 36.75 27.621094 36.019531 27.902344 35.460938 28.460938 C 34.894531 29.019531 34.617188 29.703125 34.632812 30.5 C 34.632812 31.3125 34.898438 31.933594 35.433594 32.367188 C 35.964844 32.804688 37.101562 33.339844 38.851562 33.984375 C 40.769531 34.683594 42.273438 35.34375 43.363281 35.96875 C 44.464844 36.59375 45.335938 37.453125 45.972656 38.546875 C 46.625 39.644531 46.949219 40.929688 46.949219 42.398438 C 46.949219 44.648438 46.277344 46.527344 44.933594 48.03125 C 43.59375 49.535156 41.65625 50.417969 39.121094 50.683594 L 39.121094 54.539062 L 35.894531 54.539062 L 35.894531 50.703125 C 31.671875 50.269531 29.054688 47.8125 28.046875 43.335938 L 33.039062 42.035156 C 33.503906 44.847656 35.03125 46.253906 37.628906 46.253906 C 38.847656 46.253906 39.742188 45.953125 40.3125 45.351562 C 40.90625 44.742188 41.191406 44.015625 41.175781 43.167969 C 41.175781 42.289062 40.886719 41.621094 40.3125 41.164062 C 39.742188 40.710938 38.46875 40.132812 36.496094 39.433594 C 34.71875 38.820312 33.332031 38.210938 32.335938 37.609375 C 31.304688 36.980469 30.492188 36.136719 29.902344 35.082031 C 29.25 33.902344 28.9375 32.640625 28.96875 31.292969 C 28.953125 29.40625 29.507812 27.707031 30.636719 26.195312 C 31.75 24.683594 33.5 23.761719 35.890625 23.425781 Z M 35.890625 20.445312 " fill-opacity="1" fill-rule="nonzero"/><g clip-path="url(#6d79317d69)"><path fill="#057205" d="M 37.5 9.714844 C 52.84375 9.714844 65.285156 22.152344 65.285156 37.5 C 65.285156 52.84375 52.84375 65.285156 37.5 65.285156 C 22.152344 65.285156 9.714844 52.84375 9.714844 37.5 C 9.714844 22.152344 22.152344 9.714844 37.5 9.714844 Z M 37.5 9.714844 " fill-opacity="1" fill-rule="evenodd"/></g><path fill="#ffffff" d="M 50.101562 23.664062 C 48.765625 24.171875 47.597656 24.324219 46.765625 24.265625 C 46.753906 24.574219 46.652344 24.875 46.496094 25.148438 C 46.484375 25.164062 46.476562 25.175781 46.46875 25.1875 C 47.371094 25.300781 48.757812 25.152344 50.394531 24.523438 L 50.101562 23.664062 " fill-opacity="1" fill-rule="nonzero"/><path fill="#ffffff" d="M 35.699219 34.136719 C 35.667969 34.460938 35.699219 34.773438 35.800781 35.066406 C 35.570312 35.351562 35.328125 35.539062 35.082031 35.617188 C 34.839844 35.699219 34.617188 35.6875 34.425781 35.582031 C 34.199219 35.460938 34.066406 35.25 34.03125 34.953125 C 33.992188 34.660156 34.089844 34.300781 34.316406 33.878906 C 34.609375 33.328125 34.921875 32.960938 35.25 32.777344 C 35.578125 32.59375 35.882812 32.574219 36.15625 32.722656 C 36.214844 32.75 36.246094 32.777344 36.261719 32.796875 C 36.144531 32.949219 36.046875 33.09375 35.964844 33.242188 C 35.824219 33.507812 35.734375 33.804688 35.699219 34.136719 " fill-opacity="1" fill-rule="nonzero"/><g clip-path="url(#da2baf3205)"><path fill="#ffffff" d="M 40.210938 41.273438 C 39.9375 41.125 39.632812 41.144531 39.304688 41.328125 C 38.976562 41.511719 38.667969 41.878906 38.371094 42.429688 C 38.136719 42.867188 38.039062 43.230469 38.074219 43.519531 C 38.117188 43.808594 38.253906 44.011719 38.480469 44.132812 C 38.738281 44.269531 39.035156 44.246094 39.363281 44.058594 C 39.691406 43.871094 40.003906 43.503906 40.296875 42.964844 C 40.519531 42.542969 40.617188 42.183594 40.582031 41.886719 C 40.542969 41.59375 40.421875 41.386719 40.210938 41.273438 Z M 40.699219 45.039062 C 40.222656 45.378906 39.722656 45.570312 39.199219 45.621094 C 38.671875 45.667969 38.171875 45.5625 37.695312 45.304688 C 37.21875 45.050781 36.878906 44.722656 36.671875 44.324219 C 36.46875 43.925781 36.378906 43.496094 36.410156 43.042969 C 36.445312 42.589844 36.574219 42.152344 36.800781 41.730469 C 37.113281 41.144531 37.503906 40.679688 37.96875 40.335938 C 38.433594 39.996094 38.929688 39.804688 39.449219 39.757812 C 39.96875 39.714844 40.472656 39.820312 40.957031 40.078125 C 41.433594 40.335938 41.777344 40.664062 41.988281 41.066406 C 42.195312 41.46875 42.285156 41.898438 42.253906 42.351562 C 42.222656 42.808594 42.09375 43.246094 41.867188 43.667969 C 41.554688 44.246094 41.164062 44.699219 40.699219 45.039062 Z M 31.890625 42.191406 C 31.703125 42.089844 31.566406 41.925781 31.5 41.703125 C 31.433594 41.472656 31.457031 41.25 31.582031 41.015625 C 31.695312 40.808594 31.894531 40.613281 32.179688 40.433594 L 38.476562 36.589844 C 37.890625 36.511719 37.351562 36.351562 36.855469 36.109375 C 36.378906 36.574219 35.847656 36.863281 35.261719 36.980469 C 34.675781 37.09375 34.128906 37.023438 33.625 36.75 C 33.164062 36.503906 32.832031 36.179688 32.621094 35.777344 C 32.417969 35.375 32.328125 34.949219 32.359375 34.492188 C 32.386719 34.039062 32.515625 33.601562 32.742188 33.179688 C 33.058594 32.589844 33.445312 32.128906 33.917969 31.792969 C 34.386719 31.464844 34.882812 31.273438 35.40625 31.222656 C 35.925781 31.171875 36.425781 31.273438 36.902344 31.53125 C 37.492188 31.84375 37.855469 32.304688 37.992188 32.898438 C 38.128906 33.5 38.070312 34.109375 37.808594 34.722656 C 38.441406 35.019531 39.089844 35.167969 39.757812 35.175781 C 40.417969 35.183594 40.996094 35.050781 41.488281 34.769531 C 41.953125 34.496094 42.335938 34.445312 42.640625 34.605469 C 42.828125 34.707031 42.953125 34.875 43.003906 35.101562 C 43.046875 35.328125 43.011719 35.558594 42.890625 35.785156 C 42.773438 35.996094 42.605469 36.171875 42.378906 36.308594 L 32.824219 42.128906 C 32.496094 42.328125 32.1875 42.347656 31.890625 42.191406 Z M 52.960938 33.804688 C 53.226562 33.308594 53.261719 32.730469 53.058594 32.210938 L 50.820312 25.742188 C 50.765625 25.589844 50.605469 25.515625 50.460938 25.566406 C 48.480469 26.265625 46.683594 26.402344 45.558594 25.988281 C 44.917969 26.261719 44.136719 26.183594 43.523438 25.660156 C 42.972656 25.1875 42.738281 24.417969 42.925781 23.722656 C 43.363281 22.117188 45.507812 21.679688 46.53125 23.277344 C 46.722656 23.578125 46.796875 23.921875 46.765625 24.265625 C 47.59375 24.324219 48.765625 24.171875 50.101562 23.664062 L 48.691406 19.597656 C 48.347656 18.683594 47.367188 18.167969 46.425781 18.398438 L 33.539062 21.890625 C 32.992188 22.019531 32.539062 22.382812 32.277344 22.871094 L 19.949219 46.203125 C 19.445312 47.152344 19.808594 48.324219 20.753906 48.824219 L 38.015625 57.949219 C 38.960938 58.445312 40.132812 58.085938 40.632812 57.136719 L 52.960938 33.804688 " fill-opacity="1" fill-rule="nonzero"/></g><g clip-path="url(#be7107cd23)"><path fill="#ffffff" d="M 54.285156 22.523438 C 53.476562 23.367188 52.273438 24.140625 50.902344 24.703125 C 48.589844 25.652344 46.441406 25.777344 45.230469 25.136719 C 44.816406 24.917969 44.511719 24.609375 44.347656 24.210938 C 44.21875 23.894531 44.371094 23.527344 44.6875 23.394531 C 45.011719 23.265625 45.375 23.417969 45.507812 23.738281 C 45.625 24.015625 46.078125 24.21875 46.769531 24.265625 C 47.597656 24.328125 48.765625 24.171875 50.101562 23.667969 C 50.210938 23.628906 50.316406 23.589844 50.421875 23.542969 C 51.636719 23.046875 52.691406 22.375 53.382812 21.652344 C 53.925781 21.085938 54.179688 20.542969 54.054688 20.226562 C 53.859375 19.761719 52.695312 19.476562 50.90625 19.863281 C 50.566406 19.9375 50.234375 19.726562 50.160156 19.386719 C 50.085938 19.046875 50.300781 18.710938 50.640625 18.640625 C 52.96875 18.132812 54.722656 18.558594 55.214844 19.753906 C 55.546875 20.566406 55.21875 21.550781 54.285156 22.523438 " fill-opacity="1" fill-rule="nonzero"/></g></svg>