<svg xmlns="http://www.w3.org/2000/svg" xmlns:xlink="http://www.w3.org/1999/xlink" width="100" zoomAndPan="magnify" viewBox="0 0 75 74.999997" height="100" preserveAspectRatio="xMidYMid meet" version="1.0"><defs><clipPath id="2ea91f1360"><path d="M 0 1.296875 L 75 1.296875 L 75 74 L 0 74 Z M 0 1.296875 " clip-rule="nonzero"/></clipPath><clipPath id="383de8aac7"><path d="M 9.714844 9.714844 L 65.214844 9.714844 L 65.214844 65.214844 L 9.714844 65.214844 Z M 9.714844 9.714844 " clip-rule="nonzero"/></clipPath><clipPath id="44872942f8"><path d="M 37 15.128906 L 47 15.128906 L 47 24 L 37 24 Z M 37 15.128906 " clip-rule="nonzero"/></clipPath><clipPath id="8cb2f0a861"><path d="M 20 25 L 56.484375 25 L 56.484375 59 L 20 59 Z M 20 25 " clip-rule="nonzero"/></clipPath></defs><g clip-path="url(#2ea91f1360)"><path fill="#008000" d="M 74.988281 37.496094 C 74.988281 57.484375 58.203125 73.695312 37.5 73.695312 C 16.792969 73.695312 0.0078125 57.484375 0.0078125 37.496094 C 0.0078125 17.503906 16.792969 1.296875 37.5 1.296875 C 58.203125 1.296875 74.988281 17.5 74.988281 37.496094 Z M 74.988281 37.496094 " fill-opacity="1" fill-rule="nonzero"/></g><path fill="#ffffff" d="M 68.074219 37.496094 C 68.074219 38.496094 68.027344 39.496094 67.929688 40.492188 C 67.832031 41.488281 67.683594 42.476562 67.488281 43.460938 C 67.292969 44.441406 67.050781 45.414062 66.757812 46.371094 C 66.46875 47.328125 66.132812 48.269531 65.746094 49.195312 C 65.363281 50.121094 64.9375 51.027344 64.464844 51.910156 C 63.992188 52.792969 63.480469 53.648438 62.921875 54.484375 C 62.367188 55.316406 61.769531 56.117188 61.136719 56.894531 C 60.5 57.667969 59.828125 58.40625 59.121094 59.117188 C 58.410156 59.824219 57.671875 60.496094 56.894531 61.132812 C 56.121094 61.765625 55.320312 62.363281 54.484375 62.917969 C 53.652344 63.476562 52.796875 63.988281 51.914062 64.460938 C 51.027344 64.933594 50.125 65.359375 49.199219 65.746094 C 48.273438 66.128906 47.332031 66.464844 46.375 66.753906 C 45.417969 67.046875 44.445312 67.289062 43.464844 67.484375 C 42.480469 67.679688 41.492188 67.828125 40.496094 67.925781 C 39.5 68.023438 38.5 68.070312 37.5 68.070312 C 36.496094 68.070312 35.496094 68.023438 34.5 67.925781 C 33.503906 67.828125 32.515625 67.679688 31.53125 67.484375 C 30.550781 67.289062 29.582031 67.046875 28.621094 66.753906 C 27.664062 66.464844 26.722656 66.128906 25.796875 65.746094 C 24.871094 65.359375 23.96875 64.933594 23.085938 64.460938 C 22.199219 63.988281 21.34375 63.476562 20.511719 62.917969 C 19.679688 62.363281 18.875 61.765625 18.101562 61.132812 C 17.324219 60.496094 16.585938 59.824219 15.875 59.117188 C 15.167969 58.40625 14.496094 57.667969 13.863281 56.894531 C 13.226562 56.117188 12.628906 55.316406 12.074219 54.484375 C 11.519531 53.648438 11.003906 52.792969 10.53125 51.910156 C 10.058594 51.027344 9.632812 50.121094 9.25 49.195312 C 8.867188 48.269531 8.527344 47.328125 8.238281 46.371094 C 7.945312 45.414062 7.703125 44.441406 7.507812 43.460938 C 7.3125 42.476562 7.167969 41.488281 7.066406 40.492188 C 6.96875 39.496094 6.921875 38.496094 6.921875 37.496094 C 6.921875 36.492188 6.96875 35.496094 7.066406 34.496094 C 7.167969 33.5 7.3125 32.511719 7.507812 31.53125 C 7.703125 30.546875 7.945312 29.578125 8.238281 28.617188 C 8.527344 27.660156 8.867188 26.71875 9.25 25.792969 C 9.632812 24.867188 10.058594 23.964844 10.53125 23.082031 C 11.003906 22.199219 11.519531 21.339844 12.074219 20.507812 C 12.628906 19.675781 13.226562 18.871094 13.863281 18.097656 C 14.496094 17.324219 15.167969 16.582031 15.875 15.875 C 16.585938 15.164062 17.324219 14.492188 18.101562 13.859375 C 18.875 13.222656 19.679688 12.628906 20.511719 12.070312 C 21.34375 11.515625 22.199219 11 23.085938 10.527344 C 23.96875 10.054688 24.871094 9.628906 25.796875 9.246094 C 26.722656 8.863281 27.664062 8.523438 28.621094 8.234375 C 29.582031 7.941406 30.550781 7.699219 31.53125 7.503906 C 32.515625 7.308594 33.503906 7.164062 34.5 7.066406 C 35.496094 6.964844 36.496094 6.917969 37.5 6.917969 C 38.5 6.917969 39.5 6.964844 40.496094 7.066406 C 41.492188 7.164062 42.480469 7.308594 43.464844 7.503906 C 44.445312 7.699219 45.417969 7.941406 46.375 8.234375 C 47.332031 8.523438 48.273438 8.863281 49.199219 9.246094 C 50.125 9.628906 51.027344 10.054688 51.914062 10.527344 C 52.796875 11 53.652344 11.515625 54.484375 12.070312 C 55.320312 12.628906 56.121094 13.222656 56.894531 13.859375 C 57.671875 14.492188 58.410156 15.164062 59.121094 15.875 C 59.828125 16.582031 60.5 17.324219 61.136719 18.097656 C 61.769531 18.871094 62.367188 19.675781 62.921875 20.507812 C 63.480469 21.339844 63.992188 22.199219 64.464844 23.082031 C 64.9375 23.964844 65.363281 24.867188 65.746094 25.792969 C 66.132812 26.71875 66.46875 27.660156 66.757812 28.617188 C 67.050781 29.578125 67.292969 30.546875 67.488281 31.53125 C 67.683594 32.511719 67.832031 33.5 67.929688 34.496094 C 68.027344 35.496094 68.074219 36.492188 68.074219 37.496094 Z M 68.074219 37.496094 " fill-opacity="1" fill-rule="nonzero"/><path fill="#f8c40f" d="M 63.738281 37.496094 C 63.738281 38.355469 63.699219 39.210938 63.613281 40.066406 C 63.53125 40.921875 63.402344 41.769531 63.234375 42.613281 C 63.066406 43.457031 62.859375 44.289062 62.609375 45.109375 C 62.359375 45.933594 62.070312 46.742188 61.742188 47.535156 C 61.414062 48.328125 61.046875 49.105469 60.640625 49.863281 C 60.238281 50.621094 59.796875 51.355469 59.316406 52.070312 C 58.839844 52.785156 58.328125 53.472656 57.785156 54.136719 C 57.238281 54.800781 56.664062 55.4375 56.054688 56.046875 C 55.449219 56.652344 54.8125 57.230469 54.148438 57.773438 C 53.484375 58.320312 52.792969 58.832031 52.078125 59.308594 C 51.363281 59.785156 50.628906 60.226562 49.871094 60.632812 C 49.113281 61.035156 48.335938 61.402344 47.542969 61.734375 C 46.75 62.0625 45.941406 62.351562 45.121094 62.601562 C 44.296875 62.847656 43.464844 63.058594 42.621094 63.226562 C 41.78125 63.394531 40.929688 63.519531 40.074219 63.601562 C 39.21875 63.6875 38.363281 63.730469 37.503906 63.730469 C 36.644531 63.730469 35.789062 63.6875 34.933594 63.601562 C 34.078125 63.519531 33.226562 63.394531 32.386719 63.226562 C 31.542969 63.058594 30.710938 62.851562 29.886719 62.601562 C 29.066406 62.351562 28.257812 62.0625 27.464844 61.734375 C 26.671875 61.402344 25.894531 61.039062 25.136719 60.632812 C 24.378906 60.226562 23.644531 59.785156 22.929688 59.308594 C 22.214844 58.832031 21.523438 58.320312 20.859375 57.773438 C 20.195312 57.230469 19.558594 56.652344 18.953125 56.046875 C 18.34375 55.4375 17.769531 54.804688 17.222656 54.140625 C 16.679688 53.476562 16.167969 52.785156 15.6875 52.070312 C 15.210938 51.355469 14.769531 50.621094 14.367188 49.863281 C 13.960938 49.105469 13.59375 48.328125 13.265625 47.535156 C 12.9375 46.742188 12.648438 45.933594 12.398438 45.113281 C 12.148438 44.289062 11.9375 43.457031 11.769531 42.613281 C 11.605469 41.769531 11.476562 40.921875 11.394531 40.066406 C 11.308594 39.210938 11.265625 38.355469 11.265625 37.496094 C 11.265625 36.636719 11.308594 35.78125 11.394531 34.925781 C 11.476562 34.070312 11.601562 33.21875 11.769531 32.378906 C 11.9375 31.535156 12.144531 30.703125 12.394531 29.878906 C 12.644531 29.058594 12.933594 28.25 13.261719 27.457031 C 13.589844 26.660156 13.957031 25.886719 14.363281 25.128906 C 14.769531 24.371094 15.210938 23.632812 15.6875 22.917969 C 16.164062 22.207031 16.675781 21.515625 17.21875 20.851562 C 17.765625 20.1875 18.339844 19.550781 18.949219 18.945312 C 19.554688 18.335938 20.191406 17.757812 20.855469 17.214844 C 21.519531 16.667969 22.210938 16.15625 22.921875 15.679688 C 23.636719 15.203125 24.375 14.761719 25.132812 14.355469 C 25.890625 13.949219 26.664062 13.585938 27.457031 13.253906 C 28.253906 12.925781 29.0625 12.636719 29.882812 12.386719 C 30.703125 12.136719 31.539062 11.929688 32.378906 11.761719 C 33.222656 11.59375 34.070312 11.46875 34.925781 11.382812 C 35.78125 11.296875 36.640625 11.257812 37.5 11.257812 C 38.359375 11.257812 39.214844 11.296875 40.070312 11.382812 C 40.925781 11.464844 41.773438 11.59375 42.617188 11.757812 C 43.460938 11.925781 44.292969 12.136719 45.117188 12.386719 C 45.9375 12.632812 46.746094 12.921875 47.539062 13.253906 C 48.335938 13.582031 49.109375 13.949219 49.867188 14.351562 C 50.625 14.757812 51.363281 15.199219 52.078125 15.675781 C 52.792969 16.152344 53.480469 16.664062 54.144531 17.210938 C 54.8125 17.753906 55.445312 18.332031 56.054688 18.941406 C 56.664062 19.546875 57.238281 20.183594 57.785156 20.847656 C 58.328125 21.511719 58.839844 22.203125 59.316406 22.914062 C 59.796875 23.628906 60.238281 24.367188 60.640625 25.125 C 61.046875 25.882812 61.414062 26.660156 61.742188 27.453125 C 62.070312 28.246094 62.359375 29.054688 62.609375 29.878906 C 62.859375 30.699219 63.070312 31.53125 63.234375 32.375 C 63.402344 33.21875 63.53125 34.066406 63.613281 34.921875 C 63.699219 35.777344 63.742188 36.636719 63.738281 37.496094 Z M 63.738281 37.496094 " fill-opacity="1" fill-rule="nonzero"/><path fill="#ffffff" d="M 35.890625 20.445312 L 39.121094 20.445312 L 39.121094 23.425781 C 42.730469 23.855469 45.066406 25.898438 46.132812 29.554688 L 41.683594 31.375 C 40.816406 28.875 39.472656 27.621094 37.65625 27.621094 C 36.75 27.621094 36.019531 27.902344 35.460938 28.460938 C 34.894531 29.019531 34.617188 29.703125 34.632812 30.5 C 34.632812 31.3125 34.898438 31.933594 35.433594 32.367188 C 35.964844 32.804688 37.101562 33.339844 38.851562 33.984375 C 40.769531 34.683594 42.273438 35.34375 43.363281 35.96875 C 44.464844 36.59375 45.335938 37.453125 45.972656 38.546875 C 46.625 39.644531 46.949219 40.929688 46.949219 42.398438 C 46.949219 44.648438 46.277344 46.527344 44.933594 48.03125 C 43.59375 49.535156 41.65625 50.417969 39.121094 50.683594 L 39.121094 54.539062 L 35.894531 54.539062 L 35.894531 50.703125 C 31.671875 50.269531 29.054688 47.8125 28.046875 43.335938 L 33.039062 42.035156 C 33.503906 44.847656 35.03125 46.253906 37.628906 46.253906 C 38.847656 46.253906 39.742188 45.953125 40.3125 45.351562 C 40.90625 44.742188 41.191406 44.015625 41.175781 43.167969 C 41.175781 42.289062 40.886719 41.621094 40.3125 41.164062 C 39.742188 40.710938 38.46875 40.132812 36.496094 39.433594 C 34.71875 38.820312 33.332031 38.210938 32.335938 37.609375 C 31.304688 36.980469 30.492188 36.136719 29.902344 35.082031 C 29.25 33.902344 28.9375 32.640625 28.96875 31.292969 C 28.953125 29.40625 29.507812 27.707031 30.636719 26.195312 C 31.75 24.683594 33.5 23.761719 35.890625 23.425781 Z M 35.890625 20.445312 " fill-opacity="1" fill-rule="nonzero"/><g clip-path="url(#383de8aac7)"><path fill="#057205" d="M 37.5 9.714844 C 52.84375 9.714844 65.285156 22.152344 65.285156 37.5 C 65.285156 52.84375 52.84375 65.285156 37.5 65.285156 C 22.152344 65.285156 9.714844 52.84375 9.714844 37.5 C 9.714844 22.152344 22.152344 9.714844 37.5 9.714844 Z M 37.5 9.714844 " fill-opacity="1" fill-rule="evenodd"/></g><path fill="#ffffff" d="M 37.746094 33.582031 C 37.464844 33.582031 37.234375 33.351562 37.234375 33.074219 L 37.234375 22.722656 C 37.234375 22.441406 37.464844 22.210938 37.746094 22.210938 C 38.019531 22.210938 38.25 22.441406 38.25 22.722656 L 38.25 33.074219 C 38.25 33.351562 38.03125 33.582031 37.746094 33.582031 Z M 37.746094 33.582031 " fill-opacity="1" fill-rule="evenodd"/><g clip-path="url(#44872942f8)"><path fill="#ffffff" d="M 38.859375 23.316406 C 38.46875 23.316406 38.0625 23.285156 37.667969 23.21875 C 37.421875 23.175781 37.246094 22.96875 37.246094 22.726562 C 37.210938 20.574219 38.128906 18.535156 39.746094 17.136719 C 41.367188 15.726562 43.5 15.132812 45.617188 15.484375 C 45.859375 15.527344 46.035156 15.726562 46.035156 15.976562 C 46.074219 18.128906 45.152344 20.167969 43.539062 21.570312 C 42.222656 22.707031 40.566406 23.316406 38.859375 23.316406 Z M 38.253906 22.285156 C 41.753906 22.617188 44.828125 19.9375 45.015625 16.429688 C 41.519531 16.09375 38.449219 18.773438 38.253906 22.285156 Z M 38.253906 22.285156 " fill-opacity="1" fill-rule="evenodd"/></g><path fill="#ffffff" d="M 37.746094 23.222656 C 37.285156 23.222656 37.058594 22.640625 37.410156 22.332031 L 41.304688 18.964844 C 41.519531 18.777344 41.832031 18.804688 42.019531 19.015625 C 42.203125 19.226562 42.179688 19.542969 41.972656 19.730469 L 38.078125 23.097656 C 37.976562 23.183594 37.859375 23.222656 37.746094 23.222656 Z M 37.746094 23.222656 " fill-opacity="1" fill-rule="evenodd"/><path fill="#ffffff" d="M 36.625 29.496094 C 34.925781 29.496094 33.269531 28.890625 31.960938 27.753906 C 30.332031 26.359375 29.425781 24.320312 29.449219 22.164062 C 29.449219 21.921875 29.625 21.71875 29.867188 21.675781 C 34.265625 20.917969 38.285156 24.316406 38.253906 28.902344 C 38.253906 29.144531 38.078125 29.34375 37.835938 29.386719 C 37.429688 29.464844 37.03125 29.496094 36.625 29.496094 Z M 30.46875 22.613281 C 30.660156 26.117188 33.730469 28.808594 37.230469 28.453125 C 37.035156 24.945312 33.964844 22.253906 30.46875 22.613281 Z M 30.46875 22.613281 " fill-opacity="1" fill-rule="evenodd"/><path fill="#ffffff" d="M 37.746094 29.398438 C 37.625 29.398438 37.507812 29.355469 37.410156 29.269531 L 33.519531 25.910156 C 33.304688 25.722656 33.28125 25.40625 33.464844 25.195312 C 33.652344 24.984375 33.972656 24.957031 34.179688 25.148438 L 38.078125 28.507812 C 38.4375 28.816406 38.210938 29.398438 37.746094 29.398438 Z M 37.746094 29.398438 " fill-opacity="1" fill-rule="evenodd"/><path fill="#ffffff" d="M 37.84375 50.382812 C 33.542969 50.382812 30.046875 46.882812 30.046875 42.582031 C 30.046875 38.277344 33.542969 34.785156 37.84375 34.785156 C 42.148438 34.785156 45.640625 38.277344 45.640625 42.582031 C 45.640625 46.882812 42.148438 50.382812 37.84375 50.382812 Z M 37.84375 35.796875 C 34.09375 35.796875 31.054688 38.847656 31.054688 42.582031 C 31.054688 46.320312 34.105469 49.371094 37.84375 49.371094 C 41.589844 49.371094 44.628906 46.320312 44.628906 42.582031 C 44.628906 38.847656 41.589844 35.796875 37.84375 35.796875 Z M 37.84375 35.796875 " fill-opacity="1" fill-rule="evenodd"/><path fill="#ffffff" d="M 37.746094 47.441406 C 36.386719 47.441406 35.324219 46.96875 34.761719 46.113281 C 34.609375 45.878906 34.675781 45.5625 34.90625 45.410156 C 35.144531 45.257812 35.453125 45.332031 35.605469 45.554688 C 36.101562 46.320312 37.152344 46.429688 37.734375 46.429688 C 38.644531 46.429688 39.394531 46.125 39.726562 45.605469 C 39.898438 45.34375 39.984375 45.078125 39.984375 44.773438 C 39.984375 44.226562 39.703125 43.816406 39.140625 43.519531 C 38.042969 42.941406 35.925781 43.082031 35.035156 41.636719 C 34.542969 40.855469 34.566406 39.832031 35.101562 39.011719 C 35.628906 38.199219 36.664062 37.730469 37.9375 37.730469 C 39.292969 37.730469 40.351562 38.203125 40.917969 39.066406 C 41.070312 39.296875 41.003906 39.613281 40.773438 39.765625 C 40.542969 39.914062 40.226562 39.847656 40.074219 39.617188 C 39.578125 38.855469 38.527344 38.746094 37.945312 38.746094 C 37.035156 38.746094 36.285156 39.046875 35.949219 39.570312 C 35.628906 40.054688 35.609375 40.65625 35.890625 41.109375 C 36.507812 42.097656 38.4375 42.019531 39.621094 42.644531 C 40.523438 43.125 40.996094 43.863281 40.996094 44.792969 C 40.996094 45.289062 40.851562 45.75 40.570312 46.179688 C 40.054688 46.980469 39.023438 47.441406 37.746094 47.441406 Z M 37.746094 47.441406 " fill-opacity="1" fill-rule="evenodd"/><path fill="#ffffff" d="M 37.84375 48.351562 C 37.5625 48.351562 37.339844 48.128906 37.339844 47.847656 L 37.339844 46.925781 C 37.339844 46.652344 37.5625 46.421875 37.84375 46.421875 C 38.121094 46.421875 38.351562 46.652344 38.351562 46.925781 L 38.351562 47.847656 C 38.351562 48.132812 38.121094 48.351562 37.84375 48.351562 Z M 37.84375 38.746094 C 37.5625 38.746094 37.339844 38.515625 37.339844 38.242188 L 37.339844 37.320312 C 37.339844 37.039062 37.5625 36.816406 37.84375 36.816406 C 38.121094 36.816406 38.351562 37.039062 38.351562 37.320312 L 38.351562 38.242188 C 38.351562 38.515625 38.121094 38.746094 37.84375 38.746094 Z M 37.84375 38.746094 " fill-opacity="1" fill-rule="evenodd"/><path fill="#ffffff" d="M 37.84375 52.601562 C 32.324219 52.601562 27.828125 48.109375 27.828125 42.589844 C 27.828125 37.070312 32.328125 32.582031 37.84375 32.582031 C 43.367188 32.582031 47.855469 37.078125 47.855469 42.589844 C 47.863281 48.109375 43.367188 52.601562 37.84375 52.601562 Z M 37.84375 33.582031 C 32.875 33.582031 28.839844 37.621094 28.839844 42.582031 C 28.839844 47.546875 32.886719 51.597656 37.84375 51.597656 C 42.804688 51.597656 46.855469 47.550781 46.855469 42.582031 C 46.855469 37.617188 42.808594 33.582031 37.84375 33.582031 Z M 37.84375 33.582031 " fill-opacity="1" fill-rule="evenodd"/><g clip-path="url(#8cb2f0a861)"><path fill="#ffffff" d="M 38.425781 58.503906 C 35.363281 58.503906 32.328125 57.699219 29.601562 56.121094 C 21.144531 51.238281 18.234375 40.386719 23.117188 31.933594 C 23.90625 30.558594 25.972656 30.84375 26.375 32.359375 C 26.5 32.824219 26.433594 33.304688 26.199219 33.710938 C 22.296875 40.46875 24.625 49.132812 31.375 53.039062 C 38.074219 56.902344 46.769531 54.695312 50.710938 47.859375 C 53.734375 42.625 53.035156 36.007812 49.152344 31.519531 L 49.632812 33.90625 C 49.828125 34.863281 49.203125 35.804688 48.242188 35.996094 C 47.285156 36.191406 46.339844 35.566406 46.144531 34.609375 L 44.671875 27.34375 C 44.445312 26.214844 45.332031 25.175781 46.472656 25.214844 L 53.878906 25.4375 C 55.449219 25.492188 56.199219 27.433594 55.035156 28.511719 C 54.691406 28.839844 54.234375 29.011719 53.769531 28.992188 L 51.609375 28.925781 C 53.933594 31.503906 55.46875 34.753906 55.96875 38.203125 C 56.566406 42.195312 55.8125 46.144531 53.792969 49.648438 C 50.597656 55.179688 44.761719 58.503906 38.425781 58.503906 Z M 24.65625 32.050781 C 24.390625 32.050781 24.136719 32.183594 23.988281 32.4375 C 19.386719 40.414062 22.132812 50.652344 30.101562 55.246094 C 38.097656 59.855469 48.304688 57.128906 52.914062 49.132812 C 56.765625 42.46875 55.589844 34.082031 50.039062 28.75 C 49.710938 28.441406 49.929688 27.863281 50.398438 27.871094 L 53.792969 27.972656 C 54.210938 27.992188 54.570312 27.652344 54.582031 27.226562 C 54.601562 26.800781 54.265625 26.4375 53.84375 26.433594 L 46.441406 26.207031 C 45.9375 26.191406 45.5625 26.640625 45.660156 27.125 L 47.121094 34.382812 C 47.253906 35.027344 48.109375 35.234375 48.523438 34.652344 C 48.636719 34.480469 48.675781 34.273438 48.636719 34.070312 L 47.824219 30.011719 C 47.726562 29.539062 48.296875 29.203125 48.65625 29.539062 C 51.179688 31.832031 52.878906 34.953125 53.421875 38.339844 C 53.976562 41.777344 53.328125 45.320312 51.585938 48.347656 C 47.375 55.640625 38.074219 58.039062 30.878906 53.894531 C 23.636719 49.714844 21.144531 40.417969 25.328125 33.175781 C 25.542969 32.808594 25.414062 32.335938 25.050781 32.128906 C 24.917969 32.085938 24.789062 32.050781 24.65625 32.050781 Z M 24.65625 32.050781 " fill-opacity="1" fill-rule="evenodd"/></g></svg>