<svg xmlns="http://www.w3.org/2000/svg" xmlns:xlink="http://www.w3.org/1999/xlink" width="100" zoomAndPan="magnify" viewBox="0 0 75 74.999997" height="100" preserveAspectRatio="xMidYMid meet" version="1.0"><defs><clipPath id="5860f94c6f"><path d="M 0 1.296875 L 75 1.296875 L 75 74 L 0 74 Z M 0 1.296875 " clip-rule="nonzero"/></clipPath><clipPath id="cd23467194"><path d="M 9.714844 9.714844 L 65.214844 9.714844 L 65.214844 65.214844 L 9.714844 65.214844 Z M 9.714844 9.714844 " clip-rule="nonzero"/></clipPath><clipPath id="afdeeef222"><path d="M 43 18 L 48.992188 18 L 48.992188 38 L 43 38 Z M 43 18 " clip-rule="nonzero"/></clipPath><clipPath id="faaf944fd3"><path d="M 28 26 L 48.992188 26 L 48.992188 47 L 28 47 Z M 28 26 " clip-rule="nonzero"/></clipPath><clipPath id="dadfeab2f0"><path d="M 25.742188 27 L 45 27 L 45 61.230469 L 25.742188 61.230469 Z M 25.742188 27 " clip-rule="nonzero"/></clipPath></defs><g clip-path="url(#5860f94c6f)"><path fill="#008000" d="M 74.988281 37.496094 C 74.988281 57.484375 58.203125 73.695312 37.5 73.695312 C 16.792969 73.695312 0.0078125 57.484375 0.0078125 37.496094 C 0.0078125 17.503906 16.792969 1.296875 37.5 1.296875 C 58.203125 1.296875 74.988281 17.5 74.988281 37.496094 Z M 74.988281 37.496094 " fill-opacity="1" fill-rule="nonzero"/></g><path fill="#ffffff" d="M 68.074219 37.496094 C 68.074219 38.496094 68.027344 39.496094 67.929688 40.492188 C 67.832031 41.488281 67.683594 42.476562 67.488281 43.460938 C 67.292969 44.441406 67.050781 45.414062 66.757812 46.371094 C 66.46875 47.328125 66.132812 48.269531 65.746094 49.195312 C 65.363281 50.121094 64.9375 51.027344 64.464844 51.910156 C 63.992188 52.792969 63.480469 53.648438 62.921875 54.484375 C 62.367188 55.316406 61.769531 56.117188 61.136719 56.894531 C 60.5 57.667969 59.828125 58.40625 59.121094 59.117188 C 58.410156 59.824219 57.671875 60.496094 56.894531 61.132812 C 56.121094 61.765625 55.320312 62.363281 54.484375 62.917969 C 53.652344 63.476562 52.796875 63.988281 51.914062 64.460938 C 51.027344 64.933594 50.125 65.359375 49.199219 65.746094 C 48.273438 66.128906 47.332031 66.464844 46.375 66.753906 C 45.417969 67.046875 44.445312 67.289062 43.464844 67.484375 C 42.480469 67.679688 41.492188 67.828125 40.496094 67.925781 C 39.5 68.023438 38.5 68.070312 37.5 68.070312 C 36.496094 68.070312 35.496094 68.023438 34.5 67.925781 C 33.503906 67.828125 32.515625 67.679688 31.53125 67.484375 C 30.550781 67.289062 29.582031 67.046875 28.621094 66.753906 C 27.664062 66.464844 26.722656 66.128906 25.796875 65.746094 C 24.871094 65.359375 23.96875 64.933594 23.085938 64.460938 C 22.199219 63.988281 21.34375 63.476562 20.511719 62.917969 C 19.679688 62.363281 18.875 61.765625 18.101562 61.132812 C 17.324219 60.496094 16.585938 59.824219 15.875 59.117188 C 15.167969 58.40625 14.496094 57.667969 13.863281 56.894531 C 13.226562 56.117188 12.628906 55.316406 12.074219 54.484375 C 11.519531 53.648438 11.003906 52.792969 10.53125 51.910156 C 10.058594 51.027344 9.632812 50.121094 9.25 49.195312 C 8.867188 48.269531 8.527344 47.328125 8.238281 46.371094 C 7.945312 45.414062 7.703125 44.441406 7.507812 43.460938 C 7.3125 42.476562 7.167969 41.488281 7.066406 40.492188 C 6.96875 39.496094 6.921875 38.496094 6.921875 37.496094 C 6.921875 36.492188 6.96875 35.496094 7.066406 34.496094 C 7.167969 33.5 7.3125 32.511719 7.507812 31.53125 C 7.703125 30.546875 7.945312 29.578125 8.238281 28.617188 C 8.527344 27.660156 8.867188 26.71875 9.25 25.792969 C 9.632812 24.867188 10.058594 23.964844 10.53125 23.082031 C 11.003906 22.199219 11.519531 21.339844 12.074219 20.507812 C 12.628906 19.675781 13.226562 18.871094 13.863281 18.097656 C 14.496094 17.324219 15.167969 16.582031 15.875 15.875 C 16.585938 15.164062 17.324219 14.492188 18.101562 13.859375 C 18.875 13.222656 19.679688 12.625 20.511719 12.070312 C 21.34375 11.515625 22.199219 11 23.085938 10.527344 C 23.96875 10.054688 24.871094 9.628906 25.796875 9.246094 C 26.722656 8.863281 27.664062 8.523438 28.621094 8.234375 C 29.582031 7.941406 30.550781 7.699219 31.53125 7.503906 C 32.515625 7.308594 33.503906 7.164062 34.5 7.066406 C 35.496094 6.964844 36.496094 6.917969 37.5 6.917969 C 38.5 6.917969 39.5 6.964844 40.496094 7.066406 C 41.492188 7.164062 42.480469 7.308594 43.464844 7.503906 C 44.445312 7.699219 45.417969 7.941406 46.375 8.234375 C 47.332031 8.523438 48.273438 8.863281 49.199219 9.246094 C 50.125 9.628906 51.027344 10.054688 51.914062 10.527344 C 52.796875 11 53.652344 11.515625 54.484375 12.070312 C 55.320312 12.625 56.121094 13.222656 56.894531 13.859375 C 57.671875 14.492188 58.410156 15.164062 59.121094 15.875 C 59.828125 16.582031 60.5 17.324219 61.136719 18.097656 C 61.769531 18.871094 62.367188 19.675781 62.921875 20.507812 C 63.480469 21.339844 63.992188 22.199219 64.464844 23.082031 C 64.9375 23.964844 65.363281 24.867188 65.746094 25.792969 C 66.132812 26.71875 66.46875 27.660156 66.757812 28.617188 C 67.050781 29.578125 67.292969 30.546875 67.488281 31.53125 C 67.683594 32.511719 67.832031 33.5 67.929688 34.496094 C 68.027344 35.496094 68.074219 36.492188 68.074219 37.496094 Z M 68.074219 37.496094 " fill-opacity="1" fill-rule="nonzero"/><path fill="#f8c40f" d="M 63.738281 37.496094 C 63.738281 38.355469 63.699219 39.210938 63.613281 40.066406 C 63.53125 40.921875 63.402344 41.769531 63.234375 42.613281 C 63.066406 43.457031 62.859375 44.289062 62.609375 45.109375 C 62.359375 45.933594 62.070312 46.742188 61.742188 47.535156 C 61.414062 48.328125 61.046875 49.105469 60.640625 49.863281 C 60.238281 50.621094 59.796875 51.355469 59.316406 52.070312 C 58.839844 52.785156 58.328125 53.472656 57.785156 54.136719 C 57.238281 54.800781 56.664062 55.4375 56.054688 56.046875 C 55.449219 56.652344 54.8125 57.230469 54.148438 57.773438 C 53.484375 58.320312 52.792969 58.832031 52.078125 59.308594 C 51.363281 59.785156 50.628906 60.226562 49.871094 60.632812 C 49.113281 61.035156 48.335938 61.402344 47.542969 61.734375 C 46.75 62.0625 45.941406 62.351562 45.121094 62.601562 C 44.296875 62.847656 43.464844 63.058594 42.621094 63.226562 C 41.78125 63.394531 40.929688 63.519531 40.074219 63.601562 C 39.21875 63.6875 38.363281 63.730469 37.503906 63.730469 C 36.644531 63.730469 35.789062 63.6875 34.933594 63.601562 C 34.078125 63.519531 33.226562 63.394531 32.386719 63.226562 C 31.542969 63.058594 30.710938 62.851562 29.886719 62.601562 C 29.066406 62.351562 28.257812 62.0625 27.464844 61.734375 C 26.671875 61.402344 25.894531 61.039062 25.136719 60.632812 C 24.378906 60.226562 23.644531 59.785156 22.929688 59.308594 C 22.214844 58.832031 21.523438 58.320312 20.859375 57.773438 C 20.195312 57.230469 19.558594 56.652344 18.953125 56.046875 C 18.34375 55.4375 17.769531 54.804688 17.222656 54.140625 C 16.679688 53.476562 16.167969 52.785156 15.6875 52.070312 C 15.210938 51.355469 14.769531 50.621094 14.367188 49.863281 C 13.960938 49.105469 13.59375 48.328125 13.265625 47.535156 C 12.9375 46.742188 12.648438 45.933594 12.398438 45.113281 C 12.148438 44.289062 11.9375 43.457031 11.769531 42.613281 C 11.605469 41.769531 11.476562 40.921875 11.394531 40.066406 C 11.308594 39.210938 11.265625 38.355469 11.265625 37.496094 C 11.265625 36.636719 11.308594 35.78125 11.394531 34.925781 C 11.476562 34.070312 11.601562 33.21875 11.769531 32.378906 C 11.9375 31.535156 12.144531 30.703125 12.394531 29.878906 C 12.644531 29.058594 12.933594 28.25 13.261719 27.457031 C 13.589844 26.660156 13.957031 25.886719 14.363281 25.128906 C 14.769531 24.371094 15.210938 23.632812 15.6875 22.917969 C 16.164062 22.207031 16.675781 21.515625 17.21875 20.851562 C 17.765625 20.1875 18.339844 19.550781 18.949219 18.945312 C 19.554688 18.335938 20.191406 17.757812 20.855469 17.214844 C 21.519531 16.667969 22.210938 16.15625 22.921875 15.679688 C 23.636719 15.203125 24.375 14.761719 25.132812 14.355469 C 25.890625 13.949219 26.664062 13.585938 27.457031 13.253906 C 28.253906 12.925781 29.0625 12.636719 29.882812 12.386719 C 30.703125 12.136719 31.539062 11.929688 32.378906 11.761719 C 33.222656 11.59375 34.070312 11.46875 34.925781 11.382812 C 35.78125 11.296875 36.640625 11.257812 37.5 11.257812 C 38.359375 11.257812 39.214844 11.296875 40.070312 11.382812 C 40.925781 11.464844 41.773438 11.59375 42.617188 11.757812 C 43.460938 11.925781 44.292969 12.136719 45.117188 12.386719 C 45.9375 12.632812 46.746094 12.921875 47.539062 13.253906 C 48.335938 13.582031 49.109375 13.949219 49.867188 14.351562 C 50.625 14.757812 51.363281 15.199219 52.078125 15.675781 C 52.792969 16.152344 53.480469 16.664062 54.144531 17.210938 C 54.8125 17.753906 55.445312 18.332031 56.054688 18.941406 C 56.664062 19.546875 57.238281 20.183594 57.785156 20.847656 C 58.328125 21.511719 58.839844 22.203125 59.316406 22.914062 C 59.796875 23.628906 60.238281 24.367188 60.640625 25.125 C 61.046875 25.882812 61.414062 26.660156 61.742188 27.453125 C 62.070312 28.246094 62.359375 29.054688 62.609375 29.878906 C 62.859375 30.699219 63.070312 31.53125 63.234375 32.375 C 63.402344 33.21875 63.53125 34.066406 63.613281 34.921875 C 63.699219 35.777344 63.742188 36.636719 63.738281 37.496094 Z M 63.738281 37.496094 " fill-opacity="1" fill-rule="nonzero"/><path fill="#ffffff" d="M 35.890625 20.445312 L 39.121094 20.445312 L 39.121094 23.425781 C 42.730469 23.855469 45.066406 25.898438 46.132812 29.554688 L 41.683594 31.375 C 40.816406 28.875 39.472656 27.621094 37.65625 27.621094 C 36.75 27.621094 36.019531 27.902344 35.460938 28.460938 C 34.894531 29.019531 34.617188 29.703125 34.632812 30.5 C 34.632812 31.3125 34.898438 31.933594 35.433594 32.367188 C 35.964844 32.804688 37.101562 33.339844 38.851562 33.984375 C 40.769531 34.683594 42.273438 35.34375 43.363281 35.96875 C 44.464844 36.59375 45.335938 37.453125 45.972656 38.546875 C 46.625 39.644531 46.949219 40.929688 46.949219 42.398438 C 46.949219 44.648438 46.277344 46.527344 44.933594 48.03125 C 43.59375 49.535156 41.65625 50.417969 39.121094 50.683594 L 39.121094 54.539062 L 35.894531 54.539062 L 35.894531 50.703125 C 31.671875 50.269531 29.054688 47.8125 28.046875 43.335938 L 33.039062 42.035156 C 33.503906 44.847656 35.03125 46.253906 37.628906 46.253906 C 38.847656 46.253906 39.742188 45.953125 40.3125 45.351562 C 40.90625 44.742188 41.191406 44.015625 41.175781 43.167969 C 41.175781 42.289062 40.886719 41.621094 40.3125 41.164062 C 39.742188 40.710938 38.46875 40.132812 36.496094 39.433594 C 34.71875 38.820312 33.332031 38.210938 32.335938 37.609375 C 31.304688 36.980469 30.492188 36.136719 29.902344 35.082031 C 29.25 33.902344 28.9375 32.640625 28.96875 31.292969 C 28.953125 29.40625 29.507812 27.707031 30.636719 26.195312 C 31.75 24.683594 33.5 23.761719 35.890625 23.425781 Z M 35.890625 20.445312 " fill-opacity="1" fill-rule="nonzero"/><g clip-path="url(#cd23467194)"><path fill="#057205" d="M 37.5 9.714844 C 52.84375 9.714844 65.285156 22.152344 65.285156 37.5 C 65.285156 52.84375 52.84375 65.285156 37.5 65.285156 C 22.152344 65.285156 9.714844 52.84375 9.714844 37.5 C 9.714844 22.152344 22.152344 9.714844 37.5 9.714844 Z M 37.5 9.714844 " fill-opacity="1" fill-rule="evenodd"/></g><g clip-path="url(#afdeeef222)"><path fill="#ffffff" d="M 45.949219 19.535156 L 48.867188 33.628906 C 49.179688 35.140625 49.257812 36.0625 49.019531 36.675781 C 48.746094 37.378906 48.195312 37.324219 47.957031 36.683594 L 45.972656 31.320312 C 45.742188 30.714844 45.433594 30.160156 44.890625 29.820312 C 44.296875 29.453125 44.179688 29.390625 44.105469 28.695312 L 43.402344 22.085938 C 43.230469 20.507812 43.917969 19.5 44.621094 19.136719 C 45.367188 18.753906 45.824219 18.933594 45.949219 19.535156 Z M 45.949219 19.535156 " fill-opacity="1" fill-rule="nonzero"/></g><g clip-path="url(#faaf944fd3)"><path fill="#ffffff" d="M 29.359375 26.320312 L 42.597656 29.921875 C 43.753906 30.238281 44.632812 30.738281 45.019531 31.683594 L 48.683594 40.628906 C 49.144531 42.160156 48.5 43.011719 47.078125 43.058594 C 46.847656 43.070312 46.789062 43.304688 46.820312 43.535156 C 46.96875 44.703125 46.144531 45.871094 45.226562 46.15625 C 45.164062 45.519531 44.960938 44.832031 44.554688 44.035156 L 41.417969 37.875 C 40.910156 36.886719 39.855469 36.355469 38.679688 36.433594 L 33.945312 36.742188 C 32.886719 36.8125 32.175781 37.429688 31.785156 37.933594 L 31.070312 38.847656 C 30.773438 39.226562 30.558594 39.382812 30.15625 39.472656 C 29.308594 39.664062 28.722656 39.484375 28.4375 39.269531 C 28.070312 38.984375 28.152344 38.785156 28.328125 38.636719 L 32.792969 34.9375 C 33.625 34.25 33.894531 34.074219 34.992188 33.984375 L 40.835938 33.507812 C 41.820312 33.429688 42.246094 34.007812 42.558594 34.695312 L 45.640625 41.417969 C 45.929688 42.054688 46.445312 41.863281 46.191406 41.214844 L 43.496094 34.292969 C 42.992188 33.007812 42.027344 32.386719 40.757812 32.492188 L 39.210938 32.617188 C 38.578125 32.667969 38.195312 32.660156 37.640625 32.425781 L 30.878906 29.546875 C 28.945312 28.730469 28.164062 27.613281 28.179688 26.984375 C 28.195312 26.230469 28.726562 26.144531 29.359375 26.320312 Z M 29.359375 26.320312 " fill-opacity="1" fill-rule="nonzero"/></g><g clip-path="url(#dadfeab2f0)"><path fill="#ffffff" d="M 27.257812 27.566406 C 27.511719 28.550781 28.429688 29.558594 30.027344 30.28125 C 30.472656 30.484375 30.496094 30.535156 30.605469 30.964844 C 30.949219 32.285156 31.050781 33.203125 30.695312 34.855469 C 30.570312 35.410156 30.519531 35.5 30.085938 35.855469 L 27.671875 37.855469 C 27.320312 38.148438 27.132812 38.589844 27.179688 39.011719 C 27.222656 39.433594 27.46875 39.8125 27.828125 40.078125 C 28.289062 40.425781 28.9375 40.609375 29.726562 40.5625 L 28.28125 42.40625 C 28.140625 42.585938 28.132812 42.839844 28.273438 43.023438 C 28.65625 43.546875 29.167969 43.898438 29.734375 44.035156 C 30.300781 44.171875 30.898438 44.097656 31.503906 43.882812 C 32.59375 43.503906 33.734375 42.601562 34.890625 41.457031 C 35.023438 41.324219 35.070312 41.359375 35.1875 41.433594 C 35.839844 41.847656 36.554688 41.996094 37.304688 42.011719 C 37.171875 42.765625 37.050781 43.410156 37.550781 44 C 37.832031 44.328125 37.75 44.371094 37.527344 44.476562 C 36.671875 44.894531 36.0625 45.597656 35.785156 46.285156 C 35.667969 46.574219 35.558594 46.550781 35.308594 46.601562 C 33.777344 46.90625 32.660156 47.550781 31.828125 48.324219 C 30.886719 49.199219 30.496094 50.21875 30.355469 51.890625 C 30.300781 52.507812 30.949219 52.542969 31.042969 52.023438 C 31.488281 49.496094 32.898438 48.207031 34.972656 47.660156 C 35.40625 47.546875 35.65625 47.597656 35.796875 47.765625 C 36.148438 48.171875 36.25 48.527344 36.957031 48.933594 C 37.421875 49.203125 37.710938 48.777344 37.195312 48.390625 C 35.628906 47.226562 37.070312 45.097656 38.457031 44.882812 C 38.832031 44.828125 38.910156 44.574219 38.660156 44.296875 C 38.085938 43.484375 37.914062 42.746094 38.347656 41.574219 C 38.429688 41.34375 38.230469 41.136719 37.875 41.226562 C 36.859375 41.351562 36.144531 41.078125 35.207031 40.386719 C 35 40.234375 34.714844 40.257812 34.539062 40.441406 C 33.3125 41.714844 32.121094 42.605469 31.171875 42.929688 C 30.652344 43.109375 30.246094 43.152344 29.867188 43.011719 C 29.417969 42.839844 29.519531 42.480469 29.671875 42.285156 L 32.589844 38.558594 C 32.871094 38.195312 33.3125 37.804688 34.011719 37.757812 L 38.753906 37.449219 C 39.613281 37.390625 40.179688 37.699219 40.507812 38.335938 L 43.648438 44.5 C 44.1875 45.542969 44.296875 46.253906 44.222656 46.875 C 44.144531 47.496094 43.851562 48.070312 43.457031 48.78125 L 40.355469 54.355469 C 40.074219 54.855469 40.023438 55.140625 40.023438 55.6875 L 40.027344 59.761719 C 40.027344 60.34375 39.773438 61.027344 38.851562 61.027344 L 28.632812 61.027344 C 27.839844 61.027344 27.648438 60.644531 27.648438 59.992188 L 27.648438 57.71875 C 27.644531 57.433594 27.851562 57.039062 28.261719 57.394531 C 29.914062 58.828125 31.765625 58.972656 33.894531 58.246094 C 34.539062 58.027344 34.328125 57.367188 33.683594 57.589844 C 31.320312 58.390625 29.1875 57.640625 27.558594 55.140625 C 25.925781 52.640625 25.765625 50.613281 26.210938 47.046875 C 26.945312 41.105469 26.609375 35.007812 26.132812 28.402344 C 26.109375 28.066406 26.132812 27.765625 26.257812 27.550781 C 26.628906 26.917969 27.121094 27.03125 27.257812 27.566406 Z M 27.257812 27.566406 " fill-opacity="1" fill-rule="nonzero"/></g><path fill="#ffffff" d="M 33.820312 14.792969 C 33.285156 14.792969 32.925781 15.339844 33.136719 15.832031 L 35.09375 20.582031 C 35.242188 20.980469 35.6875 21.175781 36.078125 21.015625 C 36.46875 20.855469 36.648438 20.398438 36.472656 20.015625 L 34.523438 15.265625 C 34.410156 14.980469 34.128906 14.792969 33.820312 14.792969 Z M 33.820312 14.792969 " fill-opacity="1" fill-rule="nonzero"/><path fill="#ffffff" d="M 39.707031 14.003906 C 39.292969 14.007812 38.960938 14.347656 38.972656 14.761719 L 38.972656 19.75 C 38.949219 20.183594 39.289062 20.542969 39.722656 20.542969 C 40.148438 20.542969 40.488281 20.183594 40.464844 19.75 L 40.460938 14.757812 C 40.464844 14.335938 40.121094 13.996094 39.707031 14.003906 Z M 39.707031 14.003906 " fill-opacity="1" fill-rule="nonzero"/><path fill="#ffffff" d="M 29.105469 18.433594 C 28.433594 18.433594 28.097656 19.246094 28.582031 19.714844 L 32.085938 23.242188 C 32.371094 23.550781 32.855469 23.558594 33.152344 23.265625 C 33.453125 22.964844 33.445312 22.484375 33.140625 22.191406 L 29.640625 18.660156 C 29.5 18.515625 29.308594 18.433594 29.105469 18.433594 Z M 29.105469 18.433594 " fill-opacity="1" fill-rule="nonzero"/></svg>