<svg xmlns="http://www.w3.org/2000/svg" xmlns:xlink="http://www.w3.org/1999/xlink" width="100" zoomAndPan="magnify" viewBox="0 0 75 74.999997" height="100" preserveAspectRatio="xMidYMid meet" version="1.0"><defs><clipPath id="e5852e5a09"><path d="M 0 1.296875 L 75 1.296875 L 75 74 L 0 74 Z M 0 1.296875 " clip-rule="nonzero"/></clipPath><clipPath id="3fd1283ddb"><path d="M 9.714844 9.714844 L 65.214844 9.714844 L 65.214844 65.214844 L 9.714844 65.214844 Z M 9.714844 9.714844 " clip-rule="nonzero"/></clipPath><clipPath id="6ce2d4f6cf"><path d="M 22.019531 27 L 24 27 L 24 30 L 22.019531 30 Z M 22.019531 27 " clip-rule="nonzero"/></clipPath><clipPath id="6a2e433938"><path d="M 36 18.308594 L 44 18.308594 L 44 26 L 36 26 Z M 36 18.308594 " clip-rule="nonzero"/></clipPath><clipPath id="79a7ec5cf5"><path d="M 33 22 L 58.769531 22 L 58.769531 56.558594 L 33 56.558594 Z M 33 22 " clip-rule="nonzero"/></clipPath><clipPath id="10eeaa1715"><path d="M 22.019531 26 L 36 26 L 36 56.558594 L 22.019531 56.558594 Z M 22.019531 26 " clip-rule="nonzero"/></clipPath><clipPath id="a34d626fb1"><path d="M 25 18.308594 L 32 18.308594 L 32 21 L 25 21 Z M 25 18.308594 " clip-rule="nonzero"/></clipPath></defs><g clip-path="url(#e5852e5a09)"><path fill="#008000" d="M 74.988281 37.496094 C 74.988281 57.484375 58.203125 73.695312 37.5 73.695312 C 16.792969 73.695312 0.0078125 57.484375 0.0078125 37.496094 C 0.0078125 17.503906 16.792969 1.296875 37.5 1.296875 C 58.203125 1.296875 74.988281 17.5 74.988281 37.496094 Z M 74.988281 37.496094 " fill-opacity="1" fill-rule="nonzero"/></g><path fill="#ffffff" d="M 68.074219 37.496094 C 68.074219 38.496094 68.027344 39.496094 67.929688 40.492188 C 67.832031 41.488281 67.683594 42.476562 67.488281 43.460938 C 67.292969 44.441406 67.050781 45.414062 66.757812 46.371094 C 66.46875 47.328125 66.132812 48.269531 65.746094 49.195312 C 65.363281 50.121094 64.9375 51.027344 64.464844 51.910156 C 63.992188 52.792969 63.480469 53.648438 62.921875 54.484375 C 62.367188 55.316406 61.769531 56.117188 61.136719 56.894531 C 60.5 57.667969 59.828125 58.40625 59.121094 59.117188 C 58.410156 59.824219 57.671875 60.496094 56.894531 61.132812 C 56.121094 61.765625 55.320312 62.363281 54.484375 62.917969 C 53.652344 63.476562 52.796875 63.988281 51.914062 64.460938 C 51.027344 64.933594 50.125 65.359375 49.199219 65.746094 C 48.273438 66.128906 47.332031 66.464844 46.375 66.753906 C 45.417969 67.046875 44.445312 67.289062 43.464844 67.484375 C 42.480469 67.679688 41.492188 67.828125 40.496094 67.925781 C 39.5 68.023438 38.5 68.070312 37.5 68.070312 C 36.496094 68.070312 35.496094 68.023438 34.5 67.925781 C 33.503906 67.828125 32.515625 67.679688 31.53125 67.484375 C 30.550781 67.289062 29.582031 67.046875 28.621094 66.753906 C 27.664062 66.464844 26.722656 66.128906 25.796875 65.746094 C 24.871094 65.359375 23.96875 64.933594 23.085938 64.460938 C 22.199219 63.988281 21.34375 63.476562 20.511719 62.917969 C 19.679688 62.363281 18.875 61.765625 18.101562 61.132812 C 17.324219 60.496094 16.585938 59.824219 15.875 59.117188 C 15.167969 58.40625 14.496094 57.667969 13.863281 56.894531 C 13.226562 56.117188 12.628906 55.316406 12.074219 54.484375 C 11.519531 53.648438 11.003906 52.792969 10.53125 51.910156 C 10.058594 51.027344 9.632812 50.121094 9.25 49.195312 C 8.867188 48.269531 8.527344 47.328125 8.238281 46.371094 C 7.945312 45.414062 7.703125 44.441406 7.507812 43.460938 C 7.3125 42.476562 7.167969 41.488281 7.066406 40.492188 C 6.96875 39.496094 6.921875 38.496094 6.921875 37.496094 C 6.921875 36.492188 6.96875 35.496094 7.066406 34.496094 C 7.167969 33.5 7.3125 32.511719 7.507812 31.53125 C 7.703125 30.546875 7.945312 29.578125 8.238281 28.617188 C 8.527344 27.660156 8.867188 26.71875 9.25 25.792969 C 9.632812 24.867188 10.058594 23.964844 10.53125 23.082031 C 11.003906 22.199219 11.519531 21.339844 12.074219 20.507812 C 12.628906 19.675781 13.226562 18.871094 13.863281 18.097656 C 14.496094 17.324219 15.167969 16.582031 15.875 15.875 C 16.585938 15.164062 17.324219 14.492188 18.101562 13.859375 C 18.875 13.222656 19.679688 12.625 20.511719 12.070312 C 21.34375 11.515625 22.199219 11 23.085938 10.527344 C 23.96875 10.054688 24.871094 9.628906 25.796875 9.246094 C 26.722656 8.863281 27.664062 8.523438 28.621094 8.234375 C 29.582031 7.941406 30.550781 7.699219 31.53125 7.503906 C 32.515625 7.308594 33.503906 7.164062 34.5 7.066406 C 35.496094 6.964844 36.496094 6.917969 37.5 6.917969 C 38.5 6.917969 39.5 6.964844 40.496094 7.066406 C 41.492188 7.164062 42.480469 7.308594 43.464844 7.503906 C 44.445312 7.699219 45.417969 7.941406 46.375 8.234375 C 47.332031 8.523438 48.273438 8.863281 49.199219 9.246094 C 50.125 9.628906 51.027344 10.054688 51.914062 10.527344 C 52.796875 11 53.652344 11.515625 54.484375 12.070312 C 55.320312 12.625 56.121094 13.222656 56.894531 13.859375 C 57.671875 14.492188 58.410156 15.164062 59.121094 15.875 C 59.828125 16.582031 60.5 17.324219 61.136719 18.097656 C 61.769531 18.871094 62.367188 19.675781 62.921875 20.507812 C 63.480469 21.339844 63.992188 22.199219 64.464844 23.082031 C 64.9375 23.964844 65.363281 24.867188 65.746094 25.792969 C 66.132812 26.71875 66.46875 27.660156 66.757812 28.617188 C 67.050781 29.578125 67.292969 30.546875 67.488281 31.53125 C 67.683594 32.511719 67.832031 33.5 67.929688 34.496094 C 68.027344 35.496094 68.074219 36.492188 68.074219 37.496094 Z M 68.074219 37.496094 " fill-opacity="1" fill-rule="nonzero"/><path fill="#f8c40f" d="M 63.738281 37.496094 C 63.738281 38.355469 63.699219 39.210938 63.613281 40.066406 C 63.53125 40.921875 63.402344 41.769531 63.234375 42.613281 C 63.066406 43.457031 62.859375 44.289062 62.609375 45.109375 C 62.359375 45.933594 62.070312 46.742188 61.742188 47.535156 C 61.414062 48.328125 61.046875 49.105469 60.640625 49.863281 C 60.238281 50.621094 59.796875 51.355469 59.316406 52.070312 C 58.839844 52.785156 58.328125 53.472656 57.785156 54.136719 C 57.238281 54.800781 56.664062 55.4375 56.054688 56.046875 C 55.449219 56.652344 54.8125 57.230469 54.148438 57.773438 C 53.484375 58.320312 52.792969 58.832031 52.078125 59.308594 C 51.363281 59.785156 50.628906 60.226562 49.871094 60.632812 C 49.113281 61.035156 48.335938 61.402344 47.542969 61.734375 C 46.75 62.0625 45.941406 62.351562 45.121094 62.601562 C 44.296875 62.847656 43.464844 63.058594 42.621094 63.226562 C 41.78125 63.394531 40.929688 63.519531 40.074219 63.601562 C 39.21875 63.6875 38.363281 63.730469 37.503906 63.730469 C 36.644531 63.730469 35.789062 63.6875 34.933594 63.601562 C 34.078125 63.519531 33.226562 63.394531 32.386719 63.226562 C 31.542969 63.058594 30.710938 62.851562 29.886719 62.601562 C 29.066406 62.351562 28.257812 62.0625 27.464844 61.734375 C 26.671875 61.402344 25.894531 61.039062 25.136719 60.632812 C 24.378906 60.226562 23.644531 59.785156 22.929688 59.308594 C 22.214844 58.832031 21.523438 58.320312 20.859375 57.773438 C 20.195312 57.230469 19.558594 56.652344 18.953125 56.046875 C 18.34375 55.4375 17.769531 54.804688 17.222656 54.140625 C 16.679688 53.476562 16.167969 52.785156 15.6875 52.070312 C 15.210938 51.355469 14.769531 50.621094 14.367188 49.863281 C 13.960938 49.105469 13.59375 48.328125 13.265625 47.535156 C 12.9375 46.742188 12.648438 45.933594 12.398438 45.113281 C 12.148438 44.289062 11.9375 43.457031 11.769531 42.613281 C 11.605469 41.769531 11.476562 40.921875 11.394531 40.066406 C 11.308594 39.210938 11.265625 38.355469 11.265625 37.496094 C 11.265625 36.636719 11.308594 35.78125 11.394531 34.925781 C 11.476562 34.070312 11.601562 33.21875 11.769531 32.378906 C 11.9375 31.535156 12.144531 30.703125 12.394531 29.878906 C 12.644531 29.058594 12.933594 28.25 13.261719 27.457031 C 13.589844 26.660156 13.957031 25.886719 14.363281 25.128906 C 14.769531 24.371094 15.210938 23.632812 15.6875 22.917969 C 16.164062 22.207031 16.675781 21.515625 17.21875 20.851562 C 17.765625 20.1875 18.339844 19.550781 18.949219 18.945312 C 19.554688 18.335938 20.191406 17.757812 20.855469 17.214844 C 21.519531 16.667969 22.210938 16.15625 22.921875 15.679688 C 23.636719 15.203125 24.375 14.761719 25.132812 14.355469 C 25.890625 13.949219 26.664062 13.585938 27.457031 13.253906 C 28.253906 12.925781 29.0625 12.636719 29.882812 12.386719 C 30.703125 12.136719 31.539062 11.929688 32.378906 11.761719 C 33.222656 11.59375 34.070312 11.46875 34.925781 11.382812 C 35.78125 11.296875 36.640625 11.257812 37.5 11.257812 C 38.359375 11.257812 39.214844 11.296875 40.070312 11.382812 C 40.925781 11.464844 41.773438 11.59375 42.617188 11.757812 C 43.460938 11.925781 44.292969 12.136719 45.117188 12.386719 C 45.9375 12.632812 46.746094 12.921875 47.539062 13.253906 C 48.335938 13.582031 49.109375 13.949219 49.867188 14.351562 C 50.625 14.757812 51.363281 15.199219 52.078125 15.675781 C 52.792969 16.152344 53.480469 16.664062 54.144531 17.210938 C 54.8125 17.753906 55.445312 18.332031 56.054688 18.941406 C 56.664062 19.546875 57.238281 20.183594 57.785156 20.847656 C 58.328125 21.511719 58.839844 22.203125 59.316406 22.914062 C 59.796875 23.628906 60.238281 24.367188 60.640625 25.125 C 61.046875 25.882812 61.414062 26.660156 61.742188 27.453125 C 62.070312 28.246094 62.359375 29.054688 62.609375 29.878906 C 62.859375 30.699219 63.070312 31.53125 63.234375 32.375 C 63.402344 33.21875 63.53125 34.066406 63.613281 34.921875 C 63.699219 35.777344 63.742188 36.636719 63.738281 37.496094 Z M 63.738281 37.496094 " fill-opacity="1" fill-rule="nonzero"/><path fill="#ffffff" d="M 35.890625 20.445312 L 39.121094 20.445312 L 39.121094 23.425781 C 42.730469 23.855469 45.066406 25.898438 46.132812 29.554688 L 41.683594 31.375 C 40.816406 28.875 39.472656 27.621094 37.65625 27.621094 C 36.75 27.621094 36.019531 27.902344 35.460938 28.460938 C 34.894531 29.019531 34.617188 29.703125 34.632812 30.5 C 34.632812 31.3125 34.898438 31.933594 35.433594 32.367188 C 35.964844 32.804688 37.101562 33.339844 38.851562 33.984375 C 40.769531 34.683594 42.273438 35.34375 43.363281 35.96875 C 44.464844 36.59375 45.335938 37.453125 45.972656 38.546875 C 46.625 39.644531 46.949219 40.929688 46.949219 42.398438 C 46.949219 44.648438 46.277344 46.527344 44.933594 48.03125 C 43.59375 49.535156 41.65625 50.417969 39.121094 50.683594 L 39.121094 54.539062 L 35.894531 54.539062 L 35.894531 50.703125 C 31.671875 50.269531 29.054688 47.8125 28.046875 43.335938 L 33.039062 42.035156 C 33.503906 44.847656 35.03125 46.253906 37.628906 46.253906 C 38.847656 46.253906 39.742188 45.953125 40.3125 45.351562 C 40.90625 44.742188 41.191406 44.015625 41.175781 43.167969 C 41.175781 42.289062 40.886719 41.621094 40.3125 41.164062 C 39.742188 40.710938 38.46875 40.132812 36.496094 39.433594 C 34.71875 38.820312 33.332031 38.210938 32.335938 37.609375 C 31.304688 36.980469 30.492188 36.136719 29.902344 35.082031 C 29.25 33.902344 28.9375 32.640625 28.96875 31.292969 C 28.953125 29.40625 29.507812 27.707031 30.636719 26.195312 C 31.75 24.683594 33.5 23.761719 35.890625 23.425781 Z M 35.890625 20.445312 " fill-opacity="1" fill-rule="nonzero"/><g clip-path="url(#3fd1283ddb)"><path fill="#057205" d="M 37.5 9.714844 C 52.84375 9.714844 65.285156 22.152344 65.285156 37.5 C 65.285156 52.84375 52.84375 65.285156 37.5 65.285156 C 22.152344 65.285156 9.714844 52.84375 9.714844 37.5 C 9.714844 22.152344 22.152344 9.714844 37.5 9.714844 Z M 37.5 9.714844 " fill-opacity="1" fill-rule="evenodd"/></g><g clip-path="url(#6ce2d4f6cf)"><path fill="#ffffff" d="M 22.226562 28.019531 C 22.054688 28.570312 22.265625 29.148438 22.710938 29.464844 C 23.003906 28.476562 23.378906 27.71875 23.839844 27.171875 C 23.160156 26.964844 22.4375 27.34375 22.226562 28.019531 Z M 22.226562 28.019531 " fill-opacity="1" fill-rule="nonzero"/></g><g clip-path="url(#6a2e433938)"><path fill="#ffffff" d="M 36.121094 21.949219 C 36.121094 23.957031 37.75 25.589844 39.761719 25.589844 C 41.773438 25.589844 43.402344 23.957031 43.402344 21.949219 C 43.402344 19.9375 41.773438 18.308594 39.761719 18.308594 C 37.75 18.308594 36.121094 19.9375 36.121094 21.949219 Z M 37.28125 22.558594 C 38.707031 23.410156 40.9375 22.921875 40.9375 22.921875 C 38.808594 25.515625 37.28125 22.558594 37.28125 22.558594 Z M 37.28125 22.558594 " fill-opacity="1" fill-rule="nonzero"/></g><g clip-path="url(#79a7ec5cf5)"><path fill="#ffffff" d="M 58.375 22.667969 L 56.085938 23.226562 C 56.074219 23.226562 56.0625 23.226562 56.050781 23.230469 L 42.65625 26.5 L 35.386719 26.5 C 35.226562 26.5 35.070312 26.53125 34.921875 26.585938 L 33.917969 26.976562 C 35.625 28.71875 36.257812 33.125 35.90625 40.78125 C 35.882812 41.230469 35.6875 41.628906 35.386719 41.914062 L 35.386719 54.683594 C 35.386719 55.789062 36.28125 56.683594 37.386719 56.683594 C 38.492188 56.683594 39.386719 55.789062 39.386719 54.683594 L 39.386719 40.078125 L 40.136719 40.078125 L 40.136719 54.683594 C 40.136719 55.789062 41.03125 56.683594 42.136719 56.683594 C 43.242188 56.683594 44.136719 55.789062 44.136719 54.683594 L 44.136719 28.804688 L 56.664062 25.746094 C 57.097656 25.640625 57.019531 24.617188 56.730469 23.90625 L 58.570312 23.457031 C 58.789062 23.402344 58.921875 23.183594 58.867188 22.964844 C 58.816406 22.746094 58.59375 22.613281 58.375 22.667969 Z M 58.375 22.667969 " fill-opacity="1" fill-rule="nonzero"/></g><g clip-path="url(#10eeaa1715)"><path fill="#ffffff" d="M 25.667969 26.523438 C 25.34375 26.554688 24.902344 26.683594 24.453125 27.074219 C 22.71875 28.578125 22.046875 33.058594 22.402344 40.765625 C 22.433594 41.457031 23.007812 42 23.695312 42 C 23.714844 42 23.734375 42 23.753906 41.996094 C 24.46875 41.964844 25.019531 41.359375 24.988281 40.644531 C 24.796875 36.492188 24.949219 33.800781 25.199219 32.066406 L 25.578125 32.050781 C 25.328125 33.742188 25.167969 36.421875 25.359375 40.628906 C 25.386719 41.242188 25.078125 41.796875 24.589844 42.105469 L 24.589844 54.683594 C 24.589844 55.789062 25.488281 56.683594 26.59375 56.683594 C 27.695312 56.683594 28.59375 55.789062 28.59375 54.683594 L 28.59375 40.078125 L 29.34375 40.078125 L 29.34375 54.683594 C 29.34375 55.789062 30.238281 56.683594 31.34375 56.683594 C 32.449219 56.683594 33.34375 55.789062 33.34375 54.683594 L 33.34375 32.367188 L 33.714844 32.367188 L 33.714844 41.886719 C 33.859375 41.949219 34.015625 41.988281 34.179688 41.996094 C 34.199219 42 34.222656 42 34.242188 42 C 34.929688 42 35.5 41.457031 35.53125 40.765625 C 35.886719 33.058594 35.214844 28.578125 33.480469 27.074219 C 33.027344 26.683594 32.585938 26.554688 32.261719 26.523438 C 32.207031 26.515625 32.152344 26.511719 32.09375 26.511719 L 25.84375 26.511719 C 25.78125 26.511719 25.722656 26.515625 25.667969 26.523438 Z M 25.667969 26.523438 " fill-opacity="1" fill-rule="nonzero"/></g><g clip-path="url(#a34d626fb1)"><path fill="#ffffff" d="M 27.75 20.046875 C 27.976562 19.773438 28.296875 19.609375 28.648438 19.578125 C 28.6875 19.574219 28.726562 19.570312 28.765625 19.570312 C 29.308594 19.570312 29.769531 19.890625 29.976562 20.359375 L 30.503906 20.3125 C 30.621094 19.832031 31.003906 19.445312 31.503906 19.335938 C 30.847656 18.699219 29.953125 18.308594 28.96875 18.308594 C 27.375 18.308594 26.019531 19.332031 25.527344 20.757812 L 27.480469 20.582031 C 27.527344 20.386719 27.617188 20.203125 27.75 20.046875 Z M 27.75 20.046875 " fill-opacity="1" fill-rule="nonzero"/></g><path fill="#ffffff" d="M 31.785156 21.949219 C 31.097656 21.949219 30.53125 21.429688 30.46875 20.742188 C 30.46875 20.730469 30.46875 20.714844 30.46875 20.703125 L 30.078125 20.738281 C 30.078125 20.75 30.082031 20.765625 30.082031 20.777344 C 30.148438 21.503906 29.609375 22.148438 28.882812 22.210938 C 28.84375 22.214844 28.804688 22.21875 28.765625 22.21875 C 28.074219 22.21875 27.507812 21.699219 27.449219 21.011719 C 27.449219 21 27.449219 20.984375 27.445312 20.972656 L 25.414062 21.152344 C 25.359375 21.410156 25.328125 21.675781 25.328125 21.949219 C 25.328125 23.957031 26.957031 25.589844 28.96875 25.589844 C 30.976562 25.589844 32.609375 23.957031 32.609375 21.949219 C 32.609375 21.855469 32.605469 21.761719 32.597656 21.671875 C 32.398438 21.824219 32.160156 21.921875 31.90625 21.941406 C 31.867188 21.945312 31.824219 21.949219 31.785156 21.949219 Z M 31.785156 21.949219 " fill-opacity="1" fill-rule="nonzero"/><path fill="#ffffff" d="M 31.703125 19.679688 C 31.179688 19.726562 30.792969 20.1875 30.839844 20.710938 C 30.886719 21.234375 31.347656 21.621094 31.871094 21.574219 C 32.394531 21.527344 32.78125 21.066406 32.734375 20.542969 C 32.6875 20.019531 32.226562 19.632812 31.703125 19.679688 Z M 31.703125 19.679688 " fill-opacity="1" fill-rule="nonzero"/><path fill="#ffffff" d="M 28.683594 19.949219 C 28.160156 19.996094 27.773438 20.457031 27.820312 20.980469 C 27.867188 21.5 28.328125 21.886719 28.851562 21.839844 C 29.375 21.796875 29.757812 21.332031 29.714844 20.808594 C 29.667969 20.289062 29.203125 19.902344 28.683594 19.949219 Z M 28.683594 19.949219 " fill-opacity="1" fill-rule="nonzero"/></svg>