<?xml version="1.0" encoding="UTF-8"?>
<!DOCTYPE svg PUBLIC "-//W3C//DTD SVG 1.1//EN" "http://www.w3.org/Graphics/SVG/1.1/DTD/svg11.dtd">
<!-- Creator: CorelDRAW 2020 (64 Bit) -->
<svg xmlns="http://www.w3.org/2000/svg" xml:space="preserve" width="192px" height="192px" version="1.1" style="shape-rendering:geometricPrecision; text-rendering:geometricPrecision; image-rendering:optimizeQuality; fill-rule:evenodd; clip-rule:evenodd"
viewBox="0 0 63 52.65"
 xmlns:xlink="http://www.w3.org/1999/xlink"
 xmlns:xodm="http://www.corel.com/coreldraw/odm/2003">
 <defs>
  <style type="text/css">
   <![CDATA[
    .fil0 {fill:green}
    .fil1 {fill:#FFCC00}
   ]]>
  </style>
 </defs>
 <g id="Camada_x0020_1">
  <metadata id="CorelCorpID_0Corel-Layer"/>
  <g id="_1901985171472">
   <path class="fil0" d="M10.72 26.86c0,-12.1 9.81,-21.9 21.91,-21.9 7.57,0 14.25,3.84 18.18,9.67 -4.04,-7.29 -11.67,-12.2 -20.42,-12.2 -12.97,0 -23.49,10.79 -23.49,24.1 0,13.32 10.52,24.11 23.49,24.11 7.03,0 13.33,-3.17 17.64,-8.19 -3.96,3.9 -9.4,6.32 -15.4,6.32 -12.1,0 -21.91,-9.81 -21.91,-21.91z"/>
   <path class="fil1" d="M50.33 26.95c0,-10.42 -8.45,-18.87 -18.87,-18.87 -6.53,0 -12.28,3.31 -15.67,8.34 3.48,-6.28 10.06,-10.52 17.6,-10.52 11.17,0 20.23,9.3 20.23,20.77 0,11.48 -9.06,20.77 -20.23,20.77 -6.06,0 -11.49,-2.73 -15.2,-7.06 3.41,3.37 8.09,5.45 13.27,5.45 10.42,0 18.87,-8.45 18.87,-18.88z"/>
  </g>
 </g>
</svg>
