<svg xmlns="http://www.w3.org/2000/svg" xmlns:xlink="http://www.w3.org/1999/xlink" width="100" zoomAndPan="magnify" viewBox="0 0 75 74.999997" height="100" preserveAspectRatio="xMidYMid meet" version="1.0"><defs><clipPath id="fc6a0d58d0"><path d="M 2.65625 45 L 72 45 L 72 74.125 L 2.65625 74.125 Z M 2.65625 45 " clip-rule="nonzero"/></clipPath><clipPath id="d1a2bda531"><path d="M 31 0.625 L 58 0.625 L 58 53 L 31 53 Z M 31 0.625 " clip-rule="nonzero"/></clipPath></defs><path fill="#ffde59" d="M 50.636719 34.855469 C 56.363281 36.804688 67.046875 34.085938 67.046875 23.582031 C 60.042969 23.898438 50.339844 25.714844 50.636719 34.855469 " fill-opacity="1" fill-rule="nonzero"/><path fill="#ffde59" d="M 42.574219 36.933594 C 41.316406 31.015625 33.503906 23.234375 24.484375 28.613281 C 28.347656 34.46875 34.878906 41.871094 42.574219 36.933594 " fill-opacity="1" fill-rule="nonzero"/><g clip-path="url(#fc6a0d58d0)"><path fill="#f8c40f" d="M 71.429688 55.914062 C 70.699219 54.308594 68.824219 53.570312 67.191406 54.246094 C 66.109375 54.695312 65.0625 55.121094 64.730469 55.242188 C 65.136719 54.765625 65.292969 54.097656 65.085938 53.457031 C 64.769531 52.472656 63.714844 51.933594 62.734375 52.25 L 60.222656 53.058594 C 60.207031 52.964844 60.183594 52.867188 60.15625 52.769531 C 59.835938 51.789062 58.78125 51.246094 57.796875 51.566406 C 57.796875 51.566406 48.992188 54.535156 47.066406 55.1875 C 49.515625 55.894531 51.035156 58.316406 50.5625 60.867188 C 50.144531 63.140625 48.273438 64.757812 46.070312 64.921875 C 45.6875 64.949219 45.296875 64.933594 44.898438 64.871094 L 34.390625 63.210938 L 26.316406 58.566406 C 25.789062 58.265625 25.5625 57.589844 25.851562 57.050781 C 26.148438 56.496094 26.84375 56.300781 27.386719 56.613281 L 34.1875 60.527344 L 35.140625 61.074219 L 35.519531 61.132812 L 45.246094 62.671875 C 46.71875 62.90625 48.105469 61.921875 48.375 60.460938 C 48.644531 59 47.703125 57.585938 46.246094 57.277344 L 42.988281 56.585938 L 39.558594 55.855469 C 38.582031 55.457031 37.671875 54.914062 36.8125 54.089844 C 35.925781 53.238281 35.046875 52.453125 34.171875 51.742188 L 31.65625 48.988281 C 28.308594 45.328125 22.984375 44.242188 18.472656 46.300781 C 12.988281 48.800781 6.011719 52.027344 2.851562 53.6875 L 10.90625 67.382812 L 12.503906 69.996094 L 21.296875 66.675781 L 39.425781 73.726562 C 40.851562 74.363281 42.488281 74.296875 43.855469 73.546875 C 47.5 71.558594 63.40625 63.496094 69.925781 60.195312 C 71.492188 59.402344 72.15625 57.515625 71.429688 55.914062 " fill-opacity="1" fill-rule="nonzero"/></g><g clip-path="url(#d1a2bda531)"><path fill="#f8c40f" d="M 45.527344 15.503906 C 45.179688 15.152344 44.640625 14.835938 43.871094 14.523438 C 41.972656 13.78125 40.222656 12.789062 40.222656 10.605469 C 40.222656 8.90625 41.257812 7.578125 42.992188 7.0625 L 43.378906 6.953125 L 43.378906 4.800781 L 45.328125 4.800781 L 45.328125 6.824219 L 45.796875 6.890625 C 46.566406 6.996094 47.253906 7.234375 47.882812 7.597656 L 48.125 7.738281 L 47.367188 9.738281 L 47.039062 9.546875 C 46.683594 9.351562 45.863281 8.878906 44.5625 8.878906 C 43.167969 8.878906 42.675781 9.675781 42.675781 10.351562 C 42.675781 11.203125 43.207031 11.664062 45.066406 12.4375 C 46.773438 13.125 48.503906 14.160156 48.503906 16.5625 C 48.503906 18.3125 47.390625 19.746094 45.585938 20.289062 L 45.207031 20.402344 L 45.207031 22.621094 L 43.230469 22.621094 L 43.230469 20.507812 L 42.757812 20.441406 C 41.757812 20.308594 40.789062 19.964844 40.167969 19.523438 L 39.96875 19.378906 L 40.695312 17.355469 L 41.042969 17.585938 C 41.785156 18.074219 42.742188 18.382812 43.65625 18.417969 C 43.726562 18.425781 43.800781 18.425781 43.871094 18.425781 C 44.152344 18.425781 44.417969 18.394531 44.65625 18.328125 C 45.503906 18.105469 46.03125 17.507812 46.03125 16.710938 C 46.03125 16.246094 45.875 15.855469 45.527344 15.503906 Z M 43.300781 26.769531 C 43.34375 27.445312 43.410156 28.125 43.5 28.800781 C 43.699219 30.324219 43.992188 31.8125 44.292969 33.273438 C 44.890625 36.183594 45.515625 39.03125 45.472656 41.683594 C 45.453125 42.339844 45.398438 42.988281 45.304688 43.613281 C 45.199219 44.234375 45.042969 44.832031 44.851562 45.414062 C 44.453125 46.570312 43.851562 47.628906 43.101562 48.609375 L 43.089844 48.625 C 43.023438 48.714844 42.957031 48.800781 42.902344 48.902344 C 42.210938 50.125 42.640625 51.675781 43.859375 52.363281 C 45.078125 53.058594 46.628906 52.628906 47.320312 51.40625 C 47.746094 50.65625 48.152344 49.878906 48.464844 49.0625 C 48.777344 48.246094 49.042969 47.40625 49.214844 46.554688 C 49.382812 45.695312 49.484375 44.835938 49.515625 43.984375 C 49.539062 43.132812 49.5 42.296875 49.410156 41.476562 C 49.230469 39.847656 48.863281 38.296875 48.433594 36.824219 C 48 35.339844 47.5 33.929688 47.027344 32.535156 C 46.554688 31.136719 46.097656 29.757812 45.738281 28.375 C 45.597656 27.84375 45.472656 27.300781 45.359375 26.757812 C 52.070312 26.1875 57.339844 20.570312 57.339844 13.707031 C 57.339844 6.472656 51.472656 0.605469 44.238281 0.605469 C 37.003906 0.605469 31.132812 6.472656 31.132812 13.707031 C 31.132812 20.632812 36.503906 26.292969 43.300781 26.769531 " fill-opacity="1" fill-rule="nonzero"/></g></svg>