<svg xmlns="http://www.w3.org/2000/svg" xmlns:xlink="http://www.w3.org/1999/xlink" width="100" zoomAndPan="magnify" viewBox="0 0 75 74.999997" height="100" preserveAspectRatio="xMidYMid meet" version="1.0"><defs><clipPath id="caefb8d3c1"><path d="M 0 8.25 L 75 8.25 L 75 66.75 L 0 66.75 Z M 0 8.25 " clip-rule="nonzero"/></clipPath></defs><path fill="#f8c40f" d="M 19.167969 33.785156 C 18.078125 34.808594 18 36.796875 19.003906 37.910156 C 19.601562 38.554688 20.316406 38.59375 20.976562 38.011719 C 22.058594 37.070312 22.25 35.109375 21.386719 33.96875 C 20.734375 33.128906 19.9375 33.054688 19.167969 33.785156 " fill-opacity="1" fill-rule="nonzero"/><path fill="#f8c40f" d="M 32.515625 42.191406 C 31.417969 43.183594 31.273438 45.21875 32.230469 46.328125 C 32.824219 47.019531 33.613281 47.070312 34.296875 46.472656 C 35.335938 45.542969 35.53125 43.792969 34.714844 42.515625 C 34.164062 41.644531 33.285156 41.515625 32.515625 42.191406 " fill-opacity="1" fill-rule="nonzero"/><g clip-path="url(#caefb8d3c1)"><path fill="#f8c40f" d="M 69.511719 29.449219 C 69 30.675781 63.46875 31.765625 55.070312 28.269531 C 52.617188 27.238281 50.3125 25.964844 48.449219 24.582031 C 48.386719 24.660156 48.3125 24.734375 48.253906 24.8125 C 46.417969 26.644531 43.449219 26.644531 41.617188 24.8125 C 39.796875 22.992188 39.796875 20.023438 41.628906 18.1875 C 43.464844 16.355469 46.433594 16.355469 48.265625 18.1875 C 49.359375 19.28125 49.796875 20.78125 49.585938 22.191406 C 51.390625 23.460938 53.542969 24.644531 55.84375 25.601562 C 56.664062 25.933594 57.453125 26.234375 58.207031 26.496094 L 58.117188 19.886719 C 58.253906 19.949219 58.375 19.992188 58.511719 20.050781 C 62.105469 21.554688 65.332031 23.585938 67.40625 25.660156 L 67.496094 25.75 C 69.46875 27.765625 69.679688 29.054688 69.511719 29.449219 Z M 35.335938 48.441406 C 33.824219 49.515625 31.882812 49.25 30.605469 47.78125 C 28.605469 45.503906 29.148438 41.617188 31.667969 40.070312 C 33.101562 39.191406 34.910156 39.441406 36.046875 40.675781 C 38.136719 42.90625 37.789062 46.707031 35.335938 48.441406 Z M 23.179688 48.027344 C 22.722656 48.753906 22.550781 48.792969 21.820312 48.347656 C 20.660156 47.625 20.652344 47.617188 21.363281 46.484375 C 24.378906 41.675781 27.386719 36.867188 30.410156 32.0625 C 30.792969 31.449219 31.007812 31.40625 31.609375 31.777344 C 31.90625 31.945312 32.191406 32.125 32.460938 32.292969 C 32.753906 32.65625 32.621094 32.972656 32.421875 33.285156 C 31.339844 35.011719 30.25 36.746094 29.167969 38.472656 C 27.167969 41.65625 25.175781 44.84375 23.179688 48.027344 Z M 16.992188 38.945312 C 15.667969 36.847656 15.828125 34.300781 17.410156 32.410156 C 18.890625 30.628906 21.519531 30.644531 22.988281 32.441406 C 24.839844 34.726562 24.390625 38.3125 22.046875 39.96875 C 20.394531 41.132812 18.082031 40.667969 16.992188 38.945312 Z M 70.9375 22.417969 C 70.894531 22.371094 70.84375 22.328125 70.800781 22.28125 C 68.257812 19.734375 64.558594 17.386719 60.359375 15.640625 C 59.589844 15.324219 58.816406 15.039062 58.054688 14.765625 L 58.054688 14.71875 C 58.011719 11.355469 55.300781 8.644531 51.933594 8.597656 L 35.496094 8.371094 C 33.3125 8.339844 31.21875 9.1875 29.691406 10.734375 L 2.230469 38.179688 C 0.0195312 40.390625 0.0195312 43.984375 2.230469 46.195312 L 20.476562 64.421875 C 22.6875 66.632812 26.277344 66.632812 28.492188 64.421875 L 55.933594 36.980469 C 56.722656 36.191406 57.328125 35.253906 57.722656 34.25 C 60.480469 35.023438 63.164062 35.433594 65.527344 35.417969 C 71.375 35.386719 73.316406 32.828125 73.953125 31.296875 C 74.589844 29.78125 75.042969 26.597656 70.9375 22.417969 " fill-opacity="1" fill-rule="nonzero"/></g></svg>