<?xml version="1.0" encoding="UTF-8"?>
<!DOCTYPE svg PUBLIC "-//W3C//DTD SVG 1.1//EN" "http://www.w3.org/Graphics/SVG/1.1/DTD/svg11.dtd">
<!-- Creator: CorelDRAW 2020 (64 Bit) -->
<svg xmlns="http://www.w3.org/2000/svg" xml:space="preserve" width="119.787mm" height="110.387mm" version="1.1" style="shape-rendering:geometricPrecision; text-rendering:geometricPrecision; image-rendering:optimizeQuality; fill-rule:evenodd; clip-rule:evenodd"
viewBox="0 0 6579.07 6062.8"
 xmlns:xlink="http://www.w3.org/1999/xlink"
 xmlns:xodm="http://www.corel.com/coreldraw/odm/2003">
 <defs>
  <style type="text/css">
   <![CDATA[
    .str0 {stroke:#F6F2C0;stroke-width:4.19;stroke-miterlimit:22.9256}
    .fil0 {fill:#002632}
    .fil5 {fill:#00655A}
    .fil2 {fill:green}
    .fil4 {fill:#98A67B}
    .fil1 {fill:#F6F2C0}
    .fil3 {fill:#F6F2DA}
   ]]>
  </style>
 </defs>
 <g id="Camada_x0020_1">
  <metadata id="CorelCorpID_0Corel-Layer"/>
  <circle class="fil0" cx="2886.5" cy="1566.3" r="567.27"/>
  <circle class="fil1" cx="2886.5" cy="1566.3" r="497.49"/>
  <circle class="fil2" cx="2881.31" cy="1561.1" r="399.09"/>
  <path class="fil3" d="M2924.72 1797.69c86.75,-14.64 147.64,-56.65 132.25,-159.42 -13.2,-88.12 -84.63,-98.05 -173.14,-111.8 -127.96,-19.87 -116.06,-125.63 -33.53,-138.79 156.31,-24.92 111.47,97.7 192.73,36.47 -1.72,-65.62 -49.95,-91.79 -117.94,-95.48 -2.04,-52.68 2.16,-70.42 -52.02,-73.06 -28.26,38.25 -6.91,26.72 -22.54,65.48 -80.1,18.75 -150.32,64.21 -129.45,165.04 17.94,86.69 93.45,100.7 183.85,110.96 134.83,15.31 93.56,127.64 9.61,137.81 -157.09,19.03 -90.99,-89.29 -200.9,-42.81 9.06,83.48 57.75,90.06 144.98,105.94 -6.21,106.27 61.79,104.43 66.1,-0.32z"/>
  <path class="fil0" d="M2394.44 5535.91c104.37,8.68 177.73,43.59 305.13,43.59 260.98,0 272.67,14.75 523.08,-43.59 10.75,46.13 158.84,275.73 195.02,328.06 28.6,41.38 53.56,52.25 81.06,93.31l-1351.29 0c59.98,-89.57 35.01,-9.86 135.6,-198.59 38.77,-72.75 92.01,-139.51 111.41,-222.77zm2236.01 204.3l12.44 -19.47c-3.02,-21.72 -6.45,-15.6 16.63,-11.14 41.13,-21.27 968.69,-17.48 1014.7,2.25 22.88,28.44 7.58,-6.7 18.87,42.86 2.22,9.76 5.06,45.25 5.45,56.14 1.47,42.05 -1.61,79.21 -4.68,120.88l-262.93 -1.97c-161.1,-9.87 -673.07,29.08 -774.64,-24.59 -44.05,-44.43 -38.55,-87.59 -25.82,-164.95zm-1301.41 -142.49l285.66 -38.3c30.41,49.29 58.84,141.34 80.08,200.22 48.62,134.81 28.16,145.59 -109.54,141.39 -82.27,-2.5 -102.53,-17.01 -157.08,-120.41 -34.09,-64.62 -65.67,-123.03 -99.11,-182.9zm2087.71 -217.34c81.86,3.52 219.4,-24.18 279.59,22.56l4.09 197.43c-75.55,24.08 -196.86,8.24 -278.2,6.99 -164.21,5.83 -665.18,13.68 -782.67,-21.32 -32.67,-81.46 -32.31,-122.42 4.47,-195.8 129.47,-34.52 596.5,-6.38 772.72,-9.85zm-5324.3 -120.54c-39.56,-949.31 1316.89,-935.84 1359.81,-87.7 19.5,385.26 -278.2,715.47 -641.16,727.3 -392.75,12.79 -703.12,-266.98 -718.64,-639.6zm5352.71 -190.59l250.86 3.32 -3.28 213.67c-146.99,-7.97 -944.15,19.07 -997.22,-17.94 -66.53,-19.2 -113.74,-110.43 -53.61,-172.15 34.72,-35.64 188.35,-22.42 251.68,-23.07 183.72,-1.88 367.9,-2.67 551.56,-3.84zm-3835.33 284.99l21.38 126.64c59.31,-184.31 18.69,-179.47 44.9,-298.49 51.36,42.96 128.04,95.79 171.84,144.8 46.05,51.52 16.01,50.53 142.94,194.19 -21.8,119.35 -45.64,146.17 -88.46,248.71 -46.55,111.48 -30.67,168.64 -161.83,183.62l-726.5 3.7c15.7,-11.04 1.2,-2.77 27.89,-15.83 6.63,-3.25 23.19,-10.47 30.15,-13.45 157.23,-67.26 258.69,-153.84 351.84,-302.01 137.74,-219.09 117.44,-387.79 98.67,-613.29 114.69,76.8 87.18,172.07 87.18,341.4zm-784.62 -1518.33c0,-78.33 -1.65,-145.3 145.3,-145.3 86.87,0 87.18,124.02 87.18,188.89 0,98.41 -232.48,129.01 -232.48,-43.59zm4697.6 -682.9c55.84,86.11 223.35,589.18 267.32,701.77 48.59,124.41 94.08,226.82 143.42,350.6 26.35,66.13 47.39,110.92 72.87,174.14 19.28,47.86 55.19,143.74 64.11,186.04l89.45 159.84 -200.89 252.8c-0.82,-2.19 -2.75,8.05 -4.81,13.52l-174.34 -3.53c-299.97,-35.38 -234.31,184.88 -232.97,-774.99 0.13,-93.9 24.36,-135.61 13.06,-229.72 -13.06,-108.7 1.47,-301.49 2.01,-438.21 0.52,-131.93 -1.26,-128.89 -29.1,-226.99 -14.92,-15.5 -4.66,4.92 -27.12,-37.39 -0.93,-1.75 -10.91,-27.06 -12.5,-31.17 -53.7,-138.44 -221.82,-444.08 -198.1,-496.86 62.96,-11.52 53.87,6.11 80.39,63.45 50.32,108.8 117.27,221.63 147.22,336.7zm-1497.16 -576.5c-19.07,38.81 -94.95,98.69 -137.45,151.77l-115.36 161.6c-73.74,124.73 -89.7,320.06 -45.22,456.73l86.25 -8.69c27.41,-116.89 -0.87,-331.07 77.99,-415.09 115.96,156.41 169.09,196.9 271.19,365.29 95.82,158.04 111.65,265.23 174.02,457.44l87.08 -0.21 211.33 0.88 2.72 52.23 -5.27 618.52 -323.26 -0.85 -11.39 41.37c-115.77,231.18 8.04,184.34 -321.15,583.2 -89.35,108.26 -218.88,200.87 -339.13,272.25 -172.73,102.54 -549.54,170.78 -749.5,180.9 -365.59,18.5 -707.88,-88.02 -962.48,-259.9 -59.47,-40.14 -132.55,-92.48 -171.88,-132.88l-211.2 -239.39c-72.31,-86.47 -131.75,-226.35 -161.94,-325.57 -44.21,-48.07 -76.48,-180.2 -75.13,-253.7l-10.86 -62.84c-2.24,-309.26 -25.51,-431.43 87.36,-712.51 247.06,-615.3 753.1,-922.1 1492.01,-939.64l142.15 11.52 267.92 49.48c-24.48,43.49 -50.81,46.34 -90.44,88.92 -33.17,35.63 -46.05,50.39 -68.31,98.14 -61.53,53.09 -138.93,236.99 -126.61,349.12l76.38 1.46c39,-257.75 153.71,-398.98 333.36,-495.15 89.82,-48.09 568.54,-239.79 644.72,-127.17 -15.99,65.69 2.52,21.02 -27.9,32.79zm2248.3 1253.2l-43.56 -143.67c-26.67,0 -16.16,4.93 -15.46,-29.28l-13.56 -53.32c-70.83,-300.86 -273.66,-703.03 -275.9,-988.28 -0.64,-81.31 -14.77,-90.1 -14.77,-169.04l-730.84 -3.17 -111.9 0.21c0,416.91 -3.15,824.62 28.3,1204.63l15.1 609.69c-0.76,132.29 29,309.17 10.25,446.76 -11.64,85.44 -2.2,54.11 4.47,134.24 -332.54,222.68 -161.12,115.78 -434.81,146.39 -74.84,8.37 -140.32,60.78 -156.58,135.39 -24.02,110.27 47.11,158.89 82.84,212.25 -67.67,35.8 -86.3,40.13 -88.73,144.98 -2.15,93.07 2.39,140.98 74.2,160.15 -19.71,73.83 -59.53,41.23 -72.17,147 -13.22,110.56 19.75,116.07 57.64,172.66l-668.38 0c110.37,-164.82 87.19,-55.55 87.18,-377.78 0,-76.28 -2.74,-157.33 -0.47,-232.95 11.07,-370.29 44.37,-208.97 221.6,-490.37 38.79,-61.58 135.41,-256.64 142.12,-337.36l319.66 0c63.16,-94.33 43.68,-113.6 43.59,-261.54 -0.07,-106.55 -0.01,-213.11 0,-319.66 0.01,-87.61 21.5,-229.92 -33.71,-271.43 -49.15,-36.95 -234.59,-29.29 -285.95,-4.65 -39.4,-82.12 -80.24,-260.13 -182.89,-427.36 -20.67,-33.68 -31.07,-48.32 -50.22,-80.56 -30.24,-50.9 -67.43,-95.67 -101.08,-145.93 68.96,-102.98 115.92,-220.43 205.48,-346.66 113.38,-159.81 40.45,-187.82 -140.96,-226.41 -83.4,-17.75 -204.25,-16.81 -293.55,-4.67 -81.74,11.11 -273.2,61.89 -352.07,98.37 -129.01,59.66 -73.73,52.73 -229.45,11.3 -119.27,-31.72 -269,-55.34 -409.95,-55.02 -231.21,0.52 -365.76,17.16 -539.53,70.76 -297.82,91.86 -573.4,254.09 -745.47,475.05 -86.92,111.62 -176.92,236.72 -234.54,375.71 -68.41,165.02 -115.39,386.2 -180.48,429.78 0,-316.78 -388.75,-291.83 -433.23,-84.11 -32.31,150.89 51.29,239.08 143.67,272 167.62,59.74 256,-44.24 318.62,-86.17 0,197.79 11.19,323.54 52.08,485.53 11.62,46.03 64.19,187.16 55.86,206.81 -19.46,45.9 -21.99,7.93 -22.94,7.67 -87.77,-23.67 -99.68,-181.59 -579.64,-177.56 -580.14,4.87 -1039.34,895.33 -342.11,1404.04 88.93,64.89 81.71,44.76 154.6,77.88 28.94,13.15 12.24,4.14 28.3,15.29l-334.19 14.53 0 58.12c149.26,34.77 1343.53,14.53 1598.29,14.53l4024.8 0c133.65,0 274.64,-4.44 407.31,-0.47 106.67,3.19 286.95,55.07 348.25,-28.59 -24.65,-92.31 -146.27,-58.12 -363.25,-58.12 34.28,-51.18 67.18,-61.13 59.21,-159.28 -5.82,-71.71 -43.36,-101.25 -88.27,-131.32 27.65,-41.3 200.26,-200.09 0,-334.19 44.13,-65.9 118.76,-86.56 81.66,-226.54 -22.19,-83.77 -96.51,-122.18 -197.9,-122.18l108.04 -66.32c46.76,-28.17 70.69,-44.97 119.41,-69.48 93.1,-46.84 158.03,-87.04 237.51,-140.27l-132.67 -434c-22.42,-66.22 -40.46,-137.45 -65.28,-210.78 -26.9,-79.48 -47.38,-149.45 -63.59,-233.22zm-741.02 -511.43c-1.52,-78.28 -20.98,-73.27 -10.11,-165.28 -29.95,-115.06 -96.9,-227.89 -147.22,-336.7 -26.52,-57.33 -17.43,-74.96 -80.39,-63.45 -23.72,52.78 144.4,358.42 198.1,496.86 1.59,4.11 11.57,29.42 12.5,31.17 22.46,42.3 12.2,21.88 27.12,37.39zm247.01 1669.91l174.34 3.53c2.06,-5.46 3.99,-15.71 4.81,-13.52l200.89 -252.8 -89.45 -159.84c-51.46,27.24 -52.58,32.19 -89.59,81.61 -27.36,36.55 -48.76,62.23 -73.25,101.13 -32.06,50.93 -116.71,185.53 -127.77,239.89z"/>
  <path class="fil2" d="M5053.42 967.79l-15.88 5.72c-118.93,117.27 -121.62,197.62 -123.62,414.36l-11.63 15.82 -14.52 13.84 -14.87 14.92 -15.18 13.01 -14.41 11.81 14.41 -11.81 15.18 -13.01 14.87 -14.92 14.52 -13.84 11.63 -15.82c95.35,-91.18 454.48,-437.79 555.81,-203.58 -248.65,-11.14 -199.75,28.63 -336.68,130.22 -96.04,71.26 -159.76,132.91 -242.19,208.58 -197.67,181.47 -412.36,156.94 -723.76,192.14l-14.21 -0.69 23.66 334.19 438.56 -46.02c188.53,-20.09 240.7,-49.51 380.21,-94.17 31.99,-41.9 111.44,-87.48 166.37,-128.75 196.53,-147.68 366.54,-234.18 442.09,-429.05 63.83,30.97 98.37,106.86 96.64,207.95 -1.27,74.45 -60.81,136.36 -94.45,185.65 -132.55,194.22 -258.29,229.79 -268.44,306.2 -29.81,33.46 -3.13,2.75 -35.39,28.65l-27.13 22.17c-1.51,-2.7 -6.35,4.79 -8.93,7.78l-1.19 3.73 -13.59 17.48 -16.62 11.84 -17.86 11.54 -12.98 14.69 12.98 -14.69 17.86 -11.54 16.62 -11.84c9.66,26.32 1.24,40.02 -13.87,71.82 -47.93,100.87 -5.65,80.35 -66.43,125.16 -2.07,1.52 -8.62,8.95 -10.19,6.06 -1.6,-2.97 -7.44,3.43 -10.63,5.93 7.64,78.64 18.11,30.64 29.68,103.61l730.84 3.17c0,-168.29 -16.43,-327.57 -44.8,-468.82 -64.06,-318.95 -72.21,-1007.78 -507.34,-1047.66 -128.92,47.7 -134.33,127.75 -305.13,38.17zm212.65 1141.35l-1.19 3.73 1.19 -3.73zm-31.4 33.05l-17.86 11.54 -12.98 14.69c-34.52,29.19 -90.54,78.78 -150.41,91.46 1.65,58.44 14.53,100.03 14.53,183.26l111.9 -0.21c-11.57,-72.98 -22.04,-24.97 -29.68,-103.61 3.2,-2.5 9.03,-8.89 10.63,-5.93 1.57,2.89 8.12,-4.54 10.19,-6.06 60.78,-44.81 18.5,-24.29 66.43,-125.16 15.11,-31.81 23.52,-45.5 13.87,-71.82l-16.62 11.84z"/>
  <path class="fil2" d="M875.66 5281.39c-117.53,-34.82 -379.92,-42.84 -335.17,-263.44 23.8,-117.3 107.22,-105.9 157.47,-146.77 53.12,-43.19 -5.73,-88.23 67.39,-84.74 44.87,2.14 38.18,49 48.85,90.01 91.22,12.68 123.99,60.2 158.28,107.31 -28.04,32.59 -15.2,28.36 -60.09,48.26 -50.77,-39.05 -67.06,-84.2 -173.68,-76.62 -92.21,6.55 -106.71,69.73 -93.46,153.16 104.68,79.14 247.73,20.99 323.88,152.49 77.88,134.49 -21.58,259 -143.91,279.95l-12.11 25.76c-1.78,3.78 -3.56,8.14 -5.49,12.08 -11.8,24.17 4.43,4.65 -14.87,29.41 -13.87,17.8 -16.8,16.81 -46.38,19.12 -17.05,-20.98 -23.22,-53.19 -30,-83.25 -102.67,-33.51 -192,-38.3 -184.28,-170.2 150.54,-39.8 33.89,79.5 235.12,83.32 135.83,2.58 137.15,-74.85 108.45,-175.88zm-179.73 -638.05c-172.6,20.95 -307.78,107.41 -371.63,202.69 -77.69,115.94 -147.81,262.63 -122.84,456.07 53.95,417.81 556.67,627.75 850.93,417.6 87.36,-62.39 92.45,-51.21 157.66,-133.69 344.17,-435.37 -13.64,-1003.41 -514.11,-942.67z"/>
  <path class="fil2" d="M3093.97 4869.1c25.63,-53.7 30.75,-99.33 -53.8,-96.75 -5.37,25.5 -13.47,48.91 0.45,73.6 17.81,31.57 15.38,18.81 53.35,23.15zm-1712.98 -333.01c30.19,99.22 89.63,239.1 161.94,325.57l211.2 239.39c39.33,40.4 112.41,92.73 171.88,132.88 254.6,171.88 596.89,278.4 962.48,259.9 199.96,-10.12 576.78,-78.36 749.5,-180.9 120.25,-71.39 249.79,-164 339.13,-272.25 329.19,-398.86 205.37,-352.02 321.15,-583.2l11.39 -41.37 323.26 0.85 5.27 -618.52 -271.39 -21.56 57.34 -31.55 -87.08 0.21c-62.37,-192.21 -78.21,-299.4 -174.02,-457.44 -102.1,-168.39 -155.23,-208.88 -271.19,-365.29 -78.86,84.03 -50.58,298.21 -77.99,415.09l-86.25 8.69c-44.48,-136.67 -28.52,-332 45.22,-456.73l115.36 -161.6c42.49,-53.08 118.38,-112.97 137.45,-151.77 30.42,-11.77 11.91,32.9 27.9,-32.79 -11.86,10.81 -18.59,18.59 -27.9,32.79 -151.26,-12.83 -450.27,120.77 -550.03,189.9 -261.3,181.07 -229.36,251.83 -317.59,410.74l-82.55 -11.1 -76.38 -1.46c-12.32,-112.13 65.08,-296.03 126.61,-349.12 -17.31,-29.07 -9.4,6.16 -8.22,-30.63 0.85,-26.63 14.13,-19.95 21.21,-71.3l-201.2 -24.91 -119.69 1.77c-170.61,2.14 -487.89,91.62 -629.28,154.71 -295.49,131.84 -469.06,297.56 -611.61,551.04 -247.2,439.56 -167.49,832.52 -271.04,886.26 4.28,-26.62 5.81,-0.98 0.81,-39.49 -0.38,-2.99 -4.57,-5.35 -5,-11.88 -0.44,-6.73 -4.51,-7.61 -6.67,-11.47l10.86 62.84c-1.35,73.5 30.92,205.63 75.13,253.7zm1659.18 236.26c84.55,-2.58 79.42,43.05 53.8,96.75 -37.97,-4.34 -35.54,8.42 -53.35,-23.15 -13.92,-24.69 -5.82,-48.11 -0.45,-73.6zm858.21 -1199.91c41.41,-17.83 103.94,6.98 116.88,52.22 17.98,62.85 -15.92,113.53 -61.44,129.43 -133.64,46.7 -192.55,-122.63 -55.45,-181.65zm-2036.48 -197.69c-128.5,37.59 -140.26,-43.83 -85.91,-133.79l104.77 23.21 -18.87 110.58zm0 0l18.87 -110.58 -104.77 -23.21c-54.36,89.95 -42.6,171.38 85.91,133.79z"/>
  <path class="fil1" d="M695.93 4643.34c500.47,-60.75 858.29,507.3 514.11,942.67 -65.2,82.48 -70.3,71.3 -157.66,133.69 -294.26,210.15 -796.98,0.21 -850.93,-417.6 -24.97,-193.43 45.15,-340.13 122.84,-456.07 63.85,-95.28 199.04,-181.74 371.63,-202.69zm-603.49 616.5c15.53,372.62 325.89,652.39 718.64,639.6 362.97,-11.82 660.66,-342.03 641.16,-727.3 -42.92,-848.14 -1399.37,-861.61 -1359.81,87.7z"/>
  <path class="fil2" d="M3516.78 1118.81c48.87,27.25 138.24,41.68 200,58.01 72.96,19.29 137.63,41.1 212.53,63.54 145.26,43.52 295.21,66.26 432.61,110.93 -60.13,-104.88 122.16,-255.96 200.46,-318.34 43.91,-34.99 49.61,-51.09 93.33,-88.5 -154.09,-43.68 -371.87,-60.43 -544.59,-89.32 -85.5,-14.3 -193.89,-26.41 -280.76,-38.89 -99.36,-14.28 -191.81,-31.62 -298.24,-31.62l-15.33 334.19z"/>
  <path class="fil1" d="M1295.01 4219.55c2.16,3.86 6.23,4.75 6.67,11.47 0.43,6.53 4.61,8.89 5,11.88 5,38.51 3.47,12.87 -0.81,39.49 103.54,-53.74 23.83,-446.7 271.04,-886.26 142.55,-253.48 316.12,-419.2 611.61,-551.04 141.39,-63.08 458.66,-152.57 629.28,-154.71 25.99,-42.93 36.72,-75.48 56.59,-122.98 -738.92,17.54 -1244.95,324.34 -1492.01,939.64 -112.87,281.08 -89.6,403.25 -87.36,712.51z"/>
  <path class="fil0" d="M2789.43 1156.49c2.11,2.79 18.09,19.49 24.61,33.48 67.15,9.99 126.1,10.81 182.04,-8.4 28.41,-92.34 55.55,-45.62 110.1,-130.41l-82.58 -23.93c36.07,-109.14 51.7,-63.18 92.05,-125.05 -77.83,-22.01 -111.09,22.6 -142.61,83.19 -19.17,36.84 -22.93,55.99 -37.47,91.91 -25.59,63.18 -14.07,58.63 -76.16,64.01 -50.77,-51.8 -28.6,-75.05 -41.48,-138.71 -58.54,25.93 -115.26,25.87 -177.09,57.49 -71.79,36.72 -145.94,100.42 -199.99,163.25 -180.42,209.76 -162.68,704.11 278.16,849.58 281.76,92.97 548.49,-47.34 653.86,-237.21 220.97,-398.15 -84.96,-663.45 -106.62,-730.66 -56.59,23.78 -165.64,142.22 -268.67,84.22 -13.41,14.8 -39.08,-10.23 -12.63,48.6 9.69,21.57 22.22,23.85 47.98,30.35 41.24,10.4 97.86,2.78 134.9,-1.55l77.25 -25.33c58.06,82.98 103.68,126.41 117.54,272.78 11.11,117.31 -35.26,223.98 -79.51,304.59 -74.42,135.59 -311,257.8 -546.01,178.47 -485.6,-163.91 -372.54,-815.43 24.07,-894.17l28.27 53.51z"/>
  <path class="fil0" d="M4361.92 1351.29c156.92,28.49 304.97,69.28 459.03,107.38l22.36 -1.4 14.41 -11.81 15.18 -13.01 14.87 -14.92 14.52 -13.84 11.63 -15.82c2,-216.73 4.7,-297.09 123.62,-414.36 -140.5,0 -235.19,-29.06 -381.83,-29.06 -43.72,37.41 -49.42,53.51 -93.33,88.5 -78.3,62.38 -260.59,213.46 -200.46,318.34z"/>
  <path class="fil0" d="M4995.3 1908.54c23.94,39.79 58.12,216.41 58.12,284.58l23.9 45.37c6.38,-69.49 -0.94,-64.81 22.99,-114.32 56.72,-117.32 83.55,-111.32 176.09,-100.62 74.04,8.56 33.75,-16.08 61.1,26.99 10.14,-76.41 135.89,-111.98 268.44,-306.2 33.64,-49.29 93.18,-111.2 94.45,-185.65 1.74,-101.09 -32.81,-176.98 -96.64,-207.95 -75.55,194.87 -245.56,281.37 -442.09,429.05 -54.93,41.27 -134.38,86.86 -166.37,128.75zm58.12 284.58l0 66.77c59.87,-12.69 115.88,-62.28 150.41,-91.46l12.98 -14.69 17.86 -11.54 16.62 -11.84 13.59 -17.48 1.19 -3.73c2.58,-2.99 7.41,-10.48 8.93,-7.78l27.13 -22.17c32.26,-25.91 5.57,4.81 35.39,-28.65 -27.35,-43.07 12.94,-18.43 -61.1,-26.99 -92.55,-10.7 -119.37,-16.7 -176.09,100.62 -23.94,49.5 -16.61,44.83 -22.99,114.32l-23.9 -45.37z"/>
  <path class="fil0" d="M4704.7 521.9c142.59,21.82 123.86,10.04 247.01,-28.36 45.32,79.89 16.92,120.11 116.24,142.64 43.24,-50 0.11,-22.57 25.81,-75.7 12.01,-24.81 26.74,-42.41 64.77,-26.39 73.21,30.84 21.83,101.4 31.48,158.87l66.83 11.5c58.52,-61.88 74.51,-168.98 59.67,-254.41 -16.11,-92.73 -79.07,-157.42 -155.73,-194.16 -117.08,-56.1 -142.17,-34.45 -261.16,-2.77 -186.47,49.66 -135.58,-17.37 -282.1,-20.64 -16.69,71.61 -40.02,87.23 -8.85,167.97 19.95,51.67 56.9,97.31 96.03,121.45z"/>
  <path class="fil1" d="M2817.91 1002.57c12.88,63.66 -9.29,86.91 41.48,138.71 62.09,-5.38 50.57,-0.83 76.16,-64.01 14.54,-35.91 18.31,-55.07 37.47,-91.91 31.53,-60.59 64.79,-105.19 142.61,-83.19 42.99,17.5 37.17,12.45 61.99,56.8 -16.01,53.22 -25.8,71.03 -71.46,92.18 -54.55,84.79 -81.69,38.07 -110.1,130.41l1.49 7.67c103.03,58 212.09,-60.44 268.67,-84.22 45.15,-31.73 39.84,-60.29 123.44,-39.07 28.63,7.27 102.74,41.59 127.1,52.85l15.33 -334.19c-36.48,-14.94 -404.34,-50.83 -466.14,-40.53 -147.68,24.62 -195.07,138.88 -248.06,258.48z"/>
  <path class="fil1" d="M5422.23 5607.36c10.93,-39.45 28.62,-66.86 30.49,-115.25 0.36,-9.39 -2.51,-47.68 -4.89,-56.45l-31.08 -55.28c-176.22,3.48 -643.25,-24.67 -772.72,9.85 -36.78,73.38 -37.14,114.34 -4.47,195.8 117.49,35 618.46,27.15 782.67,21.32z"/>
  <path class="fil2" d="M1609.82 5354.24c0,131.46 15.76,228.32 14.51,341.52 -1.62,147.36 30.92,198.99 116.26,257.95 131.15,-14.98 115.27,-72.14 161.83,-183.62 42.82,-102.54 66.66,-129.36 88.46,-248.71 -126.93,-143.66 -96.89,-142.67 -142.94,-194.19 -43.81,-49.01 -120.49,-101.84 -171.84,-144.8 -26.21,119.02 14.41,114.17 -44.9,298.49l-21.38 -126.64z"/>
  <path class="fil1" d="M4704.7 521.9c18.2,39.7 26.37,119.38 41.13,163.48 20.9,62.51 41.98,75.61 85.45,117.97 44.05,42.93 67.33,58.92 135.61,63.57 4.05,0.27 72.64,-38.57 86.54,100.88 170.81,89.58 176.21,9.53 305.13,-38.17 -22.27,-41.58 -28.71,-64.72 -45.15,-114.41 -17.56,-53.1 -25.19,-68.48 -56.56,-110.76l-66.83 -11.5c-9.64,-57.47 41.74,-128.03 -31.48,-158.87 -38.02,-16.02 -52.76,1.58 -64.77,26.39 -25.7,53.13 17.43,25.7 -25.81,75.7 -99.32,-22.53 -70.92,-62.74 -116.24,-142.64 -123.15,38.4 -104.43,50.17 -247.01,28.36z"/>
  <path class="fil1" d="M4642.89 5720.74c2.52,23.95 9.05,19.47 -12.44,19.47 -12.72,77.36 -18.23,120.52 25.82,164.95 101.56,53.68 613.54,14.72 774.64,24.59 26.31,-66.18 32.9,-137.02 14.15,-213.88l-785.55 -6.28 -16.63 11.14z"/>
  <path class="fil1" d="M4695.52 5268.3l745.39 0.16c38.12,-91.61 26.7,-111.6 4.25,-199.22 -183.66,1.18 -367.84,1.96 -551.56,3.84 -63.33,0.65 -216.96,-12.57 -251.68,23.07 -60.14,61.71 -12.93,152.95 53.61,172.15z"/>
  <path class="fil3" d="M875.66 5281.39c28.7,101.03 27.38,178.46 -108.45,175.88 -201.23,-3.82 -84.58,-123.12 -235.12,-83.32 -7.72,131.9 81.61,136.69 184.28,170.2 6.78,30.06 12.95,62.27 30,83.25 29.58,-2.32 32.51,-1.32 46.38,-19.12 19.29,-24.76 3.07,-5.24 14.87,-29.41 1.93,-3.94 3.71,-8.3 5.49,-12.08l12.11 -25.76c122.33,-20.95 221.79,-145.46 143.91,-279.95 -76.15,-131.51 -219.2,-73.35 -323.88,-152.49 -13.25,-83.43 1.25,-146.61 93.46,-153.16 106.62,-7.57 122.92,37.57 173.68,76.62 44.89,-19.9 32.05,-15.67 60.09,-48.26 -34.29,-47.12 -67.06,-94.64 -158.28,-107.31 -10.67,-41.02 -3.98,-87.87 -48.85,-90.01 -73.12,-3.49 -14.27,41.55 -67.39,84.74 -50.25,40.87 -133.67,29.47 -157.47,146.77 -44.75,220.6 217.64,228.62 335.17,263.44z"/>
  <path class="fil1" d="M3075.47 3166.04l82.55 11.1c88.23,-158.91 56.3,-229.67 317.59,-410.74 99.76,-69.13 398.77,-202.73 550.03,-189.9 9.31,-14.2 16.04,-21.98 27.9,-32.79 -76.17,-112.63 -554.89,79.08 -644.72,127.17 -179.64,96.18 -294.36,237.4 -333.36,495.15z"/>
  <path class="fil1" d="M4176.54 2048.72l-23.66 -334.19c-75.01,1.66 -149.73,39.82 -216.44,59.95 -88.01,26.56 -138.18,13.62 -161.66,114.41 63.33,30.39 48.16,-9.66 87.18,43.59 -39.26,18.84 -70.07,29.06 -130.77,29.06 1.85,83.02 7.32,47.54 43.59,101.71 154.39,0 251.86,-14.53 401.75,-14.53z"/>
  <path class="fil2" d="M3329.03 5597.72c33.44,59.87 65.02,118.28 99.11,182.9 54.55,103.4 74.81,117.9 157.08,120.41 137.7,4.2 158.16,-6.58 109.54,-141.39 -21.24,-58.88 -49.67,-150.93 -80.08,-200.22l-285.66 38.3z"/>
  <path class="fil1" d="M4913.92 1387.87l-11.63 15.82 -14.52 13.84 -14.87 14.92 -15.18 13.01 -14.41 11.81 -22.36 1.4c-29.33,42.59 -4.16,18.43 -43.22,52.4 -71.26,61.97 -124.64,100.45 -219.5,129.65 -113.52,34.94 -353.12,49.25 -391.13,74.51 311.4,-35.19 526.09,-10.67 723.76,-192.14 82.43,-75.67 146.15,-137.32 242.19,-208.58 136.93,-101.59 88.03,-141.36 336.68,-130.22 -101.33,-234.2 -460.46,112.4 -555.81,203.58z"/>
  <path class="fil4" d="M4642.89 5720.74l-12.44 19.47c21.49,0 14.96,4.48 12.44,-19.47l16.63 -11.14 785.55 6.28c18.76,76.86 12.16,147.69 -14.15,213.88l262.93 1.97c3.07,-41.66 6.16,-78.83 4.68,-120.88 -0.38,-10.89 -3.23,-46.38 -5.45,-56.14 -11.28,-49.56 4.01,-14.42 -18.87,-42.86 -46.01,-19.73 -973.56,-23.52 -1014.7,-2.25 -23.07,-4.46 -19.65,-10.58 -16.63,11.14z"/>
  <path class="fil4 str0" d="M4695.52 5268.3c53.07,37.01 850.23,9.96 997.22,17.94l3.28 -213.67 -250.86 -3.32c22.46,87.61 33.87,107.61 -4.25,199.22l-745.39 -0.16z"/>
  <path class="fil4" d="M5422.23 5607.36c81.34,1.25 202.64,17.09 278.2,-6.99l-4.09 -197.43c-60.19,-46.73 -197.73,-19.04 -279.59,-22.56l31.08 55.28c2.38,8.77 5.25,47.06 4.89,56.45 -1.87,48.38 -19.56,75.79 -30.49,115.25z"/>
  <path class="fil1" d="M3062.82 58.12l0 377.78c0,61.98 101.71,61.98 101.71,0 0,-134.65 15.48,-292.54 -14.53,-421.37 -50.52,0 -87.18,-8.89 -87.18,43.59z"/>
  <path class="fil2" d="M2641.45 58.12l0 363.25c0,33.48 10.11,43.59 43.59,43.59l58.12 0 0 -450.43c-34.03,-7.21 -101.71,-18.97 -101.71,43.59z"/>
  <path class="fil2" d="M2902.99 479.49c56.04,0 45.28,-46.29 44.84,-100.45 -1.75,-219.12 49.23,-379.04 -44.84,-379.04 -78.58,0 -32.46,120.71 -44.43,260.89 -3.26,38.17 -44.76,218.6 44.43,218.6z"/>
  <path class="fil2" d="M2438.03 130.77c0,288.96 -29.65,334.19 58.12,334.19 33.48,0 43.59,-10.11 43.59,-43.59l0 -363.25 -87.18 0c-7.59,32.59 -14.53,33.41 -14.53,72.65z"/>
  <path class="fil0" d="M3898.39 3572.44c-137.1,59.02 -78.2,228.35 55.45,181.65 45.52,-15.91 79.42,-66.58 61.44,-129.43 -12.95,-45.25 -75.47,-70.05 -116.88,-52.22z"/>
  <path class="fil1" d="M2937.48 2688.62l201.2 24.91c-7.07,51.34 -20.35,44.67 -21.21,71.3 -1.18,36.79 -9.09,1.57 8.22,30.63 22.25,-47.75 35.14,-62.5 68.31,-98.14 39.63,-42.58 65.96,-45.43 90.44,-88.92l-267.92 -49.48 1.11 103.57 -80.16 6.12z"/>
  <path class="fil1" d="M2817.79 2690.39l119.69 -1.77 80.16 -6.12 -1.11 -103.57 -142.15 -11.52c-19.87,47.5 -30.6,80.06 -56.59,122.98z"/>
  <path class="fil0" d="M26.62 6000.31c0,70.02 144.34,34.84 188.89,32.11 0,-73.27 9.26,-64.22 -130.77,-64.22 -28.07,0 -58.12,19.09 -58.12,32.11z"/>
  <path class="fil2" d="M6214.92 3656.75c26.12,5.65 17.88,-1.92 15.46,29.28l43.56 143.67c91.46,-2.62 110.11,-39 130.77,-122.95 -225.2,4.68 -109.99,39.99 -188.89,-105.45l-14.46 2.13 13.56 53.32zm0.9 -55.45c78.9,145.44 -36.31,110.13 188.89,105.45 41.34,-91.67 14.53,-446.19 14.53,-581.41 -36.11,54.91 20.67,49.14 -105.29,83.4 -2.74,0.75 -7.05,2.24 -9.53,2.81l-32.01 1.15c-81.27,-35.24 -16.8,-124.59 -56.59,-202.92l0 591.51zm14.56 84.73c2.42,-31.2 10.67,-23.63 -15.46,-29.28 -0.71,34.21 -11.21,29.28 15.46,29.28zm-14.56 -676.24c39.79,78.33 -24.68,167.68 56.59,202.92l32.01 -1.15c2.48,-0.58 6.79,-2.07 9.53,-2.81 125.97,-34.26 69.18,-28.49 105.29,-83.4l0.62 -1396.9c0.64,-100.83 -4.97,-100.62 -44.2,-159.22l-101.71 0c-30.79,45.98 -48.71,44.43 -57.02,117.34l-1.1 1323.21z"/>
  <path class="fil4" d="M3106.17 1051.16c45.66,-21.15 55.45,-38.96 71.46,-92.18 -24.83,-44.35 -19,-39.3 -61.99,-56.8 -40.34,61.88 -55.98,15.92 -92.05,125.05l82.58 23.93z"/>
  <polygon class="fil1" points="4638.2,3798.44 4635.48,3746.22 4424.14,3745.33 4366.8,3776.88 "/>
  <path class="fil5" d="M1365.16 4559.17c45.42,58.5 57.82,135.8 97.13,205.18 44.35,78.28 85.76,120.78 124.95,180.79 120.25,184.1 498.23,441.44 724.06,497.36 504.2,124.83 1104.98,80 1479.38,-218.55 163.36,-130.27 320.22,-307.63 414.64,-502.16 38.64,-79.59 53.24,-155.05 81.01,-238.95 -29.5,41.98 -102.76,88.24 -145.74,132l-277.75 275.49c-217.09,183.79 -677.78,346.76 -1008.6,337.22 -538.92,-15.55 -996.89,-155.22 -1361.41,-537.69l-127.68 -130.67z"/>
  <g id="_2047273992944">
   <circle class="fil0" cx="1400.14" cy="784.73" r="733.9"/>
   <circle class="fil1" cx="1400.14" cy="784.73" r="643.63"/>
   <circle class="fil2" cx="1400.14" cy="784.73" r="523.04"/>
   <path class="fil3" d="M1449.59 1084.09c112.23,-18.94 191.01,-73.3 171.1,-206.25 -17.08,-114 -109.48,-126.86 -223.99,-144.63 -165.55,-25.7 -150.16,-162.53 -43.38,-179.56 202.23,-32.25 144.21,126.39 249.34,47.18 -2.22,-84.89 -64.62,-118.75 -152.58,-123.53 -2.64,-68.15 2.8,-91.11 -67.31,-94.53 -36.56,49.48 -8.94,34.57 -29.15,84.71 -103.63,24.25 -194.48,83.07 -167.48,213.51 23.22,112.15 120.9,130.27 237.85,143.55 174.44,19.81 121.05,165.13 12.44,178.29 -203.24,24.62 -117.72,-115.52 -259.91,-55.39 11.72,108 74.71,116.51 187.56,137.06 -8.03,137.48 79.94,135.11 85.52,-0.42z"/>
  </g>
 </g>
</svg>
