<svg xmlns="http://www.w3.org/2000/svg" xmlns:xlink="http://www.w3.org/1999/xlink" width="100" zoomAndPan="magnify" viewBox="0 0 75 74.999997" height="100" preserveAspectRatio="xMidYMid meet" version="1.0"><defs><clipPath id="e67407c459"><path d="M 31 15 L 75 15 L 75 65.25 L 31 65.25 Z M 31 15 " clip-rule="nonzero"/></clipPath><clipPath id="8593f015ad"><path d="M 0 7.5 L 43 7.5 L 43 57 L 0 57 Z M 0 7.5 " clip-rule="nonzero"/></clipPath></defs><g clip-path="url(#e67407c459)"><path fill="#ffde59" d="M 73.945312 53.875 C 73.699219 52.476562 72.808594 51.273438 71.539062 50.640625 C 67.363281 48.558594 58.203125 45.484375 58.203125 45.484375 L 58.203125 42.460938 L 58.457031 42.265625 C 60.214844 40.933594 61.429688 38.90625 61.777344 36.703125 L 61.828125 36.378906 L 62.078125 36.378906 C 63.492188 36.378906 64.707031 35.507812 65.207031 34.273438 C 65.503906 33.734375 65.667969 33.121094 65.667969 32.488281 C 65.667969 32.050781 65.585938 31.632812 65.429688 31.234375 C 65.347656 30.789062 65.097656 30.402344 64.75 30.144531 L 63.90625 29.632812 L 64.113281 28.710938 C 65.644531 22.054688 60.484375 16.054688 53.558594 15.890625 C 53.386719 15.890625 53.222656 15.890625 53.058594 15.890625 C 52.890625 15.890625 52.722656 15.890625 52.558594 15.890625 C 45.628906 16.054688 40.472656 22.054688 41.996094 28.710938 L 42.210938 29.632812 L 41.363281 30.144531 C 41.015625 30.402344 40.765625 30.789062 40.683594 31.234375 C 40.527344 31.632812 40.445312 32.050781 40.445312 32.488281 C 40.445312 33.121094 40.605469 33.734375 40.90625 34.273438 C 41.410156 35.507812 42.621094 36.378906 44.03125 36.378906 L 44.28125 36.378906 L 44.335938 36.703125 C 44.6875 38.90625 45.898438 40.933594 47.660156 42.265625 L 47.914062 42.460938 L 47.914062 45.484375 C 47.914062 45.484375 38.75 48.558594 34.570312 50.640625 C 33.300781 51.273438 32.414062 52.476562 32.175781 53.875 C 31.457031 58.054688 31.328125 65.097656 31.328125 65.097656 L 74.785156 65.097656 C 74.785156 65.097656 74.65625 58.054688 73.945312 53.875 " fill-opacity="1" fill-rule="nonzero"/></g><g clip-path="url(#8593f015ad)"><path fill="#f8c40f" d="M 33.246094 47.980469 C 35.617188 46.796875 39.414062 45.347656 42.417969 44.257812 C 41.988281 43.414062 41.300781 42.714844 40.429688 42.277344 C 36.25 40.195312 27.089844 37.125 27.089844 37.125 L 27.089844 34.097656 L 27.34375 33.902344 C 29.105469 32.570312 30.316406 30.542969 30.667969 28.339844 L 30.71875 28.015625 L 30.96875 28.015625 C 32.382812 28.015625 33.597656 27.144531 34.097656 25.914062 C 34.394531 25.371094 34.558594 24.761719 34.558594 24.125 C 34.558594 23.6875 34.472656 23.269531 34.320312 22.871094 C 34.234375 22.425781 33.984375 22.039062 33.640625 21.78125 L 32.796875 21.269531 L 33.003906 20.347656 C 34.53125 13.695312 29.371094 7.691406 22.445312 7.53125 C 22.277344 7.527344 22.109375 7.527344 21.945312 7.527344 C 21.78125 7.527344 21.613281 7.527344 21.449219 7.53125 C 14.515625 7.691406 9.363281 13.695312 10.886719 20.347656 L 11.097656 21.269531 L 10.253906 21.78125 C 9.902344 22.039062 9.652344 22.425781 9.574219 22.871094 C 9.417969 23.269531 9.332031 23.6875 9.332031 24.125 C 9.332031 24.761719 9.496094 25.371094 9.792969 25.914062 C 10.296875 27.144531 11.511719 28.015625 12.921875 28.015625 L 13.171875 28.015625 L 13.222656 28.339844 C 13.578125 30.542969 14.789062 32.570312 16.550781 33.902344 L 16.804688 34.097656 L 16.804688 37.125 C 16.804688 37.125 7.636719 40.195312 3.460938 42.277344 C 2.191406 42.910156 1.304688 44.117188 1.0625 45.515625 C 0.34375 49.691406 0.214844 56.730469 0.214844 56.730469 L 28.8125 56.730469 C 28.925781 55.546875 29.070312 54.386719 29.242188 53.375 C 29.644531 51.042969 31.140625 49.03125 33.246094 47.980469 " fill-opacity="1" fill-rule="nonzero"/></g></svg>