<svg xmlns="http://www.w3.org/2000/svg" xmlns:xlink="http://www.w3.org/1999/xlink" width="570" zoomAndPan="magnify" viewBox="0 0 427.5 413.249996" height="551" preserveAspectRatio="xMidYMid meet" version="1.0"><defs><clipPath id="7cce04b6dc"><path d="M 63 191.242188 L 403.292969 191.242188 L 403.292969 355 L 63 355 Z M 63 191.242188 " clip-rule="nonzero"/></clipPath><clipPath id="1c9278ed65"><path d="M 0.203125 280.308594 L 132.441406 280.308594 L 132.441406 412.496094 L 0.203125 412.496094 Z M 0.203125 280.308594 " clip-rule="nonzero"/></clipPath></defs><g clip-path="url(#7cce04b6dc)"><path fill="#ffffff" d="M 382.855469 191.246094 C 377.402344 191.246094 372.28125 193.359375 368.417969 197.203125 L 311.328125 252.355469 L 309.042969 254.5625 L 309.851562 257.632812 C 310.246094 259.140625 310.5 260.539062 310.625 261.894531 C 311.933594 275.652344 303.570312 288.117188 290.273438 292.230469 C 287.664062 293.03125 284.679688 293.441406 281.402344 293.441406 L 205.4375 293.441406 C 203.148438 293.441406 201.285156 291.578125 201.285156 289.289062 C 201.285156 287 203.148438 285.140625 205.4375 285.140625 L 282.003906 285.140625 C 287.769531 285.140625 293.296875 282.695312 297.167969 278.429688 C 301.03125 274.171875 302.921875 268.429688 302.363281 262.675781 C 301.382812 252.332031 292.152344 244.214844 281.347656 244.214844 L 202.703125 244.214844 C 194.773438 244.214844 187.207031 242.46875 180.832031 239.164062 C 168.898438 232.972656 156.0625 229.832031 142.675781 229.832031 C 126.730469 229.832031 110.894531 234.355469 96.878906 242.914062 C 82.976562 251.402344 71.886719 263.21875 64.804688 277.089844 L 63.011719 280.601562 L 65.800781 283.390625 L 133.59375 351.179688 L 137.398438 354.988281 L 141.234375 351.207031 L 143.257812 349.210938 C 152.839844 339.628906 165.53125 334.363281 179.019531 334.363281 L 301.667969 334.363281 C 306.671875 334.363281 311.347656 332.136719 314.496094 328.253906 L 397.507812 225.949219 C 401.242188 222.132812 403.292969 217.082031 403.292969 211.683594 C 403.292969 206.195312 401.160156 201.058594 397.285156 197.21875 C 393.441406 193.375 388.308594 191.246094 382.855469 191.246094 " fill-opacity="1" fill-rule="nonzero"/></g><g clip-path="url(#1c9278ed65)"><path fill="#ffffff" d="M 45.4375 331.652344 C 39.398438 331.652344 34.5 326.753906 34.5 320.714844 C 34.5 314.671875 39.398438 309.777344 45.4375 309.777344 C 51.480469 309.777344 56.375 314.671875 56.375 320.714844 C 56.375 326.753906 51.480469 331.652344 45.4375 331.652344 Z M 88.230469 412.496094 C 92.777344 412.496094 97.058594 410.726562 100.273438 407.507812 L 127.257812 380.527344 C 134.023438 373.757812 134.023438 362.75 127.257812 355.980469 L 56.71875 285.445312 C 53.4375 282.164062 49.078125 280.359375 44.445312 280.359375 C 39.8125 280.359375 35.453125 282.164062 32.175781 285.445312 L 5.191406 312.425781 C 1.976562 315.640625 0.203125 319.921875 0.203125 324.472656 C 0.203125 329.019531 1.976562 333.300781 5.191406 336.515625 L 76.183594 407.507812 C 79.398438 410.726562 83.679688 412.496094 88.230469 412.496094 " fill-opacity="1" fill-rule="nonzero"/></g><path fill="#ffffff" d="M 216.460938 124.03125 C 216.460938 110.769531 224.21875 101.574219 236.96875 99.039062 L 236.96875 91.671875 C 236.96875 88.027344 239.921875 85.070312 243.570312 85.070312 C 247.214844 85.070312 250.167969 88.027344 250.167969 91.671875 L 250.167969 98.757812 C 255.453125 99.558594 259.871094 101.46875 263.707031 104.117188 C 267.539062 106.761719 268.183594 112.171875 265.125 115.679688 C 262.597656 118.574219 258.347656 119.1875 255.082031 117.167969 C 252.121094 115.332031 249.132812 114.386719 245.550781 114.386719 C 239.042969 114.386719 235.511719 117.007812 235.511719 123.089844 C 235.511719 135.996094 271.230469 134.867188 271.230469 160.734375 C 271.230469 173.707031 264.058594 183.675781 250.167969 186.621094 L 250.167969 194.175781 C 250.167969 197.820312 247.214844 200.777344 243.570312 200.777344 C 239.921875 200.777344 236.96875 197.820312 236.96875 194.175781 L 236.96875 187.246094 C 231.664062 186.617188 225.695312 184.847656 220.386719 181.988281 C 216.207031 179.734375 214.808594 174.414062 217.382812 170.417969 C 219.707031 166.820312 224.433594 165.640625 228.171875 167.734375 C 232.582031 170.207031 236.769531 171.460938 241.140625 171.460938 C 248.8125 171.460938 252.183594 168.28125 252.183594 162.121094 C 252.183594 148.199219 216.460938 148.449219 216.460938 124.03125 Z M 130.863281 200.65625 C 132.476562 202.335938 134.710938 203.300781 137.042969 203.300781 C 139.375 203.300781 141.613281 202.335938 143.238281 200.65625 L 163.152344 179.929688 L 163.503906 179.5625 C 171.976562 198.050781 186.644531 213.113281 204.875 222.058594 C 205.570312 222.738281 206.382812 223.308594 207.316406 223.726562 C 207.941406 224.011719 208.550781 224.285156 209.175781 224.542969 C 220.101562 229.164062 231.707031 231.507812 243.660156 231.507812 C 255.617188 231.507812 267.222656 229.164062 278.148438 224.542969 C 288.695312 220.082031 298.171875 213.695312 306.304688 205.5625 C 314.4375 197.429688 320.820312 187.953125 325.28125 177.40625 C 329.90625 166.480469 332.238281 154.875 332.238281 142.921875 C 332.238281 130.964844 329.90625 119.375 325.28125 108.433594 C 320.820312 97.886719 314.4375 88.414062 306.304688 80.292969 C 298.171875 72.160156 288.695312 65.773438 278.148438 61.300781 C 267.222656 56.675781 255.617188 54.347656 243.660156 54.347656 C 231.707031 54.347656 220.101562 56.675781 209.175781 61.300781 C 198.628906 65.773438 189.152344 72.160156 181.019531 80.292969 C 172.886719 88.414062 166.5 97.886719 162.039062 108.433594 C 161.511719 109.679688 161.023438 110.929688 160.550781 112.1875 C 157.757812 119.726562 156.238281 127.671875 155.847656 135.695312 C 155.804688 136.710938 155.765625 137.726562 155.75 138.746094 L 155.75 138.867188 C 155.75 144.046875 159.953125 148.261719 165.144531 148.261719 L 169.632812 148.261719 C 169.699219 148.261719 169.726562 148.339844 169.683594 148.386719 L 157.433594 161.125 L 157.023438 161.546875 L 137.097656 182.289062 L 137.003906 182.289062 L 104.414062 148.386719 C 104.375 148.339844 104.402344 148.261719 104.453125 148.261719 L 105.703125 148.261719 C 112.722656 148.261719 118.417969 142.59375 118.457031 135.570312 C 118.457031 135.570312 118.457031 135.558594 118.457031 135.546875 C 118.457031 132.089844 118.660156 128.617188 119.148438 125.203125 C 127.785156 64.214844 180.328125 17.148438 243.660156 17.148438 C 308.632812 17.148438 362.25 66.683594 368.753906 129.972656 C 369.148438 133.796875 371.953125 137.007812 375.738281 137.660156 C 376.269531 137.753906 376.792969 137.800781 377.304688 137.800781 C 382.394531 137.800781 386.351562 133.394531 385.835938 128.320312 C 382.582031 96.019531 368.550781 66.042969 345.480469 42.621094 C 318.691406 15.453125 281.996094 0.0546875 243.851562 0 C 243.796875 0 243.746094 0 243.695312 0 C 205.511719 0 169.609375 14.867188 142.601562 41.863281 C 118.402344 66.058594 103.96875 97.398438 101.226562 131.113281 L 84.160156 131.113281 C 80.730469 131.113281 77.628906 133.171875 76.285156 136.332031 C 74.929688 139.492188 75.609375 143.152344 77.992188 145.632812 L 130.863281 200.65625 " fill-opacity="1" fill-rule="nonzero"/><path fill="#ffffff" d="M 378.582031 141.234375 C 373.847656 141.234375 370.007812 145.074219 370.007812 149.808594 C 370.007812 154.546875 373.847656 158.382812 378.582031 158.382812 C 383.316406 158.382812 387.15625 154.546875 387.15625 149.808594 C 387.15625 145.074219 383.316406 141.234375 378.582031 141.234375 " fill-opacity="1" fill-rule="nonzero"/><path fill="#ffffff" d="M 379.15625 162.957031 C 374.417969 162.957031 370.578125 166.796875 370.578125 171.535156 C 370.578125 176.269531 374.417969 180.109375 379.15625 180.109375 C 383.890625 180.109375 387.730469 176.269531 387.730469 171.535156 C 387.730469 166.796875 383.890625 162.957031 379.15625 162.957031 " fill-opacity="1" fill-rule="nonzero"/></svg>