<svg xmlns="http://www.w3.org/2000/svg" xmlns:xlink="http://www.w3.org/1999/xlink" width="500" zoomAndPan="magnify" viewBox="0 0 375 374.999991" height="500" preserveAspectRatio="xMidYMid meet" version="1.0"><defs><g/><clipPath id="719b707b29"><path d="M 306 59 L 375 59 L 375 143 L 306 143 Z M 306 59 " clip-rule="nonzero"/></clipPath><clipPath id="48a7b8e70f"><path d="M 306.871094 115.644531 L 384.863281 59.667969 L 407.167969 90.742188 L 329.175781 146.71875 Z M 306.871094 115.644531 " clip-rule="nonzero"/></clipPath><clipPath id="5cec3f8f79"><path d="M 264.964844 57.257812 L 342.957031 1.28125 L 407.242188 90.847656 L 329.25 146.824219 Z M 264.964844 57.257812 " clip-rule="nonzero"/></clipPath><clipPath id="120f1adc64"><path d="M 306 59 L 375 59 L 375 144 L 306 144 Z M 306 59 " clip-rule="nonzero"/></clipPath><clipPath id="75dd2528fe"><path d="M 306.871094 115.644531 L 384.863281 59.667969 L 407.167969 90.742188 L 329.175781 146.71875 Z M 306.871094 115.644531 " clip-rule="nonzero"/></clipPath><clipPath id="0a3e3e93e9"><path d="M 264.964844 57.257812 L 342.957031 1.28125 L 407.242188 90.847656 L 329.25 146.824219 Z M 264.964844 57.257812 " clip-rule="nonzero"/></clipPath><clipPath id="d890f28f8e"><path d="M 306 59 L 375 59 L 375 145 L 306 145 Z M 306 59 " clip-rule="nonzero"/></clipPath><clipPath id="42d84e50f5"><path d="M 306.871094 115.644531 L 384.863281 59.667969 L 407.167969 90.742188 L 329.175781 146.71875 Z M 306.871094 115.644531 " clip-rule="nonzero"/></clipPath><clipPath id="8270a83257"><path d="M 264.964844 57.257812 L 342.957031 1.28125 L 407.242188 90.847656 L 329.25 146.824219 Z M 264.964844 57.257812 " clip-rule="nonzero"/></clipPath><clipPath id="1f65f6cad6"><path d="M 0 14.511719 L 360.394531 14.511719 L 360.394531 374.90625 L 0 374.90625 Z M 0 14.511719 " clip-rule="nonzero"/></clipPath><clipPath id="ce30552c10"><path d="M 280 36 L 375 36 L 375 120 L 280 120 Z M 280 36 " clip-rule="nonzero"/></clipPath><clipPath id="d6663230ab"><path d="M 259.808594 59.121094 L 342.066406 0.0820312 L 385.359375 60.402344 L 303.105469 119.441406 Z M 259.808594 59.121094 " clip-rule="nonzero"/></clipPath><clipPath id="f1b900150c"><path d="M 259.808594 59.121094 L 342.066406 0.0820312 L 409.847656 94.523438 L 327.59375 153.5625 Z M 259.808594 59.121094 " clip-rule="nonzero"/></clipPath><clipPath id="d03c46aac9"><path d="M 280 38 L 375 38 L 375 120 L 280 120 Z M 280 38 " clip-rule="nonzero"/></clipPath><clipPath id="252be33b74"><path d="M 259.808594 59.121094 L 342.066406 0.0820312 L 385.359375 60.402344 L 303.105469 119.441406 Z M 259.808594 59.121094 " clip-rule="nonzero"/></clipPath><clipPath id="fc10428382"><path d="M 259.808594 59.121094 L 342.066406 0.0820312 L 409.847656 94.523438 L 327.59375 153.5625 Z M 259.808594 59.121094 " clip-rule="nonzero"/></clipPath><clipPath id="c60574c0c9"><path d="M 278 35 L 375 35 L 375 120 L 278 120 Z M 278 35 " clip-rule="nonzero"/></clipPath><clipPath id="ddff7f73b2"><path d="M 259.808594 59.121094 L 342.066406 0.0820312 L 385.359375 60.402344 L 303.105469 119.441406 Z M 259.808594 59.121094 " clip-rule="nonzero"/></clipPath><clipPath id="99f1457c17"><path d="M 259.808594 59.121094 L 342.066406 0.0820312 L 409.847656 94.523438 L 327.59375 153.5625 Z M 259.808594 59.121094 " clip-rule="nonzero"/></clipPath></defs><g clip-path="url(#719b707b29)"><g clip-path="url(#48a7b8e70f)"><g clip-path="url(#5cec3f8f79)"><path fill="#89ec0a" d="M 291.011719 42.09375 L 286.695312 64.929688 L 284.632812 78.746094 C 284.632812 78.746094 286.429688 83.175781 288.339844 84.996094 C 290.246094 86.820312 306.867188 89.9375 306.867188 89.9375 C 306.867188 89.9375 326.132812 92.960938 328.148438 92.839844 C 330.164062 92.714844 334.324219 90.453125 335.488281 86.964844 C 336.660156 83.480469 336.714844 78.863281 334.328125 76.546875 C 331.945312 74.226562 321.625 71.339844 321.625 71.339844 C 321.625 71.339844 336.089844 60.296875 340.304688 59.375 C 344.519531 58.457031 358.046875 61.207031 360.753906 63.71875 C 363.460938 66.230469 367.664062 72.84375 367.609375 79.140625 C 367.554688 85.4375 363.3125 93.359375 361.144531 95.457031 C 358.976562 97.554688 321.828125 124.703125 321.828125 124.703125 C 321.828125 124.703125 319.273438 126.597656 319.390625 128.015625 C 319.507812 129.4375 324.886719 136.59375 324.886719 136.59375 L 330.28125 142.769531 L 338.738281 137.78125 L 375.207031 110.949219 C 375.207031 110.949219 385.640625 97.980469 387.335938 88.097656 C 389.03125 78.210938 387.175781 67.328125 382.632812 59.15625 C 378.085938 50.980469 365.523438 41.523438 355.84375 39.441406 C 346.167969 37.363281 333.246094 40.078125 329.71875 41.703125 C 326.191406 43.332031 308.808594 55.507812 308.808594 55.507812 L 310.222656 44.984375 C 310.222656 44.984375 307.316406 39.003906 304.273438 37.277344 C 301.226562 35.550781 297.34375 36.59375 296.269531 36.941406 C 295.195312 37.289062 292.507812 39.339844 291.011719 42.09375 Z M 291.011719 42.09375 " fill-opacity="1" fill-rule="evenodd"/></g></g></g><g clip-path="url(#120f1adc64)"><g clip-path="url(#75dd2528fe)"><g clip-path="url(#0a3e3e93e9)"><path fill="#59dc21" d="M 360.492188 63.414062 C 363.089844 64.925781 365.390625 66.96875 367.214844 69.507812 C 369.039062 72.050781 370.238281 74.886719 370.839844 77.832031 C 371.460938 80.878906 371.449219 84.050781 370.832031 87.140625 C 370.195312 90.335938 368.921875 93.460938 367.050781 96.308594 C 365.253906 99.046875 362.917969 101.527344 360.078125 103.566406 L 333.980469 122.296875 L 322.574219 130.484375 C 322.359375 130.636719 322.226562 130.867188 322.183594 131.113281 C 322.136719 131.355469 322.191406 131.617188 322.34375 131.832031 L 330.265625 142.867188 L 329.546875 143.292969 L 324.144531 137.121094 C 324.144531 137.121094 320.1875 131.859375 318.992188 129.460938 C 319.3125 128.742188 319.820312 128.09375 320.503906 127.601562 L 326.589844 123.234375 L 358.007812 100.683594 C 360.496094 98.898438 362.53125 96.746094 364.082031 94.378906 C 365.691406 91.925781 366.785156 89.234375 367.335938 86.476562 C 367.835938 83.972656 367.871094 81.410156 367.414062 78.941406 C 367.351562 72.726562 363.25 66.300781 360.589844 63.835938 C 359.179688 62.53125 354.808594 61.175781 350.351562 60.304688 C 350.792969 60.339844 351.230469 60.382812 351.664062 60.441406 C 354.796875 60.851562 357.804688 61.847656 360.492188 63.414062 Z M 289.925781 86.609375 C 289.773438 86.429688 289.625 86.242188 289.484375 86.050781 C 288.800781 85.097656 288.351562 84.0625 288.117188 83.007812 C 287.867188 81.90625 287.859375 80.761719 288.0625 79.652344 L 293.351562 48.445312 C 293.738281 46.15625 295.023438 44.226562 296.78125 42.964844 C 298.539062 41.703125 300.773438 41.101562 303.070312 41.46875 C 305.363281 41.835938 307.289062 43.09375 308.539062 44.835938 C 308.980469 45.449219 309.335938 46.121094 309.597656 46.839844 L 309.816406 45.269531 C 309.816406 45.269531 307.449219 40.386719 304.738281 38.175781 C 304.386719 38.085938 304.03125 38.011719 303.667969 37.953125 C 300.398438 37.4375 297.214844 38.285156 294.714844 40.082031 C 292.210938 41.878906 290.386719 44.621094 289.835938 47.882812 L 284.558594 79.070312 C 284.480469 79.503906 284.421875 79.941406 284.394531 80.382812 C 285.050781 81.820312 286.300781 84.285156 287.605469 85.527344 C 287.953125 85.855469 288.789062 86.222656 289.925781 86.609375 Z M 323.113281 72.230469 L 321.355469 73.492188 C 320.550781 74.070312 320.363281 75.183594 320.933594 75.976562 C 321.226562 76.386719 321.664062 76.632812 322.125 76.695312 L 329.28125 77.832031 C 331.519531 78.21875 333.394531 79.46875 334.625 81.183594 C 335.148438 81.914062 335.554688 82.730469 335.824219 83.597656 C 336.035156 80.992188 335.546875 78.386719 333.9375 76.828125 C 333.03125 75.953125 330.96875 74.992188 328.765625 74.144531 L 326.9375 73.851562 L 327.289062 73.597656 C 325.746094 73.050781 324.246094 72.574219 323.113281 72.230469 Z M 364.132812 42.644531 C 361.019531 41.503906 357.769531 40.714844 354.457031 40.285156 C 348.6875 39.539062 342.707031 39.886719 336.882812 41.375 C 331.277344 42.804688 325.816406 45.292969 320.828125 48.875 L 313.027344 54.472656 L 313.386719 52.34375 C 311.644531 53.542969 310.1875 54.554688 309.292969 55.179688 L 308.789062 58.15625 C 308.628906 59.128906 309.28125 60.039062 310.253906 60.195312 C 310.738281 60.273438 311.210938 60.144531 311.582031 59.878906 L 322.894531 51.757812 C 327.523438 48.4375 332.574219 46.136719 337.75 44.8125 C 343.125 43.4375 348.644531 43.117188 353.972656 43.808594 C 359.394531 44.511719 364.617188 46.257812 369.300781 49.003906 L 369.378906 49.046875 C 373.832031 51.675781 377.796875 55.21875 380.96875 59.640625 C 384.164062 64.089844 386.257812 69.007812 387.3125 74.101562 C 387.460938 74.8125 387.589844 75.535156 387.695312 76.253906 C 387.136719 70.101562 385.386719 64.125 382.632812 59.15625 C 379.328125 53.207031 371.761719 46.59375 364.132812 42.644531 Z M 364.132812 42.644531 " fill-opacity="1" fill-rule="nonzero"/></g></g></g><g clip-path="url(#d890f28f8e)"><g clip-path="url(#42d84e50f5)"><g clip-path="url(#8270a83257)"><path fill="#ffffff" d="M 324.898438 120.265625 L 356.011719 97.9375 C 358.476562 96.167969 360.488281 94.03125 362.015625 91.683594 C 363.601562 89.242188 364.679688 86.5625 365.214844 83.816406 C 365.722656 81.203125 365.726562 78.523438 365.191406 75.949219 C 364.675781 73.484375 363.667969 71.113281 362.136719 68.976562 C 360.601562 66.839844 358.675781 65.121094 356.507812 63.851562 C 354.238281 62.519531 351.699219 61.660156 349.058594 61.304688 C 346.285156 60.933594 343.402344 61.097656 340.582031 61.820312 C 337.867188 62.515625 335.199219 63.738281 332.734375 65.507812 L 325.011719 71.050781 L 327.820312 71.511719 L 327.960938 71.539062 C 331.152344 72.105469 333.820312 73.886719 335.570312 76.324219 C 337.351562 78.804688 338.1875 81.960938 337.648438 85.210938 L 337.621094 85.351562 C 337.058594 88.539062 335.277344 91.210938 332.835938 92.964844 C 330.359375 94.742188 327.203125 95.570312 323.957031 95.039062 C 323.953125 95.039062 295.300781 90.414062 292.785156 89.914062 C 291.269531 89.671875 289.792969 89.136719 288.453125 88.320312 C 287.125 87.507812 285.933594 86.429688 284.980469 85.101562 C 284.027344 83.773438 283.386719 82.300781 283.042969 80.78125 C 282.691406 79.210938 282.660156 77.605469 282.9375 76.058594 L 288.035156 45 C 288.566406 41.75 290.367188 39.023438 292.847656 37.246094 C 295.328125 35.464844 298.484375 34.628906 301.734375 35.167969 C 304.980469 35.699219 307.707031 37.5 309.484375 39.980469 C 311.265625 42.457031 312.101562 45.617188 311.566406 48.863281 L 311.105469 51.671875 L 318.828125 46.125 C 323.773438 42.578125 329.183594 40.125 334.746094 38.722656 C 340.53125 37.265625 346.46875 36.945312 352.203125 37.71875 C 358.066406 38.507812 363.722656 40.425781 368.792969 43.425781 L 368.878906 43.480469 C 373.738281 46.371094 378.058594 50.246094 381.515625 55.066406 C 384.996094 59.910156 387.289062 65.277344 388.46875 70.839844 L 388.472656 70.84375 C 389.691406 76.605469 389.699219 82.574219 388.570312 88.386719 C 387.464844 94.070312 385.265625 99.59375 382.03125 104.605469 C 378.925781 109.425781 374.867188 113.769531 369.925781 117.316406 L 332.785156 143.972656 C 331.777344 144.699219 330.5625 144.941406 329.425781 144.757812 L 329.261719 144.71875 C 328.179688 144.5 327.179688 143.894531 326.492188 142.9375 L 317.839844 130.886719 C 317.121094 129.878906 316.875 128.667969 317.0625 127.53125 L 317.058594 127.523438 C 317.246094 126.386719 317.867188 125.316406 318.875 124.589844 Z M 332.242188 119.367188 L 320.945312 127.472656 C 320.730469 127.625 320.597656 127.855469 320.558594 128.101562 C 320.511719 128.339844 320.566406 128.601562 320.722656 128.816406 L 329.371094 140.867188 C 329.511719 141.0625 329.710938 141.191406 329.925781 141.246094 L 330 141.253906 C 330.246094 141.296875 330.503906 141.242188 330.714844 141.089844 L 367.851562 114.433594 C 372.433594 111.144531 376.1875 107.128906 379.058594 102.679688 C 382.042969 98.054688 384.078125 92.949219 385.09375 87.707031 C 386.132812 82.367188 386.125 76.875 385 71.578125 C 383.925781 66.496094 381.820312 61.582031 378.628906 57.136719 C 375.457031 52.714844 371.503906 49.164062 367.066406 46.523438 L 366.988281 46.480469 C 362.324219 43.722656 357.125 41.957031 351.734375 41.230469 C 346.441406 40.515625 340.957031 40.808594 335.621094 42.15625 C 330.484375 43.453125 325.480469 45.722656 320.898438 49.011719 L 309.695312 57.050781 C 309.328125 57.316406 308.859375 57.4375 308.375 57.359375 C 307.40625 57.199219 306.753906 56.289062 306.910156 55.320312 L 308.066406 48.292969 C 308.441406 46.011719 307.855469 43.792969 306.605469 42.050781 C 305.355469 40.308594 303.441406 39.042969 301.160156 38.667969 C 298.878906 38.296875 296.660156 38.878906 294.917969 40.128906 C 293.175781 41.378906 291.910156 43.292969 291.535156 45.574219 L 286.421875 76.652344 C 286.222656 77.757812 286.238281 78.894531 286.488281 79.996094 C 286.726562 81.046875 287.179688 82.082031 287.863281 83.035156 C 288.546875 83.984375 289.378906 84.746094 290.300781 85.308594 C 291.230469 85.875 292.261719 86.25 293.328125 86.421875 L 324.527344 91.542969 C 326.808594 91.921875 329.027344 91.332031 330.769531 90.082031 C 332.484375 88.851562 333.738281 86.980469 334.140625 84.753906 L 334.152344 84.636719 C 334.527344 82.359375 333.945312 80.140625 332.691406 78.394531 C 331.460938 76.679688 329.589844 75.425781 327.367188 75.03125 L 320.25 73.863281 C 319.789062 73.800781 319.355469 73.550781 319.0625 73.144531 C 318.492188 72.347656 318.675781 71.238281 319.46875 70.667969 L 330.671875 62.628906 C 333.484375 60.609375 336.554688 59.207031 339.699219 58.402344 C 342.972656 57.558594 346.316406 57.371094 349.527344 57.800781 C 352.636719 58.21875 355.628906 59.230469 358.308594 60.800781 C 360.898438 62.324219 363.195312 64.367188 365.019531 66.910156 C 366.84375 69.453125 368.046875 72.28125 368.65625 75.21875 C 369.289062 78.261719 369.289062 81.421875 368.691406 84.5 C 368.074219 87.679688 366.824219 90.789062 364.976562 93.621094 C 363.207031 96.339844 360.894531 98.800781 358.082031 100.820312 Z M 332.242188 119.367188 " fill-opacity="1" fill-rule="nonzero"/></g></g></g><g clip-path="url(#1f65f6cad6)"><path fill="#ffb300" d="M 360.476562 194.75 C 360.476562 197.699219 360.402344 200.648438 360.257812 203.59375 C 360.113281 206.539062 359.894531 209.480469 359.605469 212.414062 C 359.316406 215.351562 358.957031 218.277344 358.523438 221.195312 C 358.089844 224.113281 357.585938 227.019531 357.011719 229.914062 C 356.4375 232.804688 355.789062 235.683594 355.074219 238.542969 C 354.355469 241.40625 353.570312 244.246094 352.714844 247.070312 C 351.859375 249.890625 350.933594 252.691406 349.9375 255.46875 C 348.945312 258.246094 347.882812 261 346.753906 263.722656 C 345.625 266.449219 344.429688 269.144531 343.171875 271.8125 C 341.910156 274.476562 340.582031 277.113281 339.191406 279.714844 C 337.800781 282.3125 336.347656 284.878906 334.832031 287.410156 C 333.316406 289.941406 331.738281 292.429688 330.097656 294.882812 C 328.460938 297.335938 326.761719 299.746094 325.003906 302.117188 C 323.25 304.484375 321.433594 306.8125 319.5625 309.089844 C 317.691406 311.371094 315.765625 313.605469 313.785156 315.789062 C 311.804688 317.976562 309.769531 320.109375 307.683594 322.195312 C 305.597656 324.28125 303.464844 326.316406 301.277344 328.296875 C 299.09375 330.277344 296.859375 332.203125 294.578125 334.074219 C 292.296875 335.945312 289.972656 337.761719 287.605469 339.519531 C 285.234375 341.273438 282.824219 342.972656 280.371094 344.613281 C 277.917969 346.25 275.429688 347.828125 272.898438 349.34375 C 270.367188 350.859375 267.800781 352.3125 265.199219 353.703125 C 262.597656 355.09375 259.964844 356.421875 257.300781 357.683594 C 254.632812 358.945312 251.9375 360.136719 249.210938 361.265625 C 246.484375 362.394531 243.734375 363.457031 240.957031 364.449219 C 238.179688 365.445312 235.378906 366.371094 232.558594 367.226562 C 229.734375 368.082031 226.894531 368.867188 224.03125 369.585938 C 221.171875 370.300781 218.292969 370.949219 215.398438 371.523438 C 212.507812 372.097656 209.601562 372.601562 206.683594 373.035156 C 203.765625 373.46875 200.839844 373.832031 197.902344 374.121094 C 194.96875 374.410156 192.027344 374.625 189.082031 374.769531 C 186.136719 374.914062 183.1875 374.988281 180.238281 374.988281 C 177.289062 374.988281 174.339844 374.914062 171.394531 374.769531 C 168.449219 374.625 165.507812 374.410156 162.570312 374.121094 C 159.636719 373.832031 156.707031 373.46875 153.792969 373.035156 C 150.875 372.601562 147.96875 372.097656 145.074219 371.523438 C 142.183594 370.949219 139.304688 370.300781 136.445312 369.585938 C 133.582031 368.867188 130.738281 368.082031 127.917969 367.226562 C 125.09375 366.371094 122.292969 365.445312 119.515625 364.449219 C 116.738281 363.457031 113.988281 362.394531 111.261719 361.265625 C 108.539062 360.136719 105.84375 358.945312 103.175781 357.683594 C 100.507812 356.421875 97.875 355.09375 95.273438 353.703125 C 92.671875 352.3125 90.105469 350.859375 87.578125 349.34375 C 85.046875 347.828125 82.554688 346.25 80.101562 344.613281 C 77.648438 342.972656 75.238281 341.273438 72.871094 339.519531 C 70.5 337.761719 68.175781 335.945312 65.894531 334.074219 C 63.617188 332.203125 61.382812 330.277344 59.199219 328.296875 C 57.011719 326.316406 54.875 324.28125 52.789062 322.195312 C 50.703125 320.109375 48.671875 317.976562 46.691406 315.789062 C 44.710938 313.605469 42.785156 311.371094 40.910156 309.089844 C 39.039062 306.8125 37.226562 304.484375 35.46875 302.117188 C 33.710938 299.746094 32.015625 297.335938 30.375 294.882812 C 28.738281 292.429688 27.160156 289.941406 25.644531 287.410156 C 24.125 284.878906 22.671875 282.3125 21.28125 279.714844 C 19.890625 277.113281 18.566406 274.476562 17.304688 271.8125 C 16.042969 269.144531 14.847656 266.449219 13.71875 263.722656 C 12.589844 261 11.53125 258.246094 10.535156 255.46875 C 9.542969 252.691406 8.617188 249.890625 7.761719 247.070312 C 6.90625 244.246094 6.117188 241.40625 5.402344 238.542969 C 4.683594 235.683594 4.039062 232.804688 3.464844 229.914062 C 2.886719 227.019531 2.382812 224.113281 1.949219 221.195312 C 1.519531 218.277344 1.15625 215.351562 0.867188 212.414062 C 0.578125 209.480469 0.363281 206.539062 0.21875 203.59375 C 0.0742188 200.648438 0 197.699219 0 194.75 C 0 191.800781 0.0742188 188.851562 0.21875 185.90625 C 0.363281 182.960938 0.578125 180.019531 0.867188 177.082031 C 1.15625 174.148438 1.519531 171.222656 1.949219 168.304688 C 2.382812 165.386719 2.886719 162.480469 3.464844 159.585938 C 4.039062 156.695312 4.683594 153.816406 5.402344 150.957031 C 6.117188 148.09375 6.90625 145.253906 7.761719 142.429688 C 8.617188 139.605469 9.542969 136.808594 10.535156 134.03125 C 11.53125 131.253906 12.589844 128.5 13.71875 125.777344 C 14.847656 123.050781 16.042969 120.355469 17.304688 117.6875 C 18.566406 115.023438 19.890625 112.386719 21.28125 109.785156 C 22.671875 107.183594 24.125 104.617188 25.644531 102.089844 C 27.160156 99.558594 28.738281 97.066406 30.375 94.613281 C 32.015625 92.164062 33.710938 89.75 35.46875 87.382812 C 37.226562 85.011719 39.039062 82.6875 40.910156 80.40625 C 42.785156 78.128906 44.710938 75.894531 46.691406 73.710938 C 48.671875 71.523438 50.703125 69.386719 52.789062 67.300781 C 54.875 65.214844 57.011719 63.183594 59.199219 61.203125 C 61.382812 59.222656 63.617188 57.296875 65.894531 55.425781 C 68.175781 53.554688 70.5 51.738281 72.871094 49.980469 C 75.238281 48.222656 77.648438 46.527344 80.101562 44.886719 C 82.554688 43.25 85.046875 41.671875 87.578125 40.15625 C 90.105469 38.636719 92.671875 37.183594 95.273438 35.792969 C 97.875 34.402344 100.507812 33.078125 103.175781 31.816406 C 105.84375 30.554688 108.539062 29.359375 111.261719 28.230469 C 113.988281 27.101562 116.738281 26.042969 119.515625 25.046875 C 122.292969 24.054688 125.09375 23.128906 127.917969 22.273438 C 130.738281 21.417969 133.582031 20.628906 136.445312 19.914062 C 139.304688 19.195312 142.183594 18.550781 145.074219 17.976562 C 147.96875 17.398438 150.875 16.894531 153.792969 16.460938 C 156.707031 16.03125 159.636719 15.667969 162.570312 15.378906 C 165.507812 15.089844 168.449219 14.875 171.394531 14.730469 C 174.339844 14.585938 177.289062 14.511719 180.238281 14.511719 C 183.1875 14.511719 186.136719 14.585938 189.082031 14.730469 C 192.027344 14.875 194.96875 15.089844 197.902344 15.378906 C 200.839844 15.667969 203.765625 16.03125 206.683594 16.460938 C 209.601562 16.894531 212.507812 17.398438 215.398438 17.976562 C 218.292969 18.550781 221.171875 19.195312 224.03125 19.914062 C 226.894531 20.628906 229.734375 21.417969 232.558594 22.273438 C 235.378906 23.128906 238.179688 24.054688 240.957031 25.046875 C 243.734375 26.042969 246.484375 27.101562 249.210938 28.230469 C 251.9375 29.359375 254.632812 30.554688 257.300781 31.816406 C 259.964844 33.078125 262.597656 34.402344 265.199219 35.792969 C 267.800781 37.183594 270.367188 38.636719 272.898438 40.15625 C 275.429688 41.671875 277.917969 43.25 280.371094 44.886719 C 282.824219 46.527344 285.234375 48.222656 287.605469 49.980469 C 289.972656 51.738281 292.296875 53.554688 294.578125 55.425781 C 296.859375 57.296875 299.09375 59.222656 301.277344 61.203125 C 303.464844 63.183594 305.597656 65.214844 307.683594 67.300781 C 309.769531 69.386719 311.804688 71.523438 313.785156 73.710938 C 315.765625 75.894531 317.691406 78.128906 319.5625 80.40625 C 321.433594 82.6875 323.25 85.011719 325.003906 87.382812 C 326.761719 89.75 328.460938 92.164062 330.097656 94.613281 C 331.738281 97.066406 333.316406 99.558594 334.832031 102.089844 C 336.347656 104.617188 337.800781 107.183594 339.191406 109.785156 C 340.582031 112.386719 341.910156 115.023438 343.171875 117.6875 C 344.429688 120.355469 345.625 123.050781 346.753906 125.777344 C 347.882812 128.5 348.945312 131.253906 349.9375 134.03125 C 350.933594 136.808594 351.859375 139.605469 352.714844 142.429688 C 353.570312 145.253906 354.355469 148.09375 355.074219 150.957031 C 355.789062 153.816406 356.4375 156.695312 357.011719 159.585938 C 357.585938 162.480469 358.089844 165.386719 358.523438 168.304688 C 358.957031 171.222656 359.316406 174.148438 359.605469 177.082031 C 359.894531 180.019531 360.113281 182.960938 360.257812 185.90625 C 360.402344 188.851562 360.476562 191.800781 360.476562 194.75 Z M 360.476562 194.75 " fill-opacity="1" fill-rule="nonzero"/></g><path fill="#ffca28" d="M 350.027344 194.75 C 350.027344 197.527344 349.957031 200.304688 349.820312 203.082031 C 349.6875 205.855469 349.480469 208.625 349.207031 211.390625 C 348.9375 214.15625 348.597656 216.914062 348.1875 219.664062 C 347.78125 222.410156 347.304688 225.148438 346.765625 227.875 C 346.222656 230.597656 345.613281 233.308594 344.9375 236.003906 C 344.261719 238.699219 343.523438 241.378906 342.714844 244.035156 C 341.910156 246.695312 341.039062 249.332031 340.101562 251.949219 C 339.164062 254.566406 338.164062 257.15625 337.101562 259.726562 C 336.039062 262.292969 334.914062 264.832031 333.726562 267.34375 C 332.535156 269.855469 331.289062 272.335938 329.976562 274.789062 C 328.667969 277.238281 327.300781 279.65625 325.871094 282.039062 C 324.441406 284.421875 322.957031 286.769531 321.410156 289.078125 C 319.867188 291.390625 318.269531 293.660156 316.613281 295.894531 C 314.957031 298.125 313.25 300.316406 311.484375 302.460938 C 309.722656 304.609375 307.910156 306.714844 306.042969 308.773438 C 304.175781 310.832031 302.261719 312.84375 300.296875 314.808594 C 298.332031 316.773438 296.320312 318.6875 294.261719 320.554688 C 292.203125 322.421875 290.097656 324.234375 287.949219 326 C 285.800781 327.761719 283.613281 329.46875 281.378906 331.125 C 279.148438 332.78125 276.878906 334.378906 274.566406 335.925781 C 272.257812 337.46875 269.910156 338.953125 267.527344 340.382812 C 265.144531 341.8125 262.726562 343.179688 260.277344 344.488281 C 257.824219 345.800781 255.34375 347.050781 252.832031 348.238281 C 250.320312 349.425781 247.78125 350.550781 245.214844 351.613281 C 242.644531 352.675781 240.054688 353.675781 237.4375 354.613281 C 234.820312 355.550781 232.183594 356.421875 229.523438 357.226562 C 226.867188 358.035156 224.1875 358.773438 221.492188 359.449219 C 218.796875 360.125 216.085938 360.734375 213.363281 361.277344 C 210.636719 361.816406 207.898438 362.292969 205.152344 362.699219 C 202.402344 363.109375 199.644531 363.449219 196.878906 363.722656 C 194.113281 363.992188 191.34375 364.199219 188.570312 364.335938 C 185.792969 364.46875 183.015625 364.539062 180.238281 364.539062 C 177.457031 364.539062 174.683594 364.46875 171.90625 364.335938 C 169.132812 364.199219 166.359375 363.992188 163.59375 363.722656 C 160.828125 363.449219 158.074219 363.109375 155.324219 362.699219 C 152.574219 362.292969 149.839844 361.816406 147.113281 361.277344 C 144.386719 360.734375 141.675781 360.125 138.980469 359.449219 C 136.285156 358.773438 133.609375 358.035156 130.949219 357.226562 C 128.292969 356.421875 125.652344 355.550781 123.039062 354.613281 C 120.421875 353.675781 117.828125 352.675781 115.261719 351.613281 C 112.695312 350.550781 110.15625 349.425781 107.644531 348.238281 C 105.132812 347.050781 102.648438 345.800781 100.199219 344.488281 C 97.75 343.179688 95.332031 341.8125 92.949219 340.382812 C 90.566406 338.953125 88.21875 337.46875 85.90625 335.925781 C 83.597656 334.378906 81.328125 332.78125 79.09375 331.125 C 76.863281 329.46875 74.671875 327.761719 72.523438 326 C 70.375 324.234375 68.273438 322.421875 66.214844 320.554688 C 64.15625 318.6875 62.144531 316.773438 60.179688 314.808594 C 58.214844 312.84375 56.296875 310.832031 54.433594 308.773438 C 52.566406 306.714844 50.75 304.609375 48.988281 302.460938 C 47.226562 300.316406 45.515625 298.125 43.863281 295.894531 C 42.207031 293.660156 40.605469 291.390625 39.0625 289.078125 C 37.519531 286.769531 36.035156 284.421875 34.605469 282.039062 C 33.175781 279.65625 31.808594 277.238281 30.496094 274.789062 C 29.1875 272.335938 27.9375 269.855469 26.75 267.34375 C 25.5625 264.832031 24.4375 262.292969 23.371094 259.726562 C 22.308594 257.15625 21.308594 254.566406 20.375 251.949219 C 19.4375 249.332031 18.566406 246.695312 17.757812 244.035156 C 16.953125 241.378906 16.210938 238.699219 15.535156 236.003906 C 14.863281 233.308594 14.253906 230.597656 13.710938 227.875 C 13.167969 225.148438 12.695312 222.410156 12.285156 219.664062 C 11.878906 216.914062 11.539062 214.15625 11.265625 211.390625 C 10.992188 208.625 10.789062 205.855469 10.652344 203.082031 C 10.515625 200.304688 10.449219 197.527344 10.449219 194.75 C 10.449219 191.972656 10.515625 189.195312 10.652344 186.417969 C 10.789062 183.644531 10.992188 180.871094 11.265625 178.105469 C 11.539062 175.34375 11.878906 172.585938 12.285156 169.835938 C 12.695312 167.085938 13.167969 164.351562 13.710938 161.625 C 14.253906 158.898438 14.863281 156.191406 15.535156 153.496094 C 16.210938 150.796875 16.953125 148.121094 17.757812 145.460938 C 18.566406 142.804688 19.4375 140.164062 20.375 137.550781 C 21.308594 134.933594 22.308594 132.339844 23.371094 129.773438 C 24.4375 127.207031 25.5625 124.667969 26.75 122.15625 C 27.9375 119.644531 29.1875 117.164062 30.496094 114.710938 C 31.808594 112.261719 33.175781 109.84375 34.605469 107.460938 C 36.035156 105.078125 37.519531 102.730469 39.0625 100.417969 C 40.605469 98.109375 42.207031 95.839844 43.863281 93.605469 C 45.515625 91.375 47.226562 89.183594 48.988281 87.035156 C 50.75 84.886719 52.566406 82.785156 54.433594 80.726562 C 56.296875 78.667969 58.214844 76.65625 60.179688 74.691406 C 62.144531 72.726562 64.15625 70.808594 66.214844 68.945312 C 68.273438 67.078125 70.375 65.265625 72.523438 63.5 C 74.671875 61.738281 76.863281 60.027344 79.09375 58.375 C 81.328125 56.71875 83.597656 55.117188 85.90625 53.574219 C 88.21875 52.03125 90.566406 50.546875 92.949219 49.117188 C 95.332031 47.6875 97.75 46.320312 100.199219 45.007812 C 102.648438 43.699219 105.132812 42.449219 107.644531 41.261719 C 110.15625 40.074219 112.695312 38.949219 115.261719 37.886719 C 117.828125 36.820312 120.421875 35.820312 123.039062 34.886719 C 125.652344 33.949219 128.292969 33.078125 130.949219 32.273438 C 133.609375 31.464844 136.285156 30.722656 138.980469 30.050781 C 141.675781 29.375 144.386719 28.765625 147.113281 28.222656 C 149.839844 27.679688 152.574219 27.207031 155.324219 26.796875 C 158.074219 26.390625 160.828125 26.050781 163.59375 25.777344 C 166.359375 25.503906 169.132812 25.300781 171.90625 25.164062 C 174.683594 25.027344 177.457031 24.960938 180.238281 24.960938 C 183.015625 24.960938 185.792969 25.027344 188.570312 25.164062 C 191.34375 25.300781 194.113281 25.503906 196.878906 25.777344 C 199.644531 26.050781 202.402344 26.390625 205.152344 26.796875 C 207.898438 27.207031 210.636719 27.679688 213.363281 28.222656 C 216.085938 28.765625 218.796875 29.375 221.492188 30.050781 C 224.1875 30.722656 226.867188 31.464844 229.523438 32.273438 C 232.183594 33.078125 234.820312 33.949219 237.4375 34.886719 C 240.054688 35.820312 242.644531 36.820312 245.214844 37.886719 C 247.78125 38.949219 250.320312 40.074219 252.832031 41.261719 C 255.34375 42.449219 257.824219 43.699219 260.277344 45.007812 C 262.726562 46.320312 265.144531 47.6875 267.527344 49.117188 C 269.910156 50.546875 272.257812 52.03125 274.566406 53.574219 C 276.878906 55.117188 279.148438 56.71875 281.378906 58.375 C 283.613281 60.027344 285.800781 61.738281 287.949219 63.5 C 290.097656 65.265625 292.203125 67.078125 294.261719 68.945312 C 296.320312 70.808594 298.332031 72.726562 300.296875 74.691406 C 302.261719 76.65625 304.175781 78.667969 306.042969 80.726562 C 307.910156 82.785156 309.722656 84.886719 311.484375 87.035156 C 313.25 89.183594 314.957031 91.375 316.613281 93.605469 C 318.269531 95.839844 319.867188 98.109375 321.410156 100.417969 C 322.957031 102.730469 324.441406 105.078125 325.871094 107.460938 C 327.300781 109.84375 328.667969 112.261719 329.976562 114.710938 C 331.289062 117.164062 332.535156 119.644531 333.726562 122.15625 C 334.914062 124.667969 336.039062 127.207031 337.101562 129.773438 C 338.164062 132.339844 339.164062 134.933594 340.101562 137.550781 C 341.039062 140.164062 341.910156 142.804688 342.714844 145.460938 C 343.523438 148.121094 344.261719 150.796875 344.9375 153.496094 C 345.613281 156.191406 346.222656 158.898438 346.765625 161.625 C 347.304688 164.351562 347.78125 167.085938 348.1875 169.835938 C 348.597656 172.585938 348.9375 175.34375 349.207031 178.105469 C 349.480469 180.871094 349.6875 183.644531 349.820312 186.417969 C 349.957031 189.195312 350.027344 191.972656 350.027344 194.75 Z M 350.027344 194.75 " fill-opacity="1" fill-rule="nonzero"/><path fill="#ffde59" d="M 323.90625 194.75 C 323.90625 197.101562 323.847656 199.449219 323.730469 201.800781 C 323.617188 204.148438 323.445312 206.492188 323.214844 208.832031 C 322.984375 211.171875 322.695312 213.503906 322.351562 215.828125 C 322.003906 218.15625 321.601562 220.472656 321.144531 222.777344 C 320.6875 225.082031 320.171875 227.378906 319.597656 229.65625 C 319.027344 231.9375 318.402344 234.203125 317.71875 236.453125 C 317.035156 238.703125 316.300781 240.9375 315.507812 243.148438 C 314.714844 245.363281 313.867188 247.554688 312.96875 249.730469 C 312.070312 251.902344 311.117188 254.050781 310.113281 256.175781 C 309.105469 258.300781 308.050781 260.402344 306.941406 262.472656 C 305.832031 264.546875 304.675781 266.59375 303.464844 268.609375 C 302.257812 270.625 301 272.613281 299.691406 274.566406 C 298.386719 276.523438 297.03125 278.445312 295.632812 280.332031 C 294.230469 282.222656 292.785156 284.074219 291.292969 285.890625 C 289.800781 287.707031 288.265625 289.488281 286.6875 291.230469 C 285.109375 292.972656 283.488281 294.675781 281.824219 296.339844 C 280.164062 298 278.460938 299.621094 276.71875 301.199219 C 274.976562 302.777344 273.195312 304.316406 271.378906 305.804688 C 269.5625 307.296875 267.707031 308.742188 265.820312 310.144531 C 263.933594 311.546875 262.011719 312.898438 260.054688 314.203125 C 258.101562 315.511719 256.113281 316.769531 254.097656 317.976562 C 252.082031 319.1875 250.035156 320.34375 247.960938 321.453125 C 245.886719 322.5625 243.789062 323.617188 241.664062 324.625 C 239.539062 325.628906 237.390625 326.582031 235.214844 327.480469 C 233.042969 328.382812 230.851562 329.226562 228.636719 330.019531 C 226.425781 330.8125 224.191406 331.546875 221.941406 332.230469 C 219.691406 332.914062 217.425781 333.539062 215.144531 334.113281 C 212.863281 334.683594 210.570312 335.199219 208.265625 335.65625 C 205.960938 336.117188 203.644531 336.515625 201.316406 336.863281 C 198.992188 337.207031 196.660156 337.496094 194.320312 337.726562 C 191.980469 337.957031 189.636719 338.128906 187.285156 338.246094 C 184.9375 338.359375 182.589844 338.417969 180.238281 338.417969 C 177.886719 338.417969 175.535156 338.359375 173.1875 338.246094 C 170.839844 338.128906 168.496094 337.957031 166.15625 337.726562 C 163.816406 337.496094 161.484375 337.207031 159.15625 336.863281 C 156.832031 336.515625 154.515625 336.117188 152.210938 335.65625 C 149.902344 335.199219 147.609375 334.683594 145.328125 334.113281 C 143.046875 333.539062 140.78125 332.914062 138.53125 332.230469 C 136.28125 331.546875 134.050781 330.8125 131.835938 330.019531 C 129.625 329.226562 127.429688 328.382812 125.257812 327.480469 C 123.085938 326.582031 120.9375 325.628906 118.8125 324.625 C 116.6875 323.617188 114.585938 322.5625 112.511719 321.453125 C 110.441406 320.34375 108.394531 319.1875 106.378906 317.976562 C 104.359375 316.769531 102.375 315.511719 100.421875 314.203125 C 98.464844 312.898438 96.542969 311.546875 94.65625 310.144531 C 92.765625 308.742188 90.914062 307.296875 89.097656 305.804688 C 87.277344 304.316406 85.5 302.777344 83.757812 301.199219 C 82.015625 299.621094 80.3125 298 78.648438 296.339844 C 76.988281 294.675781 75.367188 292.972656 73.785156 291.230469 C 72.207031 289.488281 70.671875 287.707031 69.179688 285.890625 C 67.6875 284.074219 66.242188 282.222656 64.84375 280.332031 C 63.441406 278.445312 62.089844 276.523438 60.78125 274.566406 C 59.476562 272.613281 58.21875 270.625 57.007812 268.609375 C 55.800781 266.59375 54.640625 264.546875 53.535156 262.472656 C 52.425781 260.402344 51.367188 258.300781 50.363281 256.175781 C 49.359375 254.050781 48.40625 251.902344 47.507812 249.730469 C 46.605469 247.554688 45.761719 245.363281 44.96875 243.148438 C 44.175781 240.9375 43.4375 238.703125 42.757812 236.453125 C 42.074219 234.203125 41.445312 231.9375 40.875 229.65625 C 40.304688 227.378906 39.789062 225.082031 39.332031 222.777344 C 38.871094 220.472656 38.46875 218.15625 38.125 215.828125 C 37.78125 213.503906 37.492188 211.171875 37.261719 208.832031 C 37.03125 206.492188 36.859375 204.148438 36.742188 201.800781 C 36.628906 199.449219 36.570312 197.101562 36.570312 194.75 C 36.570312 192.398438 36.628906 190.046875 36.742188 187.699219 C 36.859375 185.351562 37.03125 183.007812 37.261719 180.667969 C 37.492188 178.328125 37.78125 175.996094 38.125 173.667969 C 38.46875 171.34375 38.871094 169.027344 39.332031 166.722656 C 39.789062 164.414062 40.304688 162.121094 40.875 159.839844 C 41.445312 157.558594 42.074219 155.296875 42.757812 153.046875 C 43.4375 150.796875 44.175781 148.5625 44.96875 146.347656 C 45.761719 144.136719 46.605469 141.941406 47.507812 139.769531 C 48.40625 137.597656 49.359375 135.449219 50.363281 133.324219 C 51.367188 131.199219 52.425781 129.097656 53.535156 127.023438 C 54.640625 124.953125 55.800781 122.90625 57.007812 120.890625 C 58.21875 118.871094 59.476562 116.886719 60.78125 114.933594 C 62.089844 112.976562 63.441406 111.054688 64.84375 109.167969 C 66.242188 107.277344 67.6875 105.425781 69.179688 103.609375 C 70.671875 101.789062 72.207031 100.011719 73.785156 98.269531 C 75.367188 96.527344 76.988281 94.824219 78.648438 93.160156 C 80.3125 91.5 82.015625 89.878906 83.757812 88.300781 C 85.5 86.71875 87.277344 85.183594 89.097656 83.691406 C 90.914062 82.203125 92.765625 80.753906 94.65625 79.355469 C 96.542969 77.953125 98.464844 76.601562 100.421875 75.292969 C 102.375 73.988281 104.359375 72.730469 106.378906 71.523438 C 108.394531 70.3125 110.441406 69.15625 112.511719 68.046875 C 114.585938 66.9375 116.6875 65.882812 118.8125 64.875 C 120.9375 63.871094 123.085938 62.917969 125.257812 62.019531 C 127.429688 61.117188 129.625 60.273438 131.835938 59.480469 C 134.050781 58.6875 136.28125 57.949219 138.53125 57.269531 C 140.78125 56.585938 143.046875 55.957031 145.328125 55.386719 C 147.609375 54.816406 149.902344 54.300781 152.210938 53.84375 C 154.515625 53.382812 156.832031 52.980469 159.15625 52.636719 C 161.484375 52.292969 163.816406 52.003906 166.15625 51.773438 C 168.496094 51.542969 170.839844 51.371094 173.1875 51.253906 C 175.535156 51.140625 177.886719 51.082031 180.238281 51.082031 C 182.589844 51.082031 184.9375 51.140625 187.285156 51.253906 C 189.636719 51.371094 191.980469 51.542969 194.320312 51.773438 C 196.660156 52.003906 198.992188 52.292969 201.316406 52.636719 C 203.644531 52.980469 205.960938 53.382812 208.265625 53.84375 C 210.570312 54.300781 212.863281 54.816406 215.144531 55.386719 C 217.425781 55.957031 219.691406 56.585938 221.941406 57.269531 C 224.191406 57.949219 226.425781 58.6875 228.636719 59.480469 C 230.851562 60.273438 233.042969 61.117188 235.214844 62.019531 C 237.390625 62.917969 239.539062 63.871094 241.664062 64.875 C 243.789062 65.882812 245.886719 66.9375 247.960938 68.046875 C 250.035156 69.15625 252.082031 70.3125 254.097656 71.523438 C 256.113281 72.730469 258.101562 73.988281 260.054688 75.292969 C 262.011719 76.601562 263.933594 77.953125 265.820312 79.355469 C 267.707031 80.753906 269.5625 82.203125 271.378906 83.691406 C 273.195312 85.183594 274.976562 86.71875 276.71875 88.300781 C 278.460938 89.878906 280.164062 91.5 281.824219 93.160156 C 283.488281 94.824219 285.109375 96.527344 286.6875 98.269531 C 288.265625 100.011719 289.800781 101.789062 291.292969 103.609375 C 292.785156 105.425781 294.230469 107.277344 295.632812 109.167969 C 297.03125 111.054688 298.386719 112.976562 299.691406 114.933594 C 301 116.886719 302.257812 118.871094 303.464844 120.890625 C 304.675781 122.90625 305.832031 124.953125 306.941406 127.023438 C 308.050781 129.097656 309.105469 131.199219 310.113281 133.324219 C 311.117188 135.449219 312.070312 137.597656 312.96875 139.769531 C 313.867188 141.941406 314.714844 144.136719 315.507812 146.347656 C 316.300781 148.5625 317.035156 150.796875 317.71875 153.046875 C 318.402344 155.296875 319.027344 157.558594 319.597656 159.839844 C 320.171875 162.121094 320.6875 164.414062 321.144531 166.722656 C 321.601562 169.027344 322.003906 171.34375 322.351562 173.667969 C 322.695312 175.996094 322.984375 178.328125 323.214844 180.667969 C 323.445312 183.007812 323.617188 185.351562 323.730469 187.699219 C 323.847656 190.046875 323.90625 192.398438 323.90625 194.75 Z M 323.90625 194.75 " fill-opacity="1" fill-rule="nonzero"/><g fill="#ffffff" fill-opacity="1"><g transform="translate(101.353987, 281.881704)"><g><path d="M 131.234375 -153.6875 C 134.734375 -145.71875 136.484375 -139.5 136.484375 -135.03125 C 136.484375 -130.5625 134.832031 -126.960938 131.53125 -124.234375 C 128.226562 -121.515625 124.335938 -120.15625 119.859375 -120.15625 C 115.390625 -120.15625 111.988281 -121.125 109.65625 -123.0625 C 107.320312 -125.007812 105.28125 -129.191406 103.53125 -135.609375 C 99.644531 -147.472656 90.117188 -148.546875 74.953125 -138.828125 C 61.921875 -131.046875 52.488281 -119.765625 46.65625 -104.984375 C 40.820312 -90.210938 39.265625 -75.535156 41.984375 -60.953125 C 44.710938 -46.367188 51.617188 -35.285156 62.703125 -27.703125 C 76.503906 -18.367188 90.40625 -18.851562 104.40625 -29.15625 C 112.375 -34.800781 117.722656 -39.957031 120.453125 -44.625 C 124.140625 -50.257812 129.09375 -52.6875 135.3125 -51.90625 C 141.539062 -51.132812 145.820312 -47.734375 148.15625 -41.703125 C 151.65625 -32.566406 144.65625 -20.707031 127.15625 -6.125 C 102.851562 13.707031 78.644531 17.304688 54.53125 4.671875 C 35.675781 -5.054688 22.457031 -20.222656 14.875 -40.828125 C 7.289062 -61.441406 6.898438 -83.21875 13.703125 -106.15625 C 17.785156 -120.15625 23.128906 -131.53125 29.734375 -140.28125 C 36.347656 -149.03125 44.710938 -156.707031 54.828125 -163.3125 C 64.941406 -169.925781 71.941406 -173.816406 75.828125 -174.984375 C 79.710938 -176.148438 86.710938 -176.734375 96.828125 -176.734375 C 107.128906 -176.734375 114.515625 -174.789062 118.984375 -170.90625 C 123.648438 -167.40625 127.734375 -161.664062 131.234375 -153.6875 Z M 131.234375 -153.6875 "/></g></g></g><g fill="#ffffff" fill-opacity="1"><g transform="translate(231.778999, 325.211727)"><g><path d="M -52.578125 -50.5 C -51.203125 -52.8125 -48.722656 -53.96875 -45.140625 -53.96875 C -41.566406 -53.96875 -39.144531 -52.238281 -37.875 -48.78125 C -36.613281 -45.320312 -35.984375 -38.976562 -35.984375 -29.75 C -35.984375 -20.53125 -36.617188 -14.070312 -37.890625 -10.375 C -39.148438 -6.914062 -41.394531 -5.1875 -44.625 -5.1875 C -47.851562 -5.1875 -50.160156 -6.050781 -51.546875 -7.78125 C -52.929688 -9.507812 -54.085938 -12.910156 -55.015625 -17.984375 C -55.703125 -23.066406 -55.8125 -29.179688 -55.34375 -36.328125 C -54.882812 -43.472656 -53.960938 -48.195312 -52.578125 -50.5 Z M -52.578125 -50.5 "/></g></g></g><g fill="#ffffff" fill-opacity="1"><g transform="translate(231.778999, 130.249811)"><g><path d="M -52.578125 -50.5 C -51.203125 -52.8125 -48.722656 -53.96875 -45.140625 -53.96875 C -41.566406 -53.96875 -39.144531 -52.238281 -37.875 -48.78125 C -36.613281 -45.320312 -35.984375 -38.976562 -35.984375 -29.75 C -35.984375 -20.53125 -36.617188 -14.070312 -37.890625 -10.375 C -39.148438 -6.914062 -41.394531 -5.1875 -44.625 -5.1875 C -47.851562 -5.1875 -50.160156 -6.050781 -51.546875 -7.78125 C -52.929688 -9.507812 -54.085938 -12.910156 -55.015625 -17.984375 C -55.703125 -23.066406 -55.8125 -29.179688 -55.34375 -36.328125 C -54.882812 -43.472656 -53.960938 -48.195312 -52.578125 -50.5 Z M -52.578125 -50.5 "/></g></g></g><g clip-path="url(#ce30552c10)"><g clip-path="url(#d6663230ab)"><g clip-path="url(#f1b900150c)"><path fill="#89ec0a" d="M 287.320312 43.101562 L 282.765625 67.222656 L 280.585938 81.8125 C 280.585938 81.8125 282.480469 86.492188 284.5 88.414062 C 286.515625 90.339844 304.066406 93.628906 304.066406 93.628906 C 304.066406 93.628906 324.414062 96.828125 326.542969 96.695312 C 328.671875 96.566406 333.066406 94.175781 334.296875 90.496094 C 335.535156 86.8125 335.589844 81.9375 333.070312 79.488281 C 330.550781 77.039062 319.65625 73.988281 319.65625 73.988281 C 319.65625 73.988281 334.929688 62.328125 339.382812 61.355469 C 343.835938 60.386719 358.121094 63.289062 360.980469 65.941406 C 363.839844 68.59375 368.277344 75.578125 368.222656 82.230469 C 368.164062 88.878906 363.683594 97.25 361.394531 99.464844 C 359.105469 101.679688 319.871094 130.347656 319.871094 130.347656 C 319.871094 130.347656 317.171875 132.347656 317.296875 133.847656 C 317.421875 135.347656 323.097656 142.90625 323.097656 142.90625 L 328.796875 149.429688 L 337.726562 144.164062 L 376.246094 115.820312 C 376.246094 115.820312 387.265625 102.128906 389.054688 91.6875 C 390.847656 81.25 388.882812 69.753906 384.085938 61.121094 C 379.289062 52.488281 366.015625 42.5 355.796875 40.304688 C 345.574219 38.105469 331.929688 40.972656 328.203125 42.691406 C 324.480469 44.410156 306.121094 57.265625 306.121094 57.265625 L 307.613281 46.152344 C 307.613281 46.152344 304.542969 39.839844 301.328125 38.015625 C 298.109375 36.191406 294.007812 37.292969 292.875 37.660156 C 291.738281 38.027344 288.902344 40.191406 287.320312 43.101562 Z M 287.320312 43.101562 " fill-opacity="1" fill-rule="evenodd"/></g></g></g><g clip-path="url(#d03c46aac9)"><g clip-path="url(#252be33b74)"><g clip-path="url(#fc10428382)"><path fill="#59dc21" d="M 360.703125 65.617188 C 363.449219 67.214844 365.878906 69.371094 367.804688 72.058594 C 369.734375 74.742188 370.996094 77.734375 371.632812 80.847656 C 372.289062 84.0625 372.273438 87.414062 371.625 90.679688 C 370.949219 94.050781 369.605469 97.351562 367.628906 100.363281 C 365.734375 103.253906 363.265625 105.871094 360.265625 108.027344 L 332.703125 127.808594 L 320.65625 136.453125 C 320.429688 136.617188 320.289062 136.863281 320.242188 137.121094 C 320.195312 137.375 320.25 137.648438 320.414062 137.878906 L 328.78125 149.535156 L 328.019531 149.984375 L 322.316406 143.464844 C 322.316406 143.464844 318.136719 137.910156 316.875 135.375 C 317.210938 134.617188 317.75 133.929688 318.472656 133.410156 L 324.898438 128.800781 L 358.082031 104.984375 C 360.710938 103.097656 362.859375 100.820312 364.496094 98.324219 C 366.195312 95.730469 367.351562 92.886719 367.933594 89.976562 C 368.457031 87.332031 368.496094 84.625 368.015625 82.019531 C 367.949219 75.453125 363.617188 68.667969 360.804688 66.066406 C 359.316406 64.6875 354.703125 63.253906 349.992188 62.335938 C 350.457031 62.371094 350.921875 62.417969 351.382812 62.476562 C 354.6875 62.910156 357.867188 63.964844 360.703125 65.617188 Z M 286.175781 90.117188 C 286.015625 89.929688 285.859375 89.730469 285.710938 89.527344 C 284.988281 88.519531 284.511719 87.425781 284.261719 86.3125 C 284.003906 85.148438 283.992188 83.941406 284.207031 82.769531 L 289.792969 49.808594 C 290.203125 47.394531 291.558594 45.355469 293.414062 44.023438 C 295.273438 42.6875 297.632812 42.054688 300.058594 42.441406 C 302.480469 42.828125 304.511719 44.160156 305.832031 46 C 306.296875 46.648438 306.675781 47.355469 306.949219 48.113281 L 307.179688 46.457031 C 307.179688 46.457031 304.683594 41.296875 301.820312 38.964844 C 301.449219 38.871094 301.070312 38.792969 300.6875 38.730469 C 297.238281 38.183594 293.875 39.082031 291.234375 40.976562 C 288.589844 42.875 286.660156 45.769531 286.078125 49.214844 L 280.507812 82.15625 C 280.425781 82.613281 280.363281 83.074219 280.332031 83.542969 C 281.027344 85.058594 282.347656 87.660156 283.726562 88.972656 C 284.089844 89.320312 284.976562 89.710938 286.175781 90.117188 Z M 321.226562 74.929688 L 319.367188 76.265625 C 318.519531 76.875 318.324219 78.046875 318.925781 78.886719 C 319.234375 79.320312 319.695312 79.578125 320.183594 79.648438 L 327.742188 80.847656 C 330.105469 81.257812 332.085938 82.578125 333.386719 84.386719 C 333.9375 85.15625 334.367188 86.019531 334.648438 86.933594 C 334.875 84.1875 334.355469 81.433594 332.660156 79.789062 C 331.699219 78.859375 329.523438 77.847656 327.195312 76.953125 L 325.265625 76.644531 L 325.636719 76.375 C 324.007812 75.796875 322.421875 75.292969 321.226562 74.929688 Z M 364.550781 43.683594 C 361.261719 42.480469 357.828125 41.644531 354.328125 41.191406 C 348.234375 40.402344 341.921875 40.769531 335.765625 42.339844 C 329.851562 43.855469 324.082031 46.480469 318.8125 50.265625 L 310.570312 56.179688 L 310.953125 53.925781 C 309.113281 55.195312 307.574219 56.265625 306.632812 56.921875 L 306.097656 60.066406 C 305.925781 61.09375 306.617188 62.054688 307.644531 62.21875 C 308.15625 62.300781 308.65625 62.167969 309.050781 61.886719 L 320.996094 53.3125 C 325.882812 49.804688 331.21875 47.371094 336.683594 45.972656 C 342.363281 44.523438 348.191406 44.183594 353.816406 44.914062 C 359.542969 45.65625 365.0625 47.5 370.007812 50.402344 L 370.089844 50.445312 C 374.792969 53.222656 378.980469 56.964844 382.332031 61.636719 C 385.703125 66.332031 387.914062 71.527344 389.03125 76.90625 C 389.1875 77.660156 389.324219 78.417969 389.4375 79.179688 C 388.84375 72.683594 386.996094 66.371094 384.089844 61.125 C 380.597656 54.839844 372.605469 47.855469 364.550781 43.683594 Z M 364.550781 43.683594 " fill-opacity="1" fill-rule="nonzero"/></g></g></g><g clip-path="url(#c60574c0c9)"><g clip-path="url(#ddff7f73b2)"><g clip-path="url(#99f1457c17)"><path fill="#ffffff" d="M 323.113281 125.664062 L 355.972656 102.082031 C 358.574219 100.214844 360.699219 97.953125 362.3125 95.476562 C 363.988281 92.898438 365.128906 90.070312 365.691406 87.167969 C 366.230469 84.40625 366.230469 81.578125 365.664062 78.859375 C 365.125 76.253906 364.058594 73.75 362.4375 71.492188 C 360.820312 69.238281 358.785156 67.425781 356.496094 66.078125 C 354.097656 64.675781 351.417969 63.769531 348.628906 63.394531 C 345.699219 63 342.652344 63.171875 339.675781 63.9375 C 336.808594 64.671875 333.988281 65.964844 331.390625 67.828125 L 323.234375 73.683594 L 326.195312 74.171875 L 326.347656 74.203125 C 329.714844 74.796875 332.535156 76.679688 334.382812 79.253906 C 336.265625 81.871094 337.144531 85.207031 336.578125 88.636719 L 336.546875 88.789062 C 335.953125 92.15625 334.074219 94.976562 331.492188 96.828125 C 328.878906 98.703125 325.546875 99.582031 322.117188 99.019531 C 322.113281 99.019531 291.851562 94.136719 289.195312 93.609375 C 287.597656 93.351562 286.035156 92.785156 284.621094 91.921875 C 283.21875 91.066406 281.960938 89.929688 280.953125 88.527344 C 279.945312 87.121094 279.269531 85.566406 278.90625 83.960938 C 278.535156 82.304688 278.503906 80.609375 278.792969 78.972656 L 284.179688 46.167969 C 284.738281 42.738281 286.640625 39.859375 289.261719 37.980469 C 291.878906 36.101562 295.214844 35.21875 298.644531 35.785156 C 302.074219 36.347656 304.957031 38.253906 306.835938 40.867188 C 308.710938 43.484375 309.59375 46.824219 309.03125 50.253906 L 308.542969 53.214844 L 316.703125 47.359375 C 321.921875 43.613281 327.640625 41.023438 333.511719 39.542969 C 339.621094 38.003906 345.890625 37.667969 351.949219 38.480469 C 358.144531 39.316406 364.117188 41.339844 369.472656 44.511719 L 369.5625 44.566406 C 374.695312 47.617188 379.257812 51.710938 382.910156 56.800781 C 386.582031 61.917969 389.003906 67.585938 390.25 73.460938 L 390.253906 73.464844 C 391.542969 79.550781 391.550781 85.855469 390.359375 91.996094 C 389.191406 97.996094 386.867188 103.828125 383.453125 109.125 C 380.171875 114.214844 375.886719 118.804688 370.667969 122.550781 L 331.441406 150.703125 C 330.375 151.46875 329.09375 151.726562 327.894531 151.53125 L 327.71875 151.492188 C 326.578125 151.257812 325.519531 150.621094 324.792969 149.609375 L 315.65625 136.878906 C 314.894531 135.816406 314.640625 134.539062 314.835938 133.335938 L 314.832031 133.328125 C 315.027344 132.125 315.683594 130.996094 316.75 130.230469 Z M 330.867188 124.710938 L 318.933594 133.277344 C 318.710938 133.4375 318.570312 133.679688 318.527344 133.9375 C 318.480469 134.191406 318.539062 134.464844 318.703125 134.695312 L 327.835938 147.421875 C 327.984375 147.628906 328.195312 147.761719 328.417969 147.820312 L 328.5 147.832031 C 328.757812 147.875 329.03125 147.816406 329.257812 147.65625 L 368.480469 119.503906 C 373.316406 116.03125 377.28125 111.789062 380.316406 107.089844 C 383.464844 102.203125 385.613281 96.816406 386.6875 91.277344 C 387.785156 85.636719 387.773438 79.839844 386.589844 74.242188 C 385.453125 68.875 383.230469 63.683594 379.859375 58.988281 C 376.507812 54.320312 372.335938 50.570312 367.648438 47.78125 L 367.566406 47.734375 C 362.640625 44.820312 357.148438 42.957031 351.453125 42.1875 C 345.863281 41.4375 340.074219 41.746094 334.4375 43.167969 C 329.011719 44.535156 323.722656 46.933594 318.886719 50.40625 L 307.054688 58.898438 C 306.667969 59.179688 306.171875 59.308594 305.660156 59.226562 C 304.636719 59.058594 303.945312 58.09375 304.113281 57.074219 L 305.335938 49.648438 C 305.730469 47.242188 305.113281 44.894531 303.792969 43.054688 C 302.472656 41.214844 300.449219 39.878906 298.039062 39.484375 C 295.628906 39.089844 293.289062 39.707031 291.449219 41.027344 C 289.605469 42.347656 288.269531 44.371094 287.875 46.78125 L 282.472656 79.601562 C 282.261719 80.769531 282.28125 81.96875 282.546875 83.132812 C 282.796875 84.242188 283.277344 85.335938 283.996094 86.339844 C 284.71875 87.347656 285.597656 88.152344 286.570312 88.742188 C 287.550781 89.339844 288.640625 89.738281 289.769531 89.921875 L 322.722656 95.328125 C 325.128906 95.726562 327.472656 95.105469 329.3125 93.785156 C 331.125 92.484375 332.449219 90.507812 332.871094 88.15625 L 332.886719 88.035156 C 333.28125 85.628906 332.664062 83.285156 331.34375 81.441406 C 330.042969 79.632812 328.066406 78.304688 325.71875 77.886719 L 318.203125 76.65625 C 317.71875 76.589844 317.257812 76.328125 316.949219 75.894531 C 316.347656 75.054688 316.539062 73.882812 317.378906 73.28125 L 329.207031 64.789062 C 332.179688 62.65625 335.421875 61.175781 338.742188 60.324219 C 342.203125 59.4375 345.734375 59.234375 349.125 59.691406 C 352.410156 60.132812 355.570312 61.199219 358.398438 62.863281 C 361.132812 64.46875 363.558594 66.625 365.484375 69.3125 C 367.410156 71.996094 368.679688 74.984375 369.328125 78.089844 C 369.996094 81.300781 369.996094 84.636719 369.363281 87.890625 C 368.710938 91.25 367.390625 94.53125 365.441406 97.523438 C 363.570312 100.394531 361.128906 102.996094 358.160156 105.128906 Z M 330.867188 124.710938 " fill-opacity="1" fill-rule="nonzero"/></g></g></g></svg>