<svg xmlns="http://www.w3.org/2000/svg" xmlns:xlink="http://www.w3.org/1999/xlink" width="100" zoomAndPan="magnify" viewBox="0 0 75 74.999997" height="100" preserveAspectRatio="xMidYMid meet" version="1.0"><defs><clipPath id="fdbd00a2e2"><path d="M 1.828125 0 L 71 0 L 71 69 L 1.828125 69 Z M 1.828125 0 " clip-rule="nonzero"/></clipPath></defs><g clip-path="url(#fdbd00a2e2)"><path fill="#f8c40f" d="M 45.765625 0.589844 L 2.445312 43.910156 C 2.050781 44.304688 1.855469 44.816406 1.855469 45.328125 L 1.859375 45.335938 C 1.859375 45.851562 2.054688 46.367188 2.445312 46.757812 L 23.75 68.0625 C 24.144531 68.457031 24.65625 68.652344 25.167969 68.652344 L 25.179688 68.652344 C 25.691406 68.652344 26.203125 68.457031 26.597656 68.0625 L 37.125 57.539062 C 37.414062 57.246094 37.527344 56.863281 37.441406 56.460938 L 37.035156 54.601562 C 36.941406 54.171875 36.644531 53.851562 36.222656 53.726562 C 35.800781 53.601562 35.375 53.710938 35.0625 54.019531 L 27.847656 61.234375 C 26.582031 59.964844 24.566406 59.917969 23.355469 61.132812 L 9.375 47.152344 C 10.589844 45.941406 10.542969 43.925781 9.273438 42.65625 C 16.15625 35.773438 37.628906 14.300781 44.511719 7.417969 C 45.78125 8.6875 47.792969 8.734375 49.007812 7.519531 L 62.988281 21.5 C 61.773438 22.714844 61.820312 24.726562 63.089844 25.996094 L 48.628906 40.453125 C 48.25 40.832031 48.175781 41.398438 48.441406 41.867188 C 48.683594 42.289062 48.878906 42.757812 49.050781 43.238281 C 49.1875 43.628906 49.492188 43.898438 49.894531 43.992188 C 50.300781 44.082031 50.691406 43.96875 50.984375 43.675781 L 69.917969 24.742188 C 70.308594 24.351562 70.507812 23.835938 70.507812 23.324219 L 70.507812 23.3125 C 70.507812 22.800781 70.308594 22.289062 69.917969 21.894531 L 48.613281 0.59375 C 48.222656 0.203125 47.707031 0.00390625 47.1875 0.0078125 L 47.183594 0 C 46.671875 0 46.160156 0.199219 45.765625 0.589844 Z M 28.886719 27.03125 C 32.914062 23.003906 39.449219 23.003906 43.476562 27.03125 C 46.390625 29.949219 47.195312 34.175781 45.890625 37.816406 C 45.78125 38.121094 45.578125 38.34375 45.285156 38.480469 C 44.996094 38.617188 44.695312 38.632812 44.390625 38.523438 C 44.234375 38.46875 44.078125 38.414062 43.917969 38.367188 C 43.285156 38.183594 42.625 38.046875 41.964844 38.046875 C 41.363281 38.046875 41.339844 37.488281 41.488281 37.226562 C 41.988281 35.890625 41.757812 34.4375 40.691406 33.371094 C 39.132812 31.808594 37.527344 32.4375 35.800781 33.238281 C 35.074219 33.578125 33.914062 34.21875 33.214844 33.523438 C 31.9375 32.242188 33.988281 30.410156 35.34375 31.136719 C 35.539062 31.242188 35.773438 31.207031 35.929688 31.050781 L 36.753906 30.226562 C 36.859375 30.121094 36.910156 29.984375 36.898438 29.832031 C 36.886719 29.683594 36.8125 29.554688 36.691406 29.46875 C 35.757812 28.808594 34.644531 28.539062 33.535156 28.855469 C 33.230469 28.941406 32.949219 29.074219 32.679688 29.234375 L 31.796875 28.34375 C 31.605469 28.148438 31.289062 28.148438 31.09375 28.34375 L 30.195312 29.238281 C 30.003906 29.433594 30.003906 29.75 30.195312 29.945312 L 31.128906 30.863281 C 30.328125 32.339844 30.449219 34.066406 31.667969 35.285156 C 33.148438 36.765625 34.6875 36.28125 36.34375 35.515625 C 37.105469 35.164062 38.410156 34.390625 39.144531 35.128906 C 40.425781 36.410156 38.371094 38.242188 37.019531 37.515625 C 36.824219 37.410156 36.589844 37.445312 36.429688 37.601562 L 35.609375 38.425781 C 35.503906 38.53125 35.453125 38.671875 35.464844 38.820312 C 35.476562 38.96875 35.550781 39.097656 35.671875 39.183594 C 35.878906 39.328125 36.089844 39.453125 36.308594 39.558594 C 36.445312 39.625 36.535156 39.738281 36.566406 39.882812 C 36.597656 40.03125 36.5625 40.171875 36.464844 40.285156 C 35.703125 41.175781 35.257812 42.234375 35.089844 43.363281 C 35.039062 43.703125 34.867188 43.976562 34.582031 44.164062 C 34.296875 44.355469 33.976562 44.410156 33.644531 44.328125 C 31.902344 43.886719 30.25 42.984375 28.886719 41.621094 C 24.859375 37.59375 24.859375 31.0625 28.886719 27.03125 Z M 22.851562 43.988281 C 23.863281 42.976562 25.503906 42.976562 26.519531 43.988281 C 27.53125 45.003906 27.53125 46.644531 26.519531 47.65625 C 25.507812 48.671875 23.863281 48.671875 22.851562 47.65625 C 21.839844 46.644531 21.839844 45.003906 22.851562 43.988281 Z M 45.84375 20.996094 C 46.859375 19.984375 48.5 19.984375 49.511719 20.996094 C 50.523438 22.007812 50.523438 23.652344 49.511719 24.664062 C 48.5 25.675781 46.859375 25.675781 45.84375 24.664062 C 44.832031 23.652344 44.832031 22.007812 45.84375 20.996094 Z M 45.84375 20.996094 " fill-opacity="1" fill-rule="evenodd"/></g><path fill="#ffde59" d="M 72.492188 53.597656 L 70.929688 65.890625 C 70.621094 68.304688 71.070312 71.164062 70.902344 73.222656 C 70.839844 74.019531 70.066406 75 68.722656 75 L 52.074219 75 C 50.957031 75 50.140625 74.355469 49.425781 73.5 L 43.09375 65.953125 C 42.308594 65.019531 41.992188 62.957031 41.734375 61.761719 L 38.1875 45.414062 C 37.101562 39.9375 44.816406 39.824219 46.160156 44.300781 L 48.886719 52.886719 C 49.265625 54.179688 51.042969 53.847656 52.949219 53.851562 C 54.800781 53.855469 56.144531 53.070312 57.484375 51.753906 C 58.207031 51.046875 58.773438 50.191406 59.085938 49.234375 L 57.511719 41.652344 C 57.34375 40.835938 57.589844 40.050781 58.195312 39.476562 L 62.996094 34.914062 C 63.277344 34.648438 63.636719 34.542969 64.019531 34.613281 C 64.402344 34.6875 64.699219 34.914062 64.863281 35.265625 C 66.242188 38.203125 68.164062 42.527344 69.667969 43.859375 C 72.753906 46.589844 73.144531 48.464844 72.492188 53.597656 Z M 72.492188 53.597656 " fill-opacity="1" fill-rule="evenodd"/></svg>