<svg xmlns="http://www.w3.org/2000/svg" xmlns:xlink="http://www.w3.org/1999/xlink" width="100" zoomAndPan="magnify" viewBox="0 0 75 74.999997" height="100" preserveAspectRatio="xMidYMid meet" version="1.0"><defs><clipPath id="91b2bb654f"><path d="M 5 15 L 67.21875 15 L 67.21875 75 L 5 75 Z M 5 15 " clip-rule="nonzero"/></clipPath></defs><g clip-path="url(#91b2bb654f)"><path fill="#f8c40f" d="M 62.886719 75 L 9.898438 75 C 8.609375 75 7.359375 74.464844 6.480469 73.527344 C 5.59375 72.59375 5.125 71.320312 5.199219 70.03125 L 7.988281 19.824219 C 8.125 17.328125 10.1875 15.375 12.6875 15.375 L 60.097656 15.375 C 62.59375 15.375 64.65625 17.328125 64.792969 19.824219 L 67.582031 70.03125 C 67.65625 71.320312 67.1875 72.59375 66.304688 73.527344 C 65.417969 74.464844 64.171875 75 62.886719 75 Z M 12.6875 18.515625 C 11.855469 18.515625 11.164062 19.167969 11.121094 19.996094 L 8.332031 70.203125 C 8.308594 70.640625 8.460938 71.054688 8.757812 71.371094 C 9.058594 71.6875 9.460938 71.863281 9.898438 71.863281 L 62.886719 71.863281 C 63.320312 71.863281 63.726562 71.6875 64.023438 71.371094 C 64.324219 71.054688 64.476562 70.640625 64.453125 70.203125 L 61.664062 19.996094 C 61.617188 19.167969 60.929688 18.515625 60.097656 18.515625 Z M 12.6875 18.515625 " fill-opacity="1" fill-rule="nonzero"/></g><path fill="#f8c40f" d="M 50.511719 28.003906 C 49.648438 28.003906 48.945312 27.300781 48.945312 26.433594 L 48.945312 15.664062 C 48.945312 8.742188 43.3125 3.113281 36.390625 3.113281 C 29.46875 3.113281 23.839844 8.742188 23.839844 15.664062 L 23.839844 26.433594 C 23.839844 27.300781 23.136719 28.003906 22.269531 28.003906 C 21.402344 28.003906 20.699219 27.300781 20.699219 26.433594 L 20.699219 15.664062 C 20.699219 7.011719 27.738281 -0.0234375 36.390625 -0.0234375 C 45.042969 -0.0234375 52.082031 7.011719 52.082031 15.664062 L 52.082031 26.433594 C 52.082031 27.300781 51.378906 28.003906 50.511719 28.003906 Z M 50.511719 28.003906 " fill-opacity="1" fill-rule="nonzero"/></svg>