<svg xmlns="http://www.w3.org/2000/svg" xmlns:xlink="http://www.w3.org/1999/xlink" width="100" zoomAndPan="magnify" viewBox="0 0 75 74.999997" height="100" preserveAspectRatio="xMidYMid meet" version="1.0"><defs><clipPath id="ccae1faad8"><path d="M 7.5 0 L 69 0 L 69 75 L 7.5 75 Z M 7.5 0 " clip-rule="nonzero"/></clipPath></defs><g clip-path="url(#ccae1faad8)"><path fill="#008000" d="M 15.066406 74.996094 L 59.292969 74.996094 C 63.449219 74.996094 66.859375 71.585938 66.859375 67.429688 L 66.859375 61.609375 C 68.273438 60.613281 69.1875 58.949219 69.1875 57.121094 L 69.1875 51.300781 C 69.1875 49.472656 68.273438 47.808594 66.859375 46.8125 L 66.859375 32.679688 C 66.859375 31.929688 66.777344 31.179688 66.527344 30.433594 C 66.027344 27.691406 63.867188 25.613281 61.125 25.277344 C 60.542969 25.113281 59.960938 25.03125 59.292969 25.03125 L 58.214844 25.03125 L 64.199219 20.457031 C 64.78125 20.042969 64.863281 19.210938 64.449219 18.710938 L 50.8125 0.671875 C 50.398438 0.0898438 49.566406 0.00390625 49.070312 0.421875 L 16.480469 25.113281 L 15.066406 25.113281 C 14.484375 25.113281 13.820312 25.195312 13.238281 25.363281 C 10.492188 25.695312 8.25 27.773438 7.832031 30.515625 C 7.582031 31.179688 7.5 31.929688 7.5 32.679688 L 7.5 67.429688 C 7.5 71.585938 10.910156 74.996094 15.066406 74.996094 Z M 63.785156 67.429688 C 63.785156 69.921875 61.789062 71.917969 59.292969 71.917969 L 15.066406 71.917969 C 12.570312 71.917969 10.574219 69.921875 10.574219 67.429688 L 10.574219 36.75 C 11.574219 37.332031 12.65625 37.75 13.902344 37.75 L 60.375 37.75 C 61.621094 37.75 62.785156 37.417969 63.699219 36.75 L 63.699219 45.8125 C 63.699219 45.8125 63.617188 45.8125 63.617188 45.8125 L 48.984375 45.8125 C 44.328125 45.8125 40.589844 49.554688 40.589844 54.210938 C 40.589844 58.867188 44.328125 62.605469 48.984375 62.605469 L 63.699219 62.605469 C 63.699219 62.605469 63.785156 62.605469 63.785156 62.605469 Z M 66.527344 51.300781 L 66.527344 57.121094 C 66.527344 58.617188 65.28125 59.863281 63.785156 59.863281 L 48.984375 59.863281 C 45.824219 59.863281 43.332031 57.285156 43.332031 54.210938 C 43.332031 51.050781 45.910156 48.558594 48.984375 48.558594 L 63.699219 48.558594 C 65.28125 48.558594 66.527344 49.804688 66.527344 51.300781 Z M 49.566406 3.246094 L 61.707031 19.292969 L 53.972656 25.113281 C 53.972656 25.113281 53.890625 25.195312 53.890625 25.195312 L 47.238281 30.265625 L 40.921875 30.265625 C 42.085938 30.101562 43.164062 29.683594 44.164062 28.9375 C 45.742188 27.773438 46.65625 26.277344 46.988281 24.363281 C 47.324219 22.453125 46.90625 20.707031 45.742188 19.125 C 44.578125 17.546875 43.082031 16.632812 41.171875 16.300781 C 39.257812 15.96875 37.511719 16.382812 35.933594 17.546875 C 34.351562 18.710938 33.4375 20.207031 33.105469 22.121094 C 32.773438 24.03125 33.1875 25.777344 34.351562 27.355469 C 35.515625 28.9375 37.011719 29.851562 38.925781 30.183594 C 39.007812 30.183594 39.09375 30.183594 39.175781 30.183594 L 26.121094 30.183594 L 23.878906 27.273438 L 27.039062 24.863281 L 25.789062 23.199219 L 20.886719 26.859375 L 23.378906 30.183594 L 20.054688 30.183594 C 20.054688 30.101562 20.054688 30.101562 20.054688 30.019531 C 20.054688 29.683594 19.96875 29.4375 19.804688 29.1875 L 18.140625 26.941406 Z M 39.257812 28.105469 C 37.929688 27.855469 36.847656 27.273438 36.015625 26.109375 C 35.183594 25.03125 34.933594 23.78125 35.101562 22.453125 C 35.351562 21.121094 35.933594 20.042969 37.097656 19.210938 C 38.011719 18.542969 38.925781 18.296875 39.921875 18.296875 C 40.171875 18.296875 40.503906 18.296875 40.753906 18.378906 C 42.085938 18.628906 43.164062 19.210938 43.996094 20.375 C 44.828125 21.453125 45.078125 22.703125 44.910156 24.03125 C 44.664062 25.363281 44.082031 26.441406 42.917969 27.273438 C 41.835938 28.023438 40.589844 28.355469 39.257812 28.105469 Z M 13.984375 28.023438 L 15.8125 28.023438 L 17.476562 30.265625 L 14.980469 30.265625 C 14.316406 30.265625 13.734375 30.847656 13.734375 31.515625 C 13.734375 32.179688 14.316406 32.761719 14.980469 32.761719 L 59.292969 32.761719 C 59.960938 32.761719 60.542969 32.179688 60.542969 31.515625 C 60.542969 30.847656 59.960938 30.265625 59.292969 30.265625 L 51.3125 30.265625 L 54.222656 28.023438 L 60.292969 28.023438 C 62.203125 28.023438 63.785156 29.601562 63.785156 31.515625 C 63.785156 33.425781 62.203125 35.007812 60.292969 35.007812 L 13.984375 35.007812 C 12.074219 35.007812 10.492188 33.425781 10.492188 31.515625 C 10.492188 29.601562 12.074219 28.023438 13.984375 28.023438 Z M 13.984375 28.023438 " fill-opacity="1" fill-rule="nonzero"/></g><path fill="#008000" d="M 49.402344 50.136719 C 47.15625 50.136719 45.328125 51.964844 45.328125 54.210938 C 45.328125 56.457031 47.15625 58.285156 49.402344 58.285156 C 51.644531 58.285156 53.476562 56.457031 53.476562 54.210938 C 53.476562 51.964844 51.644531 50.136719 49.402344 50.136719 Z M 49.402344 56.207031 C 48.320312 56.207031 47.40625 55.292969 47.40625 54.210938 C 47.40625 53.128906 48.320312 52.214844 49.402344 52.214844 C 50.480469 52.214844 51.394531 53.128906 51.394531 54.210938 C 51.394531 55.292969 50.566406 56.207031 49.402344 56.207031 Z M 49.402344 56.207031 " fill-opacity="1" fill-rule="nonzero"/><path fill="#008000" d="M 48.320312 8.734375 L 50.730469 11.894531 L 52.394531 10.5625 L 48.734375 5.824219 L 43.914062 9.484375 L 45.160156 11.144531 Z M 48.320312 8.734375 " fill-opacity="1" fill-rule="nonzero"/><path fill="#008000" d="M 54.140625 23.035156 L 58.960938 19.292969 L 55.386719 14.554688 L 53.722656 15.800781 L 56.050781 18.960938 L 52.894531 21.371094 Z M 54.140625 23.035156 " fill-opacity="1" fill-rule="nonzero"/></svg>