<svg xmlns="http://www.w3.org/2000/svg" xmlns:xlink="http://www.w3.org/1999/xlink" width="100" zoomAndPan="magnify" viewBox="0 0 75 74.999997" height="100" preserveAspectRatio="xMidYMid meet" version="1.0"><defs><clipPath id="3ede8ddd03"><path d="M 1.78125 26 L 19 26 L 19 57 L 1.78125 57 Z M 1.78125 26 " clip-rule="nonzero"/></clipPath><clipPath id="0d6a153e5c"><path d="M 27.148438 14.699219 L 73.027344 14.699219 L 73.027344 74.992188 L 27.148438 74.992188 Z M 27.148438 14.699219 " clip-rule="nonzero"/></clipPath></defs><g clip-path="url(#3ede8ddd03)"><path fill="#f8c40f" d="M 16.683594 41.378906 C 16.0625 40.828125 15.316406 40.320312 14.5 39.882812 C 13.664062 39.484375 12.761719 39.089844 11.792969 38.738281 C 11.152344 38.515625 10.648438 38.316406 10.207031 38.140625 C 9.765625 37.964844 9.414062 37.765625 9.148438 37.589844 C 8.886719 37.4375 8.710938 37.261719 8.597656 37.0625 C 8.488281 36.886719 8.445312 36.644531 8.445312 36.378906 C 8.445312 35.9375 8.597656 35.585938 8.972656 35.324219 C 9.371094 35.035156 10.03125 34.882812 10.976562 34.882812 C 11.992188 34.882812 12.960938 34.992188 13.863281 35.210938 C 14.765625 35.410156 15.601562 35.652344 16.285156 35.960938 L 16.726562 36.136719 C 17.5625 34.730469 17.980469 33.167969 17.914062 31.46875 L 17.605469 31.339844 C 17.101562 31.09375 16.460938 30.875 15.601562 30.652344 C 14.875 30.457031 13.996094 30.300781 13.003906 30.191406 L 13.003906 26.78125 C 11.308594 26.316406 9.679688 26.339844 8.117188 26.78125 L 8.117188 30.367188 C 7.257812 30.523438 6.488281 30.808594 5.847656 31.164062 C 5.121094 31.558594 4.503906 32.066406 4.019531 32.636719 C 3.578125 33.230469 3.226562 33.871094 3.007812 34.597656 C 2.785156 35.277344 2.675781 36.007812 2.675781 36.777344 C 2.675781 37.765625 2.851562 38.605469 3.226562 39.332031 C 3.578125 40.058594 4.0625 40.652344 4.660156 41.136719 C 5.230469 41.621094 5.890625 42.015625 6.59375 42.347656 C 7.300781 42.675781 8.027344 42.964844 8.734375 43.226562 C 9.460938 43.472656 10.097656 43.734375 10.667969 43.953125 C 11.199219 44.152344 11.640625 44.394531 11.992188 44.617188 C 12.320312 44.816406 12.566406 45.054688 12.71875 45.296875 C 12.871094 45.519531 12.960938 45.78125 12.960938 46.132812 C 12.960938 46.664062 12.761719 47.039062 12.386719 47.324219 C 12.101562 47.523438 11.417969 47.785156 9.898438 47.785156 C 8.777344 47.785156 7.695312 47.632812 6.683594 47.347656 C 5.652344 47.058594 4.769531 46.730469 4.019531 46.355469 L 3.625 46.179688 C 2.675781 47.480469 2.148438 48.976562 1.949219 50.648438 L 2.28125 50.804688 C 2.765625 51.046875 3.492188 51.355469 4.527344 51.730469 C 5.453125 52.058594 6.664062 52.320312 8.117188 52.433594 L 8.117188 56.351562 C 9.8125 56.769531 11.417969 56.792969 12.980469 56.351562 L 12.980469 52.320312 C 13.953125 52.144531 14.789062 51.859375 15.472656 51.484375 C 16.242188 51.089844 16.878906 50.582031 17.363281 49.988281 C 17.847656 49.414062 18.203125 48.777344 18.398438 48.074219 C 18.617188 47.410156 18.730469 46.730469 18.730469 46.023438 C 18.730469 45.011719 18.53125 44.128906 18.179688 43.363281 C 17.828125 42.613281 17.320312 41.929688 16.683594 41.378906 " fill-opacity="1" fill-rule="nonzero"/></g><g clip-path="url(#0d6a153e5c)"><path fill="#ffde59" d="M 42.425781 25.070312 C 41.941406 23.785156 40.785156 22.808594 39.417969 22.714844 C 36.402344 22.507812 34.597656 25.300781 35.519531 27.730469 L 38.011719 34.320312 C 35.171875 33.96875 32.605469 32.097656 31.523438 29.238281 C 29.96875 25.132812 32.042969 20.523438 36.152344 18.96875 C 40.257812 17.414062 44.863281 19.492188 46.417969 23.597656 C 47.5 26.453125 46.824219 29.546875 44.933594 31.691406 Z M 69.765625 58.945312 L 70.871094 51.421875 L 66.382812 39.570312 C 65.78125 37.972656 64.203125 36.957031 62.496094 37.066406 L 47.34375 38.058594 L 46.351562 35.441406 C 50.121094 32.351562 51.699219 27.089844 49.882812 22.285156 C 47.605469 16.273438 40.855469 13.230469 34.839844 15.507812 C 28.824219 17.785156 25.785156 24.535156 28.0625 30.546875 C 29.882812 35.359375 34.558594 38.253906 39.429688 38.066406 L 46.425781 56.535156 L 34.164062 51.871094 C 32.761719 51.335938 31.144531 51.921875 30.429688 53.285156 C 29.65625 54.757812 30.222656 56.578125 31.695312 57.347656 L 50.464844 67.203125 L 53.414062 74.992188 C 53.421875 74.996094 73.027344 67.566406 73.027344 67.566406 L 69.765625 58.945312 " fill-opacity="1" fill-rule="nonzero"/></g><path fill="#f8c40f" d="M 29.855469 9.765625 C 30.335938 11.035156 31.761719 11.679688 33.035156 11.195312 C 34.308594 10.714844 34.953125 9.289062 34.46875 8.015625 L 32.152344 1.894531 C 31.667969 0.621094 30.246094 -0.0195312 28.972656 0.460938 C 27.695312 0.945312 27.054688 2.367188 27.535156 3.640625 L 29.855469 9.765625 " fill-opacity="1" fill-rule="nonzero"/><path fill="#f8c40f" d="M 45.914062 11.171875 C 46.535156 11.453125 47.210938 11.453125 47.800781 11.230469 C 48.390625 11.007812 48.894531 10.558594 49.175781 9.9375 L 51.867188 3.96875 C 52.425781 2.726562 51.875 1.269531 50.628906 0.707031 C 49.386719 0.148438 47.925781 0.699219 47.367188 1.941406 L 44.679688 7.90625 C 44.117188 9.152344 44.671875 10.613281 45.914062 11.171875 " fill-opacity="1" fill-rule="nonzero"/><path fill="#f8c40f" d="M 22.710938 17.058594 L 16.746094 14.367188 C 15.503906 13.808594 14.042969 14.359375 13.480469 15.601562 C 12.921875 16.84375 13.476562 18.308594 14.71875 18.867188 L 20.683594 21.554688 C 21.308594 21.835938 21.980469 21.835938 22.574219 21.613281 C 23.164062 21.390625 23.667969 20.941406 23.949219 20.320312 C 24.507812 19.078125 23.957031 17.617188 22.710938 17.058594 " fill-opacity="1" fill-rule="nonzero"/></svg>